<svg width="1024" height="1024" viewBox="0 0 1024 1024" fill="none" xmlns="http://www.w3.org/2000/svg">
<path d="M680.324 264.782C686.342 266.633 692.393 268.355 698.453 270.064C700.645 270.689 702.837 271.315 705.03 271.941C721.857 276.725 738.713 281.408 755.574 286.072C757.621 286.638 759.667 287.205 761.713 287.771C765.673 288.867 769.634 289.961 773.596 291.054C784.903 294.179 796.173 297.411 807.422 300.737C813.312 302.479 819.21 304.192 825.115 305.883C826.209 306.2 827.304 306.516 828.432 306.842C834.978 308.715 841.541 310.472 848.144 312.132C849.632 312.512 851.12 312.892 852.654 313.284C855.542 314.019 858.435 314.735 861.332 315.431C870.298 317.727 877.342 320.725 884.498 326.65C885.194 327.223 885.891 327.796 886.609 328.386C894.338 336.029 897.478 347.554 901.338 357.479C902.186 359.619 903.036 361.759 903.887 363.898C905.623 368.262 907.351 372.628 909.071 376.998C912.375 385.37 915.762 393.707 919.162 402.04C920.191 404.565 921.218 407.091 922.245 409.617C927.632 422.867 933.102 436.082 938.589 449.29C942.44 458.568 946.229 467.866 949.939 477.201C954.273 488.458 954.273 488.458 959.426 499.342C961.978 504.883 961.079 510.579 959.19 516.13C954.41 523.214 949.063 527.206 941.111 530.342C934.31 533.102 927.595 536.01 920.902 539.02C919.379 539.704 919.379 539.704 917.825 540.403C914.584 541.862 911.345 543.323 908.106 544.785C905.813 545.817 903.521 546.85 901.228 547.882C886.087 554.703 870.963 561.561 855.847 568.437C842.128 574.677 828.384 580.859 814.625 587.01C803.422 592.02 792.227 597.048 781.041 602.095C780.217 602.467 779.393 602.839 778.544 603.222C766.352 608.724 754.171 614.251 741.995 619.788C716.159 631.533 690.289 643.197 664.289 654.577C652.689 659.654 641.157 664.865 629.654 670.158C619.174 674.976 608.664 679.722 598.138 684.439C596.626 685.118 595.115 685.797 593.557 686.496C584.525 690.538 575.459 694.481 566.348 698.34C562.107 700.177 557.922 702.109 553.742 704.079C538.551 711.223 523.19 717.998 507.858 724.832C505.585 725.845 503.313 726.859 501.041 727.872C490.926 732.383 480.802 736.874 470.67 741.347C469.352 741.93 469.352 741.93 468.006 742.524C462.333 745.03 456.657 747.529 450.979 750.023C449.133 750.834 447.288 751.646 445.444 752.46C442.871 753.594 440.296 754.723 437.721 755.851C436.241 756.501 434.761 757.152 433.237 757.822C423.14 761.935 413.125 761.91 402.747 758.588C401.279 758.118 399.81 757.649 398.298 757.165C389.547 754.28 380.829 751.3 372.117 748.303C366.286 746.298 360.453 744.302 354.619 742.308C353.435 741.904 352.251 741.499 351.031 741.082C339.255 737.062 327.455 733.116 315.646 729.193C314.672 728.869 313.699 728.546 312.695 728.212C304.044 725.338 295.391 722.471 286.735 719.609C268.167 713.461 249.673 707.1 231.173 700.753C220.674 697.151 210.17 693.564 199.665 689.981C197.483 689.237 195.3 688.492 193.118 687.747C178.525 682.767 163.926 677.807 149.321 672.861C139.044 669.379 128.774 665.88 118.507 662.368C112.414 660.285 106.317 658.217 100.209 656.177C96.5173 654.938 92.8359 653.669 89.1532 652.403C87.935 652.005 86.7169 651.607 85.4619 651.197C76.6063 648.099 69.0343 643.326 63.9336 635.258C62.4109 627.273 62.4971 621.314 66.1141 613.888C69.9798 605.686 73.3302 597.324 76.6642 588.895C78.0268 585.466 79.3923 582.039 80.7584 578.612C81.1144 577.718 81.4704 576.824 81.8372 575.903C85.7481 566.098 89.7318 556.322 93.7133 546.545C99.8598 531.451 105.946 516.339 111.875 501.158C113.563 496.859 115.255 492.562 116.951 488.267C118.198 485.104 119.442 481.939 120.683 478.774C122.364 474.494 124.069 470.225 125.789 465.961C126.748 463.57 127.686 461.171 128.623 458.771C133.779 446.084 140.249 435.501 153.404 429.931C156.271 428.89 159.154 427.923 162.052 426.974C164.367 426.19 166.681 425.403 168.994 424.613C170.24 424.189 171.486 423.765 172.769 423.328C179.962 420.836 187.1 418.197 194.242 415.564C195.777 414.999 197.313 414.434 198.895 413.852C202.056 412.687 205.217 411.521 208.378 410.355C213.131 408.601 217.885 406.85 222.639 405.1C237.395 399.664 252.139 394.198 266.859 388.665C277.71 384.587 288.591 380.629 299.532 376.797C311.016 372.742 322.364 368.473 333.637 363.865C341.522 360.671 349.496 357.819 357.545 355.064C367.267 351.735 376.936 348.308 386.551 344.681C387.765 344.223 388.979 343.765 390.23 343.293C393.007 342.245 395.785 341.197 398.562 340.149C408.369 336.455 418.19 332.798 428.012 329.141C430.408 328.248 432.804 327.355 435.199 326.46C448.797 321.38 462.426 316.422 476.14 311.662C483.418 309.134 490.643 306.504 497.824 303.71C500.125 302.827 502.426 301.945 504.728 301.064C506.496 300.387 506.496 300.387 508.3 299.697C533.987 289.917 559.872 280.663 585.732 271.355C586.988 270.902 588.245 270.449 589.54 269.983C592.012 269.092 594.484 268.202 596.956 267.314C602.465 265.328 607.958 263.317 613.419 261.202C614.351 260.843 615.284 260.483 616.244 260.113C618.686 259.166 621.123 258.206 623.56 257.244C642.697 251.025 662.01 259.113 680.324 264.782Z" fill="#ACADAE"/>
<path d="M680.324 264.782C686.342 266.633 692.393 268.355 698.453 270.064C700.645 270.689 702.837 271.315 705.03 271.941C721.857 276.725 738.713 281.408 755.574 286.072C757.621 286.638 759.667 287.205 761.713 287.771C765.673 288.867 769.634 289.961 773.596 291.054C784.903 294.179 796.173 297.411 807.422 300.737C813.312 302.479 819.21 304.192 825.115 305.883C826.209 306.2 827.304 306.516 828.432 306.842C834.978 308.715 841.541 310.472 848.144 312.132C849.632 312.512 851.12 312.892 852.654 313.284C855.542 314.019 858.435 314.735 861.332 315.431C870.298 317.727 877.342 320.725 884.498 326.65C885.194 327.223 885.891 327.796 886.609 328.386C894.338 336.029 897.478 347.554 901.338 357.479C902.186 359.619 903.036 361.759 903.887 363.898C905.623 368.262 907.351 372.628 909.071 376.998C912.375 385.37 915.762 393.707 919.162 402.04C920.191 404.565 921.218 407.091 922.245 409.617C927.632 422.867 933.102 436.082 938.589 449.29C942.44 458.568 946.229 467.866 949.939 477.201C954.273 488.458 954.273 488.458 959.426 499.342C961.978 504.883 961.079 510.579 959.19 516.13C954.41 523.214 949.063 527.206 941.111 530.342C934.31 533.102 927.595 536.01 920.902 539.02C919.379 539.704 919.379 539.704 917.825 540.403C914.584 541.862 911.345 543.323 908.106 544.785C905.813 545.817 903.521 546.85 901.228 547.882C886.087 554.703 870.963 561.561 855.847 568.437C842.128 574.677 828.384 580.859 814.625 587.01C803.422 592.02 792.227 597.048 781.041 602.095C780.217 602.467 779.393 602.839 778.544 603.222C766.352 608.724 754.171 614.251 741.995 619.788C716.159 631.533 690.289 643.197 664.289 654.577C652.689 659.654 641.157 664.865 629.654 670.158C619.174 674.976 608.664 679.722 598.138 684.439C596.626 685.118 595.115 685.797 593.557 686.496C584.525 690.538 575.459 694.481 566.348 698.34C562.107 700.177 557.922 702.109 553.742 704.079C538.551 711.223 523.19 717.998 507.858 724.832C505.585 725.845 503.313 726.859 501.041 727.872C490.926 732.383 480.802 736.874 470.67 741.347C469.352 741.93 469.352 741.93 468.006 742.524C462.333 745.03 456.657 747.529 450.979 750.023C449.133 750.834 447.288 751.646 445.444 752.46C442.871 753.594 440.296 754.723 437.721 755.851C436.241 756.501 434.761 757.152 433.237 757.822C423.14 761.935 413.125 761.91 402.747 758.588C401.279 758.118 399.81 757.649 398.298 757.165C389.547 754.28 380.829 751.3 372.117 748.303C366.286 746.298 360.453 744.302 354.619 742.308C353.435 741.904 352.251 741.499 351.031 741.082C339.255 737.062 327.455 733.116 315.646 729.193C314.672 728.869 313.699 728.546 312.695 728.212C304.044 725.338 295.391 722.471 286.735 719.609C268.167 713.461 249.673 707.1 231.173 700.753C220.674 697.151 210.17 693.564 199.665 689.981C197.483 689.237 195.3 688.492 193.118 687.747C178.525 682.767 163.926 677.807 149.321 672.861C139.044 669.379 128.774 665.88 118.507 662.368C112.414 660.285 106.317 658.217 100.209 656.177C96.5173 654.938 92.8359 653.669 89.1532 652.403C87.935 652.005 86.7169 651.607 85.4619 651.197C76.6063 648.099 69.0343 643.326 63.9336 635.258C62.4109 627.273 62.4971 621.314 66.1141 613.888C69.9798 605.686 73.3302 597.324 76.6642 588.895C78.0268 585.466 79.3923 582.039 80.7584 578.612C81.1144 577.718 81.4704 576.824 81.8372 575.903C85.7481 566.098 89.7318 556.322 93.7133 546.545C99.8598 531.451 105.946 516.339 111.875 501.158C113.563 496.859 115.255 492.562 116.951 488.267C118.198 485.104 119.442 481.939 120.683 478.774C122.364 474.494 124.069 470.225 125.789 465.961C126.748 463.57 127.686 461.171 128.623 458.771C133.779 446.084 140.249 435.501 153.404 429.931C156.271 428.89 159.154 427.923 162.052 426.974C164.367 426.19 166.681 425.403 168.994 424.613C170.24 424.189 171.486 423.765 172.769 423.328C179.962 420.836 187.1 418.197 194.242 415.564C195.777 414.999 197.313 414.434 198.895 413.852C202.056 412.687 205.217 411.521 208.378 410.355C213.131 408.601 217.885 406.85 222.639 405.1C237.395 399.664 252.139 394.198 266.859 388.665C277.71 384.587 288.591 380.629 299.532 376.797C311.016 372.742 322.364 368.473 333.637 363.865C341.522 360.671 349.496 357.819 357.545 355.064C367.267 351.735 376.936 348.308 386.551 344.681C387.765 344.223 388.979 343.765 390.23 343.293C393.007 342.245 395.785 341.197 398.562 340.149C408.369 336.455 418.19 332.798 428.012 329.141C430.408 328.248 432.804 327.355 435.199 326.46C448.797 321.38 462.426 316.422 476.14 311.662C483.418 309.134 490.643 306.504 497.824 303.71C500.125 302.827 502.426 301.945 504.728 301.064C506.496 300.387 506.496 300.387 508.3 299.697C533.987 289.917 559.872 280.663 585.732 271.355C586.988 270.902 588.245 270.449 589.54 269.983C592.012 269.092 594.484 268.202 596.956 267.314C602.465 265.328 607.958 263.317 613.419 261.202C614.351 260.843 615.284 260.483 616.244 260.113C618.686 259.166 621.123 258.206 623.56 257.244C642.697 251.025 662.01 259.113 680.324 264.782ZM616.993 273.284C615.515 273.873 614.037 274.462 612.514 275.069C608.198 276.791 603.893 278.538 599.589 280.287C595.647 281.859 591.698 283.413 587.744 284.955C586.846 285.307 585.948 285.659 585.023 286.022C575.95 289.541 566.754 292.693 557.552 295.855C550.386 298.32 543.259 300.854 536.177 303.549C528.938 306.301 521.66 308.905 514.341 311.437C497.6 317.244 480.98 323.38 464.357 329.514C461.584 330.537 458.812 331.559 456.039 332.581C437.32 339.485 418.612 346.409 400.007 353.615C369.419 365.45 338.551 376.555 307.69 387.653C277.656 398.458 247.757 409.612 217.936 420.99C209.139 424.332 200.307 427.523 191.401 430.566C182.784 433.542 174.242 436.672 165.779 440.064C164.753 440.456 163.726 440.848 162.669 441.252C155.048 444.391 151.94 448.17 148.315 455.645C146.893 459.487 145.797 462.493 145.797 466.627C145.797 469.605 145.797 469.605 144.165 472.231C141.12 477.425 139.181 482.886 137.095 488.521C136.179 490.959 135.262 493.397 134.345 495.835C133.659 497.665 133.659 497.665 132.959 499.532C130.996 504.732 128.971 509.908 126.942 515.083C124.285 521.88 121.673 528.689 119.127 535.528C115.666 544.81 112.102 554.053 108.524 563.29C107.858 565.01 107.193 566.73 106.528 568.451C102.806 578.08 99.0431 587.69 95.1861 597.266C94.1928 599.744 93.2001 602.223 92.2075 604.702C91.2635 607.048 90.3062 609.388 89.3486 611.728C88.7839 613.138 88.2192 614.548 87.6374 616.001C87.135 617.237 86.6326 618.473 86.115 619.747C84.8435 623.001 84.8435 623.001 86.4942 626.726C90.1146 628.44 90.1146 628.44 94.6775 629.85C95.5361 630.139 96.3948 630.427 97.2794 630.724C99.1584 631.353 101.04 631.975 102.923 632.59C107.01 633.927 111.086 635.296 115.163 636.663C117.325 637.388 119.489 638.111 121.652 638.832C132.504 642.456 143.293 646.25 154.081 650.055C172.874 656.678 191.72 663.113 210.638 669.367C229.022 675.449 247.356 681.673 265.69 687.9C286.914 695.108 308.146 702.283 329.422 709.333C346.643 715.042 363.809 720.902 380.963 726.807C383.502 727.68 386.041 728.551 388.581 729.421C391.674 730.481 394.767 731.545 397.857 732.615C399.231 733.084 400.605 733.554 402.021 734.038C403.806 734.652 403.806 734.652 405.627 735.279C411.742 737.052 416.858 736.527 422.971 734.908C423.156 707.641 422.68 680.432 421.851 653.179C421.732 649.214 421.619 645.248 421.507 641.283C420.805 615.964 420.805 615.964 419.544 590.668C418.888 579.891 418.649 569.101 418.378 558.308C418.322 556.18 418.266 554.052 418.209 551.924C418.074 546.807 417.943 541.691 417.814 536.575C418.793 536.396 419.773 536.217 420.782 536.033C425.091 535.108 428.776 533.457 432.801 531.665C438.354 529.222 443.913 526.912 449.641 524.903C455.465 522.843 461.01 520.397 466.611 517.8C477.49 512.892 488.563 508.295 499.838 504.378C506.083 502.168 511.98 499.399 517.955 496.55C534.447 488.775 551.465 482.151 568.688 476.19C573.457 474.404 577.892 472.182 582.401 469.831C586.332 467.852 590.362 466.263 594.462 464.67C599.498 462.696 604.498 460.637 609.499 458.577C610.418 458.2 611.337 457.823 612.284 457.434C616.542 455.681 620.79 453.912 625.02 452.093C628.425 450.635 631.837 449.23 635.283 447.872C640.164 445.933 645.021 443.941 649.867 441.916C659.425 437.926 669.033 434.096 678.712 430.405C689.246 426.366 699.657 422.109 709.894 417.365C715.815 414.639 721.823 412.396 727.968 410.232C731.265 409.071 731.265 409.071 734.953 407.143C738.45 405.396 741.827 404.093 745.508 402.796C751.667 400.612 757.531 398.038 763.451 395.28C767.518 393.471 771.636 391.885 775.804 390.32C781.269 388.26 786.46 386.034 791.628 383.325C794.206 382.053 796.784 381.001 799.467 379.972C805.938 377.414 812.309 374.655 818.679 371.857C820.262 371.162 820.262 371.162 821.878 370.454C826.285 368.519 830.692 366.582 835.096 364.638C849.265 358.388 863.478 352.502 878.052 347.256C877.167 340.587 875.584 336.176 870.317 331.802C862.961 328.742 855.404 326.46 847.766 324.215C846.612 323.874 845.458 323.532 844.269 323.18C840.545 322.078 836.818 320.983 833.092 319.889C831.181 319.326 831.181 319.326 829.232 318.752C813.189 314.027 797.129 309.421 780.953 305.165C772.234 302.867 763.579 300.399 754.935 297.834C742.401 294.12 729.793 290.751 717.146 287.451C700.54 283.116 684.068 278.462 667.638 273.495C666.39 273.124 665.143 272.752 663.857 272.37C661.406 271.638 658.959 270.889 656.518 270.123C641.456 265.618 631.427 267.315 616.993 273.284Z" fill="#6B6C6D"/>
<path d="M870.347 331.993C873.749 335.077 876.625 337.685 878.052 342.105C878.052 343.805 878.052 345.505 878.052 347.256C875.097 348.731 872.451 349.755 869.33 350.753C867.422 351.414 865.516 352.081 863.612 352.754C862.6 353.111 861.588 353.467 860.546 353.834C855.259 355.781 850.113 358.036 844.956 360.301C843.895 360.765 842.833 361.23 841.74 361.708C838.479 363.138 835.221 364.574 831.964 366.011C827.62 367.92 823.276 369.826 818.931 371.731C817.897 372.185 816.864 372.639 815.799 373.106C807.799 376.611 799.753 379.993 791.677 383.317C783.158 386.893 774.677 390.537 766.296 394.425C760.54 397.064 754.707 399.278 748.741 401.393C741.42 404.011 734.202 406.774 727.298 410.362C722.205 412.988 716.935 414.828 711.536 416.726C707.993 418.047 704.613 419.542 701.192 421.148C694.401 424.316 687.462 426.894 680.431 429.465C675.94 431.125 671.593 432.853 667.351 435.074C662.935 437.318 658.708 438.788 654.006 440.27C651.237 441.243 648.757 442.406 646.16 443.767C641.074 446.418 635.838 448.297 630.433 450.201C625.192 452.11 620.072 454.277 614.933 456.444C611.55 457.863 608.155 459.238 604.745 460.59C591.154 465.865 591.154 465.865 577.995 472.1C572.619 474.856 567.008 476.84 561.339 478.909C551.749 482.455 542.314 486.372 532.873 490.292C532.081 490.62 531.288 490.949 530.472 491.288C525.147 493.5 519.824 495.719 514.503 497.938C511.689 499.109 508.876 500.279 506.062 501.45C501.352 503.409 496.645 505.379 491.942 507.356C487.052 509.398 482.145 511.385 477.217 513.332C476.086 513.78 474.955 514.228 473.79 514.689C471.551 515.574 469.31 516.455 467.067 517.331C462.101 519.293 457.254 521.323 452.501 523.761C447.416 526.368 442.203 528.367 436.829 530.296C430.238 532.634 430.238 532.634 423.877 535.518C421.681 536.575 421.681 536.575 417.814 536.575C417.969 542.753 418.13 548.932 418.294 555.11C418.349 557.2 418.403 559.29 418.455 561.381C418.723 572.036 419.051 582.673 419.707 593.312C420.73 610.277 421.109 627.276 421.591 644.263C421.703 648.214 421.82 652.164 421.94 656.113C422.739 682.388 423.15 708.621 422.971 734.908C412.021 737.808 403.702 735.118 393.319 731.044C390.526 728.253 391.506 721.95 391.345 718.07C391.292 716.864 391.238 715.658 391.183 714.415C390.533 698.974 390.291 683.523 390.029 668.071C389.962 664.209 389.889 660.346 389.815 656.483C389.788 654.746 389.788 654.746 389.761 652.975C389.663 647.979 389.471 643.081 388.81 638.125C388.158 633.127 387.897 628.257 387.755 623.22C387.728 622.283 387.701 621.347 387.673 620.382C387.589 617.318 387.512 614.255 387.438 611.191C387.41 610.139 387.383 609.087 387.355 608.003C386.723 583.336 386.742 558.672 386.874 533.999C385.308 533.822 383.742 533.645 382.129 533.463C377.945 532.939 374.013 532.177 369.963 530.975C368.773 530.626 367.583 530.276 366.357 529.916C365.098 529.537 363.838 529.158 362.54 528.767C361.198 528.369 359.855 527.972 358.471 527.562C347.168 524.2 335.902 520.719 324.634 517.239C305.359 511.296 286.046 505.571 266.496 500.595C254.889 497.637 243.481 494.219 232.058 490.622C216.407 485.753 200.586 481.507 184.757 477.261C172.039 473.832 159.528 470.073 147.086 465.741C149.222 450.063 149.222 450.063 155.712 444.582C162.601 440.55 169.122 440.643 176.737 442.559C178.081 443.159 179.426 443.758 180.811 444.376C186.705 447 192.846 448.163 199.136 449.482C208.648 451.559 217.991 453.856 227.301 456.697C237.455 459.779 247.709 462.48 257.962 465.212C277.48 470.417 277.48 470.417 281.564 472.181C285.832 473.768 290.094 474.526 294.571 475.32C297.92 476.044 297.92 476.044 301.405 477.206C308.075 479.425 314.896 481.056 321.707 482.783C322.773 483.058 323.839 483.333 324.937 483.616C325.908 483.862 326.878 484.109 327.877 484.363C330.15 485.059 330.15 485.059 331.439 486.347C334.088 486.956 336.75 487.509 339.416 488.038C345.689 489.343 351.799 490.807 357.948 492.626C367.143 495.342 376.439 497.527 385.786 499.661C386.911 499.921 388.036 500.181 389.195 500.449C390.714 500.794 390.714 500.794 392.264 501.146C394.609 501.802 394.609 501.802 395.898 503.09C408.931 504.779 418.886 501.384 430.615 496.459C435.028 494.646 439.518 493.048 444 491.418C449.629 489.357 455.071 487.133 460.513 484.622C468.827 480.805 477.298 477.441 485.818 474.113C486.611 473.801 487.404 473.49 488.221 473.17C498.614 469.095 509.016 465.313 519.649 461.913C524.469 460.268 528.985 458.193 533.583 456.017C539.135 453.505 544.778 451.252 550.439 448.999C551.472 448.587 552.506 448.174 553.572 447.75C559.531 445.386 565.509 443.074 571.499 440.789C579.95 437.548 588.334 434.151 596.712 430.725C617.399 422.27 638.176 414.052 658.986 405.905C665.333 403.42 671.677 400.928 678.022 398.437C682.485 396.684 686.949 394.933 691.413 393.182C697.127 390.941 702.841 388.697 708.555 386.451C726.368 379.451 744.193 372.481 762.025 365.528C763.703 364.874 763.703 364.874 765.415 364.207C777.615 359.45 789.819 354.701 802.03 349.973C804.109 349.168 806.187 348.363 808.265 347.557C812.098 346.072 815.932 344.59 819.767 343.109C820.65 342.767 821.533 342.425 822.443 342.072C824.181 341.399 825.92 340.73 827.66 340.063C832.282 338.277 836.826 336.385 841.34 334.343C842.312 333.914 843.283 333.484 844.284 333.042C846.137 332.218 847.98 331.37 849.809 330.495C857.336 327.182 863.038 327.849 870.347 331.993Z" fill="#FCFCFC"/>
<path d="M849.69 389.756C850.115 389.756 850.541 389.756 850.979 389.756C851.385 391.202 851.79 392.648 852.208 394.138C856.232 409.142 856.232 409.142 862.582 423.241C863.015 424.01 863.449 424.779 863.896 425.571C871.824 436.859 888.785 441.907 901.257 446.423C897.705 449.972 893.413 451.365 888.849 453.265C874.53 459.416 864.993 464.473 858.634 479.264C855.375 487.848 853.211 496.772 850.979 505.666C850.128 505.666 849.277 505.666 848.401 505.666C848.108 504.125 847.816 502.584 847.514 500.997C844.384 487.055 840.232 470.704 828.177 461.878C818.772 456.074 808.273 452.021 798.123 447.711C801.348 444.489 804.227 443.696 808.517 442.157C823.251 436.611 833.478 431.106 840.414 416.485C844.189 407.796 847.248 398.905 849.69 389.756Z" fill="#FCFCFC"/>
<path d="M196.075 312.484C196.926 312.484 197.776 312.484 198.653 312.484C199.284 314.58 199.284 314.58 199.927 316.72C200.496 318.581 201.065 320.442 201.634 322.304C202.047 323.681 202.047 323.681 202.468 325.086C205.545 336.146 205.545 336.146 213.584 343.735C215.391 344.611 217.209 345.462 219.038 346.29C220.391 346.943 220.391 346.943 221.77 347.609C226.856 350.023 231.937 352.039 237.329 353.696C232.114 357.169 226.367 359.272 220.544 361.529C210.815 365.565 206.364 371.919 202.324 381.526C200.622 386.322 199.553 391.194 198.653 396.196C197.802 396.196 196.951 396.196 196.075 396.196C195.684 394.813 195.294 393.43 194.891 392.005C190.937 376.311 190.937 376.311 180.363 364.804C172.991 360.938 165.173 357.942 157.399 354.984C161.855 351.179 166.812 349.229 172.225 347.176C179.866 344.462 179.866 344.462 187.05 340.817C188.316 337.224 188.316 337.224 188.899 334.549C190.05 330.217 191.876 326.174 193.622 322.052C194.803 318.876 195.499 315.817 196.075 312.484Z" fill="#787879"/>
<path d="M631.818 691.12C634.369 694.943 636.019 698.557 637.781 702.792C638.356 704.161 638.931 705.531 639.523 706.942C640.842 710.438 640.842 710.438 640.842 713.014C643.638 714.327 643.638 714.327 647.288 715.59C650.434 716.924 653.576 718.265 656.715 719.614C657.547 719.971 658.379 720.328 659.236 720.696C661.27 721.569 663.303 722.443 665.337 723.317C660.522 726.524 655.357 728.469 649.988 730.546C645.089 732.547 642.053 734.062 639.553 738.772C638.227 742.267 637.138 745.81 636.089 749.397C635.654 750.836 635.654 750.836 635.21 752.304C634.5 754.659 633.802 757.018 633.107 759.378C628.939 755.214 628.33 749.591 626.787 744.009C625.426 740.21 624.432 738.787 621.505 736.196C621.505 735.346 621.505 734.496 621.505 733.62C620.398 733.265 619.291 732.91 618.151 732.544C613.865 731.077 609.723 729.424 605.551 727.664C604.185 727.089 602.819 726.515 601.412 725.923C600.385 725.488 599.358 725.053 598.299 724.605C601.977 721.619 605.385 719.804 609.821 718.166C619.44 714.701 619.44 714.701 625.397 706.841C626.188 704.963 626.959 703.076 627.709 701.182C628.11 700.216 628.512 699.251 628.925 698.256C629.908 695.885 630.865 693.504 631.818 691.12Z" fill="#787878"/>
<path d="M417.814 536.575C419.09 537.212 419.09 537.212 420.392 537.863C420.53 541.242 420.505 544.477 420.362 547.849C420.33 548.847 420.298 549.846 420.264 550.875C420.158 554.077 420.034 557.279 419.909 560.481C419.834 562.647 419.76 564.812 419.687 566.978C419.506 572.299 419.309 577.619 419.103 582.938C418.678 582.938 418.252 582.938 417.814 582.938C417.814 567.638 417.814 552.338 417.814 536.575Z" fill="#959697"/>
<path d="M421.681 696.272C422.107 696.272 422.532 696.272 422.971 696.272C422.971 709.022 422.971 721.772 422.971 734.908C422.545 734.908 422.12 734.908 421.681 734.908C421.681 722.158 421.681 709.408 421.681 696.272Z" fill="#B5B7B7"/>
<path d="M420.392 652.484C420.818 652.484 421.243 652.484 421.681 652.484C421.681 662.259 421.681 672.034 421.681 682.105C421.256 682.105 420.831 682.105 420.392 682.105C420.392 672.33 420.392 662.555 420.392 652.484Z" fill="#CDCDCD"/>
<path d="M417.814 559.756C418.239 559.756 418.665 559.756 419.103 559.756C419.103 567.406 419.103 575.056 419.103 582.938C418.678 582.938 418.252 582.938 417.814 582.938C417.814 575.288 417.814 567.638 417.814 559.756Z" fill="#C3C5C4"/>
<path d="M395.898 356.272C396.323 356.272 396.749 356.272 397.187 356.272C397.187 360.947 397.187 365.622 397.187 370.438C396.762 370.438 396.336 370.438 395.898 370.438C395.898 365.763 395.898 361.088 395.898 356.272Z" fill="#DCDCDC"/>
<path d="M408.79 734.908C411.768 734.908 414.746 734.908 417.814 734.908C417.814 735.333 417.814 735.758 417.814 736.196C414.836 736.196 411.858 736.196 408.79 736.196C408.79 735.771 408.79 735.346 408.79 734.908Z" fill="#B9BAB9"/>
<path d="M957.981 506.953C958.407 506.953 958.832 506.953 959.27 506.953C959.27 509.078 959.27 511.203 959.27 513.393C958.845 513.393 958.419 513.393 957.981 513.393C957.981 511.268 957.981 509.143 957.981 506.953Z" fill="#373837"/>
<path d="M848.401 500.514C849.252 502.214 850.102 503.914 850.979 505.666C850.128 505.666 849.277 505.666 848.401 505.666C848.401 503.966 848.401 502.266 848.401 500.514Z" fill="#B6B8B9"/>
<path d="M419.103 759.378C424.26 760.666 424.26 760.666 424.26 760.666L419.103 759.378Z" fill="#9C9E9F"/>
<path d="M63.289 620.287C64.5782 625.438 64.5782 625.438 64.5782 625.438L63.289 620.287Z" fill="#7D7F7E"/>
<path d="M196.075 393.62C196.926 393.62 197.776 393.62 198.653 393.62C198.653 394.47 198.653 395.32 198.653 396.196C197.802 396.196 196.951 396.196 196.075 396.196C196.075 395.346 196.075 394.496 196.075 393.62Z" fill="#BABBBB"/>
<path d="M648.577 255.817C653.734 257.105 653.734 257.105 653.734 257.105L648.577 255.817Z" fill="#DFDEDE"/>
<path d="M406.211 759.378C410.079 760.666 410.079 760.666 410.079 760.666L406.211 759.378Z" fill="#CCCECE"/>
<path d="M361.09 742.635C364.957 743.923 364.957 743.923 364.957 743.923L361.09 742.635Z" fill="#414141"/>
<path d="M126.459 662.787C130.326 664.075 130.326 664.075 130.326 664.075L126.459 662.787Z" fill="#414140"/>
<path d="M80.0483 648.62C83.9159 649.908 83.9159 649.908 83.9159 649.908L80.0483 648.62Z" fill="#DCDCDD"/>
<path d="M693.699 421.953C697.566 423.241 697.566 423.241 697.566 423.241L693.699 421.953Z" fill="#C7C8C8"/>
<path d="M196.075 312.484C197.351 313.121 197.351 313.121 198.653 313.772C197.377 314.409 197.377 314.409 196.075 315.059C196.075 314.209 196.075 313.359 196.075 312.484Z" fill="#B9B9B9"/>
<path d="M426.838 758.09C429.417 759.378 429.417 759.378 429.417 759.378L426.838 758.09Z" fill="#A9A8A9"/>
<path d="M411.368 758.09C413.946 759.378 413.946 759.378 413.946 759.378L411.368 758.09Z" fill="#3D3E3E"/>
<path d="M399.765 756.802C402.344 758.09 402.344 758.09 402.344 758.09L399.765 756.802Z" fill="#868788"/>
<path d="M434.573 755.514C437.152 756.802 437.152 756.802 437.152 756.802L434.573 755.514Z" fill="#EBEBEC"/>
<path d="M441.019 752.938C443.598 754.226 443.598 754.226 443.598 754.226L441.019 752.938Z" fill="#EAE9EA"/>
<path d="M443.598 751.65C446.176 752.938 446.176 752.938 446.176 752.938L443.598 751.65Z" fill="#E5E5E5"/>
<path d="M446.176 750.363C448.754 751.65 448.754 751.65 448.754 751.65L446.176 750.363Z" fill="#DFDFE0"/>
<path d="M366.247 745.211C368.825 746.499 368.825 746.499 368.825 746.499L366.247 745.211Z" fill="#858787"/>
<path d="M462.935 741.347C465.514 742.635 465.514 742.635 465.514 742.635L462.935 741.347Z" fill="#3D3D3C"/>
<path d="M346.909 738.772C349.487 740.06 349.487 740.06 349.487 740.06L346.909 738.772Z" fill="#838484"/>
<path d="M478.405 736.196C480.984 737.484 480.984 737.484 480.984 737.484L478.405 736.196Z" fill="#E9E9EA"/>
<path d="M335.306 734.908C337.885 736.196 337.885 736.196 337.885 736.196L335.306 734.908Z" fill="#8E8F8F"/>
<path d="M404.922 733.62C407.5 734.908 407.5 734.908 407.5 734.908L404.922 733.62Z" fill="#BEBFBF"/>
<path d="M399.765 733.62C402.344 734.908 402.344 734.908 402.344 734.908L399.765 733.62Z" fill="#3C3D3D"/>
<path d="M331.439 733.62C334.017 734.908 334.017 734.908 334.017 734.908L331.439 733.62Z" fill="#999A9A"/>
<path d="M401.055 732.332C403.633 733.62 403.633 733.62 403.633 733.62L401.055 732.332Z" fill="#D4D4D4"/>
<path d="M327.571 732.332C330.15 733.62 330.15 733.62 330.15 733.62L327.571 732.332Z" fill="#838484"/>
<path d="M490.008 731.044C492.586 732.332 492.586 732.332 492.586 732.332L490.008 731.044Z" fill="#E2E2E2"/>
<path d="M323.704 731.044C326.282 732.332 326.282 732.332 326.282 732.332L323.704 731.044Z" fill="#8F9190"/>
<path d="M393.319 729.757C395.898 731.044 395.898 731.044 395.898 731.044L393.319 729.757Z" fill="#B8B7B7"/>
<path d="M319.836 729.757C322.414 731.044 322.414 731.044 322.414 731.044L319.836 729.757Z" fill="#919291"/>
<path d="M651.156 728.469C653.734 729.757 653.734 729.757 653.734 729.757L651.156 728.469Z" fill="#B6B5B7"/>
<path d="M315.969 728.469C318.547 729.757 318.547 729.757 318.547 729.757L315.969 728.469Z" fill="#7A7B7B"/>
<path d="M655.023 727.181C657.602 728.469 657.602 728.469 657.602 728.469L655.023 727.181Z" fill="#C5C4C5"/>
<path d="M310.812 727.181C313.39 728.469 313.39 728.469 313.39 728.469L310.812 727.181Z" fill="#C1C0C2"/>
<path d="M658.891 725.893C661.469 727.181 661.469 727.181 661.469 727.181L658.891 725.893Z" fill="#CBCBCC"/>
<path d="M603.456 725.893C606.034 727.181 606.034 727.181 606.034 727.181L603.456 725.893Z" fill="#ACADAC"/>
<path d="M501.611 725.893C504.189 727.181 504.189 727.181 504.189 727.181L501.611 725.893Z" fill="#E5E5E6"/>
<path d="M661.469 724.605C664.048 725.893 664.048 725.893 664.048 725.893L661.469 724.605Z" fill="#BDBDBE"/>
<path d="M599.589 724.605C602.167 725.893 602.167 725.893 602.167 725.893L599.589 724.605Z" fill="#BBBCBD"/>
<path d="M304.366 724.605C306.944 725.893 306.944 725.893 306.944 725.893L304.366 724.605Z" fill="#8D8E8E"/>
<path d="M300.498 723.317C303.077 724.605 303.077 724.605 303.077 724.605L300.498 723.317Z" fill="#818484"/>
<path d="M662.758 722.029C665.337 723.317 665.337 723.317 665.337 723.317L662.758 722.029Z" fill="#BDBDBD"/>
<path d="M598.299 722.029C600.878 723.317 600.878 723.317 600.878 723.317L598.299 722.029Z" fill="#C4C5C6"/>
<path d="M296.631 722.029C299.209 723.317 299.209 723.317 299.209 723.317L296.631 722.029Z" fill="#848686"/>
<path d="M658.891 720.741C661.469 722.029 661.469 722.029 661.469 722.029L658.891 720.741Z" fill="#BEBDBE"/>
<path d="M603.456 720.741C606.034 722.029 606.034 722.029 606.034 722.029L603.456 720.741Z" fill="#A4A6A5"/>
<path d="M513.213 720.741C515.792 722.029 515.792 722.029 515.792 722.029L513.213 720.741Z" fill="#EEEDED"/>
<path d="M655.023 719.453C657.602 720.741 657.602 720.741 657.602 720.741L655.023 719.453Z" fill="#CECECE"/>
<path d="M606.034 719.453C608.613 720.741 608.613 720.741 608.613 720.741L606.034 719.453Z" fill="#C2C2C3"/>
<path d="M290.185 719.453C292.763 720.741 292.763 720.741 292.763 720.741L290.185 719.453Z" fill="#666666"/>
<path d="M651.156 718.166C653.734 719.453 653.734 719.453 653.734 719.453L651.156 718.166Z" fill="#AFAEAE"/>
<path d="M609.902 718.166C612.48 719.453 612.48 719.453 612.48 719.453L609.902 718.166Z" fill="#A3A2A2"/>
<path d="M281.161 716.878C283.739 718.166 283.739 718.166 283.739 718.166L281.161 716.878Z" fill="#9C9D9E"/>
<path d="M616.348 715.59C618.926 716.878 618.926 716.878 618.926 716.878L616.348 715.59Z" fill="#888A89"/>
<path d="M527.394 714.302C529.973 715.59 529.973 715.59 529.973 715.59L527.394 714.302Z" fill="#EDECED"/>
<path d="M261.823 710.438C264.401 711.726 264.401 711.726 264.401 711.726L261.823 710.438Z" fill="#BCBCBC"/>
<path d="M255.377 707.863C257.955 709.15 257.955 709.15 257.955 709.15L255.377 707.863Z" fill="#7C7D7C"/>
<path d="M550.6 703.999C553.178 705.287 553.178 705.287 553.178 705.287L550.6 703.999Z" fill="#EDECED"/>
<path d="M243.774 703.999C246.353 705.287 246.353 705.287 246.353 705.287L243.774 703.999Z" fill="#7F8082"/>
<path d="M238.618 701.423C241.196 702.711 241.196 702.711 241.196 702.711L238.618 701.423Z" fill="#414041"/>
<path d="M564.781 697.56C567.359 698.847 567.359 698.847 567.359 698.847L564.781 697.56Z" fill="#EAEBEC"/>
<path d="M216.702 694.984C219.28 696.272 219.28 696.272 219.28 696.272L216.702 694.984Z" fill="#B9B9BA"/>
<path d="M205.099 691.12C207.677 692.408 207.677 692.408 207.677 692.408L205.099 691.12Z" fill="#A3A4A5"/>
<path d="M585.408 688.544C587.986 689.832 587.986 689.832 587.986 689.832L585.408 688.544Z" fill="#E7E6E7"/>
<path d="M587.986 687.256C590.564 688.544 590.564 688.544 590.564 688.544L587.986 687.256Z" fill="#E9E9EA"/>
<path d="M194.786 687.256C197.364 688.544 197.364 688.544 197.364 688.544L194.786 687.256Z" fill="#878989"/>
<path d="M599.589 682.105C602.167 683.393 602.167 683.393 602.167 683.393L599.589 682.105Z" fill="#E5E5E6"/>
<path d="M179.315 682.105C181.894 683.393 181.894 683.393 181.894 683.393L179.315 682.105Z" fill="#7D7E7F"/>
<path d="M613.77 675.666C616.348 676.953 616.348 676.953 616.348 676.953L613.77 675.666Z" fill="#EAEAEB"/>
<path d="M161.267 675.666C163.845 676.953 163.845 676.953 163.845 676.953L161.267 675.666Z" fill="#7D7F7F"/>
<path d="M157.399 674.378C159.978 675.666 159.978 675.666 159.978 675.666L157.399 674.378Z" fill="#808180"/>
<path d="M153.532 673.09C156.11 674.378 156.11 674.378 156.11 674.378L153.532 673.09Z" fill="#858686"/>
<path d="M141.929 669.226C144.507 670.514 144.507 670.514 144.507 670.514L141.929 669.226Z" fill="#8B8D8C"/>
<path d="M114.856 658.923C117.435 660.211 117.435 660.211 117.435 660.211L114.856 658.923Z" fill="#414040"/>
<path d="M653.734 657.635C656.313 658.923 656.313 658.923 656.313 658.923L653.734 657.635Z" fill="#ECECED"/>
<path d="M108.41 657.635C110.989 658.923 110.989 658.923 110.989 658.923L108.41 657.635Z" fill="#888A89"/>
<path d="M656.313 656.347C658.891 657.635 658.891 657.635 658.891 657.635L656.313 656.347Z" fill="#DDDDDE"/>
<path d="M665.337 652.484C667.915 653.772 667.915 653.772 667.915 653.772L665.337 652.484Z" fill="#E8E9E9"/>
<path d="M94.2293 652.484C96.8077 653.772 96.8077 653.772 96.8077 653.772L94.2293 652.484Z" fill="#868889"/>
<path d="M90.3618 651.196C92.9402 652.484 92.9402 652.484 92.9402 652.484L90.3618 651.196Z" fill="#868888"/>
<path d="M676.939 647.332C679.518 648.62 679.518 648.62 679.518 648.62L676.939 647.332Z" fill="#DCDCDC"/>
<path d="M697.566 638.317C700.145 639.605 700.145 639.605 700.145 639.605L697.566 638.317Z" fill="#EEEEEF"/>
<path d="M700.145 637.029C702.723 638.317 702.723 638.317 702.723 638.317L700.145 637.029Z" fill="#E8E7E8"/>
<path d="M728.507 624.15C731.085 625.438 731.085 625.438 731.085 625.438L728.507 624.15Z" fill="#E7E8E9"/>
<path d="M756.869 611.272C759.447 612.56 759.447 612.56 759.447 612.56L756.869 611.272Z" fill="#E7E7E8"/>
<path d="M780.074 600.969C782.652 602.256 782.652 602.256 782.652 602.256L780.074 600.969Z" fill="#E7E6E7"/>
<path d="M791.677 595.817C794.255 597.105 794.255 597.105 794.255 597.105L791.677 595.817Z" fill="#F0EFF0"/>
<path d="M831.641 577.787C834.22 579.075 834.22 579.075 834.22 579.075L831.641 577.787Z" fill="#ECECED"/>
<path d="M860.003 564.908C862.582 566.196 862.582 566.196 862.582 566.196L860.003 564.908Z" fill="#EFEFEF"/>
<path d="M862.582 563.62C865.16 564.908 865.16 564.908 865.16 564.908L862.582 563.62Z" fill="#E2E3E5"/>
<path d="M871.606 559.756C874.184 561.044 874.184 561.044 874.184 561.044L871.606 559.756Z" fill="#EDEDEE"/>
<path d="M885.787 553.317C888.365 554.605 888.365 554.605 888.365 554.605L885.787 553.317Z" fill="#E6E7E9"/>
<path d="M923.173 536.575C925.752 537.863 925.752 537.863 925.752 537.863L923.173 536.575Z" fill="#EBEBEB"/>
<path d="M424.26 533.999C426.838 535.287 426.838 535.287 426.838 535.287L424.26 533.999Z" fill="#989A9B"/>
<path d="M426.838 532.711C429.417 533.999 429.417 533.999 429.417 533.999L426.838 532.711Z" fill="#8B8B8B"/>
<path d="M429.417 531.423C431.995 532.711 431.995 532.711 431.995 532.711L429.417 531.423Z" fill="#929493"/>
<path d="M939.933 528.847C942.511 530.135 942.511 530.135 942.511 530.135L939.933 528.847Z" fill="#E8E7E8"/>
<path d="M435.862 528.847C438.441 530.135 438.441 530.135 438.441 530.135L435.862 528.847Z" fill="#8C8F8E"/>
<path d="M442.308 526.272C444.887 527.559 444.887 527.559 444.887 527.559L442.308 526.272Z" fill="#8F9091"/>
<path d="M444.887 524.984C447.465 526.272 447.465 526.272 447.465 526.272L444.887 524.984Z" fill="#A2A3A3"/>
<path d="M448.754 523.696C451.333 524.984 451.333 524.984 451.333 524.984L448.754 523.696Z" fill="#848686"/>
<path d="M451.333 522.408C453.911 523.696 453.911 523.696 453.911 523.696L451.333 522.408Z" fill="#9EA0A0"/>
<path d="M453.911 521.12C456.489 522.408 456.489 522.408 456.489 522.408L453.911 521.12Z" fill="#9FA1A0"/>
<path d="M457.779 519.832C460.357 521.12 460.357 521.12 460.357 521.12L457.779 519.832Z" fill="#A2A3A4"/>
<path d="M464.224 517.256C466.803 518.544 466.803 518.544 466.803 518.544L464.224 517.256Z" fill="#8B8D8E"/>
<path d="M466.803 515.969C469.381 517.256 469.381 517.256 469.381 517.256L466.803 515.969Z" fill="#B2B3B5"/>
<path d="M470.67 514.681C473.249 515.969 473.249 515.969 473.249 515.969L470.67 514.681Z" fill="#949597"/>
<path d="M479.695 510.817C482.273 512.105 482.273 512.105 482.273 512.105L479.695 510.817Z" fill="#A8AAAA"/>
<path d="M486.141 508.241C488.719 509.529 488.719 509.529 488.719 509.529L486.141 508.241Z" fill="#888989"/>
<path d="M492.586 505.666C495.165 506.953 495.165 506.953 495.165 506.953L492.586 505.666Z" fill="#9C9D9E"/>
<path d="M495.165 504.378C497.743 505.666 497.743 505.666 497.743 505.666L495.165 504.378Z" fill="#9E9F9F"/>
<path d="M499.032 503.09C501.611 504.378 501.611 504.378 501.611 504.378L499.032 503.09Z" fill="#9A9A9C"/>
<path d="M501.611 501.802C504.189 503.09 504.189 503.09 504.189 503.09L501.611 501.802Z" fill="#A8AAAA"/>
<path d="M504.189 500.514C506.767 501.802 506.767 501.802 506.767 501.802L504.189 500.514Z" fill="#BCBCBD"/>
<path d="M508.057 499.226C510.635 500.514 510.635 500.514 510.635 500.514L508.057 499.226Z" fill="#9FA0A0"/>
<path d="M510.635 497.938C513.213 499.226 513.213 499.226 513.213 499.226L510.635 497.938Z" fill="#B5B6B7"/>
<path d="M514.503 496.65C517.081 497.938 517.081 497.938 517.081 497.938L514.503 496.65Z" fill="#858788"/>
<path d="M517.081 495.363C519.659 496.65 519.659 496.65 519.659 496.65L517.081 495.363Z" fill="#919294"/>
<path d="M520.948 494.075C523.527 495.363 523.527 495.363 523.527 495.363L520.948 494.075Z" fill="#969798"/>
<path d="M523.527 492.787C526.105 494.075 526.105 494.075 526.105 494.075L523.527 492.787Z" fill="#838686"/>
<path d="M526.105 491.499C528.684 492.787 528.684 492.787 528.684 492.787L526.105 491.499Z" fill="#8C8E8E"/>
<path d="M532.551 488.923C535.129 490.211 535.129 490.211 535.129 490.211L532.551 488.923Z" fill="#949595"/>
<path d="M536.419 487.635C538.997 488.923 538.997 488.923 538.997 488.923L536.419 487.635Z" fill="#969898"/>
<path d="M538.997 486.347C541.575 487.635 541.575 487.635 541.575 487.635L538.997 486.347Z" fill="#949696"/>
<path d="M545.443 483.772C548.021 485.059 548.021 485.059 548.021 485.059L545.443 483.772Z" fill="#8B8D8D"/>
<path d="M548.021 482.484C550.6 483.772 550.6 483.772 550.6 483.772L548.021 482.484Z" fill="#AEAFB0"/>
<path d="M554.467 479.908C557.046 481.196 557.046 481.196 557.046 481.196L554.467 479.908Z" fill="#9FA1A1"/>
<path d="M557.046 478.62C559.624 479.908 559.624 479.908 559.624 479.908L557.046 478.62Z" fill="#B8B9BA"/>
<path d="M560.913 477.332C563.491 478.62 563.491 478.62 563.491 478.62L560.913 477.332Z" fill="#A7A9AA"/>
<path d="M567.359 474.756C569.937 476.044 569.937 476.044 569.937 476.044L567.359 474.756Z" fill="#8A8C8D"/>
<path d="M569.937 473.469C572.516 474.756 572.516 474.756 572.516 474.756L569.937 473.469Z" fill="#9C9E9F"/>
<path d="M573.805 472.181C576.383 473.469 576.383 473.469 576.383 473.469L573.805 472.181Z" fill="#7F8183"/>
<path d="M576.383 470.893C578.962 472.181 578.962 472.181 578.962 472.181L576.383 470.893Z" fill="#88898A"/>
<path d="M585.408 467.029C587.986 468.317 587.986 468.317 587.986 468.317L585.408 467.029Z" fill="#959898"/>
<path d="M591.853 464.453C594.432 465.741 594.432 465.741 594.432 465.741L591.853 464.453Z" fill="#A3A4A5"/>
<path d="M594.432 463.166C597.01 464.453 597.01 464.453 597.01 464.453L594.432 463.166Z" fill="#BABBBD"/>
<path d="M598.299 461.878C600.878 463.166 600.878 463.166 600.878 463.166L598.299 461.878Z" fill="#A2A4A5"/>
<path d="M600.878 460.59C603.456 461.878 603.456 461.878 603.456 461.878L600.878 460.59Z" fill="#999A9A"/>
<path d="M604.745 459.302C607.324 460.59 607.324 460.59 607.324 460.59L604.745 459.302Z" fill="#999B9A"/>
<path d="M607.324 458.014C609.902 459.302 609.902 459.302 609.902 459.302L607.324 458.014Z" fill="#ACAEAF"/>
<path d="M611.191 456.726C613.77 458.014 613.77 458.014 613.77 458.014L611.191 456.726Z" fill="#969899"/>
<path d="M613.77 455.438C616.348 456.726 616.348 456.726 616.348 456.726L613.77 455.438Z" fill="#A8AAAA"/>
<path d="M816.171 454.15C818.749 455.438 818.749 455.438 818.749 455.438L816.171 454.15Z" fill="#E8E8E9"/>
<path d="M617.637 454.15C620.215 455.438 620.215 455.438 620.215 455.438L617.637 454.15Z" fill="#969899"/>
<path d="M620.215 452.862C622.794 454.15 622.794 454.15 622.794 454.15L620.215 452.862Z" fill="#A1A3A3"/>
<path d="M888.365 451.575C890.944 452.862 890.944 452.862 890.944 452.862L888.365 451.575Z" fill="#848888"/>
<path d="M809.725 451.575C812.304 452.862 812.304 452.862 812.304 452.862L809.725 451.575Z" fill="#D8D7D7"/>
<path d="M622.794 451.575C625.372 452.862 625.372 452.862 625.372 452.862L622.794 451.575Z" fill="#B7B8B9"/>
<path d="M807.147 450.287C809.725 451.575 809.725 451.575 809.725 451.575L807.147 450.287Z" fill="#E8E7E6"/>
<path d="M626.661 450.287C629.24 451.575 629.24 451.575 629.24 451.575L626.661 450.287Z" fill="#9C9E9D"/>
<path d="M894.811 448.999C897.39 450.287 897.39 450.287 897.39 450.287L894.811 448.999Z" fill="#868788"/>
<path d="M803.279 448.999C805.858 450.287 805.858 450.287 805.858 450.287L803.279 448.999Z" fill="#B4B3B4"/>
<path d="M629.24 448.999C631.818 450.287 631.818 450.287 631.818 450.287L629.24 448.999Z" fill="#9EA09F"/>
<path d="M798.123 447.711C800.701 448.999 800.701 448.999 800.701 448.999L798.123 447.711Z" fill="#9E9EA0"/>
<path d="M631.818 447.711C634.396 448.999 634.396 448.999 634.396 448.999L631.818 447.711Z" fill="#B0B1B1"/>
<path d="M635.686 446.423C638.264 447.711 638.264 447.711 638.264 447.711L635.686 446.423Z" fill="#A1A3A2"/>
<path d="M898.679 445.135C901.257 446.423 901.257 446.423 901.257 446.423L898.679 445.135Z" fill="#9C9F9F"/>
<path d="M800.701 445.135C803.279 446.423 803.279 446.423 803.279 446.423L800.701 445.135Z" fill="#D0D1D1"/>
<path d="M638.264 445.135C640.842 446.423 640.842 446.423 640.842 446.423L638.264 445.135Z" fill="#B6B6B7"/>
<path d="M803.279 443.847C805.858 445.135 805.858 445.135 805.858 445.135L803.279 443.847Z" fill="#C9C9CA"/>
<path d="M642.132 443.847C644.71 445.135 644.71 445.135 644.71 445.135L642.132 443.847Z" fill="#A0A1A2"/>
<path d="M890.944 442.559C893.522 443.847 893.522 443.847 893.522 443.847L890.944 442.559Z" fill="#898B8A"/>
<path d="M807.147 442.559C809.725 443.847 809.725 443.847 809.725 443.847L807.147 442.559Z" fill="#C6C6C8"/>
<path d="M644.71 442.559C647.288 443.847 647.288 443.847 647.288 443.847L644.71 442.559Z" fill="#B1B2B2"/>
<path d="M159.978 442.559C162.556 443.847 162.556 443.847 162.556 443.847L159.978 442.559Z" fill="#DDDEDE"/>
<path d="M809.725 441.272C812.304 442.559 812.304 442.559 812.304 442.559L809.725 441.272Z" fill="#ADADAF"/>
<path d="M647.288 441.272C649.867 442.559 649.867 442.559 649.867 442.559L647.288 441.272Z" fill="#BEBEBE"/>
<path d="M884.498 439.984C887.076 441.272 887.076 441.272 887.076 441.272L884.498 439.984Z" fill="#8A8D8D"/>
<path d="M813.593 439.984C816.171 441.272 816.171 441.272 816.171 441.272L813.593 439.984Z" fill="#DEDEE0"/>
<path d="M651.156 439.984C653.734 441.272 653.734 441.272 653.734 441.272L651.156 439.984Z" fill="#A1A2A2"/>
<path d="M653.734 438.696C656.313 439.984 656.313 439.984 656.313 439.984L653.734 438.696Z" fill="#B3B4B5"/>
<path d="M657.602 437.408C660.18 438.696 660.18 438.696 660.18 438.696L657.602 437.408Z" fill="#A6A8A9"/>
<path d="M660.18 436.12C662.758 437.408 662.758 437.408 662.758 437.408L660.18 436.12Z" fill="#BBBCBD"/>
<path d="M664.048 434.832C666.626 436.12 666.626 436.12 666.626 436.12L664.048 434.832Z" fill="#A5A6A6"/>
<path d="M666.626 433.544C669.204 434.832 669.204 434.832 669.204 434.832L666.626 433.544Z" fill="#B8B9BA"/>
<path d="M673.072 430.969C675.65 432.256 675.65 432.256 675.65 432.256L673.072 430.969Z" fill="#A6A7A7"/>
<path d="M675.65 429.681C678.229 430.969 678.229 430.969 678.229 430.969L675.65 429.681Z" fill="#B0B1B0"/>
<path d="M678.229 428.393C680.807 429.681 680.807 429.681 680.807 429.681L678.229 428.393Z" fill="#C3C3C3"/>
<path d="M682.096 427.105C684.675 428.393 684.675 428.393 684.675 428.393L682.096 427.105Z" fill="#A8A9A9"/>
<path d="M684.675 425.817C687.253 427.105 687.253 427.105 687.253 427.105L684.675 425.817Z" fill="#B9BABB"/>
<path d="M688.542 424.529C691.12 425.817 691.12 425.817 691.12 425.817L688.542 424.529Z" fill="#ADAEAE"/>
<path d="M691.12 423.241C693.699 424.529 693.699 424.529 693.699 424.529L691.12 423.241Z" fill="#BABABB"/>
<path d="M697.566 420.666C700.145 421.953 700.145 421.953 700.145 421.953L697.566 420.666Z" fill="#B6B6B7"/>
<path d="M179.315 420.666C181.894 421.953 181.894 421.953 181.894 421.953L179.315 420.666Z" fill="#888888"/>
<path d="M700.145 419.378C702.723 420.666 702.723 420.666 702.723 420.666L700.145 419.378Z" fill="#C0C1C0"/>
<path d="M183.183 419.378C185.761 420.666 185.761 420.666 185.761 420.666L183.183 419.378Z" fill="#7E7E7E"/>
<path d="M704.012 418.09C706.591 419.378 706.591 419.378 706.591 419.378L704.012 418.09Z" fill="#B9B9B7"/>
<path d="M707.88 416.802C710.458 418.09 710.458 418.09 710.458 418.09L707.88 416.802Z" fill="#9FA09F"/>
<path d="M710.458 415.514C713.037 416.802 713.037 416.802 713.037 416.802L710.458 415.514Z" fill="#B1B2B2"/>
<path d="M716.904 412.938C719.482 414.226 719.482 414.226 719.482 414.226L716.904 412.938Z" fill="#A9AAAB"/>
<path d="M719.482 411.65C722.061 412.938 722.061 412.938 722.061 412.938L719.482 411.65Z" fill="#BABBBD"/>
<path d="M723.35 410.362C725.928 411.65 725.928 411.65 725.928 411.65L723.35 410.362Z" fill="#A2A3A4"/>
<path d="M725.928 409.075C728.507 410.362 728.507 410.362 728.507 410.362L725.928 409.075Z" fill="#AAAAAB"/>
<path d="M728.507 407.787C731.085 409.075 731.085 409.075 731.085 409.075L728.507 407.787Z" fill="#BDBDBD"/>
<path d="M732.374 406.499C734.953 407.787 734.953 407.787 734.953 407.787L732.374 406.499Z" fill="#A0A1A1"/>
<path d="M217.991 406.499C220.569 407.787 220.569 407.787 220.569 407.787L217.991 406.499Z" fill="#6A6A6A"/>
<path d="M734.953 405.211C737.531 406.499 737.531 406.499 737.531 406.499L734.953 405.211Z" fill="#B2B4B4"/>
<path d="M738.82 403.923C741.399 405.211 741.399 405.211 741.399 405.211L738.82 403.923Z" fill="#A5A6A8"/>
<path d="M741.399 402.635C743.977 403.923 743.977 403.923 743.977 403.923L741.399 402.635Z" fill="#B4B5B6"/>
<path d="M745.266 401.347C747.844 402.635 747.844 402.635 747.844 402.635L745.266 401.347Z" fill="#9EA0A0"/>
<path d="M747.844 400.059C750.423 401.347 750.423 401.347 750.423 401.347L747.844 400.059Z" fill="#ACADAE"/>
<path d="M750.423 398.772C753.001 400.059 753.001 400.059 753.001 400.059L750.423 398.772Z" fill="#BFC1C1"/>
<path d="M754.29 397.484C756.869 398.772 756.869 398.772 756.869 398.772L754.29 397.484Z" fill="#AAABAB"/>
<path d="M242.485 397.484C245.064 398.772 245.064 398.772 245.064 398.772L242.485 397.484Z" fill="#7E807F"/>
<path d="M756.869 396.196C759.447 397.484 759.447 397.484 759.447 397.484L756.869 396.196Z" fill="#B4B5B6"/>
<path d="M760.736 394.908C763.315 396.196 763.315 396.196 763.315 396.196L760.736 394.908Z" fill="#ADAFB0"/>
<path d="M763.315 393.62C765.893 394.908 765.893 394.908 765.893 394.908L763.315 393.62Z" fill="#A3A5A5"/>
<path d="M252.799 393.62C255.377 394.908 255.377 394.908 255.377 394.908L252.799 393.62Z" fill="#888A8A"/>
<path d="M767.182 392.332C769.761 393.62 769.761 393.62 769.761 393.62L767.182 392.332Z" fill="#9D9FA0"/>
<path d="M769.761 391.044C772.339 392.332 772.339 392.332 772.339 392.332L769.761 391.044Z" fill="#ABACAD"/>
<path d="M263.112 389.756C265.691 391.044 265.691 391.044 265.691 391.044L263.112 389.756Z" fill="#8B8C8D"/>
<path d="M266.98 388.469C269.558 389.756 269.558 389.756 269.558 389.756L266.98 388.469Z" fill="#636363"/>
<path d="M778.785 387.181C781.363 388.469 781.363 388.469 781.363 388.469L778.785 387.181Z" fill="#9C9D9D"/>
<path d="M269.558 387.181C272.136 388.469 272.136 388.469 272.136 388.469L269.558 387.181Z" fill="#838383"/>
<path d="M781.363 385.893C783.942 387.181 783.942 387.181 783.942 387.181L781.363 385.893Z" fill="#B6B6B7"/>
<path d="M273.426 385.893C276.004 387.181 276.004 387.181 276.004 387.181L273.426 385.893Z" fill="#7F8180"/>
<path d="M785.231 384.605C787.809 385.893 787.809 385.893 787.809 385.893L785.231 384.605Z" fill="#A2A3A3"/>
<path d="M787.809 383.317C790.387 384.605 790.387 384.605 790.387 384.605L787.809 383.317Z" fill="#B3B3B3"/>
<path d="M791.677 382.029C794.255 383.317 794.255 383.317 794.255 383.317L791.677 382.029Z" fill="#A7A8A9"/>
<path d="M794.255 380.741C796.833 382.029 796.833 382.029 796.833 382.029L794.255 380.741Z" fill="#999C9B"/>
<path d="M287.607 380.741C290.185 382.029 290.185 382.029 290.185 382.029L287.607 380.741Z" fill="#7C7D7E"/>
<path d="M796.833 379.453C799.412 380.741 799.412 380.741 799.412 380.741L796.833 379.453Z" fill="#BCBDBD"/>
<path d="M800.701 378.166C803.279 379.453 803.279 379.453 803.279 379.453L800.701 378.166Z" fill="#868887"/>
<path d="M294.052 378.166C296.631 379.453 296.631 379.453 296.631 379.453L294.052 378.166Z" fill="#B7B7B8"/>
<path d="M803.279 376.878C805.858 378.166 805.858 378.166 805.858 378.166L803.279 376.878Z" fill="#959696"/>
<path d="M301.788 375.59C304.366 376.878 304.366 376.878 304.366 376.878L301.788 375.59Z" fill="#8A8B8B"/>
<path d="M809.725 374.302C812.304 375.59 812.304 375.59 812.304 375.59L809.725 374.302Z" fill="#909494"/>
<path d="M305.655 374.302C308.233 375.59 308.233 375.59 308.233 375.59L305.655 374.302Z" fill="#828385"/>
<path d="M816.171 371.726C818.749 373.014 818.749 373.014 818.749 373.014L816.171 371.726Z" fill="#7F8383"/>
<path d="M818.749 370.438C821.328 371.726 821.328 371.726 821.328 371.726L818.749 370.438Z" fill="#909494"/>
<path d="M322.414 367.862C324.993 369.15 324.993 369.15 324.993 369.15L322.414 367.862Z" fill="#81817F"/>
<path d="M215.412 362.711C217.991 363.999 217.991 363.999 217.991 363.999L215.412 362.711Z" fill="#EAE9EA"/>
<path d="M839.376 361.423C841.955 362.711 841.955 362.711 841.955 362.711L839.376 361.423Z" fill="#848786"/>
<path d="M343.041 360.135C345.62 361.423 345.62 361.423 345.62 361.423L343.041 360.135Z" fill="#8E9090"/>
<path d="M220.569 360.135C223.148 361.423 223.148 361.423 223.148 361.423L220.569 360.135Z" fill="#D1D1D2"/>
<path d="M171.58 360.135C174.159 361.423 174.159 361.423 174.159 361.423L171.58 360.135Z" fill="#B8B9B9"/>
<path d="M223.148 358.847C225.726 360.135 225.726 360.135 225.726 360.135L223.148 358.847Z" fill="#C0BFC0"/>
<path d="M167.713 358.847C170.291 360.135 170.291 360.135 170.291 360.135L167.713 358.847Z" fill="#C2C2C2"/>
<path d="M227.015 357.559C229.593 358.847 229.593 358.847 229.593 358.847L227.015 357.559Z" fill="#D0D1D1"/>
<path d="M165.134 357.559C167.713 358.847 167.713 358.847 167.713 358.847L165.134 357.559Z" fill="#A6A8A7"/>
<path d="M850.979 356.272C853.557 357.559 853.557 357.559 853.557 357.559L850.979 356.272Z" fill="#A3A6A5"/>
<path d="M854.847 354.984C857.425 356.272 857.425 356.272 857.425 356.272L854.847 354.984Z" fill="#7D8183"/>
<path d="M233.461 354.984C236.039 356.272 236.039 356.272 236.039 356.272L233.461 354.984Z" fill="#BDBCBE"/>
<path d="M157.399 354.984C159.978 356.272 159.978 356.272 159.978 356.272L157.399 354.984Z" fill="#BFC0C0"/>
<path d="M857.425 353.696C860.003 354.984 860.003 354.984 860.003 354.984L857.425 353.696Z" fill="#949898"/>
<path d="M361.09 353.696C363.668 354.984 363.668 354.984 363.668 354.984L361.09 353.696Z" fill="#7A7B7B"/>
<path d="M233.461 352.408C236.039 353.696 236.039 353.696 236.039 353.696L233.461 352.408Z" fill="#C4C5C5"/>
<path d="M157.399 352.408C159.978 353.696 159.978 353.696 159.978 353.696L157.399 352.408Z" fill="#C8C8C9"/>
<path d="M863.871 351.12C866.449 352.408 866.449 352.408 866.449 352.408L863.871 351.12Z" fill="#7A7C7D"/>
<path d="M229.593 351.12C232.172 352.408 232.172 352.408 232.172 352.408L229.593 351.12Z" fill="#CDCCCD"/>
<path d="M162.556 351.12C165.134 352.408 165.134 352.408 165.134 352.408L162.556 351.12Z" fill="#ABABAD"/>
<path d="M866.449 349.832C869.028 351.12 869.028 351.12 869.028 351.12L866.449 349.832Z" fill="#8D8E8F"/>
<path d="M225.726 349.832C228.304 351.12 228.304 351.12 228.304 351.12L225.726 349.832Z" fill="#C1C0C1"/>
<path d="M166.424 349.832C169.002 351.12 169.002 351.12 169.002 351.12L166.424 349.832Z" fill="#929293"/>
<path d="M415.236 348.544C417.814 349.832 417.814 349.832 417.814 349.832L415.236 348.544Z" fill="#E2E3E2"/>
<path d="M223.148 348.544C225.726 349.832 225.726 349.832 225.726 349.832L223.148 348.544Z" fill="#E7E7E7"/>
<path d="M220.569 347.256C223.148 348.544 223.148 348.544 223.148 348.544L220.569 347.256Z" fill="#E6E5E5"/>
<path d="M172.869 347.256C175.448 348.544 175.448 348.544 175.448 348.544L172.869 347.256Z" fill="#8F908F"/>
<path d="M381.717 345.969C384.295 347.256 384.295 347.256 384.295 347.256L381.717 345.969Z" fill="#828382"/>
<path d="M388.163 344.681C390.741 345.969 390.741 345.969 390.741 345.969L388.163 344.681Z" fill="#3F403F"/>
<path d="M395.898 340.817C398.476 342.105 398.476 342.105 398.476 342.105L395.898 340.817Z" fill="#818282"/>
<path d="M208.967 340.817C211.545 342.105 211.545 342.105 211.545 342.105L208.967 340.817Z" fill="#EFEEEF"/>
<path d="M399.765 339.529C402.344 340.817 402.344 340.817 402.344 340.817L399.765 339.529Z" fill="#7B7C7C"/>
<path d="M428.127 329.226C430.706 330.514 430.706 330.514 430.706 330.514L428.127 329.226Z" fill="#727474"/>
<path d="M434.573 326.65C437.152 327.938 437.152 327.938 437.152 327.938L434.573 326.65Z" fill="#6B6A6A"/>
<path d="M444.887 322.787C447.465 324.075 447.465 324.075 447.465 324.075L444.887 322.787Z" fill="#7F807F"/>
<path d="M866.449 318.923C869.028 320.211 869.028 320.211 869.028 320.211L866.449 318.923Z" fill="#3E3E3F"/>
<path d="M459.068 318.923C461.646 320.211 461.646 320.211 461.646 320.211L459.068 318.923Z" fill="#3E3F3E"/>
<path d="M867.738 317.635C870.317 318.923 870.317 318.923 870.317 318.923L867.738 317.635Z" fill="#C4C3C3"/>
<path d="M459.068 317.635C461.646 318.923 461.646 318.923 461.646 318.923L459.068 317.635Z" fill="#A1A2A1"/>
<path d="M862.582 316.347C865.16 317.635 865.16 317.635 865.16 317.635L862.582 316.347Z" fill="#B5B5B4"/>
<path d="M858.714 315.059C861.292 316.347 861.292 316.347 861.292 316.347L858.714 315.059Z" fill="#CDCCCC"/>
<path d="M853.557 313.772C856.136 315.059 856.136 315.059 856.136 315.059L853.557 313.772Z" fill="#D9D9D8"/>
<path d="M848.401 312.484C850.979 313.772 850.979 313.772 850.979 313.772L848.401 312.484Z" fill="#BBBABC"/>
<path d="M843.244 311.196C845.822 312.484 845.822 312.484 845.822 312.484L843.244 311.196Z" fill="#BCBBBB"/>
<path d="M834.22 308.62C836.798 309.908 836.798 309.908 836.798 309.908L834.22 308.62Z" fill="#C9C7C9"/>
<path d="M829.063 307.332C831.641 308.62 831.641 308.62 831.641 308.62L829.063 307.332Z" fill="#ACABAC"/>
<path d="M825.195 306.044C827.774 307.332 827.774 307.332 827.774 307.332L825.195 306.044Z" fill="#CFCECE"/>
<path d="M821.328 304.756C823.906 306.044 823.906 306.044 823.906 306.044L821.328 304.756Z" fill="#CACAC9"/>
<path d="M496.454 304.756C499.032 306.044 499.032 306.044 499.032 306.044L496.454 304.756Z" fill="#404040"/>
<path d="M816.171 303.469C818.749 304.756 818.749 304.756 818.749 304.756L816.171 303.469Z" fill="#C8C8C8"/>
<path d="M812.304 302.181C814.882 303.469 814.882 303.469 814.882 303.469L812.304 302.181Z" fill="#CDCCCC"/>
<path d="M500.322 302.181C502.9 303.469 502.9 303.469 502.9 303.469L500.322 302.181Z" fill="#919292"/>
<path d="M807.147 300.893C809.725 302.181 809.725 302.181 809.725 302.181L807.147 300.893Z" fill="#BDBCBC"/>
<path d="M504.189 300.893C506.767 302.181 506.767 302.181 506.767 302.181L504.189 300.893Z" fill="#898A8A"/>
<path d="M803.279 299.605C805.858 300.893 805.858 300.893 805.858 300.893L803.279 299.605Z" fill="#CBCACB"/>
<path d="M798.123 298.317C800.701 299.605 800.701 299.605 800.701 299.605L798.123 298.317Z" fill="#CDCCCD"/>
<path d="M791.677 298.317C794.255 299.605 794.255 299.605 794.255 299.605L791.677 298.317Z" fill="#3F3F40"/>
<path d="M792.966 297.029C795.544 298.317 795.544 298.317 795.544 298.317L792.966 297.029Z" fill="#A2A2A3"/>
<path d="M522.238 295.741C524.816 297.029 524.816 297.029 524.816 297.029L522.238 295.741Z" fill="#3D3E3D"/>
<path d="M780.074 293.165C782.652 294.453 782.652 294.453 782.652 294.453L780.074 293.165Z" fill="#C2C2C3"/>
<path d="M774.917 291.878C777.496 293.165 777.496 293.165 777.496 293.165L774.917 291.878Z" fill="#CFCFCF"/>
<path d="M765.893 289.302C768.471 290.59 768.471 290.59 768.471 290.59L765.893 289.302Z" fill="#D6D5D7"/>
<path d="M756.869 286.726C759.447 288.014 759.447 288.014 759.447 288.014L756.869 286.726Z" fill="#BFBEBF"/>
<path d="M753.001 285.438C755.58 286.726 755.58 286.726 755.58 286.726L753.001 285.438Z" fill="#CECDCD"/>
<path d="M747.844 284.15C750.423 285.438 750.423 285.438 750.423 285.438L747.844 284.15Z" fill="#D2D2D1"/>
<path d="M549.31 284.15C551.889 285.438 551.889 285.438 551.889 285.438L549.31 284.15Z" fill="#8B8C8B"/>
<path d="M743.977 282.862C746.555 284.15 746.555 284.15 746.555 284.15L743.977 282.862Z" fill="#CFCFCF"/>
<path d="M553.178 282.862C555.756 284.15 555.756 284.15 555.756 284.15L553.178 282.862Z" fill="#7E7F7F"/>
<path d="M738.82 281.575C741.399 282.862 741.399 282.862 741.399 282.862L738.82 281.575Z" fill="#B4B5B5"/>
<path d="M557.046 281.575C559.624 282.862 559.624 282.862 559.624 282.862L557.046 281.575Z" fill="#7F817F"/>
<path d="M729.796 278.999C732.374 280.287 732.374 280.287 732.374 280.287L729.796 278.999Z" fill="#CFCECF"/>
<path d="M724.639 277.711C727.218 278.999 727.218 278.999 727.218 278.999L724.639 277.711Z" fill="#B5B3B5"/>
<path d="M567.359 277.711C569.937 278.999 569.937 278.999 569.937 278.999L567.359 277.711Z" fill="#8D8E8D"/>
<path d="M720.772 276.423C723.35 277.711 723.35 277.711 723.35 277.711L720.772 276.423Z" fill="#CFCECE"/>
<path d="M571.227 276.423C573.805 277.711 573.805 277.711 573.805 277.711L571.227 276.423Z" fill="#838283"/>
<path d="M715.615 275.135C718.193 276.423 718.193 276.423 718.193 276.423L715.615 275.135Z" fill="#CECDCE"/>
<path d="M711.747 273.847C714.326 275.135 714.326 275.135 714.326 275.135L711.747 273.847Z" fill="#DEDEDD"/>
<path d="M706.591 272.559C709.169 273.847 709.169 273.847 709.169 273.847L706.591 272.559Z" fill="#B3B3B4"/>
<path d="M702.723 271.272C705.301 272.559 705.301 272.559 705.301 272.559L702.723 271.272Z" fill="#E7E7E7"/>
<path d="M697.566 269.984C700.145 271.272 700.145 271.272 700.145 271.272L697.566 269.984Z" fill="#D9D8D9"/>
<path d="M692.41 269.984C694.988 271.272 694.988 271.272 694.988 271.272L692.41 269.984Z" fill="#3D3D3E"/>
<path d="M693.699 268.696C696.277 269.984 696.277 269.984 696.277 269.984L693.699 268.696Z" fill="#CBCACB"/>
<path d="M688.542 267.408C691.12 268.696 691.12 268.696 691.12 268.696L688.542 267.408Z" fill="#DAD9DA"/>
<path d="M684.675 266.12C687.253 267.408 687.253 267.408 687.253 267.408L684.675 266.12Z" fill="#C6C4C6"/>
<path d="M676.939 263.544C679.518 264.832 679.518 264.832 679.518 264.832L676.939 263.544Z" fill="#CFCFCE"/>
<path d="M671.783 262.256C674.361 263.544 674.361 263.544 674.361 263.544L671.783 262.256Z" fill="#CECECE"/>
<path d="M609.902 262.256C612.48 263.544 612.48 263.544 612.48 263.544L609.902 262.256Z" fill="#7C7E7E"/>
<path d="M667.915 260.969C670.494 262.256 670.494 262.256 670.494 262.256L667.915 260.969Z" fill="#C6C6C6"/>
<path d="M613.77 260.969C616.348 262.256 616.348 262.256 616.348 262.256L613.77 260.969Z" fill="#7E8080"/>
<path d="M662.758 259.681C665.337 260.969 665.337 260.969 665.337 260.969L662.758 259.681Z" fill="#BFBFC0"/>
<path d="M653.734 257.105C656.313 258.393 656.313 258.393 656.313 258.393L653.734 257.105Z" fill="#D1D1D1"/>
<path d="M624.083 257.105C626.661 258.393 626.661 258.393 626.661 258.393L624.083 257.105Z" fill="#878989"/>
<path d="M648.577 255.817C651.156 257.105 651.156 257.105 651.156 257.105L648.577 255.817Z" fill="#ABAAAB"/>
<path d="M627.951 255.817C630.529 257.105 630.529 257.105 630.529 257.105L627.951 255.817Z" fill="#ABABAC"/>
</svg>
