<svg width="1024" height="1024" viewBox="0 0 1024 1024" fill="none" xmlns="http://www.w3.org/2000/svg">
<path d="M699.482 285.039C708.798 287.883 718.154 290.59 727.51 293.3C728.407 293.561 729.304 293.821 730.229 294.089C744.056 298.094 757.904 302.019 771.779 305.857C778.984 307.853 786.156 309.931 793.313 312.093C797.046 313.203 800.796 314.232 804.557 315.246C810.016 316.723 815.456 318.265 820.897 319.806C823.068 320.418 823.068 320.418 825.283 321.042C829.992 322.382 834.691 323.758 839.388 325.141C841.632 325.774 841.632 325.774 843.921 326.42C857.019 330.337 867.099 336.022 873.825 348.259C875.814 352.612 877.47 357.05 879.084 361.554C880.025 364.102 880.967 366.649 881.91 369.196C882.607 371.097 882.607 371.097 883.318 373.036C885.304 378.386 887.413 383.686 889.517 388.991C893.339 398.697 896.846 408.496 900.191 418.376C902.726 425.777 905.628 432.97 908.675 440.175C912.455 449.204 915.972 458.34 919.529 467.458C922.647 475.439 925.793 483.4 929.08 491.312C929.648 492.698 930.215 494.083 930.799 495.511C931.856 498.085 932.93 500.653 934.025 503.212C937.285 511.234 938.767 518.436 937.61 527.106C932.766 537.553 922.037 541.144 911.952 545.308C910.936 545.733 909.92 546.158 908.873 546.596C905.562 547.981 902.247 549.357 898.932 550.733C896.598 551.707 894.264 552.682 891.931 553.657C886.074 556.104 880.214 558.545 874.354 560.984C866.314 564.331 858.279 567.694 850.245 571.056C848.599 571.744 846.953 572.432 845.258 573.141C827.926 580.392 810.636 587.74 793.347 595.092C783.004 599.489 772.654 603.865 762.272 608.168C755.185 611.127 748.136 614.174 741.081 617.208C730.461 621.766 719.831 626.296 709.167 630.751C708.231 631.142 707.295 631.533 706.331 631.936C701.803 633.827 697.274 635.713 692.742 637.595C684.1 641.191 675.529 644.898 667.022 648.801C660.95 651.539 654.787 654.053 648.627 656.585C636.404 661.638 624.223 666.781 612.069 671.997C598.138 677.975 584.187 683.903 570.217 689.791C561.394 693.511 552.586 697.263 543.788 701.042C530.647 706.682 517.458 712.207 504.262 717.72C493.843 722.074 483.429 726.44 473.021 730.824C471.844 731.32 470.666 731.816 469.453 732.326C464.773 734.297 460.094 736.267 455.416 738.24C452.169 739.61 448.92 740.978 445.672 742.346C444.699 742.757 443.725 743.168 442.722 743.592C423.677 751.604 408.222 747.483 389.669 740.843C387.54 740.105 385.41 739.37 383.279 738.638C377.779 736.738 372.292 734.804 366.808 732.856C361.545 730.987 356.276 729.137 351.007 727.283C345.073 725.194 339.141 723.1 333.215 720.992C322.007 717.01 310.761 713.229 299.385 709.752C294.455 708.238 289.665 706.609 284.916 704.599C277.35 701.42 269.48 699.265 261.616 696.955C253.586 694.587 245.612 692.091 237.671 689.441C236.703 689.119 235.734 688.797 234.737 688.465C228.308 686.304 221.958 683.97 215.618 681.566C200.878 676.023 186.083 670.735 171.112 665.845C165.046 663.86 159.04 661.781 153.074 659.513C148.727 657.873 144.341 656.345 139.958 654.806C138.5 654.289 138.5 654.289 137.013 653.761C131.432 651.786 125.836 649.881 120.205 648.053C119.003 647.654 117.8 647.256 116.562 646.845C114.239 646.076 111.912 645.324 109.577 644.593C101.559 641.909 93.3604 637.978 89.4045 630.079C88.2456 619.781 89.4985 612.253 94.181 603.087C96.5278 598.216 98.2696 593.274 100.007 588.162C103.419 578.242 107.217 568.518 111.162 558.799C114.692 550.083 118.033 541.312 121.271 532.484C123.47 526.622 125.923 520.869 128.347 515.097C130.571 509.761 132.715 504.395 134.851 499.023C136.57 494.7 138.305 490.384 140.042 486.068C142.477 480.018 144.874 473.954 147.252 467.882C148.41 464.985 149.569 462.088 150.73 459.192C151.244 457.853 151.759 456.513 152.289 455.134C156.985 443.555 163.2 435.911 174.72 430.712C180.063 428.576 185.476 426.71 190.935 424.896C203.087 420.764 215.144 416.413 227.164 411.914C249.313 403.624 271.552 395.595 293.822 387.636C295.363 387.085 296.903 386.534 298.49 385.967C312.541 380.945 326.596 375.933 340.675 370.991C351.048 367.347 361.371 363.577 371.687 359.775C383.175 355.542 394.681 351.377 406.233 347.323C417.362 343.414 428.452 339.4 439.544 335.387C452.752 330.609 465.97 325.864 479.222 321.21C485.839 318.883 492.431 316.499 499.003 314.047C514.557 308.291 530.189 302.755 545.816 297.2C550.846 295.411 555.873 293.618 560.901 291.824C576.298 286.328 591.696 280.837 607.128 275.438C609.637 274.544 612.144 273.641 614.617 272.651C641.28 262.056 673.574 277.107 699.482 285.039ZM837.735 341.172C836.527 341.669 835.318 342.166 834.074 342.678C832.86 343.179 831.647 343.679 830.397 344.194C828.282 345.025 826.163 345.849 824.042 346.666C822.982 347.075 821.922 347.483 820.83 347.905C819.727 348.329 818.624 348.753 817.488 349.19C816.296 349.65 815.104 350.109 813.875 350.583C810.024 352.067 806.173 353.55 802.321 355.033C798.282 356.59 794.243 358.146 790.204 359.703C787.51 360.742 784.816 361.78 782.121 362.818C770.785 367.187 759.452 371.567 748.121 375.95C737.416 380.09 726.708 384.22 715.989 388.325C697.767 395.303 679.586 402.384 661.408 409.478C646.856 415.156 632.302 420.824 617.681 426.325C612.834 428.151 608.007 430.015 603.2 431.945C582.587 440.212 561.807 448.07 541.064 456.005C529.936 460.264 518.814 464.531 507.761 468.983C496.566 473.478 485.262 477.661 473.942 481.831C464.461 485.329 455.029 488.842 445.783 492.932C444.484 493.501 443.184 494.07 441.845 494.656C439.526 495.687 437.22 496.749 434.934 497.853C416.51 506.011 396.87 500.618 378.388 495.605C376.306 495.061 374.224 494.519 372.141 493.98C367.064 492.659 361.995 491.309 356.93 489.945C352.419 488.731 347.904 487.533 343.389 486.332C341.743 485.893 340.097 485.455 338.402 485.002C334.01 483.835 329.617 482.679 325.222 481.526C308.758 477.185 292.433 472.533 276.177 467.471C258.399 461.936 240.518 456.765 222.605 451.687C220.69 451.144 220.69 451.144 218.736 450.589C216.357 449.915 213.976 449.244 211.595 448.577C206.165 447.043 200.856 445.389 195.552 443.462C190.921 441.912 187.707 441.057 183.046 443.102C177.024 449.816 174.911 459.346 172.46 467.792C170.617 473.588 168.397 479.145 166.082 484.766C160.195 499.128 154.913 513.694 149.646 528.291C148.986 530.119 148.326 531.947 147.666 533.775C147.177 535.129 147.177 535.129 146.679 536.51C144.007 543.891 141.253 551.24 138.483 558.585C135.341 566.922 132.288 575.291 129.27 583.674C128.52 585.746 128.52 585.746 127.754 587.86C126.264 591.992 124.796 596.13 123.333 600.271C122.812 601.713 122.291 603.155 121.754 604.64C121.257 606.056 120.76 607.471 120.247 608.93C119.797 610.195 119.347 611.46 118.883 612.763C117.803 616.92 117.554 620.383 117.904 624.66C123.366 629.509 131.472 631.129 138.346 633.297C145.923 635.695 153.344 638.209 160.654 641.337C171.959 646.13 183.575 650.034 195.176 654.044C197.6 654.886 200.023 655.727 202.447 656.569C207.29 658.251 212.135 659.93 216.98 661.605C222.08 663.369 227.177 665.14 232.273 666.915C258.33 675.992 284.507 684.7 310.961 692.558C314.921 693.835 318.788 695.285 322.677 696.758C336.068 701.739 349.752 706.029 363.487 709.955C369.725 711.739 375.924 713.619 382.115 715.56C383.724 716.056 385.332 716.552 386.99 717.064C390.171 718.046 393.348 719.043 396.518 720.058C411.922 724.868 411.922 724.868 427.33 722.213C427.592 717.974 427.675 713.856 427.642 709.616C427.642 707.66 427.642 707.66 427.642 705.664C427.637 701.357 427.611 697.051 427.584 692.744C427.575 689.741 427.566 686.739 427.558 683.736C427.494 667.649 427.257 651.577 426.735 635.498C426.65 632.598 426.591 629.698 426.539 626.797C426.353 617.179 426.045 607.612 425.318 598.017C421.094 542.016 421.094 542.016 428.547 529.588C435.67 523.665 444.138 522.384 453.101 520.96C466.585 518.651 478.912 512.706 491.431 507.394C498.259 504.517 505.135 501.76 512.012 499.003C513.296 498.486 514.579 497.969 515.901 497.436C523.873 494.229 531.869 491.102 539.901 488.048C547.359 485.187 554.77 482.205 562.186 479.234C565.18 478.035 568.176 476.838 571.171 475.641C581.903 471.353 592.631 467.055 603.354 462.745C608.772 460.568 614.192 458.394 619.612 456.221C622.236 455.168 624.859 454.113 627.482 453.056C640.865 447.664 654.253 442.446 667.899 437.754C674.44 435.481 680.684 432.838 686.941 429.887C694.285 426.509 701.842 423.632 709.358 420.662C712.562 419.39 715.766 418.118 718.969 416.846C720.299 416.318 720.299 416.318 721.656 415.781C730.323 412.344 738.979 408.883 747.636 405.422C769.897 396.524 792.18 387.686 814.47 378.862C819.359 376.927 824.247 374.991 829.135 373.055C838.603 369.305 848.071 365.556 857.54 361.808C856.772 357.034 856.005 352.544 854.316 348.005C853.839 346.676 853.839 346.676 853.352 345.321C851.931 342.478 850.53 340.752 848.04 338.774C843.768 338.774 841.629 339.545 837.735 341.172Z" fill="#424344"/>
<path d="M173.547 463.426C174.218 464.767 174.218 464.767 174.904 466.136C178.047 467.082 181.122 467.87 184.319 468.591C186.32 469.067 188.32 469.545 190.32 470.026C191.362 470.275 192.403 470.525 193.477 470.782C198.481 472.014 203.445 473.385 208.408 474.773C209.925 475.197 209.925 475.197 211.474 475.63C214.666 476.526 217.856 477.427 221.046 478.33C222.146 478.641 223.246 478.952 224.38 479.272C248.999 486.238 273.588 493.314 298.063 500.77C299.992 501.358 299.992 501.358 301.959 501.957C306.967 503.484 311.974 505.012 316.98 506.546C328.431 510.049 339.848 513.492 351.5 516.267C362.436 518.911 373.11 522.285 383.673 526.16C386.654 527.195 386.654 527.195 390.009 527.688C393.531 528.405 395.914 529.06 398.83 531.171C400.703 536.455 400.239 541.881 400.187 547.43C400.307 550.536 400.472 553.637 400.637 556.74C400.965 563.006 401.204 569.275 401.459 575.544C401.516 576.911 401.572 578.278 401.631 579.686C402.672 605.007 403.533 630.334 404.337 655.664C404.427 658.507 404.519 661.349 404.611 664.192C405.846 702.595 405.846 702.595 405.616 720.858C396.962 719.536 388.742 717.173 380.339 714.761C378.671 714.283 377.003 713.806 375.285 713.314C354.324 707.252 333.582 700.514 312.887 693.606C303.138 690.352 293.377 687.137 283.596 683.979C281.9 683.431 281.9 683.431 280.17 682.872C275.564 681.386 270.959 679.9 266.352 678.418C251.722 673.711 237.178 668.824 222.701 663.665C217.203 661.716 211.691 659.806 206.181 657.892C203.863 657.085 201.544 656.278 199.226 655.47C195.705 654.245 192.183 653.02 188.661 651.797C176.205 647.473 163.8 643.089 151.516 638.298C145.281 635.9 138.959 633.763 132.626 631.641C129.956 630.722 127.324 629.738 124.69 628.724C123.318 628.225 121.947 627.725 120.534 627.211C117.904 624.66 117.904 624.66 117.652 622.127C118.28 614.391 120.728 607.249 123.418 600.017C123.834 598.865 124.25 597.714 124.678 596.527C126.027 592.803 127.394 589.085 128.761 585.367C129.713 582.746 130.664 580.125 131.613 577.502C133.816 571.426 136.031 565.354 138.256 559.285C139.555 555.733 140.845 552.177 142.135 548.622C144.961 540.861 147.861 533.129 150.778 525.402C151.855 522.542 152.932 519.683 154.009 516.823C155.681 512.384 157.354 507.945 159.029 503.507C160.663 499.177 162.294 494.845 163.925 490.513C164.669 488.544 164.669 488.544 165.429 486.535C168.306 478.884 171.024 471.201 173.547 463.426Z" fill="#616263"/>
<path d="M846.767 338.774C852.173 341.56 854.35 347.072 856.522 352.493C857.54 356.388 857.54 356.388 857.54 361.808C854.568 363.636 854.568 363.636 850.337 365.275C847.967 366.212 847.967 366.212 845.548 367.169C843.788 367.838 842.028 368.507 840.268 369.175C838.448 369.886 836.629 370.599 834.81 371.313C829.974 373.208 825.128 375.074 820.279 376.934C815.517 378.766 810.764 380.621 806.011 382.475C800.346 384.684 794.68 386.89 789.009 389.085C771.235 395.968 753.536 403.029 735.847 410.127C729.218 412.785 722.586 415.432 715.953 418.079C713.673 418.989 711.394 419.899 709.114 420.81C704.59 422.616 700.067 424.423 695.543 426.229C694.418 426.678 693.294 427.128 692.135 427.59C689.954 428.461 687.773 429.332 685.592 430.203C681.406 431.874 677.22 433.546 673.036 435.222C665.766 438.134 658.478 440.997 651.183 443.848C633.808 450.638 616.471 457.521 599.153 464.454C582.172 471.252 565.162 477.97 548.126 484.63C539.103 488.162 530.122 491.777 521.185 495.522C513.385 498.756 505.536 501.866 497.691 504.99C494.611 506.216 491.531 507.445 488.451 508.673C481.072 511.617 473.692 514.557 466.311 517.498C460.517 519.807 454.723 522.116 448.93 524.427C446.284 525.482 443.638 526.535 440.992 527.588C439.407 528.22 437.821 528.853 436.188 529.504C434.799 530.057 433.41 530.611 431.979 531.181C428.749 532.453 428.749 532.453 425.973 533.881C425.549 537.559 425.276 541.115 425.124 544.805C425.072 545.833 425.019 546.861 424.965 547.92C424.837 550.466 424.725 553.012 424.615 555.559C424.168 555.559 423.72 555.559 423.258 555.559C423.258 538.569 423.258 521.578 423.258 504.073C418.78 504.073 414.301 504.073 409.687 504.073C409.687 503.626 409.687 503.179 409.687 502.718C410.57 502.697 411.453 502.676 412.362 502.654C423.11 502.078 431.613 499.034 441.41 494.758C444.637 493.397 447.865 492.04 451.095 490.688C451.923 490.339 452.75 489.991 453.603 489.632C462.937 485.717 472.394 482.142 481.869 478.584C483.421 478 484.972 477.416 486.571 476.814C492.919 474.43 499.27 472.055 505.627 469.693C520.614 464.118 535.512 458.324 550.404 452.502C555.216 450.622 560.028 448.744 564.84 446.865C565.99 446.416 567.14 445.967 568.325 445.504C576.004 442.507 583.694 439.539 591.398 436.606C594.951 435.23 598.489 433.824 602.025 432.406C609.032 429.602 616.073 426.896 623.127 424.213C625.793 423.196 628.459 422.18 631.125 421.163C632.501 420.639 633.877 420.115 635.294 419.574C657.475 411.119 679.629 402.606 701.714 393.902C712.617 389.606 723.54 385.357 734.465 381.115C735.479 380.722 736.492 380.328 737.536 379.923C756.429 372.589 775.346 365.316 794.27 358.065C804.889 353.995 815.502 349.912 826.103 345.798C827.621 345.209 827.621 345.209 829.17 344.608C830.121 344.238 831.073 343.868 832.053 343.487C833.386 342.97 833.386 342.97 834.745 342.443C836.871 341.607 838.983 340.736 841.093 339.86C843.968 338.774 843.968 338.774 846.767 338.774Z" fill="#9C9C9D"/>
<path d="M209.426 448.098C219.916 451.497 230.484 454.443 241.149 457.244C252.196 460.151 263.116 463.265 273.974 466.813C296.173 474.047 318.803 479.774 341.477 485.317C349.518 487.303 357.462 489.553 365.411 491.879C375.442 494.795 385.51 497.413 395.692 499.754C396.892 500.035 398.091 500.315 399.328 500.604C400.484 500.863 401.641 501.122 402.832 501.39C404.33 501.727 404.33 501.727 405.858 502.071C409.48 502.683 413.057 503.08 416.712 503.436C417.937 503.556 419.162 503.676 420.424 503.799C421.359 503.89 422.295 503.98 423.258 504.073C423.8 522.912 424.331 541.751 424.851 560.59C425.093 569.346 425.337 578.102 425.59 586.858C426.625 622.786 427.522 658.704 427.627 694.649C427.639 696.769 427.639 696.769 427.651 698.932C427.671 702.851 427.672 706.769 427.666 710.688C427.674 711.848 427.681 713.007 427.689 714.201C427.673 716.875 427.517 719.546 427.33 722.213C423.808 723.971 421.166 723.747 417.236 723.737C415.922 723.741 414.608 723.744 413.255 723.748C409.687 723.568 409.687 723.568 405.616 722.213C405.06 718.439 404.789 714.942 404.672 711.146C404.596 709.421 404.596 709.421 404.518 707.661C404.355 703.846 404.222 700.031 404.089 696.216C403.982 693.544 403.873 690.872 403.763 688.201C403.019 669.63 402.505 651.052 402.082 632.471C401.589 611.424 400.672 590.396 399.726 569.364C399.16 556.625 398.601 543.926 398.83 531.171C397.886 530.956 396.943 530.742 395.971 530.52C386.345 528.298 377.01 525.4 367.616 522.364C358.664 519.472 349.778 516.784 340.611 514.648C334.923 513.174 329.356 511.374 323.764 509.577C314.546 506.621 305.311 503.955 295.937 501.527C287.329 499.262 278.803 496.702 270.262 494.198C261.108 491.515 251.94 488.885 242.76 486.29C234.604 483.981 226.491 481.584 218.417 479.007C208.148 475.749 197.779 472.923 187.367 470.155C186.141 469.828 184.914 469.5 183.651 469.163C182.003 468.727 182.003 468.727 180.322 468.283C177.618 467.491 177.618 467.491 174.904 466.136C175.396 457.13 177.827 450.521 183.046 443.102C190.124 439.569 202.236 445.716 209.426 448.098Z" fill="#E2E2E2"/>
</svg>
