<svg width="1024" height="1024" viewBox="0 0 1024 1024" fill="none" xmlns="http://www.w3.org/2000/svg">
<path d="M360.548 299.823C361.681 298.681 362.813 297.539 363.98 296.363C365.503 294.845 365.503 294.845 367.057 293.297C367.904 292.453 368.752 291.608 369.624 290.738C371.912 288.727 371.912 288.727 376.19 286.588C381.311 293.682 386.409 300.766 391.163 308.112C399.994 321.407 411.159 332.666 422.275 344.045C423.912 345.726 425.548 347.408 427.184 349.089C432.615 354.667 438.058 360.233 443.502 365.798C445.421 367.761 447.339 369.723 449.257 371.686C591.343 518.897 591.343 518.897 744.752 653.958C783.966 685.332 813.528 723.504 840.358 765.729C841.213 767.075 842.069 768.421 842.95 769.808C866.665 807.368 887.318 846.268 903.593 887.653C904.042 888.782 904.491 889.911 904.954 891.074C906.977 896.409 907.812 899.043 906.668 904.765C833.578 880.73 766.204 839.153 706.134 791.664C704.214 790.17 704.214 790.17 702.256 788.644C683.543 773.546 668.699 754.17 653.476 735.699C629.993 707.237 605.989 679.348 580.682 652.485C579.939 651.697 579.197 650.909 578.432 650.097C559.21 629.722 539.414 609.923 519.595 590.132C514.341 584.884 509.093 579.63 503.844 574.378C495.033 565.563 486.218 556.753 477.4 547.945C467.338 537.895 457.285 527.838 447.235 517.776C438.474 509.006 429.709 500.24 420.941 491.477C415.763 486.302 410.585 481.126 405.412 475.945C385.18 455.688 364.865 435.517 344.22 415.679C342.317 413.847 340.417 412.012 338.521 410.173C323.473 395.59 307.878 383.568 289.56 373.218C342.559 317.875 342.559 317.875 360.548 299.823Z" fill="black"/>
<path d="M244.26 314.98C245.167 314.059 246.074 313.137 247.009 312.187C249.981 309.176 252.977 306.189 255.975 303.203C258.067 301.101 260.159 298.998 262.249 296.894C266.623 292.501 271.009 288.12 275.403 283.748C281.015 278.161 286.591 272.541 292.159 266.91C296.467 262.563 300.794 258.237 305.128 253.916C307.191 251.852 309.249 249.782 311.299 247.705C314.175 244.797 317.077 241.918 319.987 239.045C320.817 238.194 321.647 237.344 322.502 236.467C329.839 229.32 338.33 225.12 348.596 224.118C364.696 225.722 372.332 230.671 383.752 241.752C387.454 246.708 387.484 248.471 386.885 254.503C379.902 269.514 364.546 281.74 352.978 293.256C350.703 295.534 348.428 297.813 346.154 300.092C341.404 304.849 336.646 309.598 331.882 314.341C325.807 320.392 319.752 326.461 313.702 332.537C309.014 337.24 304.315 341.934 299.614 346.625C297.378 348.857 295.146 351.093 292.916 353.332C263.229 383.124 263.229 383.125 254.142 384.37C248.794 383.578 245.545 379.533 241.9 375.825C241.089 375.004 240.279 374.183 239.444 373.337C231.333 364.711 227.035 355.64 227.328 343.606C229.962 331.821 235.782 323.362 244.26 314.98Z" fill="black"/>
<path d="M167.635 195.679C178.224 185.091 188.812 174.503 199.721 163.594C218.166 179.904 218.166 179.904 226.154 186.985C231.557 191.776 236.962 196.565 242.373 201.346C246.747 205.21 251.115 209.08 255.48 212.955C257.128 214.416 258.777 215.874 260.429 217.331C272.785 228.23 284.291 239.609 295.977 251.294C282.212 265.059 268.448 278.823 254.266 293.005C225.148 260.771 196.328 228.292 167.635 195.679Z" fill="black"/>
<path d="M139.761 98.9555C156.144 97.1351 168.047 98.5997 181.339 108.982C190.311 117.064 197.624 127.626 198.626 139.979C198.718 152.141 192.071 159.442 184.022 167.638C182.39 169.264 180.749 170.883 179.102 172.494C176.59 174.96 174.128 177.468 171.667 179.983C170.067 181.578 168.464 183.17 166.858 184.759C166.132 185.503 165.405 186.247 164.656 187.014C159.22 192.244 154.737 193.756 147.315 194.61C143.296 194.501 143.296 194.501 139.694 193.941C137.904 193.689 137.904 193.689 136.076 193.432C123.486 190.192 114 180.703 106.736 170.224C101.419 159.766 99.9479 146.162 102.379 134.726C108.523 116.528 121.402 104.301 139.761 98.9555Z" fill="black"/>
</svg>
