<svg width="1024" height="1024" viewBox="0 0 1024 1024" fill="none" xmlns="http://www.w3.org/2000/svg">
<path d="M313.712 358.199C317.253 356.697 320.796 355.202 324.34 353.709C325.343 353.283 326.346 352.857 327.379 352.418C328.834 351.807 328.834 351.807 330.318 351.184C331.209 350.808 332.099 350.431 333.016 350.044C335.536 349.106 335.536 349.106 340.083 348.197C342.627 350.029 342.627 350.029 345.472 352.828C346.563 353.889 347.654 354.95 348.777 356.043C349.977 357.237 351.177 358.431 352.413 359.661C353.709 360.931 355.006 362.2 356.304 363.468C359.909 366.996 363.497 370.541 367.083 374.089C370.994 377.952 374.921 381.799 378.845 385.649C385.809 392.482 392.762 399.326 399.711 406.175C410.389 416.7 421.087 427.203 431.79 437.703C455.819 461.277 479.824 484.874 503.826 508.476C515.539 519.994 527.255 531.51 538.97 543.025C578.565 581.943 618.156 620.864 657.695 659.84C661.949 664.033 666.204 668.226 670.459 672.419C673.114 675.036 675.769 677.652 678.423 680.268C679.373 681.204 679.373 681.204 680.342 682.159C688.161 689.864 695.975 697.574 703.785 705.289C708.044 709.494 712.307 713.696 716.57 717.897C718.481 719.782 720.391 721.669 722.299 723.557C724.824 726.056 727.354 728.549 729.886 731.041C730.612 731.763 731.338 732.484 732.086 733.227C735.001 736.087 737.412 738.273 741.092 740.113C740.516 739.53 739.939 738.948 739.346 738.348C719.141 717.932 698.942 697.51 678.747 677.086C677.523 675.848 677.523 675.848 676.275 674.586C603.867 601.357 531.588 528.001 459.327 454.628C457.265 452.534 455.203 450.441 453.141 448.347C417.877 412.541 382.616 376.733 347.357 340.922C348.809 337.074 350.27 333.229 351.733 329.385C352.144 328.296 352.555 327.206 352.978 326.083C353.58 324.505 353.58 324.505 354.195 322.896C354.561 321.929 354.928 320.962 355.306 319.966C356.404 317.388 357.676 315.094 359.178 312.733C412.924 366.219 466.205 420.15 519.279 474.302C525.453 480.601 531.628 486.899 537.803 493.196C728.558 687.735 728.558 687.735 829.296 796.49C830.281 797.584 831.266 798.678 832.28 799.805C841.231 809.767 850.096 819.783 858.5 830.213C859.075 830.925 859.65 831.636 860.243 832.368C870.029 844.725 876.223 859.265 879.308 874.692C874.283 877.018 871.325 876.159 866.18 874.408C864.868 873.98 863.557 873.552 862.205 873.111C835.946 862.584 813.866 838.483 793.292 819.593C792.378 818.755 791.463 817.916 790.521 817.053C769.576 797.849 748.889 778.375 728.261 758.832C725.083 755.822 721.905 752.812 718.726 749.802C704.862 736.673 691.009 723.531 677.162 710.383C672.581 706.033 668 701.685 663.417 697.339C590.652 628.321 518.582 558.602 446.679 488.687C443.36 485.459 440.039 482.231 436.719 479.004C423.963 466.602 411.209 454.198 398.461 441.787C394.554 437.984 390.646 434.181 386.737 430.379C362.199 406.512 337.845 382.476 313.712 358.199Z" fill="black"/>
<path d="M162.766 136.325C172.225 135.108 179.83 136.556 187.885 141.781C195.744 148.376 198.83 155.99 200.762 165.896C200.971 169.297 200.291 171.352 199.138 174.517C203.541 178.413 207.959 182.292 212.38 186.167C213.628 187.272 214.876 188.377 216.161 189.515C217.372 190.573 218.582 191.631 219.829 192.721C220.938 193.697 222.048 194.673 223.191 195.679C226.293 198.278 226.293 198.278 229.899 199.636C232.783 200.887 232.783 200.887 234.602 204.524C241.47 212.227 248.825 218.721 257.459 224.362C260.063 226.348 260.063 226.348 261.307 228.494C263.004 231.24 264.826 232.864 267.309 234.923C268.245 235.707 269.181 236.492 270.145 237.3C271.681 238.574 271.681 238.574 273.248 239.874C280.812 246.216 288.306 252.621 295.665 259.201C296.366 259.827 297.068 260.454 297.79 261.099C300.579 263.592 303.367 266.086 306.142 268.594C317.094 279.543 317.094 279.543 330.08 287.272C336.357 285.706 340.974 281.071 345.784 276.961C346.68 276.206 347.577 275.451 348.501 274.673C350.414 273.061 352.325 271.447 354.233 269.829C359.159 265.655 364.104 261.504 369.053 257.357C370.017 256.548 370.982 255.74 371.976 254.907C380.137 248.088 388.448 241.512 396.984 235.166C406.6 228.589 406.6 228.589 411.464 218.619C412.693 213.269 414.708 210.599 419.193 207.252C424.213 205.579 427.405 205.271 432.606 206.229C437.422 208.637 439.336 210.721 441.926 215.436C442.725 225.136 442.725 225.136 439.227 229.481C432.921 236.156 432.921 236.156 427.548 237.203C425.663 237.231 425.663 237.231 423.74 237.26C419.889 239.134 417.12 241.811 414.087 244.801C413.08 245.791 412.072 246.782 411.034 247.802C409.404 249.42 409.404 249.42 407.742 251.07C406.607 252.192 405.473 253.314 404.304 254.47C401.251 257.498 398.203 260.531 395.16 263.569C393.906 264.821 392.652 266.072 391.397 267.323C374.404 284.258 357.954 301.323 343.18 320.263C335.312 330.26 326.273 338.297 316.411 346.283C299.247 360.214 283.228 375.261 267.513 390.801C265.17 393.116 262.82 395.422 260.462 397.721C257.118 400.989 253.807 404.288 250.504 407.597C249.502 408.57 248.499 409.543 247.466 410.545C241.759 416.356 238.79 420.956 237.226 429.008C235.809 434.014 232.407 437.11 228.236 440.038C223.788 441.984 221.588 441.968 216.813 441.118C211.788 438.64 208.889 435.99 206.413 430.945C205.859 425.717 205.88 422.916 208.231 418.214C214.253 411.118 214.253 411.118 219.819 410.326C225.507 408.892 227.088 407.238 230.744 402.741C231.279 402.095 231.813 401.449 232.363 400.783C234.046 398.733 235.691 396.657 237.33 394.572C238.882 392.623 238.882 392.623 240.465 390.634C243.102 387.286 245.716 383.923 248.316 380.547C258.127 367.816 268.182 355.39 278.863 343.37C279.704 342.415 280.544 341.459 281.41 340.474C282.142 339.655 282.875 338.836 283.629 337.992C285.837 335.048 287.194 332.639 288.251 329.101C287.659 326.673 287.052 324.248 286.433 321.826C287.228 318.329 287.228 318.329 288.642 314.751C289.14 313.461 289.638 312.172 290.152 310.844C290.687 309.517 291.223 308.19 291.775 306.823C292.304 305.468 292.832 304.113 293.377 302.716C294.682 299.38 296.005 296.051 297.345 292.728C296.372 294.094 296.372 294.094 295.38 295.488C283.577 311.866 283.577 311.866 278.249 313.643C274.254 309.754 270.324 305.809 266.428 301.821C265.375 300.789 265.375 300.789 264.3 299.736C262.734 298.014 262.734 298.014 260.972 294.547C261.884 290.998 262.941 288.662 264.609 285.454C265.908 282.541 267.196 279.623 268.474 276.701C269.609 274.162 270.745 271.623 271.884 269.086C270.723 270.267 269.563 271.449 268.367 272.666C266.85 274.201 265.332 275.736 263.814 277.27C263.048 278.05 262.283 278.831 261.494 279.635C260.761 280.374 260.029 281.112 259.274 281.873C258.598 282.559 257.922 283.245 257.225 283.951C255.516 285.454 255.516 285.454 253.697 285.454C246.958 279.355 240.861 272.789 235.511 265.449C237.612 261.548 239.712 257.647 241.876 253.628C237.375 255.128 232.874 256.628 228.236 258.174C225.643 255.423 223.071 252.656 220.507 249.877C219.77 249.098 219.033 248.32 218.273 247.518C217.227 246.375 217.227 246.375 216.16 245.209C215.512 244.514 214.864 243.819 214.197 243.102C212.405 240.317 212.379 238.698 212.778 235.441C214.597 232.372 214.597 232.372 216.415 229.985C215.815 229.385 215.215 228.785 214.597 228.167C213.978 228.936 213.359 229.704 212.721 230.497C210.05 232.713 210.05 232.713 207.123 232.912C202.094 231.291 199.916 227.674 196.922 223.563C195.643 221.904 194.358 220.25 193.068 218.601C192.091 217.352 192.091 217.352 191.094 216.077C182.766 204.841 182.766 204.841 171.163 198.301C167.897 198.337 167.897 198.337 164.737 198.752C160.045 199.267 156.589 197.961 152.763 195.431C145.069 189.167 138.559 182.862 137.305 172.698C136.298 154.539 145.194 141.466 162.766 136.325Z" fill="black"/>
</svg>
