<svg width="1024" height="1024" viewBox="0 0 1024 1024" fill="none" xmlns="http://www.w3.org/2000/svg">
<path d="M382.98 274.114C388.289 285.546 386.245 295.588 382.102 307.125C379.145 313.818 375.24 319.571 370.923 325.444C371.828 326.124 372.734 326.805 373.667 327.506C388.436 338.812 402.363 351.074 416.381 363.288C420.12 366.542 423.86 369.795 427.602 373.045C429.909 375.049 432.214 377.055 434.517 379.064C438.338 382.386 442.175 385.688 446.023 388.979C446.946 389.768 447.868 390.556 448.819 391.369C466.793 406.7 485.183 421.459 503.793 436.005C506.066 437.782 508.338 439.56 510.609 441.339C518.642 447.629 526.678 453.915 534.719 460.195C541.23 465.282 547.735 470.375 554.235 475.476C606.182 516.239 658.814 555.753 713.482 592.829C716.047 594.569 718.609 596.311 721.172 598.054C750.632 618.077 780.365 637.579 810.776 656.134C811.973 656.867 813.17 657.6 814.404 658.354C858.908 685.573 903.897 712.787 951.259 734.812C970.949 743.975 970.949 743.975 973.393 750.076C972.797 753.56 972.797 753.56 970.86 756.299C941.944 775.485 896.684 772.52 864.278 765.975C800.506 751.48 742.666 708.966 688.706 673.851C685.509 671.776 682.301 669.719 679.095 667.66C663.582 657.615 648.593 646.829 633.582 636.056C632.566 635.328 631.549 634.599 630.502 633.849C622.556 628.144 614.647 622.391 606.753 616.614C606.04 616.093 605.328 615.571 604.593 615.034C572.786 591.751 541.617 567.673 510.569 543.39C509.355 542.442 508.142 541.493 506.891 540.516C450.368 496.33 395.469 450.622 341.718 403.106C339.826 401.434 337.932 399.765 336.037 398.097C334.904 397.092 333.772 396.088 332.604 395.053C331.62 394.182 330.636 393.311 329.621 392.414C327.136 390.075 324.93 387.646 322.761 385.015C321.858 385.901 321.858 385.901 320.938 386.805C310.353 396.762 298.431 404.812 283.509 405.011C275.512 404.382 268.424 400.541 263.201 394.467C256.863 384.89 256.485 374.865 258.316 363.825C260.643 354.524 263.863 345.918 267.779 337.199C267.217 336.69 266.655 336.182 266.076 335.658C252.132 323.048 238.19 310.436 224.25 297.823C217.507 291.722 210.764 285.621 204.019 279.522C186.037 263.26 168.067 246.984 150.114 230.689C148.907 229.593 147.699 228.497 146.454 227.368C139.577 221.126 132.706 214.878 125.845 208.619C123.777 206.734 121.708 204.851 119.636 202.97C116.8 200.394 113.971 197.811 111.144 195.226C110.331 194.49 109.518 193.754 108.68 192.996C99.3655 184.443 91.9694 177.101 89.9955 164.178C91.7228 148.593 102.513 135.316 114.312 125.667C120.446 121.195 126.705 118.109 134.462 118.02C140.755 119.203 145.037 122.586 149.91 126.51C151.166 127.508 151.166 127.508 152.447 128.526C161.348 135.679 169.756 143.337 178.13 151.093C179.815 152.643 181.5 154.193 183.186 155.741C186.756 159.022 190.323 162.306 193.886 165.593C203.307 174.283 212.753 182.945 222.2 191.606C223.156 192.483 224.112 193.36 225.097 194.264C245.35 212.834 265.781 231.201 286.283 249.495C287.067 250.194 287.851 250.894 288.658 251.615C298.007 259.958 307.363 268.295 316.727 276.622C317.678 275.946 318.63 275.27 319.61 274.573C320.872 273.683 322.134 272.793 323.434 271.876C325.302 270.555 325.302 270.555 327.207 269.207C338.065 261.935 349.285 256.981 362.481 259.01C371.768 261.264 378.02 265.955 382.98 274.114ZM358.607 274.208C334.507 277.167 314.027 298.523 299.678 316.457C286.325 333.653 271.409 357.511 273.906 380.157C275.445 383.947 276.868 385.383 280.321 387.497C280.84 386.834 281.359 386.17 281.893 385.486C281.229 384.967 280.565 384.448 279.881 383.914C280.286 382.626 280.286 382.626 280.699 381.312C281.909 377.203 281.909 377.203 282.565 372.443C286.385 353.11 297.99 335.063 309.985 319.853C310.985 318.581 311.985 317.31 313.015 316C326.883 298.681 342.386 281.585 364.982 277.063C362.15 274.45 362.15 274.45 358.607 274.208ZM132.993 133.377C125.011 136.919 120.301 143.921 114.986 150.594C114.145 151.61 113.304 152.626 112.438 153.672C107.594 159.707 107.594 159.707 105.687 167.072C106.714 172.461 108.405 173.991 112.688 177.25C113.611 177.956 114.534 178.662 115.484 179.39C116.196 179.927 116.908 180.465 117.642 181.019C118.121 180.383 118.6 179.748 119.094 179.093C128.265 166.997 137.236 155.37 148.733 145.37C145.862 138.436 140.821 132.941 132.993 133.377ZM889.695 731.792C861.734 727.558 834.294 718.457 808.762 706.401C806.664 705.412 806.664 705.412 804.524 704.402C755.434 680.966 708.827 652.638 663.056 623.343C662.049 622.7 661.042 622.057 660.005 621.395C616.447 593.565 574.28 563.693 532.03 533.934C531.771 534.266 531.512 534.598 531.244 534.94C607.68 595.471 684.586 656.104 769.011 705.314C769.8 705.775 770.589 706.237 771.402 706.712C805.759 726.694 852.062 746.722 892.747 736.656C894.73 736.013 896.676 735.26 898.607 734.476C895.851 732.323 893.08 732.293 889.695 731.792ZM162.912 166.877C162.134 167.104 161.355 167.331 160.553 167.565C158.456 172.987 158.642 177.535 159.117 183.212C159.169 185.924 159.169 185.924 157.817 189.727C156.562 189.281 155.307 188.835 154.013 188.376C149.041 188.837 149.041 188.837 144.268 190.482C141.761 193.962 141.761 193.962 141.564 198.089C144.279 201.429 144.279 201.429 148.606 203.591C151.876 203.201 154.718 202.314 157.838 201.267C161.869 199.952 165.678 199.547 169.889 199.159C171.037 192.93 171.568 186.858 171.693 180.521C171.723 179.162 171.753 177.803 171.784 176.403C170.947 171.187 168.592 166.929 162.912 166.877ZM187.713 188.785C184.716 190.881 184.716 190.881 182.998 194.821C182.828 199.392 183.207 203.833 183.752 208.37C180.149 210.24 177.778 210.95 173.633 211.602C168.63 212.441 168.63 212.441 166.387 216.47C165.77 218.093 165.77 218.093 165.141 219.749C167.819 223.137 169.018 224.555 173.189 226.037C176.491 225.452 176.491 225.452 180.036 224.4C183.862 223.337 187.237 222.489 191.208 222.226C192.285 222.021 193.362 221.816 194.472 221.605C197.669 216.29 196.924 210.425 196.853 204.431C196.864 203.309 196.874 202.188 196.885 201.032C196.871 199.421 196.871 199.421 196.857 197.776C196.853 196.796 196.848 195.816 196.844 194.806C195.787 189.63 192.42 189.14 187.713 188.785ZM212.296 211.231C209.324 214.885 207.775 217.59 207.859 222.37C208.247 225.478 208.725 228.532 209.341 231.602C208.043 231.724 206.745 231.846 205.407 231.971C196.674 232.961 196.674 232.961 189.874 237.857C189.369 241.336 189.866 242.733 191.956 245.559C197.365 247.78 201.321 247.363 206.993 246.271C208.422 246.008 209.852 245.744 211.325 245.473C215.208 244.553 218.739 243.35 222.418 241.819C222.379 238.983 222.332 236.146 222.283 233.31C222.258 231.73 222.233 230.151 222.207 228.523C222.32 219.646 222.32 219.646 218.55 212.169C215.842 210.454 215.842 210.454 212.296 211.231ZM241.469 234.023C240.286 234.169 239.104 234.314 237.885 234.463C233.21 240.691 232.98 244.828 233.704 252.256C230.195 254.207 227.584 254.87 223.536 255.551C218.74 256.322 218.74 256.322 216.641 259.581C215.528 262.877 215.528 262.877 217.325 267C220.448 269.242 222.007 269.156 225.84 268.615C227.198 268.264 228.556 267.914 229.955 267.552C231.307 267.214 232.659 266.875 234.053 266.527C237.797 265.437 241.375 264.154 244.989 262.694C245.356 259.259 245.709 255.825 246.054 252.388C246.159 251.416 246.265 250.443 246.373 249.441C246.831 244.785 246.981 241.664 245.493 237.167C244.165 236.13 242.837 235.092 241.469 234.023ZM289.755 271.748C284.072 275.885 281.007 278.279 276.941 283.525C276.017 284.711 275.094 285.897 274.142 287.119C273.203 288.347 272.263 289.575 271.295 290.84C270.335 292.07 269.375 293.301 268.385 294.568C262.898 301.436 262.898 301.436 258.883 309.189C262.483 313.168 266.149 316.581 270.403 319.86C271.303 320.555 272.203 321.251 273.13 321.968C273.813 322.492 274.495 323.016 275.198 323.555C276.171 322.295 276.171 322.295 277.162 321.009C279.602 317.851 282.045 314.697 284.492 311.546C286.058 309.526 287.618 307.503 289.179 305.479C294.499 298.635 299.838 292.146 306.07 286.115C300.686 281.374 295.302 276.633 289.755 271.748ZM347.754 321.922C340.207 328.562 333.744 335.305 327.575 343.214C326.949 344.014 326.323 344.814 325.678 345.638C322.055 350.365 318.942 355.137 316.097 360.368C319.084 362.703 322.072 365.037 325.15 367.442C326.07 366.066 326.991 364.691 327.939 363.273C346.088 336.555 346.088 336.555 354.776 334.35C357.468 334.371 357.468 334.371 363.063 335.503C358.011 331.022 352.959 326.54 347.754 321.922ZM257.878 256.564C254.673 259.557 251.485 262.569 248.3 265.584C247.393 266.43 246.487 267.277 245.552 268.149C244.681 268.977 243.81 269.805 242.912 270.658C242.109 271.413 241.307 272.169 240.48 272.948C238.177 275.532 236.787 277.97 235.432 281.147C235.489 283.27 235.489 283.27 238.069 285.029C240.399 287.106 240.399 287.106 242.474 286.648C243.734 285.307 244.964 283.938 246.177 282.556C249.99 278.513 252.176 277.988 257.721 277.5C261.143 273.12 261.053 268.911 260.55 263.511C259.886 262.993 259.222 262.474 258.538 261.939C258.984 260.684 259.431 259.429 259.89 258.136C259.226 257.617 258.562 257.098 257.878 256.564ZM726.322 626.335C724.555 625.134 724.555 625.134 722.753 623.908C720.822 622.597 720.822 622.597 718.852 621.259C716.033 619.338 713.215 617.417 710.396 615.495C706.03 612.518 701.663 609.544 697.291 606.577C650.38 574.727 604.867 541.158 560.296 506.115C555.808 502.591 551.312 499.079 546.815 495.567C504.809 462.746 463.428 429.234 422.969 394.523C417.014 389.415 411.051 384.316 405.087 379.218C403.057 377.482 401.03 375.742 399.003 374.002C392.279 368.246 385.493 362.64 378.467 357.258C375.282 360.65 372.097 364.042 368.815 367.537C371.074 370.942 373.248 372.988 376.325 375.654C377.446 376.627 378.567 377.6 379.722 378.603C380.965 379.672 382.208 380.741 383.489 381.843C384.463 382.682 384.463 382.682 385.456 383.538C390.563 387.937 395.686 392.316 400.815 396.689C401.58 397.342 402.345 397.995 403.133 398.668C432.112 423.386 461.812 447.128 491.848 470.546C492.853 471.33 493.858 472.115 494.893 472.923C526.858 497.871 559.119 522.283 592.585 545.2C593.644 545.927 594.704 546.653 595.796 547.402C633.77 573.409 672.206 598.77 711.804 622.246C712.907 622.903 714.01 623.559 715.146 624.236C718.207 626.054 721.277 627.856 724.351 629.65C725.256 630.187 726.16 630.723 727.091 631.275C729.206 632.494 731.382 633.606 733.568 634.693C734.418 634.288 735.269 633.884 736.146 633.467C732.924 630.95 729.7 628.628 726.322 626.335Z" fill="black"/>
</svg>
