<svg width="1024" height="1024" viewBox="0 0 1024 1024" fill="none" xmlns="http://www.w3.org/2000/svg">
<path d="M255 287.001C254.532 293.662 253.989 300.305 253.246 306.942C249.429 342.074 249.491 377.2 255.337 412.092C258.467 430.8 258.467 430.8 252.566 439.122C245.955 447.052 238.675 451.315 228.312 452.379C218.909 452.673 211.227 451.778 204.062 445.376C199.659 438.171 198.397 429.623 196.957 421.399C196.697 419.955 196.697 419.955 196.432 418.482C195.886 415.447 195.349 412.412 194.812 409.376C194.441 407.301 194.07 405.227 193.697 403.153C192.792 398.103 191.894 393.052 191 388.001C190.994 388.622 190.988 389.243 190.982 389.882C190.918 396.372 190.833 402.861 190.737 409.35C190.704 411.769 190.676 414.188 190.653 416.607C190.62 420.093 190.568 423.578 190.512 427.063C190.505 428.137 190.499 429.211 190.492 430.318C190.359 437.204 189.797 443.312 185.492 448.989C176.604 456.267 167.285 457.056 156 456.001C148.531 454.355 142.29 452.104 137.409 446.015C135.35 441.609 135.54 437.512 135.523 432.704C135.508 431.714 135.493 430.725 135.477 429.706C135.429 426.554 135.401 423.402 135.375 420.251C135.339 417.085 135.298 413.918 135.252 410.753C135.225 408.784 135.203 406.815 135.188 404.846C135.178 403.962 135.169 403.077 135.158 402.166C135.152 401.384 135.144 400.601 135.138 399.795C135.194 397.978 135.194 397.978 134 397.001C133.779 398.15 133.557 399.3 133.329 400.485C132.5 404.77 131.654 409.053 130.802 413.334C130.436 415.183 130.075 417.034 129.72 418.885C129.206 421.554 128.675 424.219 128.141 426.883C127.986 427.705 127.832 428.528 127.673 429.375C126.652 434.359 125.27 437.96 122 442.001C115.214 446.072 108.121 445.713 100.5 444.313C93.9865 442.659 87.9539 440.193 83.4375 435.126C80.8092 429.412 80.8633 424.21 81.7773 418.079L82.334 414.223C82.5347 412.899 82.7359 411.575 82.9375 410.251C83.325 407.631 83.7074 405.011 84.0898 402.391C84.3507 400.659 84.3511 400.659 84.6172 398.892C85.0659 395.991 85.0657 395.991 85 393.001C84.7181 393.782 84.436 394.563 84.1455 395.368C83.0846 398.297 82.0178 401.225 80.9473 404.151C80.2625 406.028 79.5843 407.908 78.9062 409.788C72.7128 426.683 72.7126 426.684 67 430.001C59.0905 432.637 52.3083 430.374 45 427.001C37.8945 423.047 32.6961 418.896 30 411.001C29.154 401.313 33.7094 392.415 37.4375 383.751C38.3416 381.616 39.2416 379.479 40.1377 377.34C40.692 376.021 41.2517 374.704 41.8174 373.39C43.5514 369.309 44.8595 365.275 46 361.001C52.4277 362.703 58.7914 364.536 65.1279 366.55C76.6331 370.184 88.078 373.126 100 375.001C101.103 375.176 101.104 375.176 102.229 375.355C130.839 379.635 170.459 381.839 196.062 366.188C209.934 355.856 212.089 337.787 214.598 321.782C215.338 316.66 215.922 311.523 216.405 306.371C216.907 301.094 216.907 301.094 218 300.001C219.721 299.806 221.443 299.616 223.168 299.457C234.392 298.378 243.731 295.406 252.574 288.137C254 287.001 254 287.001 255 287.001Z" fill="black"/>
<path d="M769 288.001C771.662 289.271 774.024 290.688 776.438 292.376C785.397 297.994 795.594 299.626 806 300.001C806.271 301.75 806.542 303.501 806.812 305.251L807.375 308.848C807.827 311.789 808.235 314.734 808.625 317.684C812.081 344.723 812.082 344.724 827.434 366.215C852.865 383.905 900.034 379.181 929 374.001C944.099 371.073 958.677 366.777 973.129 361.547C975 361 975 361.001 978 361.001L978.742 363.403C981.874 373.175 985.601 382.63 989.609 392.078C992.621 399.367 995.224 406.271 993.062 414.126C989.382 422.39 981.757 425.917 973.734 429.055C967.646 431.16 962.647 431.763 956.312 429.938C950.378 426.467 948.456 420.003 946.203 413.754C945.965 413.098 945.726 412.442 945.48 411.766C944.731 409.701 943.99 407.632 943.25 405.563C942.739 404.15 942.227 402.736 941.715 401.323C940.47 397.885 939.233 394.443 938 391.001L938.367 393.38C938.921 397.002 939.46 400.627 940 404.251L940.578 407.993C943.494 427.781 943.494 427.782 940.375 434.501C933.279 441.97 923.359 445.142 913.125 445.438C908.401 445.238 905.088 444.385 901 442.001C898.172 438.914 897.343 436.145 896.5 432.083L895.75 428.526L895 424.813L894.25 421.253C892.299 411.87 890.626 402.444 889 393.001C888.992 393.549 888.984 394.097 888.976 394.662C888.889 400.388 888.79 406.115 888.683 411.841C888.644 413.976 888.61 416.111 888.578 418.246C888.532 421.321 888.474 424.398 888.414 427.473C888.403 428.421 888.391 429.369 888.379 430.346C888.213 437.864 887.664 444.485 882 450.001C872.887 456.076 860.913 457.462 850.293 455.501C843.699 453.761 839.274 451.361 835.372 445.593C833.372 440.354 833.52 435.385 833.488 429.821C833.47 428.653 833.452 427.485 833.434 426.282C833.38 422.563 833.346 418.844 833.312 415.126C833.279 412.6 833.245 410.073 833.209 407.547C833.124 401.365 833.056 395.183 833 389.001C832.768 390.19 832.537 391.38 832.298 392.605C831.43 397.059 830.561 401.514 829.692 405.968C829.318 407.888 828.944 409.809 828.569 411.729C828.028 414.504 827.487 417.28 826.945 420.055C826.781 420.9 826.616 421.745 826.446 422.616C826.127 424.254 825.805 425.892 825.481 427.53C825.146 429.253 824.822 430.98 824.509 432.708C824.345 433.589 824.181 434.471 824.012 435.379C823.797 436.57 823.797 436.57 823.577 437.784C822.382 442.378 819.99 445.726 816 448.282C807.137 452.843 797.171 453.609 787.523 451.094C778.436 447.505 772.197 442.879 768 434.001C765.145 425.199 767.442 414.976 768.938 406.126C769.305 403.921 769.668 401.715 770.027 399.508C770.19 398.546 770.352 397.582 770.52 396.59C771.787 387.125 772.166 377.702 772.203 368.161C772.213 366.371 772.213 366.37 772.224 364.544C772.24 360.717 772.247 356.89 772.25 353.063C772.252 351.765 772.254 350.465 772.257 349.128C772.269 331.321 771.814 313.917 769.281 296.28C768.939 293.507 768.886 290.79 769 288.001Z" fill="black"/>
<path d="M958 278.001C972.594 289.351 990.113 310.928 994.77 328.985C995.037 332.491 994.858 334.011 993 337.001C990.725 338.674 988.655 339.993 986.188 341.313C985.485 341.696 984.783 342.079 984.06 342.474C969.275 350.28 953.267 355.354 937 359.001C936.176 359.186 935.351 359.371 934.502 359.562C906.534 365.697 864.847 371.94 838.387 357.583C836.404 356.172 834.707 354.73 833 353.001L830.75 350.751C822.255 337.401 821.601 320.406 821 305.001C824.598 306.368 827.922 307.996 831.312 309.813C836.211 312.286 841.09 314.182 846.312 315.813C846.97 316.02 847.627 316.226 848.304 316.439C872.668 323.755 898.937 317.129 920.814 305.518C934.657 297.921 946.644 288.941 958 278.001Z" fill="black"/>
<path d="M66.6875 280.376C85.9931 296.824 107.312 310.486 132 317.001L134.781 317.747C158.446 323.042 181.191 316.066 202 305.001C202.754 320.809 201.071 339.997 191.312 353.063C187.56 356.921 183.071 358.481 178 360.001L175.273 360.837C130.069 372.883 75.3815 362.284 35 340.001C30.2733 336.676 30.273 336.675 28.9375 333.376C29.2655 315.664 48.9133 295.144 60.1875 283.024C62.1497 280.93 62.15 280.929 64 278.001L66.6875 280.376Z" fill="black"/>
<path d="M157.262 189.965C162.085 223.639 169.888 258.517 194.117 283.844C195.859 285.839 196.956 287.584 198 290.001C182.85 301.982 165.358 307.817 146 306.001C116.414 301.879 92.0276 285.401 71 265.001L68.4375 262.551L66.1875 260.251L64.2305 258.266C62.365 254.831 63.0218 252.722 64 249.001C65.2964 246.627 66.5264 244.643 68.125 242.501C68.7822 241.607 68.7827 241.606 69.4531 240.694C88.1143 216.114 124.405 188.001 157 188.001L157.262 189.965Z" fill="black"/>
<path d="M866 188.001C894.961 188.935 922.778 208.723 943 228.001L944.809 229.618C948.851 233.371 952.121 237.63 955.375 242.063C955.816 242.653 956.258 243.242 956.713 243.85C959.335 247.521 961.167 250.431 961 255.001C959.376 257.559 957.902 259.493 955.875 261.688C955.33 262.297 954.784 262.907 954.222 263.535C933.988 285.637 903.367 304.325 873.066 306.251C854.317 306.553 840.548 299.75 825 290.001L827.375 287.313C851.146 259.486 864.451 224.71 866 188.001Z" fill="black"/>
<path fill-rule="evenodd" clip-rule="evenodd" d="M787 161.001C806.892 158.582 834.107 159.748 851 172.001C853.862 176.54 853.344 181.995 853.312 187.188C853.307 188.167 853.302 189.147 853.296 190.156C852.814 219.548 842.805 253.486 822.582 275.547C815.953 281.636 808.459 285.416 799.5 286.376C788.938 285.244 782.158 280.366 775.48 272.126C771.82 266.124 771.818 258.758 773 252.001C774.153 247.716 775.652 243.558 777.146 239.383C780.781 229.131 783.051 218.689 785 208.001C785.133 207.28 785.266 206.56 785.402 205.818C787.968 191.103 787.19 175.881 787 161.001ZM805.887 240.665C799.402 240.549 794.855 241.806 790.359 246.836C787.99 250.609 787.889 254.621 788 259.001C789.612 263.747 792.248 266.717 796 270.001C801.364 271.789 806.104 271.689 811.25 269.438C815.564 267.027 817.143 264.564 819 260.001C819.47 255.461 819.217 252.012 817 248.001C813.741 244.313 810.853 241.454 805.887 240.665Z" fill="black"/>
<path fill-rule="evenodd" clip-rule="evenodd" d="M191.801 163.801C206.206 159.738 221.181 160.619 236 161.001C236.009 161.864 236.019 162.727 236.028 163.617C236.408 191.768 239.567 217.34 248.15 244.33C251.244 254.063 252.655 262.022 248.32 271.676C243.947 279.375 237.306 283.204 228.957 285.583C221.571 287.16 215.533 285.533 209 282.001C199.979 275.58 193.477 266.962 188.5 257.188C187.795 255.815 187.795 255.815 187.076 254.415C175.876 232.129 165.546 201.217 171 176.001C172.438 172.045 173.821 170.619 177.523 168.676C180.96 167.235 184.437 166.077 188 165.001L191.801 163.801ZM217.539 240.719C213.814 241.132 211.782 242.55 209 245.001L206.625 247.063C204.1 251.628 204.161 255.909 205 261.001C206.747 265.119 209.162 267.423 212.812 269.938C217.992 271.665 222.032 271.695 227.188 269.876C231.718 266.855 234.439 263.893 236 258.626C236 253.534 235.076 249.237 231.531 245.419C226.742 241.345 223.658 240.649 217.539 240.719Z" fill="black"/>
<path d="M250 175.001C264.958 176.285 277.997 181.812 291 189.001L294.203 190.754C302.008 195.35 308.148 201.204 311 210.001C311.887 217.475 311.461 223.814 307 230.001L305.738 231.762C297.743 241.1 282.711 246.49 271 249.001C268.137 249.094 268.137 249.094 266 249.001C253.104 226.804 250.381 200.122 250 175.001Z" fill="black"/>
<path d="M773 175.001C773.978 196.881 770.299 217.38 763 238.001L761.973 241.157L761 243.938L760.188 246.278C759 248 759 248.001 756.875 248.879C753.009 249.042 749.657 248.12 746 247.001C744.88 246.663 744.88 246.663 743.737 246.319C732.822 242.862 721.306 237.77 715.188 227.688C711.871 221.215 711.243 215.347 713.098 208.29C717.711 196.587 729.795 189.612 740.621 184.446C762.703 175.001 762.703 175.001 773 175.001Z" fill="black"/>
</svg>
