<svg width="1024" height="1024" viewBox="0 0 1024 1024" fill="none" xmlns="http://www.w3.org/2000/svg">
<path d="M586 802C589.431 803.592 590.959 805.001 593.125 808.125C605.707 824.68 626.617 831.694 646.477 834.605C657.635 835.855 668.658 836.201 679.875 836.187C681.099 836.187 681.099 836.187 682.348 836.186C720.908 837.15 720.908 837.15 754.664 822.461C756.251 820.726 757.712 818.969 759 817C761.087 819.087 760.277 823.325 760.312 826.187C760.342 826.943 760.371 827.699 760.4 828.478C760.46 833.807 759.555 836.797 756 841C737.719 858.224 691.246 855.491 668.345 854.907C640.415 853.737 611.627 850.366 591.059 829.527C586.107 823.448 585.59 818.687 585.812 811.125C585.826 810.246 585.84 809.367 585.854 808.461C585.889 806.307 585.942 804.153 586 802Z" fill="black"/>
<path d="M436 801C436.66 801 437.32 801 438 801C438.117 804.187 438.188 807.374 438.25 810.562C438.284 811.458 438.317 812.353 438.352 813.275C438.442 819.474 437.556 822.904 434 828C433.589 828.638 433.178 829.276 432.754 829.933C420.264 845.7 395.687 851.182 376.684 853.596C367.693 854.485 358.622 854.333 349.598 854.315C346.166 854.312 342.736 854.336 339.305 854.361C282.491 854.525 282.491 854.525 267 840C263.26 835.644 262.86 832.133 262.875 826.5C262.872 825.561 262.87 824.623 262.867 823.656C262.986 821.278 263.324 819.273 264 817C267 818 267 818 268.688 821.312C271.725 826.805 276.424 828.148 282.094 830.023C319.414 840.629 376.337 842.751 411.589 824.217C421.231 818.816 428.343 812.332 434.441 803.09C434.956 802.4 435.47 801.71 436 801Z" fill="black"/>
<path d="M675 780C680.978 785.607 684.617 792.236 687 800C687.224 800.705 687.449 801.41 687.68 802.136C689.5 808.883 689.626 816.068 689 823C685.948 826.052 682.924 825.292 678.748 825.329C677.614 825.324 676.48 825.318 675.312 825.312C674.148 825.307 672.983 825.302 671.784 825.297C653.704 825.058 629.361 824.566 615 812C615.166 805.535 618.717 801.487 623 797C633.205 788.087 646.791 782.455 660 780C660.75 779.858 661.5 779.716 662.273 779.57C666.797 778.859 670.653 778.525 675 780Z" fill="black"/>
<path d="M384.402 786.605C393.31 791.615 404.192 797.96 408 808C408.117 810.738 408.117 810.738 408 813C389.183 823.147 369.496 825.196 348.375 825.125C347.193 825.129 346.011 825.132 344.793 825.136C343.113 825.135 343.113 825.135 341.398 825.133C339.877 825.131 339.877 825.131 338.326 825.129C336 825 336 825 335 824C333.957 809.449 335.454 795.681 345 784C354.09 773.612 373.635 781.524 384.402 786.605Z" fill="black"/>
<path d="M715.75 778.75C720.287 781.746 724.048 785.864 727.665 789.897C730.937 793.431 733.172 794.742 738 795C737.58 790.094 735.522 788.281 732 785C730.284 783.037 728.646 781.023 727 779C735.436 779.851 743.998 783.12 750.168 789.101C751.624 791.021 752.863 792.879 754 795C754.367 795.637 754.735 796.273 755.113 796.929C756.786 800.834 756.641 804.851 756 809C749.954 817.69 737.819 819.986 728 822C719.747 823.446 711.383 824.441 703 824C701.108 822.108 701.828 819.341 701.761 816.816C701.398 804.145 699.373 793.663 692.074 783.023C691.72 782.355 691.365 781.688 691 781C691.33 780.01 691.66 779.02 692 778C698.846 775.718 709.16 775.467 715.75 778.75Z" fill="black"/>
<path d="M323.188 776.75C324.007 776.742 324.826 776.734 325.67 776.726C331.747 776.746 331.747 776.746 334 779C333.186 780.216 333.186 780.216 332.355 781.457C323.522 795.129 322.243 807.978 321 824C304.51 824.714 282.136 823.181 269 812C266.638 808.505 266.726 805.32 267.398 801.183C269.594 793.212 274.265 787.859 281.219 783.66C287.306 780.337 293.147 778.873 300 778C297.364 780.708 294.533 783.096 291.621 785.5C289.763 787.102 289.763 787.102 288 790C288.312 792.646 288.312 792.646 289 795C292.281 793.577 294.313 791.848 296.75 789.25C304.911 780.891 311.395 776.637 323.188 776.75Z" fill="black"/>
<path d="M559 776C559.557 776.722 560.114 777.444 560.688 778.187C565.195 783.67 569.615 787.143 575.793 790.57C578 792 578 792 580 795C580.227 796.993 580.227 796.993 580.195 799.23C580.189 800.033 580.182 800.835 580.176 801.662C580.159 802.495 580.142 803.329 580.125 804.187C580.116 805.032 580.107 805.877 580.098 806.748C580.074 808.832 580.038 810.916 580 813C576.192 811.597 572.874 809.843 569.438 807.687C568.508 807.114 567.579 806.54 566.621 805.949C562.426 802.829 559.593 799.372 558.309 794.234C557.491 788.315 557.1 781.698 559 776Z" fill="black"/>
<path d="M464 776C466.358 779.537 466.269 781.125 466.25 785.312C466.255 786.422 466.26 787.532 466.266 788.676C465.835 794.058 464.233 798.663 461 803C458.811 804.814 456.476 806.315 454.062 807.812C453.131 808.422 453.131 808.422 452.182 809.045C448.765 811.209 447.143 812 443 812C442.584 797.932 442.584 797.932 445 793C447.483 790.982 450.195 789.521 453 788C458.435 784.719 461.192 781.729 464 776Z" fill="black"/>
<path d="M571 710C571.33 710 571.66 710 572 710C572 711.98 572 713.96 572 716C571.01 715.01 570.02 714.02 569 713C569.66 712.01 570.32 711.02 571 710Z" fill="black"/>
<path d="M638 675C640.312 675.5 640.312 675.5 643 677C649.184 680.05 655.324 682.029 662 683.687C670.759 685.969 679.292 688.697 687.812 691.75C688.91 692.139 690.008 692.528 691.139 692.928C692.151 693.297 693.164 693.666 694.207 694.047C695.109 694.375 696.011 694.703 696.941 695.042C699 696 699 696 700 698C700.02 699.5 699.992 701.001 699.938 702.5C699.867 707.87 700.759 712.792 702 718C697.776 717.304 694.006 715.927 690 714.437C682.921 711.923 676.525 711.429 669 712C669.403 714.517 669.403 714.517 671 717C673.77 717.942 676.146 718.522 679 719C680.614 719.32 682.227 719.641 683.84 719.965C686.389 720.454 688.939 720.938 691.49 721.412C707.775 724.559 707.775 724.559 712.812 731.25C713.55 732.223 714.287 733.196 715.047 734.199C721 742.736 721 742.736 721 746C716.318 745.366 712.057 744.079 707.625 742.5C700.67 740.109 694.337 737.936 687 740C687 741.32 687 742.64 687 744C691.53 746.114 696.042 746.772 700.938 747.5C709.253 748.741 709.253 748.741 713.262 750.129C716.213 751.068 717.858 750.907 720.875 750.437C724.393 750.369 725.577 750.613 728.211 753.019C733.041 759.487 736.631 766.687 740 774C739.343 773.83 738.685 773.66 738.008 773.484C735.941 772.958 733.872 772.442 731.801 771.933C729.845 771.453 727.889 770.971 725.939 770.465C711.272 766.671 697.926 765.617 682.93 768.66C679.438 769.065 676.469 768.532 673 768C651.333 767.669 630.598 775.579 614.242 789.797C609.914 794.05 606.617 798.536 604 804C597.451 801.466 591.823 794.721 588 789C586.936 785.436 587.369 783.3 589 780C590.704 777.014 592.698 774.545 595 772C595.556 771.341 596.111 770.682 596.684 770.004C608.025 757.492 624.206 752.216 640.452 750.038C641.24 749.93 642.028 749.822 642.84 749.711C643.545 749.621 644.25 749.531 644.976 749.439C647.222 748.952 648.993 748.102 651 747C650.894 744.548 650.894 744.548 650 742C641.13 737.432 630.721 740.075 621.66 742.816C606.527 747.71 591.21 755.747 583.254 770.164C581.773 773.085 580.356 776.019 579 779C574.988 778.156 572.392 776.306 569 774C567.948 773.525 566.896 773.051 565.812 772.562C562.492 770.718 561.661 769.374 560 766C558.25 755.278 561.826 744.316 567 735C567.99 734.505 567.99 734.505 569 734C569.238 732.127 569.468 730.253 569.656 728.375C570.151 724.957 571.199 721.785 572.277 718.512C573.062 716.053 573.062 716.053 573.254 713.644C573.663 709.87 574.29 707.716 577.008 704.976C579.911 702.783 582.883 700.879 586 699C586.607 698.628 587.215 698.257 587.841 697.874C600.772 690.028 614.217 684.696 628.66 680.273C632.175 678.933 634.89 677.088 638 675ZM605.688 713.125C604.445 713.463 604.445 713.463 603.178 713.807C591.011 717.265 580.978 723.022 572 732C571.901 734.185 571.901 734.185 572.25 736.562C572.338 737.368 572.425 738.174 572.516 739.004C572.675 739.662 572.835 740.321 573 741C573.66 741.33 574.32 741.66 575 742C575.764 741.431 576.529 740.863 577.316 740.277C590.254 730.854 602.508 725.605 618.232 722.684C619.18 722.505 620.128 722.325 621.105 722.14C621.953 721.991 622.8 721.842 623.673 721.688C626.294 720.913 627.923 719.751 630 718C629.705 715.147 629.188 714.164 627 712.25C620.085 709.368 612.671 711.204 605.688 713.125Z" fill="black"/>
<path d="M392.121 679.054C396.659 681.476 401.477 682.859 406.375 684.375C415.565 687.32 423.755 691.011 432 696C432.636 696.38 433.272 696.759 433.928 697.151C435.859 698.313 437.776 699.494 439.688 700.687C440.553 701.222 440.553 701.222 441.435 701.767C445.044 704.094 447.375 706.643 450 710C450.99 710.33 451.98 710.66 453 711C452.125 715.875 452.125 715.875 451 717C451.217 717.736 451.433 718.472 451.656 719.23C452.074 720.694 452.074 720.694 452.5 722.187C452.918 723.632 452.918 723.632 453.344 725.105C454 728 454 728 453.953 730.734C453.976 731.856 453.976 731.856 454 733C455.202 734.102 456.406 735.201 457.625 736.285C463.331 743.401 464.613 755.148 464 764C462.41 770.504 456.654 773.351 451.312 776.812C450.36 777.438 449.407 778.063 448.426 778.707C447.225 779.347 447.225 779.347 446 780C443.093 778.546 442.754 776.506 441.438 773.562C433.233 756.836 418.146 748.141 401.062 742.187C395.064 740.22 389.153 739.84 382.875 739.875C382.172 739.871 381.47 739.867 380.746 739.863C377.358 739.87 374.238 739.943 371 741C371 742.98 371 744.96 371 747C375.322 748.6 379.233 749.326 383.812 749.75C397.024 751.284 409.325 756.039 420 764C420.652 764.47 421.305 764.941 421.977 765.426C428.165 770.265 432.095 776.726 436 783.437C436 789.717 431.069 793.565 427 798C425.983 799.373 425.983 799.373 424.945 800.773C422.915 803.097 422.01 803.677 419 804C418.542 803.091 418.542 803.091 418.074 802.164C412.095 791.215 402.973 783.701 392 778C391.207 777.572 390.414 777.144 389.598 776.703C375.125 769.478 360.639 767.386 344.633 767.922C341.219 768.03 338.343 767.727 335 767C317.415 765.816 300.611 768.218 284 774C286.355 766.151 291.534 755.245 299 751C301.649 750.462 304.178 750.305 306.879 750.199C316.69 749.573 326.507 746.451 336 744C335.67 742.68 335.34 741.36 335 740C326.122 739.624 317.944 739.77 309.973 744.101C308 745 308 745 304 745C304.464 740.144 306.864 737.07 309.812 733.375C310.251 732.802 310.69 732.23 311.143 731.64C315.151 726.518 318.07 723.887 324.508 722.719C325.578 722.516 326.648 722.314 327.75 722.105C328.864 721.905 329.977 721.706 331.125 721.5C338.914 720.073 346.468 718.467 354 716C354 714.68 354 713.36 354 712C343.745 711.126 335.516 713.637 326 717C325.01 717.33 324.02 717.66 323 718C321.728 715.456 322.201 714.697 322.938 712C324.162 706.944 324.156 702.171 324 697C330.798 693.325 337.789 690.892 345.125 688.5C346.93 687.903 346.93 687.903 348.771 687.294C355.876 684.961 362.981 682.811 370.219 680.929C373.182 679.939 375.434 678.547 378.062 676.875C383.68 673.921 386.86 676.185 392.121 679.054ZM395 714C395.575 717.931 395.575 717.931 398 721C400.037 721.609 400.037 721.609 402.41 722.008C418.832 725.251 432.781 730.04 445.996 740.531C447.855 742.197 447.855 742.197 450 742C450.433 740.804 450.866 739.607 451.312 738.375C451.556 737.702 451.8 737.029 452.051 736.336C451.984 733.243 450.638 731.733 448.598 729.499C445.833 726.905 442.792 724.908 439.562 722.937C438.863 722.506 438.164 722.075 437.443 721.631C426.739 715.238 406.506 705.37 395 714Z" fill="black"/>
<path d="M686.438 644.312C704.862 647.722 704.862 647.722 710 655C714.772 663.043 720.776 673.622 719.762 683.265C719.184 685.435 718.621 687.379 717 689C710.715 688.952 705.21 687.241 699.438 684.937C691.872 682.033 684.257 679.354 676.562 676.812C675.108 676.332 675.108 676.332 673.625 675.841C672.204 675.373 672.204 675.373 670.754 674.894C669.814 674.583 668.875 674.272 667.907 673.951C665.894 673.292 663.876 672.647 661.855 672.013C660.301 671.517 660.301 671.517 658.715 671.012C657.787 670.721 656.858 670.431 655.902 670.131C653 669 653 669 646 665C646 659.06 646 653.12 646 647C654.688 646.687 654.688 646.687 657.397 646.612C668.138 646.117 675.01 642.343 686.438 644.312Z" fill="black"/>
<path d="M602.625 642.75C603.339 642.724 604.053 642.698 604.789 642.672C607 643 607 643 609.129 644.472C613.4 646.745 617.542 646.569 622.312 646.687C623.244 646.721 624.175 646.756 625.135 646.791C627.423 646.873 629.711 646.942 632 647C632.217 649.9 632.375 652.783 632.5 655.687C632.601 656.912 632.601 656.912 632.703 658.162C632.893 664.021 632.893 664.021 630.603 666.531C624.996 670.255 618.324 672.383 612.062 674.75C595.263 681.309 577.492 689.037 564.777 702.293C562 705 562 705 559.25 705.125C556.446 703.723 556.096 702.904 555 700C553.711 687.306 556.583 675.404 560.875 663.562C561.107 662.912 561.339 662.262 561.579 661.592C563.338 656.987 565.234 652.302 569 649C572.533 647.495 576.106 646.802 579.875 646.125C580.843 645.926 581.811 645.728 582.809 645.523C589.342 644.208 595.945 642.896 602.625 642.75Z" fill="black"/>
<path d="M437.75 645.375C438.86 645.597 439.97 645.818 441.113 646.047C453.789 648.64 453.789 648.64 456.59 651.785C464.882 665.797 471.002 683.572 469 700C467.48 702.887 467.48 702.887 466 705C461.28 704.523 459.088 702.643 455.625 699.5C451.165 695.605 446.59 692.277 441.5 689.25C440.649 688.74 440.649 688.74 439.78 688.221C428.914 681.897 417.547 677.098 405.828 672.613C402.862 671.456 399.924 670.257 397 669C396.315 668.706 395.63 668.413 394.925 668.111C393.27 667.238 393.27 667.238 391 665C390.279 662.063 390.385 659.315 390.563 656.312C390.581 655.528 390.6 654.743 390.619 653.935C390.803 648.197 390.803 648.197 392 647C393.356 646.88 394.717 646.82 396.078 646.789C396.91 646.76 397.741 646.732 398.598 646.703C400.35 646.651 402.103 646.607 403.855 646.57C408.95 646.441 408.95 646.441 413.547 644.461C420.465 640.341 430.406 643.835 437.75 645.375Z" fill="black"/>
<path d="M349.75 642.75C350.467 642.724 351.183 642.698 351.922 642.672C354 643 354 643 355.66 644.476C359.386 646.903 363.332 646.534 367.688 646.625C369.421 646.676 371.154 646.73 372.887 646.789C373.652 646.806 374.417 646.824 375.206 646.842C377 647 377 647 378 648C378.208 650.436 378.324 652.809 378.375 655.25C378.431 656.253 378.431 656.253 378.488 657.277C378.552 660.853 378.24 662.694 376.014 665.527C372.28 668.59 368.8 669.848 364.246 671.305C363.391 671.592 362.535 671.879 361.654 672.174C358.919 673.089 356.179 673.982 353.438 674.875C350.763 675.761 348.09 676.651 345.417 677.542C343.636 678.134 341.854 678.722 340.071 679.308C335.495 680.814 330.941 682.366 326.411 684.005C325.057 684.492 325.057 684.492 323.675 684.989C321.963 685.609 320.254 686.237 318.548 686.873C314.203 688.443 310.697 689.368 306 689C303.7 685.406 303.423 682.13 304 678C306.392 667.712 310.612 655.039 319 648C321.868 646.779 324.75 646.221 327.813 645.687C328.581 645.532 329.35 645.377 330.143 645.217C336.598 643.947 343.163 642.894 349.75 642.75Z" fill="black"/>
<path d="M353 610C353.029 613.646 353.047 617.291 353.062 620.937C353.071 621.978 353.079 623.019 353.088 624.092C353.091 625.081 353.094 626.07 353.098 627.09C353.103 628.006 353.108 628.923 353.114 629.867C353 632 353 632 352 633C350.258 633.345 348.506 633.635 346.75 633.902C345.666 634.07 344.582 634.239 343.465 634.412C342.321 634.585 341.178 634.759 340 634.937C330.851 636.311 330.851 636.311 321.812 638.254C319.925 638.623 319.925 638.623 318 639C315.034 636.034 315.418 632.678 315.187 628.687C315.124 627.927 315.06 627.167 314.994 626.385C314.784 622.985 314.886 620.376 315.883 617.097C319.245 613.766 323.126 613.488 327.687 612.75C328.561 612.59 329.434 612.43 330.334 612.265C337.893 610.911 345.307 609.84 353 610Z" fill="black"/>
<path d="M669 610C676.279 609.779 683.08 610.598 690.25 611.812C691.312 611.978 692.374 612.144 693.469 612.314C694.495 612.485 695.521 612.656 696.578 612.832C697.961 613.06 697.961 613.06 699.372 613.292C702.336 614.09 704.489 615.247 707 617C708.565 620.129 708.226 623.442 708.25 626.875C708.271 627.595 708.291 628.316 708.313 629.058C708.337 632.408 708.237 634.608 706.484 637.508C705.995 638 705.505 638.492 705 639C699.341 637.891 693.698 636.724 688.063 635.5C682.731 634.345 677.393 633.325 672.012 632.43C670 632 670 632 669 631C668.913 629.438 668.893 627.873 668.902 626.308C668.906 625.364 668.909 624.42 668.912 623.447C668.921 622.454 668.929 621.461 668.938 620.437C668.942 619.44 668.947 618.443 668.951 617.416C668.963 614.944 668.98 612.472 669 610Z" fill="black"/>
<path d="M604 610C604 617.26 604 624.52 604 632C599.591 633.26 595.449 634.381 590.988 635.254C589.901 635.468 588.814 635.683 587.693 635.904C586.578 636.121 585.462 636.339 584.312 636.562C582.079 637 579.846 637.439 577.613 637.879C576.631 638.07 575.65 638.262 574.638 638.459C572.406 638.917 570.204 639.425 568 640C565.341 637.419 564.764 635.356 564.602 631.777C564.594 630.164 564.602 628.55 564.625 626.937C564.613 626.122 564.602 625.307 564.59 624.467C564.594 623.682 564.598 622.898 564.602 622.09C564.607 621.02 564.607 621.02 564.612 619.929C565.116 617.425 566.004 616.555 568 615C571.082 614.121 571.082 614.121 574.812 613.437C575.473 613.315 576.132 613.193 576.812 613.067C585.89 611.421 594.755 610 604 610Z" fill="black"/>
<path d="M420 610C428.342 610.407 436.402 611.443 444.625 612.875C445.597 613.036 446.569 613.198 447.571 613.364C448.488 613.53 449.406 613.696 450.352 613.867C451.175 614.013 451.998 614.158 452.846 614.308C455.379 615.122 456.45 615.84 458 618C458.372 620.145 458.372 620.145 458.363 622.597C458.363 623.481 458.362 624.365 458.361 625.275C458.345 626.195 458.329 627.115 458.312 628.062C458.316 628.986 458.319 629.91 458.322 630.861C458.267 637.733 458.267 637.733 456 640C453.93 639.607 451.862 639.191 449.817 638.68C446.632 637.911 443.437 637.304 440.215 636.711C439.026 636.492 437.837 636.272 436.611 636.047C435.399 635.825 434.187 635.603 432.938 635.375C431.69 635.145 430.443 634.916 429.158 634.68C426.106 634.118 423.053 633.559 420 633C420 625.41 420 617.82 420 610Z" fill="black"/>
<path d="M629.59 604.531C630.412 604.523 631.234 604.516 632.081 604.508C633.815 604.497 635.549 604.494 637.283 604.499C639.926 604.5 642.566 604.458 645.209 604.414C646.898 604.409 648.588 604.406 650.277 604.406C651.062 604.39 651.846 604.373 652.655 604.356C656.738 604.407 659.263 604.805 662.495 607.408C665.761 610.787 665.761 610.787 665.875 614.125C665.925 615.281 665.925 615.281 665.977 616.461C665.988 617.718 665.988 617.718 666 619C666.049 619.941 666.098 620.882 666.148 621.851C666.291 625.932 666.259 629.239 664.938 633.125C661.435 636.515 656.423 636.061 651.749 636.053C650.19 636.025 648.632 635.99 647.074 635.949C646.245 635.93 645.417 635.911 644.563 635.892C642.824 635.85 641.085 635.806 639.346 635.758C636.678 635.687 634.01 635.633 631.342 635.58C629.648 635.537 627.955 635.494 626.262 635.449C625.463 635.434 624.664 635.42 623.841 635.405C618.229 635.229 618.229 635.229 616 633C615.805 630.398 615.805 630.398 615.875 627.375C615.893 626.372 615.911 625.369 615.93 624.336C615.953 623.565 615.976 622.794 616 622C619.3 622 622.6 622 626 622C626 621.01 626 620.02 626 619C622.424 617.762 619.663 618.251 616 619C615.865 617.231 615.768 615.459 615.688 613.687C615.629 612.701 615.571 611.715 615.512 610.699C616 608 616 608 617.994 606.36C621.874 604.604 625.409 604.532 629.59 604.531Z" fill="black"/>
<path d="M375.75 604.797C376.486 604.791 377.221 604.785 377.979 604.779C379.529 604.77 381.079 604.763 382.629 604.76C384.993 604.75 387.355 604.719 389.719 604.687C391.229 604.681 392.74 604.676 394.25 604.672C394.952 604.659 395.654 604.647 396.378 604.634C400.718 604.654 403.724 605.046 407 608C407.599 610.695 407.599 610.695 407.559 613.91C407.552 615.064 407.544 616.219 407.537 617.408C407.504 618.614 407.471 619.82 407.438 621.062C407.432 622.272 407.426 623.482 407.42 624.728C407.294 633.705 407.294 633.705 405 636C403.147 636.261 403.147 636.261 400.873 636.274C400.022 636.284 399.171 636.294 398.294 636.303C397.373 636.302 396.453 636.302 395.504 636.301C394.559 636.305 393.615 636.309 392.642 636.314C390.642 636.319 388.642 636.32 386.642 636.315C383.578 636.312 380.515 636.336 377.451 636.361C375.51 636.363 373.57 636.364 371.629 636.363C370.251 636.377 370.251 636.377 368.845 636.391C367.99 636.385 367.136 636.379 366.256 636.372C365.505 636.373 364.754 636.373 363.98 636.374C361.448 635.895 360.561 635.015 359 633C358.36 629.218 358.537 625.392 358.562 621.562C358.543 620.512 358.523 619.462 358.502 618.381C358.503 617.369 358.503 616.358 358.504 615.316C358.502 614.393 358.5 613.469 358.498 612.518C359.162 609.185 360.314 608.037 363 606C367.123 604.658 371.447 604.823 375.75 604.797ZM393 619C393 619.99 393 620.98 393 622C396.057 623.528 398.63 623.232 402 623C404.401 621.641 404.401 621.641 406 620C401.727 616.984 397.147 614.853 393 619ZM365 619C365 619.99 365 620.98 365 622C367.97 622.495 367.97 622.495 371 623C371 621.68 371 620.36 371 619C367.951 617.989 367.951 617.989 365 619Z" fill="black"/>
<path d="M723 320C731.922 337.915 733.366 356.753 733.316 376.46C733.313 379.036 733.336 381.61 733.361 384.185C733.463 407.751 728.663 429.852 722.854 452.562C721.383 458.336 719.949 464.118 718.508 469.899C717.976 472.028 717.444 474.156 716.911 476.284C707.533 513.777 699.92 551.668 697.736 590.346C697.697 591.035 697.658 591.724 697.617 592.433C697.518 594.306 697.434 596.18 697.35 598.054C697 601 697 601 695 604C690.934 603.442 686.873 602.849 682.812 602.25C681.662 602.093 680.512 601.935 679.326 601.773C678.214 601.606 677.103 601.438 675.957 601.265C674.936 601.119 673.915 600.972 672.863 600.821C670 600 670 600 667.934 598.027C663.822 595.186 660.084 595.1 655.188 594.75C653.862 594.634 653.862 594.634 652.51 594.515C650.341 594.328 648.171 594.162 646 594C645.726 564.029 645.514 534.058 645.387 504.086C645.372 500.543 645.357 497 645.341 493.457C645.338 492.751 645.335 492.046 645.331 491.319C645.279 479.917 645.185 468.516 645.074 457.115C644.962 445.405 644.895 433.695 644.871 421.984C644.855 415.41 644.819 408.839 644.731 402.266C644.649 396.072 644.625 389.881 644.643 383.687C644.639 381.421 644.616 379.154 644.57 376.887C644.204 358.008 644.204 358.008 650.165 350.947C660.563 340.207 673.173 335.723 687 331C687.965 330.669 687.965 330.669 688.95 330.332C694.129 328.561 699.313 326.807 704.5 325.062C705.244 324.811 705.987 324.56 706.754 324.301C708.886 323.582 711.021 322.87 713.156 322.16C714.402 321.744 715.648 321.327 716.932 320.898C720 320 720 320 723 320ZM673.625 362.625C671.615 365.563 671.073 367.439 671 371C672.309 374.201 673.376 375.612 676.312 377.437C679.839 378.175 681.763 377.51 685 376C687.459 372.311 687.681 369.283 687 365C685.603 362.353 685.603 362.353 683 361C679.051 360.436 676.954 360.347 673.625 362.625ZM668.562 415.625C666.766 419.505 666.607 420.996 668 425C669.543 427.543 669.543 427.543 672 429C675.197 428.935 677.17 428.572 679.812 426.75C681.4 424.41 681.865 422.834 682 420C680.614 417.163 679.23 415.23 677 413C672.744 412.26 671.556 412.402 668.562 415.625Z" fill="black"/>
<path d="M466 319C469.589 322.15 471.518 325.55 473.375 329.875C473.672 330.562 473.968 331.249 474.274 331.956C476.73 337.888 478.603 343.941 480.312 350.125C480.555 350.993 480.797 351.862 481.046 352.757C484.361 365.335 485.414 377.908 485.375 390.875C485.374 391.592 485.373 392.309 485.372 393.049C485.319 406.353 483.926 419 481 432C480.743 433.149 480.485 434.299 480.22 435.483C476.143 453.412 471.414 471.172 466.316 488.836C456.494 523.383 450.73 559.406 448.682 595.247C448.588 596.76 448.588 596.76 448.492 598.305C448.444 599.191 448.396 600.078 448.347 600.992C448.233 601.654 448.118 602.317 448 603C445.055 604.472 442.915 603.649 439.688 603.125C433.72 602.192 427.875 601.706 421.84 601.539C418.31 600.869 416.697 599.311 414 597C408.884 594.935 403.125 594.815 397.684 594.449C396.43 594.364 395.176 594.278 393.885 594.19C392.933 594.127 391.981 594.064 391 594C390.817 563.978 390.676 533.956 390.591 503.933C390.581 500.386 390.571 496.839 390.561 493.292C390.558 492.586 390.556 491.879 390.554 491.152C390.519 479.729 390.456 468.306 390.383 456.883C390.308 445.156 390.264 433.429 390.247 421.702C390.237 415.117 390.212 408.533 390.154 401.949C390.1 395.748 390.083 389.549 390.095 383.348C390.093 381.075 390.077 378.802 390.046 376.53C389.798 357.223 389.798 357.223 394.799 350.803C396.879 348.749 396.879 348.749 399 347C399.72 346.337 400.439 345.675 401.181 344.992C411.52 335.726 426.806 332.295 439.812 328.375C453.164 324.382 453.164 324.382 466 319ZM417.562 363.062C415.611 366.732 415.403 368.897 416 373C417.93 375.716 419.342 376.747 422.438 377.937C425.847 378.02 427.338 377.086 430 375C431.929 372.458 432.009 371.216 431.875 368C430.843 364.462 430.043 363.082 427 361C422.75 360.317 420.893 360.245 417.562 363.062ZM413.688 415.125C411.685 418.536 411.271 420.114 412 424C413.98 427.063 413.98 427.063 417 429C420.56 429.071 422.221 428.701 424.875 426.312C426.382 423.215 426.557 421.408 426 418C423.684 414.957 422.191 413.29 418.438 412.375C415.802 412.846 415.802 412.846 413.688 415.125Z" fill="black"/>
<path d="M556 319C560.252 320.379 564.401 321.93 568.562 323.562C573.99 325.659 579.466 327.474 585.039 329.148C586.296 329.526 587.554 329.905 588.849 330.294C591.347 331.043 593.849 331.77 596.356 332.488C608.452 336.09 619.892 340.936 628 351C628.685 351.832 629.37 352.665 630.075 353.523C632.608 358.099 632.547 361.578 632.481 366.719C632.484 367.692 632.488 368.665 632.491 369.667C632.498 372.924 632.476 376.18 632.454 379.437C632.453 381.773 632.454 384.108 632.456 386.444C632.457 392.785 632.433 399.125 632.406 405.465C632.383 411.42 632.379 417.375 632.375 423.331C632.366 435.124 632.34 446.917 632.302 458.71C632.265 470.164 632.237 481.618 632.22 493.072C632.218 494.132 632.218 494.132 632.217 495.212C632.211 498.756 632.206 502.3 632.201 505.843C632.16 535.229 632.089 564.614 632 594C631.39 594.039 630.78 594.079 630.152 594.12C627.37 594.311 624.592 594.53 621.812 594.75C620.853 594.812 619.893 594.874 618.904 594.937C613.315 595.401 610.174 595.975 606 600C602.477 600.793 602.477 600.793 598.625 601.187C596.726 601.394 596.726 601.394 594.789 601.605C593.539 601.735 592.288 601.866 591 602C589.853 602.182 588.705 602.363 587.523 602.551C583.618 603.049 579.935 603.029 576 603C575.905 601.854 575.81 600.709 575.712 599.529C571.82 553.105 563.346 508.524 550.664 463.683C537.221 416.01 531.659 370.272 553 324C553.968 322.314 554.954 320.638 556 319ZM593.625 362.687C591.763 365.337 591.077 366.757 591 370C592.58 374.298 592.58 374.298 596 377C600.99 377.475 600.99 377.475 605.375 375.375C607.385 372.437 607.927 370.56 608 367C606.267 363.271 606.267 363.271 603 361C597.989 360.513 597.989 360.513 593.625 362.687ZM599.187 414.375C596.799 417.643 596.597 419.973 597 424C598.931 426.647 600.415 427.76 603.437 429C606.156 429.211 606.156 429.211 608.75 427.437C611.468 424.492 612 422.989 612 419C610.267 415.271 610.267 415.271 607 413C602.803 412.559 602.803 412.559 599.187 414.375Z" fill="black"/>
<path d="M301 319C302.622 319.619 302.622 319.619 304.277 320.25C313.69 323.798 323.152 327.051 332.75 330.062C360.19 338.749 360.19 338.749 369 347C369.771 347.651 370.542 348.302 371.336 348.973C378.31 355.873 378.991 361.767 379.124 371.248C379.12 374.47 379.071 377.691 379.022 380.913C379.019 383.239 379.021 385.566 379.026 387.893C379.028 394.186 378.975 400.478 378.913 406.77C378.856 413.355 378.851 419.94 378.84 426.525C378.817 437.57 378.759 448.615 378.679 459.66C378.596 471.031 378.533 482.402 378.494 493.774C378.491 494.827 378.491 494.827 378.487 495.901C378.475 499.424 378.464 502.946 378.453 506.468C378.36 535.646 378.201 564.823 378 594C377.42 594.039 376.841 594.079 376.243 594.12C373.598 594.311 370.956 594.53 368.312 594.75C366.944 594.843 366.944 594.843 365.549 594.937C360.106 595.412 357.06 596.067 353 600C350.125 600.793 350.125 600.793 347 601.187C345.872 601.333 344.744 601.479 343.582 601.629C338.061 602.201 332.539 602.655 327 603C326.176 598.504 325.732 594.074 325.422 589.515C325.316 588.026 325.209 586.536 325.101 585.047C325.016 583.876 325.016 583.876 324.93 582.681C322.19 545.639 315.287 509.941 306.254 473.949C306.005 472.958 306.005 472.958 305.752 471.946C303.917 464.638 302.067 457.335 300.192 450.037C296.882 437.087 293.779 424.256 292 411C291.872 410.133 291.744 409.267 291.613 408.374C290.603 400.38 290.814 392.243 290.815 384.199C290.813 381.599 290.794 379 290.775 376.4C290.711 357.416 290.809 335.629 301 319ZM338.625 362.687C336.763 365.337 336.077 366.757 336 370C336.85 373.282 336.85 373.282 339 376C342.312 377.744 342.312 377.744 346 378C348.993 376.698 350.532 375.935 352 373C352.543 367.437 352.543 367.437 350.438 362.5C346.295 359.95 342.621 359.848 338.625 362.687ZM342 417C341.539 420.69 341.515 423.029 343.188 426.375C345.526 428.471 346.86 428.925 350 429C353.713 427.249 353.713 427.249 356 424C356.546 419.907 356.353 418.464 353.812 415.125C351.225 412.862 351.225 412.862 348.438 412.437C345.104 413.207 343.948 414.186 342 417Z" fill="black"/>
<path d="M696.719 224.23C700.642 227.663 704.232 231.177 707.562 235.187C712.988 241.566 719.184 244.939 727.117 247.289C729.709 248.267 730.774 249.548 732 252C734.705 260.114 732.757 269.745 731.688 278.062C731.511 279.579 731.511 279.579 731.33 281.127C729.354 296.86 729.354 296.86 724.938 302.75C715.48 309.994 705.53 313.459 694.312 317C673.579 323.619 655.229 329.582 640 346C636.737 344.611 635.084 343.107 632.938 340.312C626.897 333.265 619.395 329.32 610.766 326.16C609.731 325.776 609.731 325.776 608.675 325.385C603.472 323.481 598.224 321.731 592.949 320.035C591.81 319.668 591.81 319.668 590.647 319.293C587.545 318.295 584.442 317.298 581.332 316.325C559.15 309.362 559.15 309.362 552 301C551.182 298.541 550.517 296.201 549.938 293.687C549.768 292.972 549.599 292.257 549.425 291.521C547.127 281.525 545.832 271.694 545.688 261.437C545.67 260.675 545.652 259.913 545.634 259.127C545.64 254.597 546.007 251.488 549 248C551.199 247.031 551.199 247.031 553.688 246.5C564.247 243.719 571.67 236.424 579.191 228.769C610.225 198.276 663.703 197.144 696.719 224.23ZM575 272C573.715 275.694 573.798 277.439 575.125 281.125C577.214 284.328 578.729 286.009 582 288C583.368 288.287 584.744 288.533 586.125 288.75C590.259 289.521 592.647 291.027 595.938 293.625C610.25 304.645 628.983 310.704 647 309C661.111 306.603 679.689 299.311 690 289C691.413 288.731 692.831 288.485 694.25 288.25C698.82 287.253 701.215 285.916 704 282C705.135 278.028 705.437 275.984 703.75 272.187C702.013 269.79 702.013 269.79 699 268C695.679 267.834 693.986 267.772 691 269C689.301 270.806 689.301 270.806 687.812 273.062C683.462 279.309 677.58 282.407 671 286C669.71 286.727 669.71 286.727 668.395 287.469C654.459 294.925 639.543 297.752 624.188 293.375C611.553 288.88 597.316 282.598 590 271C587.432 269.025 585.681 268.119 582.5 267.562C579.001 268.175 577.431 269.433 575 272Z" fill="black"/>
<path d="M445.168 229.561C448.33 232.381 451.263 235.309 454.125 238.437C457.893 242.36 462.107 244.057 467.168 245.894C470.743 247.29 473.898 248.574 476.289 251.668C477.363 255.192 477.382 258.661 477.375 262.312C477.374 263.541 477.374 263.541 477.372 264.795C477.244 271.739 476.361 278.474 475.188 285.312C475.022 286.284 474.857 287.256 474.687 288.257C473.458 294.871 472.193 300.941 466.438 305.062C455.493 312.472 443.526 315.813 430.969 319.469C415.266 324.066 398.378 329.755 387.625 342.812C387.122 343.417 386.62 344.021 386.102 344.644C385.738 345.092 385.375 345.539 385 346C381.54 344.539 379.615 342.655 377.125 339.875C366.022 328.659 351.547 324.458 336.875 319.875C314.278 312.756 314.278 312.756 304 307C303.361 306.679 302.722 306.358 302.064 306.027C297.513 303.502 296.389 299.729 295 295C294.109 291.023 293.439 287.026 292.812 283C292.64 281.899 292.467 280.799 292.289 279.665C288.783 256.064 288.783 256.064 293 249C295.609 247.558 295.609 247.558 298.75 246.437C307.676 243.196 313.061 238.054 319.5 231.312C354.343 195.761 408.432 197.572 445.168 229.561ZM321 269.937C318.933 273.102 318.241 275.21 318.535 279.008C319.379 282.625 320.991 284.957 324 287C326.661 287.838 329.338 288.423 332.059 289.039C335.378 290.123 337.451 291.595 340.188 293.75C354.018 304.452 373.612 310.852 391 309C406.268 306.359 419.862 299.468 432.414 290.613C434.855 289.09 436.645 288.368 439.438 287.812C443.796 286.818 445.37 285.586 448 282C449.135 278.028 449.437 275.984 447.75 272.187C446.013 269.79 446.013 269.79 443 268C438.728 268.079 436.618 268.483 433.312 271.25C431.034 273.874 431.034 273.874 429.363 276.355C426.283 279.802 422.868 281.795 418.875 284.062C418.115 284.501 417.354 284.939 416.571 285.39C402.274 293.5 387.901 297.298 371.535 294.383C362.726 291.922 354.864 287.567 347 283C346.096 282.482 345.193 281.963 344.262 281.429C340.205 278.934 337.591 276.661 334.938 272.687C332.872 269.704 331.547 268.388 327.938 267.687C323.96 267.69 323.96 267.69 321 269.937Z" fill="black"/>
<path d="M672 179C673.218 179.34 674.436 179.68 675.691 180.031C696.32 186.294 718.225 199.202 728.941 218.48C731.137 223.706 731.693 228.69 730.062 234.125C729.712 234.744 729.361 235.362 729 236C722.194 235.659 717.736 231.903 713.215 227.105C712.055 225.766 710.903 224.421 709.758 223.07C695.185 205.907 674.155 197.133 652 195C623.211 193.044 594.622 201.935 572.5 220.628C570.041 222.877 567.927 225.351 565.75 227.875C561.712 232.54 557.997 235.384 552 237C551.34 237 550.68 237 550 237C548.317 231.198 547.265 226.203 549.582 220.476C561.517 199.632 585.709 186.036 608.258 179.777C628.133 174.561 652.064 173.007 672 179Z" fill="black"/>
<path d="M381.25 175.562C381.92 175.565 382.59 175.567 383.28 175.57C394.601 175.632 405.136 176.811 416 180C417.072 180.289 418.145 180.577 419.25 180.875C439.817 187.001 462.474 200.887 473.375 219.812C475.95 225.284 475.892 231.323 474 237C465.803 236.59 460.886 230.977 455.513 225.386C436.506 205.671 410.091 195.529 382.855 194.663C356.988 194.273 334.244 203.138 315.25 220.762C312.518 223.48 310.012 226.344 307.516 229.277C303.822 233.475 300.363 235.503 295 237C292.362 232.36 292.286 228.226 293 223C298.446 206.409 315.631 194.791 330.305 186.781C334.249 184.812 338.295 183.19 342.438 181.687C343.068 181.457 343.699 181.226 344.349 180.989C356.451 176.883 368.531 175.463 381.25 175.562Z" fill="black"/>
</svg>
