<svg width="1024" height="1024" viewBox="0 0 1024 1024" fill="none" xmlns="http://www.w3.org/2000/svg">
<path d="M712 673.001C713.63 675.447 714.821 677.637 716.031 680.29C716.425 681.14 716.819 681.991 717.224 682.868C717.645 683.778 718.066 684.688 718.5 685.626C721.806 692.725 725.37 699.474 729.5 706.126C733.631 712.899 736.715 718.998 735.742 727.165C734.028 733.415 729.145 737.406 724 741.001C714.931 745.885 707.332 747.868 697 747.001C687.839 743.17 683.385 731.32 679 723.001C679.101 723.65 679.203 724.299 679.307 724.968C679.763 727.956 680.194 730.947 680.625 733.938L681.109 737.034C682.16 744.509 682.263 750.8 678.617 757.567C668.763 768.857 653.08 774.463 638.5 775.876C631.769 776.188 624.824 776.402 619.525 771.688C614.929 766.854 613.088 761.612 611.187 755.313L610.283 752.475C609.08 748.672 607.936 744.878 607 741.001C605.668 743.664 605.752 745.879 605.605 748.856L605.396 752.432C605.258 754.916 605.13 757.401 605.013 759.885C604.533 767.711 603.906 773.042 598.238 778.786C564.093 801.433 508.953 801.513 470.144 794.329C430.154 786.044 430.154 786.044 421 773.001C418.345 766.514 418.336 759.492 417.875 752.563L417.613 748.901C417.402 745.935 417.198 742.968 417 740.001C416.784 740.721 416.568 741.442 416.345 742.184C415.348 745.481 414.33 748.772 413.312 752.063L412.283 755.499C407.894 769.566 407.894 769.566 401 773.876C388.043 778.734 373.962 774.832 361.75 769.376C354.226 765.614 347.791 761.045 343 754.001C340.689 746.478 342.194 738.521 343.5 730.938L343.933 728.315C344.282 726.209 344.64 724.105 345 722.001L343.242 725.473C342.453 727.003 341.664 728.533 340.875 730.063L339.726 732.342C333.182 744.939 333.182 744.94 327 747.001C315.689 748.14 306.733 745.589 297.5 739.001C292.382 734.806 289.301 731.037 288.144 724.422C287.582 715 293.867 706.557 298.355 698.7C300.879 694.264 303.227 689.757 305.5 685.188L306.487 683.214C308.145 679.862 309.668 676.496 311 673.001C319.34 677.119 327.63 681.313 335.843 685.68C342.437 689.169 349.069 692.564 355.761 695.86C356.972 696.457 356.973 696.456 358.209 697.065C359.858 697.877 361.507 698.69 363.156 699.502C378.193 706.921 392.832 714.677 407.202 723.33C427.765 735.608 448.877 747.331 472 754.001L475.054 754.891C521.015 767.326 564.982 752.508 605 730.001C609.516 727.371 613.995 724.679 618.475 721.989C629.385 715.489 640.674 709.733 652 704.001C652.728 703.632 653.456 703.263 654.207 702.882C659.834 700.038 665.486 697.243 671.138 694.45C684.943 687.622 698.709 680.801 712 673.001Z" fill="black"/>
<path fill-rule="evenodd" clip-rule="evenodd" d="M627 285.001C626.454 289.775 625.481 293.825 623.679 298.274L622.308 301.774C621.354 304.171 620.391 306.564 619.418 308.954C616.506 316.446 614.592 322.469 617.909 330.089C628.452 350.27 658.468 363.241 679 370.001C685.984 372.08 692.765 373.278 700 374.001C700.039 374.607 700.079 375.214 700.12 375.838C701.466 395.665 703.657 414.801 709.875 433.751C710.19 434.714 710.506 435.678 710.831 436.671C716.486 453.01 725.456 465.513 740 475.001C735.799 496.942 728.418 518.014 721.113 539.075C712.179 564.836 705.797 589.468 705.812 616.938L705.81 620.776C705.861 629.893 706.438 638.821 707.562 647.864C707.632 648.555 707.701 649.247 707.773 649.96C707.971 652.014 707.971 652.014 708.414 654.068C708.687 656.106 708.687 656.106 708 660.001C705.059 662.994 701.639 664.952 698 667.001L695.132 668.615C691.947 670.34 688.731 671.989 685.5 673.626C684.261 674.26 683.023 674.895 681.785 675.531C674.09 679.469 666.353 683.321 658.605 687.153C640.59 696.071 622.784 705.003 605.586 715.436C568.69 737.761 527.008 755.28 483.082 744.544C459.298 738.336 438.334 727.972 417.329 715.426C399.144 704.577 380.58 694.461 361.389 685.498C349.349 679.863 337.666 673.542 326.062 667.063C325.406 666.698 324.749 666.331 324.073 665.955C322.369 664.993 320.683 663.998 319 663.001L316.546 661.618C315 660.001 315 660 314.793 657.286L315.187 654.063L315.543 650.911L316 647.001C317.042 637.216 317.242 627.455 317.25 617.626C317.25 616.832 317.251 616.039 317.252 615.221C317.234 602.284 316.62 589.708 314 577.001C313.782 575.927 313.782 575.927 313.56 574.832C310.204 559.086 304.36 543.833 299.222 528.603C284 483.459 284 483.459 284 474.001C285.906 472.712 285.906 472.711 288.5 471.376C304.243 462.23 311.613 443.193 316.376 426.37C320.895 409.22 322.95 391.671 324 374.001L327.566 373.442C352.093 369.261 373.461 359.295 393 344.001L395.5 342.075C401.965 336.769 406.352 331.067 407.433 322.61C407.262 315.882 404.3 309.498 402 303.251C401.281 301.279 400.567 299.305 399.86 297.33C399.221 295.547 398.569 293.768 397.918 291.99C397 289.001 397 289 397 285.001C399.747 286.312 402.233 287.766 404.73 289.504C436.773 311.529 472.038 323.513 511.125 323.313C512.272 323.31 512.272 323.31 513.443 323.306C525.836 323.25 537.851 322.626 550 320.001L552.759 319.415C577.15 314.057 601.001 303.958 620.836 288.594C622.829 287.126 624.753 286.027 627 285.001ZM511 597.001C510.136 598.301 509.335 599.644 508.562 601.001C501.121 612.459 488.116 617.635 475.312 620.751C470.204 621.819 465.213 622.728 460 623.001L456.523 623.196C445.853 623.512 436.295 621.661 426 619.001L418 617.001C425.097 627.034 436.552 632.164 448.371 634.462C450.589 634.754 452.764 634.912 455 635.001L457.507 635.122C476.463 635.591 496.304 630.459 511 618.001V616.001L512.73 617.54C528.603 631.015 548.52 635.904 569 635.001C582.061 633.842 594.343 629.087 604 620.001V617.001L601.543 617.805C578.279 625.226 553.429 625.638 531.078 614.551C523.12 609.957 517.141 605.283 513 597.001H511ZM509.5 533.501C503.624 544.93 492.594 550.882 480.735 554.737C459.937 560.67 435.405 560.079 415.679 550.637L414 550.001L412 551.001C428.523 566.577 445.295 570.764 467.438 570.132C481.417 569.413 495.868 564.013 506.949 555.516C508.898 554.075 510.803 553.012 513 552.001L514.222 553.286C528.381 566.964 548.702 570.645 567.674 570.473C585.542 569.921 598.699 562.577 612 551.001C609.93 549.672 609.93 549.672 607.304 550.891L603.875 552.251C581.773 560.484 556.2 561.069 534.439 551.314C525.92 547.18 517.906 541.887 513.937 532.938L513 530.001H511L509.5 533.501ZM512 394.001C508.227 404.59 507.119 415.726 506.281 426.872C506.221 427.662 506.16 428.453 506.098 429.267C505.796 433.283 505.516 437.299 505.266 441.319C504.575 451.541 503.394 460.314 496 468.001C484.042 477.077 468.752 480.559 454.375 483.751C453.482 483.949 452.59 484.147 451.671 484.352C437.549 487.322 423.71 488.352 409.32 488.316C406.701 488.313 404.082 488.337 401.463 488.362C374.626 488.461 350.993 482.736 329 467.001C330.951 472.459 334.023 475.872 338 480.001L339.968 482.047C359.844 501.182 389.479 502.749 415.464 502.282C449.117 501.256 488.67 495.303 513 470.001L513.8 471.797C520.224 483.597 537.245 489.084 549.25 492.751C587.677 504.007 635.203 509.919 672.062 490.563C681.591 484.708 690.537 477.5 695 467.001C691.821 468.498 688.982 470.301 686.062 472.251C664.76 485.804 641.363 488.428 616.625 488.376C615.313 488.376 615.313 488.375 613.974 488.376C599.302 488.347 585.359 487.202 571 484.001L568.695 483.515C553.038 480.188 534.087 475.715 523.254 463.102C518.886 455.781 518.459 448.834 518.09 440.459C517.937 437.014 517.737 433.572 517.535 430.129C517.474 429.097 517.474 429.097 517.413 428.044C516.711 416.69 515.424 405.131 513 394.001H512ZM517.375 331.001C510.624 329.106 505.24 330.39 499.75 334.813C496.79 338.513 495.175 341.646 494.562 346.376C495.246 352.04 497.333 356.138 501.125 360.376C505.265 362.716 509.247 363.77 514 364.001C519.19 362.469 524.217 360.103 527.007 355.247C529.121 350.381 529.736 346.071 528 341.001C525.48 336.007 522.71 332.876 517.375 331.001Z" fill="black"/>
<path d="M291 346.001C294.806 349.723 297.953 353.781 301.113 358.047C303.329 360.989 305.513 363.486 308.285 365.919C310.795 368.382 310.999 368.997 311.691 372.715C311.684 374.124 311.638 375.532 311.562 376.938C311.528 378.097 311.528 378.097 311.493 379.28C310.441 404.685 306.389 438.163 287.156 456.786C285.819 457.917 284.418 458.973 283 460.001C282.044 444.395 285.043 429.011 287.544 413.662C289.971 398.542 290.276 383.532 290.562 368.251C290.605 366.089 290.649 363.928 290.693 361.766C290.799 356.511 290.901 351.256 291 346.001Z" fill="black"/>
<path d="M732.964 348.919C732.729 377.837 734.624 406.07 739.721 434.543C741.177 443.085 741.422 451.361 741 460.001C732.449 456.447 727.833 446.575 724.371 438.524C716.898 419.321 713.031 398.902 712.5 378.313L712.336 375.553C712.202 368.982 712.202 368.982 714.37 366.316C715.569 365.339 716.8 364.4 718.057 363.5C721.53 360.818 723.843 357.17 726.375 353.626C727.421 352.178 728.471 350.733 729.523 349.29C729.976 348.658 730.429 348.025 730.896 347.374C731.26 346.921 731.624 346.467 732 346.001H733L732.964 348.919Z" fill="black"/>
<path d="M739 269.001C743.443 270.358 745.486 272.099 748 276.001C752.77 287.587 747.341 300.033 743 311.001C735.952 327.539 723.418 354.583 706 362.001C702.968 362.791 700.13 363.302 697 363.001L694 361.001L695.433 359.672C718.696 337.362 735.917 301.057 739 269.001Z" fill="black"/>
<path d="M285.41 271.981C290.296 304.593 306.091 338.898 330 362.001C322.852 363.346 318.489 362.922 312.211 358.837C293.126 344.15 278.071 312.26 274 289.001C273.349 283.299 273.682 278.867 277 274.001C281.96 269.001 281.96 269.001 285 269.001L285.41 271.981Z" fill="black"/>
<path fill-rule="evenodd" clip-rule="evenodd" d="M646 235.001C653.553 235.493 660.583 236.941 667.875 238.938C669.548 239.395 669.548 239.394 671.255 239.86C690.152 245.158 708.781 251.498 726 261.001L728 262.001C727.389 292.931 711.23 330.085 689.699 352.383C686.812 354.99 684.714 356.763 681 358.001C662.474 352.409 640.36 341.173 628.757 325.301C626.562 318.636 630.035 312.022 632.687 306.001C642.284 283.124 645.178 259.581 646 235.001ZM676.25 305.594C668.975 305.357 664.394 306.497 659.25 311.876C655.277 317.393 653.907 322.241 655 329.001C657.297 334.601 660.627 338.143 666 341.001C671.042 343.018 676.549 342.426 681.625 340.938C686.576 338.095 690.177 334.469 692 329.001C692.776 322.758 692.352 317.927 688.601 312.762C685.025 308.828 681.585 306.383 676.25 305.594ZM644 310.563C641.084 310.803 641.084 310.803 639.125 312.063C637.31 315.188 637.505 317.474 638 321.001C640.358 323.473 640.358 323.473 643 325.001C645.915 323.927 647.778 323.222 650 321.001C650.356 317.718 650.296 315.626 648.875 312.626C647.027 310.729 647.027 310.729 644 310.563Z" fill="black"/>
<path fill-rule="evenodd" clip-rule="evenodd" d="M377.12 237.145C378.635 263.05 382.38 287.121 392.734 311.126C396.579 320.056 396.579 320.056 395.5 324.188C386.968 340.18 363.396 350.598 347 356.001C340.84 357.38 340.839 357.38 337.918 356.059C316.13 335.649 304.188 304.241 297 276.001C296.814 275.306 296.629 274.611 296.438 273.896C295.88 271.477 295.904 269.229 295.937 266.751L295.964 264.047L296 262.001C318.989 249.593 350.544 235.001 377 235.001C377.059 236.062 377.059 236.062 377.12 237.145ZM365 312.001C359.34 306.624 354.726 305.476 347.046 305.626C341.666 306.288 338.233 308.558 334.625 312.504C331.163 317.493 331.154 323.149 332 329.001C333.798 334.396 337.479 337.799 342 341.001C347.798 342.851 353.76 342.887 359.312 340.313C364.34 337.474 367.443 333.58 369 328.001C369.624 321.658 368.63 317.288 365 312.001ZM383 311.001C379.414 310.602 377.602 310.599 374.562 312.626C372.71 314.953 372.709 314.953 373.062 318.063C374.185 321.703 374.185 321.704 377 324.001C380.186 324.399 382.122 324.606 384.812 322.751C386.212 320.688 386.852 319.505 387 317.001C385.852 314.757 384.79 312.791 383 311.001Z" fill="black"/>
<path d="M596.563 243.329C615.728 230.207 615.728 230.207 626 232.001C628.87 233.795 630.491 234.983 632 238.001C632.868 250.191 632.163 259.437 623.937 269.063C597.739 296.234 557.485 310.375 520.199 311.204C477.158 311.652 434.273 301.515 401.812 271.501C394.962 264.119 391.25 255.77 390.894 245.7C391.08 240.953 391.975 237.666 394.5 233.563C398.66 230.963 402.246 231.077 407 232.001C414.719 235.003 421.457 239.178 428.125 244.047C438.929 251.387 450.817 257.34 463 262.001L466.566 263.368C502.346 276.192 541.679 271.495 575.687 255.813C583.097 252.281 589.808 247.971 596.563 243.329Z" fill="black"/>
</svg>
