<svg width="1024" height="1024" viewBox="0 0 1024 1024" fill="none" xmlns="http://www.w3.org/2000/svg">
<path d="M668.344 530.77C673.928 530.846 679.129 532.263 684.5 533.688L687.512 534.428L690.469 535.2C691.34 535.425 692.21 535.65 693.107 535.882C697.147 537.444 700.856 538.945 704 542C705.097 544.984 704.982 547.761 704.859 550.91C704.859 551.782 704.859 552.655 704.858 553.553C704.856 555.421 704.836 557.289 704.801 559.157C704.715 564.042 704.767 568.927 704.812 573.813C704.819 574.78 704.825 575.747 704.832 576.743C705.096 601.344 709.839 625.516 722 647C722.334 647.592 722.669 648.184 723.014 648.793C728.835 658.947 735.86 667.732 743.688 676.375C744.139 676.875 744.59 677.376 745.056 677.891C747.156 680.171 749.264 682.211 751.688 684.149C752.407 684.725 753.053 685.31 753.636 685.909C753.757 685.939 753.878 685.97 754 686C753.953 686.047 753.906 686.093 753.859 686.14C756.614 689.069 757.875 692.343 758.688 696.625C757.764 712.544 740.387 727.064 730 738L727.621 740.508C723.015 745.238 718.145 749.469 712.969 753.567C710.493 755.596 708.121 757.68 705.746 759.825C701.333 763.767 696.738 767.386 692 770.922V771C691.71 771.189 691.453 771.354 691.223 771.503C690.472 772.063 689.718 772.625 688.944 773.201C675.537 783.117 661.757 792.22 647 800L643.5 801.887C636.64 805.357 630.72 807.455 623 806C618.62 803.979 614.932 800.681 612.056 796.775C612.037 796.85 612.019 796.925 612 797C611.91 796.775 611.819 796.549 611.729 796.324C610.099 794.035 608.743 791.551 607.688 789C607.104 787.341 606.539 785.675 606 784L604.75 780.375C600.553 761.372 608.18 742.794 614.308 725.128C619.415 709.438 617.051 689.513 612 674C611.711 673.105 611.422 672.21 611.124 671.287C610.811 670.322 610.498 669.358 610.176 668.364C610.136 668.24 610.099 668.126 610.065 668.022C610.044 668.015 610.022 668.008 610 668V667.819C609.691 666.861 609.631 666.678 609.215 665.388C608.588 663.473 607.947 661.562 607.287 659.659C605.212 653.493 603.527 647.839 605.961 641.496C607.21 639.678 608.555 638.056 609.982 636.578C610.308 636.056 610.646 635.531 611 635H611.594C613.957 632.811 616.52 630.935 619.244 629.162C619.163 629.108 619.081 629.055 619 629C621.375 627.438 621.375 627.438 624 626C624.069 626.035 624.137 626.069 624.206 626.103C624.807 625.745 625.413 625.386 626.024 625.025L626 625C626.146 624.927 626.292 624.854 626.438 624.781C626.475 624.759 626.513 624.737 626.55 624.715C642.931 615.04 653.733 605.012 658.688 586.063C659.17 584.052 659.598 582.029 660 580C660.161 579.21 660.322 578.42 660.488 577.606C662.244 568.223 662.628 558.827 663.062 549.313C663.178 546.836 663.296 544.359 663.419 541.882C663.495 540.353 663.566 538.824 663.633 537.294C663.939 531.073 663.939 531.073 668.344 530.77Z" fill="black"/>
<path d="M343.52 532.309C348.649 531.024 353.715 530.493 359 531C360.559 532.559 360.29 534.187 360.465 536.356C360.541 537.277 360.618 538.198 360.697 539.148C360.777 540.151 360.856 541.154 360.938 542.188C361.116 544.3 361.294 546.412 361.473 548.524C361.81 552.611 362.129 556.699 362.434 560.789C363.546 575.113 364.73 590.268 371.863 602.58C372.239 603.051 372.618 603.523 373 604C372.923 604.026 372.846 604.051 372.77 604.076C374.878 607.413 377.458 610.523 380.637 613.325C386.806 618.103 393.032 622.317 399.812 626.188C416.313 635.612 416.313 635.612 419 643C419.342 645.962 419.305 648.768 419 651.5V654H418.646C417.842 658.694 416.317 663.239 414.625 668.063C405.193 695.547 406.481 718.944 416.625 746.001C422.323 761.459 420.958 777.197 414.484 792.125C411.264 798.362 406.852 803.808 400 806C379.973 809.055 355.814 787.769 340.5 776.625C329.984 768.882 319.675 760.778 310 752L307.488 749.766C304.287 746.883 301.133 743.957 298 741C297.3 740.341 296.6 739.681 295.878 739.001C267.111 711.692 267.111 711.692 266.438 696.688C266.561 691.246 268.022 688.78 271.82 685.004L274 683C274.441 682.575 274.879 682.147 275.314 681.717C275.503 681.496 275.716 681.284 276 681C276.008 681.003 276.017 681.005 276.025 681.008C280.301 676.74 284.291 672.286 287.979 667.657C288.521 666.919 288.876 666.464 289.407 665.836C307.495 642.407 317.975 614.627 319 584C319.046 580.508 319.042 577.016 319.035 573.524C319.043 570.749 319.053 567.973 319.063 565.199C319.063 563.298 319.05 561.397 319.024 559.497C318.991 556.713 319.009 553.933 319.035 551.149C319.013 550.303 318.99 549.457 318.967 548.585C319.017 546.146 319.147 544.289 320 542C325.688 536.634 333.658 534.96 341 533L343.52 532.309Z" fill="black"/>
<path d="M510.227 516.794C531.568 516.697 552.713 517.427 574 519C574.702 519.052 575.404 519.104 576.127 519.158C594.542 520.521 612.781 522.515 631.062 525.125C632.005 525.259 632.948 525.393 633.92 525.532C636.584 525.913 639.248 526.303 641.91 526.696C642.716 526.812 643.522 526.929 644.352 527.049C649.883 527.883 649.883 527.883 651 529C651.109 531.496 651.15 533.957 651.137 536.453C651.134 537.214 651.131 537.975 651.128 538.759C651.059 546.371 650.624 553.937 649.993 561.522C649.812 563.762 649.659 566.004 649.506 568.246C648.667 579.168 646.106 588.571 640.671 596.835C640.78 596.89 640.89 596.945 641 597C640.534 597.467 640.067 597.932 639.598 598.402C637.231 601.712 634.375 604.839 630.949 607.805C627.146 610.636 623.137 613.02 619.062 615.438C608.411 621.769 598.102 628.694 594 641C591.929 653.953 596.659 665.435 600.836 677.524C603.511 685.347 605.287 692.242 605.125 700.563L605.07 704.254L605 707C598.41 709.821 591.926 711.98 584.938 713.563C584.022 713.773 583.106 713.984 582.163 714.201C579.445 714.816 576.724 715.413 574 716C573.269 716.159 572.538 716.318 571.784 716.482C525.41 726.29 464.161 726.197 420 708C419.685 707.685 419.444 707.35 419.258 707H419C418.99 706.778 418.981 706.557 418.973 706.336C418.486 704.877 418.727 703.2 418.688 701.5C418.809 690.295 421.804 679.97 425.788 669.591C429.946 658.662 432.699 647.675 429.105 636.125C424.612 627.228 416.62 621.819 408.188 617.063C401.708 613.28 396.175 609.637 391.543 605.456C391.363 605.636 391.182 605.818 391 606L389.496 604.567C388.996 604.087 388.498 603.607 388 603.125L386.312 601.508C385.08 600.092 385.006 600.006 385.001 598.345C384.487 597.659 383.99 596.957 383.51 596.235C383.371 596.443 383.207 596.69 383 597L381 592L381.012 592.006C379.205 588.549 377.71 584.671 376.52 580.224C375.202 574.59 374.751 568.851 374.341 563.091C374.187 560.933 374.007 558.779 373.822 556.623C373.477 552.405 373.246 548.203 373.11 544H373C372.973 541.521 372.953 539.042 372.938 536.563L372.912 534.42C372.903 532.613 372.948 530.806 373 529L374 528H376.088C381.786 526.319 387.563 525.499 393.5 524.625C394.221 524.518 394.941 524.411 395.684 524.3C415.77 521.346 436.018 519.745 456.255 518.21C458.244 518.058 460.233 517.899 462.222 517.735C470.853 517.056 479.426 516.84 488.082 516.832C489.507 516.829 490.933 516.826 492.358 516.823C495.338 516.817 498.317 516.814 501.296 516.815C504.273 516.815 507.25 516.808 510.227 516.794Z" fill="black"/>
<path d="M719.627 453.314C720.468 453.443 721.243 453.612 723 454C731.221 465.293 730.443 481.101 730.281 494.473C730.25 497.064 730.24 499.654 730.234 502.244C730.051 542.217 730.051 542.217 722 551C719.813 551.938 719.812 551.938 718 552C716.079 550.079 716.88 547.213 716.876 544.657C716.88 543.744 716.883 542.831 716.887 541.891C716.887 540.935 716.886 539.978 716.886 538.993C716.886 535.817 716.895 532.641 716.902 529.465C716.904 527.27 716.905 525.074 716.906 522.878C716.91 517.086 716.921 511.294 716.932 505.502C716.942 499.597 716.946 493.692 716.951 487.787C716.962 476.192 716.979 464.596 717 453C717.924 453.099 718.549 453.167 719.078 453.236C719.052 453.157 719.026 453.079 719 453L719.627 453.314Z" fill="black"/>
<path d="M307 551L302 550C302.059 549.896 302.118 549.792 302.177 549.688C301.392 549.23 300.863 548.562 299.875 547.313C292.867 533.468 293.831 515.88 293.87 500.782C293.876 498.307 293.87 495.832 293.863 493.358C293.864 491.756 293.865 490.153 293.867 488.551C293.865 487.826 293.863 487.101 293.861 486.354C293.894 479.026 294.604 471.872 296.375 464.75L297.086 461.797C298.048 458.852 299.24 456.545 301 454C301.772 453.614 302.246 453.378 302.767 453.233C302.844 453.155 302.922 453.078 303 453H307V551Z" fill="black"/>
<path d="M558.994 282.143C601.061 288.353 642.014 318.599 667.212 351.586C691.51 383.843 705.879 421.073 705.391 461.645C705.383 463.52 705.377 465.396 705.373 467.272C705.358 472.13 705.319 476.987 705.274 481.845C705.233 486.834 705.215 491.822 705.195 496.811C705.153 506.541 705.085 516.271 705 526C696.675 523.28 696.675 523.28 693.343 521.901C690.436 520.784 687.567 520.198 684.512 519.598L680.678 518.838C679.348 518.58 678.018 518.321 676.688 518.063L672.826 517.299C670.203 516.782 667.579 516.27 664.953 515.766C662.413 515.278 659.88 514.77 657.346 514.248C644.844 511.746 632.227 510.347 619.562 508.938C618.391 508.806 617.22 508.674 616.014 508.538C598.179 506.543 580.401 504.9 562.47 504.147C559.217 504.009 555.966 503.842 552.715 503.668C545.479 503.312 538.243 503.13 531 503C530.1 502.984 529.199 502.967 528.271 502.95C475.496 502.013 421.224 503.4 369.344 514.133C365.496 514.926 361.648 515.5 357.75 516C346.627 517.508 335.654 520.049 325.199 524.168C323.144 524.946 321.133 525.487 319 526C318.953 515.976 318.918 505.952 318.896 495.928C318.886 491.272 318.871 486.615 318.849 481.959C318.827 477.453 318.816 472.947 318.811 468.441C318.807 466.735 318.799 465.029 318.788 463.323C318.701 449.094 319.54 435.159 323.125 421.313C323.445 420.07 323.444 420.07 323.771 418.803C331.229 391.018 344.859 364.033 364.436 342.764C364.88 342.187 365.388 341.612 366 341C366 341.032 365.999 341.063 365.999 341.094C366.804 340.245 367.619 339.405 368.443 338.576C370.076 336.923 371.671 335.24 373.266 333.551C392.298 313.638 415.569 299.029 441.003 289.003L441 289C442.266 288.468 443.538 287.95 444.812 287.438L446.957 286.559C447.627 286.376 448.078 286.254 448.486 286.206C449.281 285.925 450.077 285.648 450.875 285.375C451.904 285.02 452.932 284.664 453.992 284.298C455.446 283.822 455.446 283.822 456.93 283.336C457.788 283.053 458.646 282.77 459.53 282.478C461.346 282.126 462.802 282.145 464.348 282.401C465.14 282.518 466.004 282.724 467 283L467.487 284.823C467.788 285.973 468.073 287.125 468.348 288.278C469.21 290.024 469.403 291.431 469.604 293.956C470.862 300.074 471.837 306.236 472.727 312.465C473.011 314.436 473.316 316.404 473.621 318.371C473.875 320.103 473.875 320.103 474.135 321.869C475.283 326.025 477.095 328.801 480.78 331.12C483.53 332.21 485.725 332.268 488.683 332.29C490.395 332.309 490.396 332.31 492.143 332.329C493.372 332.332 494.601 332.334 495.867 332.336C497.135 332.343 498.402 332.35 499.708 332.357C502.389 332.367 505.071 332.372 507.752 332.37C511.177 332.37 514.602 332.398 518.027 332.433C521.307 332.461 524.587 332.459 527.867 332.461C529.092 332.476 530.318 332.49 531.58 332.505C540.127 332.507 540.127 332.507 547 328C550.236 323.957 550.825 319.559 551.535 314.559C551.659 313.754 551.783 312.949 551.911 312.12C552.305 309.561 552.685 307 553.062 304.438C553.445 301.873 553.831 299.308 554.225 296.744C554.469 295.153 554.706 293.56 554.936 291.966C555.207 290.182 555.48 288.514 555.917 286.905C555.944 286.604 555.973 286.302 556 286H556.185C556.239 285.83 556.294 285.659 556.353 285.49C556.474 285.133 556.606 284.782 556.755 284.432C557.095 283.616 557.502 282.809 558 282L558.994 282.143Z" fill="black"/>
<path d="M460.485 162.097C464.006 160.16 467.349 160.445 471.57 160.483C472.54 160.476 473.509 160.468 474.508 160.461C477.714 160.444 480.919 160.456 484.125 160.469C486.352 160.466 488.579 160.462 490.806 160.457C495.473 160.451 500.14 160.46 504.807 160.479C510.793 160.502 516.778 160.488 522.764 160.464C527.362 160.45 531.96 160.455 536.558 160.465C538.765 160.468 540.972 160.465 543.18 160.455C546.263 160.445 549.346 160.46 552.43 160.483C553.344 160.475 554.258 160.467 555.2 160.458C561.377 160.541 561.378 160.541 564.581 162.906C566.274 165.404 566.383 166.323 565.934 169.274C565.742 170.592 565.742 170.592 565.547 171.937C565.367 172.948 565.186 173.959 565 175C564.793 176.184 564.586 177.368 564.372 178.587C563.763 181.917 563.128 185.239 562.471 188.56C562.316 189.344 562.164 190.128 562.011 190.912C561.79 192.436 561.557 193.518 561.143 195.361C559.137 205.651 559.116 205.734 557.934 210.211C557.203 213.178 556.65 216.131 556.147 219.118C556.163 219.653 556.179 220.19 556.195 220.739C556.06 222.3 556.019 222.783 555.348 223.92C554.592 228.267 553.768 232.599 552.941 236.934C552.732 238.039 552.675 238.334 552.545 239.018C552.407 239.964 552.216 240.945 552 242C551.994 241.992 551.988 241.983 551.982 241.974C551.311 245.506 550.64 249.037 549.962 252.568C547.553 265.13 545.359 277.677 543.648 290.355C543.441 291.881 543.218 293.404 542.986 294.925C542.991 294.95 542.996 294.975 543 295C542.989 295.016 542.978 295.032 542.968 295.047C542.492 298.162 541.974 301.269 541.438 304.375C541.323 305.043 541.209 305.71 541.092 306.398C540.071 312.115 539.553 315.009 539.048 316.717C539.034 317.081 539.02 317.501 539 318C538.479 318.521 538.093 318.906 537.771 319.195C537.549 319.448 537.297 319.703 537 320C536.751 320.018 536.501 320.031 536.252 320.045C535.905 320.123 535.483 320.174 534.899 320.241C534.034 320.236 533.168 320.231 532.275 320.227C531.295 320.227 530.313 320.227 529.303 320.227C528.446 320.219 527.589 320.21 526.716 320.201C526.574 320.202 526.432 320.203 526.289 320.203C525.21 320.209 524.131 320.215 523.02 320.221C520.731 320.23 518.443 320.237 516.154 320.241C512.647 320.25 509.14 320.281 505.633 320.313C503.414 320.319 501.195 320.325 498.977 320.328C497.923 320.341 496.87 320.353 495.785 320.366C494.808 320.363 493.83 320.36 492.823 320.357C491.962 320.36 491.101 320.364 490.214 320.368C489.586 320.263 489.058 320.147 488.597 320.004C488.398 320.003 488.199 320.002 488 320V319.788C486.815 319.29 486.077 318.498 485 317C484.444 315.064 484.444 315.064 484.183 312.85C484.076 312.02 483.97 311.19 483.86 310.335C483.757 309.44 483.654 308.544 483.547 307.621C483.299 305.704 483.049 303.787 482.795 301.87C482.666 300.891 482.538 299.912 482.405 298.904C481.786 294.468 481.009 290.066 480.203 285.66C480.047 284.805 479.891 283.95 479.73 283.069C479.24 280.399 478.745 277.731 478.25 275.063C477.896 273.141 477.543 271.218 477.189 269.296C476.473 265.399 475.754 261.501 475.033 257.604C474.079 252.44 473.139 247.273 472.203 242.106C471.833 240.07 471.46 238.035 471.086 236H471C470.966 235.656 470.931 235.312 470.896 234.967C467.947 218.973 464.85 203.013 461.576 187.079C461.412 186.271 461.247 185.462 461.077 184.629C460.773 183.135 460.466 181.641 460.154 180.149C459.739 178.104 459.363 176.055 459 174C458.848 173.217 458.695 172.433 458.538 171.625C458.464 171.167 458.39 170.708 458.314 170.245C457.981 169.763 457.941 169.25 457.812 167.625C457.818 167.548 457.824 167.472 457.829 167.399C457.81 167.289 457.791 167.178 457.771 167.068C458 165 458 165 459.393 162.768C459.45 162.729 459.508 162.691 459.565 162.654C459.699 162.453 459.843 162.236 460 162C460.162 162.033 460.324 162.065 460.485 162.097Z" fill="black"/>
</svg>
