<svg width="1024" height="1024" viewBox="0 0 1024 1024" fill="none" xmlns="http://www.w3.org/2000/svg">
<path d="M182.818 779.529C184.269 779.542 185.72 779.555 187.216 779.569C188.879 779.594 188.879 779.594 190.576 779.62C190.576 781.067 190.576 782.514 190.576 784.004C188.298 784.54 186.015 785.053 183.73 785.557C182.46 785.845 181.189 786.133 179.88 786.43C175.738 786.956 172.689 786.502 168.67 785.465C169.152 784.019 169.634 782.572 170.131 781.082C174.73 779.548 177.999 779.472 182.818 779.529Z" fill="black"/>
<path d="M135.082 735.783C135.805 737.953 135.805 737.953 136.542 740.166C117.048 746.924 97.2483 749.815 76.6676 748.934C77.1495 747.487 77.6314 746.041 78.1279 744.55C121.822 735.489 121.822 735.489 135.082 735.783Z" fill="black"/>
<path d="M956.079 699.16C958.835 699.205 958.835 699.205 961.647 699.251C961.647 701.18 961.647 703.109 961.647 705.096C955.864 705.096 950.081 705.096 944.122 705.096C944.604 703.65 945.086 702.203 945.583 700.712C949.6 699.373 951.949 699.092 956.079 699.16Z" fill="black"/>
<path d="M866.084 223.064C868.065 223.681 870.047 224.294 872.03 224.903C877.579 226.619 883.104 228.399 888.629 230.188C891.018 230.944 893.408 231.698 895.799 232.448C898.859 233.409 901.915 234.376 904.964 235.371C912.008 237.653 919.094 239.749 926.216 241.771C931.153 243.174 936.086 244.595 941.019 246.015C943.498 246.723 945.98 247.422 948.465 248.111C951.982 249.087 955.488 250.094 958.994 251.108C960.058 251.394 961.121 251.68 962.217 251.975C966.944 253.371 970.26 254.901 973.998 258.14C977.074 263.871 977.066 268.528 976.975 274.939C976.977 276.144 976.979 277.349 976.981 278.59C976.979 281.13 976.962 283.67 976.932 286.21C976.889 290.087 976.901 293.962 976.92 297.84C976.911 300.313 976.899 302.787 976.883 305.26C976.888 306.414 976.892 307.568 976.896 308.757C976.783 315.417 976.248 320.025 971.869 325.17C968.527 326.998 968.527 326.998 964.63 328.258C963.196 328.728 961.763 329.198 960.285 329.683C953.134 331.809 945.95 333.768 938.737 335.672C860.691 357.038 772.085 400.629 729.449 472.757C718.189 492.851 711.767 516.174 717.949 539.061C724.423 557.02 736.111 569.012 751.537 579.611C752.364 580.189 753.192 580.767 754.044 581.363C771.83 593.123 792.774 598.662 812.999 604.639C830.467 609.826 845.08 614.209 855.04 630.572C857.613 635.46 859.421 639.559 859.421 645.185C870.505 645.667 881.59 646.149 893.01 646.646C893.492 647.61 893.973 648.575 894.47 649.568C880.735 652.462 880.735 652.462 866.723 655.414C866.723 656.378 866.723 657.342 866.723 658.336C867.58 658.247 868.437 658.159 869.32 658.068C889.945 655.984 910.253 655.028 930.979 655.414C930.979 656.378 930.979 657.342 930.979 658.336C923.6 659.8 916.22 661.256 908.838 662.706C906.328 663.2 903.818 663.696 901.308 664.195C897.699 664.911 894.088 665.62 890.477 666.327C889.357 666.551 888.237 666.775 887.083 667.005C882.11 667.973 877.654 668.565 872.565 668.565C872.565 670.011 872.565 671.458 872.565 672.949C873.716 672.836 874.867 672.722 876.054 672.606C886.924 671.54 897.796 670.486 908.669 669.443C914.258 668.907 919.847 668.367 925.435 667.817C930.831 667.286 936.228 666.766 941.627 666.253C943.682 666.056 945.737 665.855 947.792 665.65C950.678 665.363 953.566 665.091 956.453 664.82C958.094 664.661 959.735 664.502 961.426 664.338C966.105 664.178 970.212 664.71 974.79 665.642C974.308 667.089 973.826 668.536 973.329 670.026C947.565 673.646 921.887 676.855 895.93 678.794C895.93 679.758 895.93 680.722 895.93 681.716C908.46 681.716 920.99 681.716 933.9 681.716C933.9 682.681 933.9 683.645 933.9 684.639C917.399 687.738 900.942 690.168 884.247 691.945C885.211 694.356 886.175 696.767 887.168 699.251C894.397 700.216 901.626 701.18 909.074 702.174C909.074 703.62 909.074 705.067 909.074 706.557C907.645 706.912 906.216 707.266 904.744 707.631C902.81 708.125 900.876 708.619 898.942 709.115C898.008 709.344 897.073 709.574 896.11 709.811C890.852 711.172 886.061 712.844 881.156 715.188C873.941 718.439 866.668 720.427 858.993 722.283C857.607 722.628 856.22 722.973 854.791 723.329C851.883 724.05 848.973 724.766 846.062 725.476C841.617 726.56 837.178 727.661 832.738 728.765C829.899 729.467 827.059 730.168 824.219 730.868C822.24 731.357 822.24 731.357 820.221 731.855C800.705 736.608 784.843 736.894 765.502 731.034C700.749 712.575 623.14 706.026 561.719 738.705C542.586 749.387 526.161 763.959 514.348 782.6C507.13 793.044 493.578 794.143 481.861 796.412C473.562 797.919 465.238 799.241 456.9 800.505C452.561 801.169 448.23 801.869 443.897 802.572C418.229 806.597 393.332 806.831 367.462 804.553C365.875 804.426 364.288 804.299 362.653 804.168C358.35 803.813 354.053 803.422 349.755 803C348.659 802.895 347.563 802.789 346.434 802.68C343.628 802.355 343.628 802.355 339.533 801.539C339.051 800.575 338.569 799.61 338.072 798.617C342.086 797.634 346.103 796.662 350.12 795.694C351.823 795.276 351.823 795.276 353.56 794.849C354.661 794.586 355.763 794.322 356.897 794.05C357.907 793.805 358.916 793.56 359.956 793.308C362.898 792.772 362.898 792.772 368.74 792.772C368.74 791.807 368.74 790.843 368.74 789.849C358.34 785.119 348.678 785.362 337.61 786.55C335.669 786.742 335.669 786.742 333.688 786.938C330.936 787.211 328.185 787.489 325.434 787.771C318.347 788.496 311.256 789.177 304.165 789.855C302.786 789.987 301.407 790.119 299.986 790.255C289.536 791.24 279.102 792.036 268.614 792.498C267.351 792.557 266.087 792.616 264.786 792.677C256.692 792.972 256.692 792.972 253.371 791.31C253.371 790.346 253.371 789.381 253.371 788.388C262.073 786.149 270.775 783.914 279.478 781.681C282.435 780.922 285.39 780.162 288.346 779.402C292.613 778.304 296.88 777.21 301.147 776.116C302.453 775.779 303.758 775.443 305.104 775.096C313.143 773.038 321.201 771.153 329.31 769.391C329.31 768.427 329.31 767.463 329.31 766.469C328.11 766.579 326.91 766.689 325.674 766.802C314.331 767.839 302.988 768.872 291.643 769.898C285.812 770.426 279.981 770.956 274.151 771.491C268.517 772.007 262.883 772.518 257.249 773.025C255.106 773.219 252.964 773.415 250.821 773.613C230.157 775.517 230.157 775.517 219.783 775.237C219.06 773.067 219.06 773.067 218.323 770.853C235.847 765.01 253.511 760.611 271.535 756.605C275.426 755.736 279.317 754.863 283.206 753.984C285.6 753.443 287.996 752.908 290.393 752.378C295.685 751.564 295.685 751.564 300.103 748.934C285.418 744.036 266.232 747.959 251.075 749.638C247.424 750.042 243.772 750.431 240.12 750.816C232.366 751.637 224.614 752.476 216.862 753.318C207.862 754.295 198.862 755.264 189.859 756.215C186.303 756.594 182.749 756.987 179.195 757.38C165.395 758.866 151.887 759.485 138.003 759.163C138.485 757.716 138.967 756.269 139.463 754.779C143.183 753.604 146.685 752.743 150.496 751.988C151.654 751.741 152.812 751.495 154.005 751.241C156.529 750.706 159.056 750.179 161.584 749.661C168.36 748.269 175.123 746.816 181.888 745.372C183.3 745.073 184.712 744.773 186.167 744.465C202.321 741.025 218.399 737.271 234.478 733.499C237.264 732.847 240.051 732.196 242.837 731.544C249.27 730.038 255.702 728.528 262.133 727.015C254.582 725.645 247.864 725.646 240.234 726.587C239.137 726.712 238.04 726.837 236.909 726.965C233.42 727.366 229.933 727.784 226.446 728.202C224.158 728.467 221.869 728.731 219.58 728.993C210.662 730.023 201.747 731.075 192.845 732.245C191.808 732.38 190.77 732.515 189.701 732.654C186.89 733.022 184.081 733.399 181.271 733.777C172.687 734.659 164.151 734.564 155.527 734.321C155.045 733.357 154.563 732.392 154.067 731.399C165.594 727.352 177.3 724.239 189.115 721.17C185.742 721.17 182.369 721.17 178.893 721.17C178.893 720.206 178.893 719.241 178.893 718.248C180.203 717.997 181.513 717.747 182.863 717.489C187.774 716.549 192.684 715.607 197.593 714.662C199.709 714.256 201.825 713.85 203.941 713.446C219.98 710.393 219.98 710.393 235.847 706.557C235.847 706.075 235.847 705.593 235.847 705.096C233.976 705.202 232.105 705.307 230.177 705.416C215.495 706.214 200.902 706.777 186.195 706.557C190.198 702.552 194.762 701.755 200.068 700.256C201.72 699.738 201.72 699.738 203.405 699.21C209.233 697.429 214.564 696.165 220.662 695.872C228.271 695.213 234.304 694.123 240.228 689.022C248.198 677.312 253.388 664.032 258.615 650.926C269.409 623.869 269.409 623.869 278.269 618.597C287.809 614.657 298.879 614.006 309.024 612.61C342.349 607.937 376.689 600.609 399.407 573.583C404.111 567.16 407.715 560.32 411.09 553.126C411.646 551.946 412.201 550.767 412.773 549.552C415.842 541.431 415.946 533.035 416.11 524.448C416.16 522.695 416.16 522.695 416.21 520.906C416.166 510.112 412.492 500.931 404.884 493.123C398.315 487.802 392.691 488.401 384.554 489.224C382.402 489.458 380.25 489.697 378.099 489.938C361.827 491.572 345.863 492.936 331.044 485.269C319.157 479.231 307.239 479.104 294.17 478.967C292.593 478.949 292.593 478.949 290.983 478.93C288.863 478.906 286.744 478.883 284.624 478.859C283.584 478.848 282.544 478.836 281.472 478.824C280.436 478.813 279.401 478.803 278.334 478.792C210.639 477.86 141.931 452.248 88.3505 411.384C87.012 410.372 85.6736 409.361 84.2946 408.319C75.9461 401.756 68.2187 394.571 60.6036 387.182C59.6578 386.286 58.7119 385.39 57.7374 384.466C51.5027 378.284 48.3837 373.111 46 364.624C46.6389 361.153 46.6389 361.153 48.9207 358.779C55.6256 356.102 62.2567 355.076 69.3854 354.322C70.5311 354.193 71.6767 354.064 72.8571 353.931C76.6497 353.506 80.4435 353.094 84.2375 352.682C86.9223 352.383 89.6071 352.084 92.2917 351.783C97.9813 351.147 103.672 350.516 109.362 349.889C124.03 348.274 138.695 346.626 153.359 344.977C154.798 344.815 156.237 344.654 157.719 344.487C183.95 341.539 210.139 338.344 236.303 334.852C237.554 334.686 238.805 334.52 240.094 334.35C242.337 334.051 244.579 333.748 246.821 333.44C251.964 332.752 256.944 332.322 262.133 332.476C262.188 331.472 262.243 330.468 262.299 329.434C262.395 328.117 262.491 326.8 262.59 325.444C262.717 323.486 262.717 323.486 262.847 321.488C263.727 317.217 264.597 316.149 267.975 313.48C271.329 312.58 271.329 312.58 275.225 312.093C277.339 311.817 277.339 311.817 279.495 311.536C280.965 311.364 282.434 311.191 283.948 311.014C285.411 310.824 286.875 310.635 288.383 310.44C294.308 309.693 299.962 309.096 305.944 309.096C305.965 307.792 305.986 306.489 306.007 305.146C306.077 303.436 306.146 301.725 306.218 299.963C306.269 298.268 306.32 296.572 306.372 294.826C307.698 288.756 309.592 287.623 314.706 284.255C318.869 283.174 318.869 283.174 323.557 282.667C325.359 282.459 327.162 282.25 329.02 282.036C330.481 281.885 330.481 281.885 331.973 281.73C335.167 281.4 338.356 281.04 341.546 280.674C346.312 280.129 351.079 279.598 355.848 279.076C369.542 277.572 383.222 275.949 396.903 274.334C398.407 274.157 399.91 273.98 401.459 273.798C442.263 268.986 482.984 263.542 523.702 258.059C528.894 257.36 534.086 256.663 539.278 255.966C586.398 249.641 633.487 243.134 680.531 236.263C683.729 235.796 686.927 235.329 690.126 234.863C709.43 232.05 728.734 229.232 748.027 226.339C756.369 225.088 764.713 223.858 773.059 222.633C776.444 222.132 779.828 221.624 783.211 221.107C811.878 216.731 838.15 213.893 866.084 223.064ZM929.981 267.838C927.967 268.118 925.954 268.397 923.94 268.675C918.462 269.436 912.985 270.207 907.508 270.981C904.025 271.473 900.542 271.961 897.058 272.449C843.914 279.893 790.834 287.769 737.765 295.722C729.049 297.029 720.333 298.332 711.616 299.634C588.86 317.964 588.86 317.964 466.219 337.042C464.883 337.254 463.547 337.465 462.17 337.683C458.522 338.262 454.875 338.844 451.227 339.428C450.186 339.593 449.145 339.759 448.073 339.929C443.47 340.671 438.968 341.536 434.456 342.705C434.615 354.153 434.78 365.6 434.952 377.048C435.031 382.368 435.109 387.687 435.182 393.007C435.524 417.664 436.038 442.284 437.377 466.911C438.341 466.429 439.305 465.947 440.298 465.45C441.03 462.445 441.03 462.445 441.336 458.732C441.494 457.255 441.652 455.779 441.815 454.257C441.977 452.616 442.139 450.976 442.306 449.285C442.485 447.585 442.665 445.885 442.85 444.133C443.879 434.281 444.833 424.422 445.775 414.561C446.283 409.25 446.798 403.94 447.312 398.629C447.688 394.703 448.049 390.775 448.409 386.847C448.642 384.404 448.876 381.96 449.111 379.516C449.21 378.393 449.309 377.269 449.41 376.112C450.473 365.313 450.474 365.313 453.441 361.701C462.825 356.291 473.641 355.211 484.183 353.402C486.26 353.035 488.338 352.668 490.415 352.3C496.045 351.305 501.678 350.325 507.312 349.348C513.296 348.307 519.277 347.252 525.259 346.198C535.268 344.437 545.278 342.684 555.29 340.937C569.489 338.46 583.685 335.964 597.88 333.463C602.368 332.673 606.856 331.883 611.345 331.092C612.45 330.898 613.555 330.703 614.693 330.503C627.116 328.316 639.54 326.135 651.964 323.954C654.207 323.56 656.45 323.166 658.693 322.773C668.303 321.086 677.913 319.399 687.523 317.713C740.106 308.491 792.663 299.124 845.2 289.641C849.675 288.834 854.15 288.028 858.625 287.223C898.268 280.097 898.268 280.097 937.835 272.567C940.626 272.022 943.419 271.486 946.212 270.95C947.841 270.626 949.47 270.301 951.148 269.967C952.553 269.69 953.959 269.414 955.407 269.129C958.981 268.399 958.981 268.399 961.647 265.258C950.906 264.881 940.602 266.334 929.981 267.838ZM351.946 290.1C350.466 290.239 348.986 290.378 347.462 290.522C343.845 290.863 340.228 291.21 336.612 291.561C337.898 294.991 337.898 294.991 342.408 295.956C344.343 296.505 346.278 297.049 348.215 297.588C361.925 301.646 374.622 307.417 387.542 313.48C389.774 314.512 392.006 315.543 394.239 316.573C396.414 317.582 398.59 318.59 400.765 319.599C401.815 320.081 402.865 320.564 403.946 321.061C409.584 323.679 414.884 326.551 420.229 329.736C428.994 334.15 436.96 331.714 446.139 329.553C449.738 328.818 453.338 328.084 456.938 327.35C460.55 326.568 464.161 325.78 467.771 324.987C469.635 324.582 471.5 324.177 473.421 323.76C477.958 322.774 482.494 321.782 487.029 320.786C486.306 319.339 486.306 319.339 485.569 317.863C484.378 317.879 483.186 317.894 481.959 317.91C477.452 317.96 472.945 317.997 468.437 318.024C465.562 318.045 462.688 318.083 459.813 318.12C439.972 318.221 423.605 314.765 405.271 307.469C402.203 306.251 399.125 305.065 396.045 303.882C379.711 297.499 379.711 297.499 376.042 293.022C377.487 292.54 378.933 292.058 380.423 291.561C380.423 290.596 380.423 289.632 380.423 288.638C370.841 288.456 361.479 289.173 351.946 290.1ZM304.758 317.863C303.467 318.003 302.177 318.142 300.847 318.286C297.678 318.629 294.509 318.975 291.341 319.325C291.341 320.289 291.341 321.254 291.341 322.247C292.722 322.711 294.104 323.174 295.528 323.651C307.151 327.699 318.073 332.455 328.854 338.412C329.954 339.013 331.054 339.614 332.187 340.232C338.531 343.828 343.397 347.526 348.295 352.934C348.777 353.416 349.259 353.898 349.755 354.395C351.597 366.497 351.539 378.672 351.678 390.886C351.708 393.128 351.738 395.37 351.77 397.612C351.85 403.47 351.922 409.329 351.993 415.189C352.067 421.184 352.148 427.179 352.228 433.174C352.384 444.907 352.533 456.64 352.676 468.373C353.64 467.891 354.604 467.408 355.597 466.911C356.496 462.547 356.496 462.547 357.006 457.174C357.119 456.162 357.233 455.151 357.35 454.109C357.722 450.767 358.074 447.423 358.426 444.079C358.68 441.775 358.934 439.471 359.19 437.167C360.461 425.586 361.626 413.996 362.687 402.394C362.833 400.823 362.833 400.823 362.981 399.22C363.441 394.229 363.885 389.237 364.301 384.241C364.539 381.58 364.539 381.58 364.781 378.865C364.912 377.308 365.043 375.751 365.178 374.147C365.819 370.469 365.819 370.469 368.74 367.546C371.619 366.678 371.619 366.678 375.095 365.982C376.337 365.728 377.58 365.474 378.86 365.212C380.159 364.957 381.458 364.703 382.796 364.441C384.106 364.175 385.416 363.91 386.766 363.636C390.004 362.981 393.245 362.34 396.487 361.701C396.969 356.879 397.451 352.057 397.947 347.089C392.38 345.697 387.939 345.684 382.265 346.444C379.929 346.747 379.929 346.747 377.545 347.057C375.129 347.389 375.129 347.389 372.665 347.728C370.207 348.051 370.207 348.051 367.699 348.381C363.663 348.914 359.629 349.458 355.597 350.011C355.597 347.6 355.597 345.189 355.597 342.705C356.634 342.528 357.671 342.351 358.74 342.168C360.082 341.923 361.424 341.678 362.807 341.426C364.146 341.189 365.484 340.951 366.863 340.707C367.964 340.402 369.066 340.097 370.2 339.782C370.682 338.818 371.164 337.853 371.661 336.86C367.332 334.694 363.253 335.282 358.426 335.216C346.228 334.79 336.435 330.933 325.442 325.895C320.997 323.51 320.997 323.51 317.627 323.708C317.627 322.744 317.627 321.78 317.627 320.786C320.519 320.304 323.41 319.821 326.389 319.325C326.389 318.36 326.389 317.396 326.389 316.402C319.113 316.161 311.976 317.066 304.758 317.863ZM288.18 350.314C215.59 362.684 144.458 366.855 70.8261 367.546C71.9769 370.695 71.9769 370.695 74.8635 371.378C76.5585 371.759 76.5585 371.759 78.2877 372.147C80.2249 372.582 80.2249 372.582 82.2013 373.027C83.6282 373.328 85.055 373.629 86.525 373.939C88.7655 374.415 88.7655 374.415 91.0512 374.9C168.958 390.863 246.698 388.84 324.929 377.775C320.707 364.46 311.733 356.043 300.103 348.55C296.149 348.55 292.081 349.644 288.18 350.314ZM409.63 481.524C426.938 495.1 451.231 502.828 472.426 507.827C462.143 493.662 444.778 490.16 428.62 486.022C425.132 485.128 422.055 484.152 418.706 482.78C415.142 481.172 415.142 481.172 409.63 481.524ZM482.648 526.823C482.964 528.345 483.281 529.867 483.606 531.435C491.347 570.471 484.882 606.973 463.663 640.801C459.091 647.37 454.118 653.599 449.06 659.797C448.245 660.822 447.429 661.847 446.59 662.902C441.231 669.448 435.042 674.786 428.615 680.255C426.176 682.411 423.742 684.572 421.313 686.739C419.641 688.228 419.641 688.228 417.936 689.747C417.123 690.473 416.309 691.198 415.471 691.945C379.856 676.691 345.049 658.997 310.967 640.587C305.007 637.379 299.147 634.379 292.801 632.033C290.632 632.757 290.632 632.757 288.42 633.495C313.281 650.217 338.271 666.61 363.924 682.096C375.578 689.137 387.157 696.228 398.403 703.909C399.364 704.56 400.324 705.211 401.314 705.881C405.505 708.794 408.226 711.025 411.09 715.325C411.542 723.367 410.69 730.812 409.174 738.717C408.979 739.782 408.785 740.847 408.584 741.945C407.969 745.312 407.34 748.675 406.709 752.039C406.079 755.413 405.452 758.788 404.834 762.164C404.452 764.254 404.062 766.343 403.664 768.429C402.608 774.185 402.138 779.617 402.328 785.465C405.609 782.182 406.489 779.836 408.101 775.51C408.64 774.071 409.179 772.631 409.734 771.148C410.302 769.604 410.87 768.06 411.455 766.469C412.041 764.898 412.627 763.328 413.231 761.71C417.196 750.991 420.933 740.215 424.192 729.258C426.127 723.07 427.883 719.327 432.996 715.325C437.075 714.157 440.829 713.304 444.987 712.619C446.162 712.408 447.337 712.196 448.547 711.977C452.305 711.306 456.067 710.667 459.83 710.028C462.304 709.589 464.778 709.147 467.252 708.704C486.477 705.296 486.477 705.296 494.635 704.344C497.359 704.021 497.359 704.021 500.138 703.692C501.709 703.533 503.281 703.374 504.899 703.21C510.687 701.723 513.337 698.718 516.368 693.686C516.98 692.352 516.98 692.352 517.605 690.992C518.089 689.987 518.573 688.982 519.072 687.946C519.582 686.885 520.092 685.823 520.617 684.73C527.07 671.949 535.194 662.365 545.444 652.491C546.505 651.417 547.567 650.344 548.661 649.237C578.348 620.779 618 610.738 658.051 611.065C690.162 611.822 721.674 620.239 748.843 637.731C750.531 638.812 752.257 639.835 754.014 640.8C769.43 650.055 772.072 672.94 776.454 689.114C777.41 692.626 778.37 696.136 779.342 699.644C779.942 701.809 780.532 703.977 781.112 706.147C782.708 712.034 782.708 712.034 786.403 716.786C785.705 701.75 784.056 686.958 781.918 672.058C779.893 657.133 779.893 657.133 782.022 649.568C786.26 645.655 790.341 644.164 795.856 642.673C797.412 642.246 798.967 641.818 800.57 641.377C802.19 640.946 803.81 640.515 805.479 640.07C807.85 639.423 807.85 639.423 810.268 638.763C814.967 637.483 819.669 636.219 824.373 634.956C827.444 634.12 830.515 633.283 833.585 632.444C834.906 632.084 836.226 631.723 837.587 631.351C838.527 631.094 839.468 630.837 840.437 630.572C840.437 629.608 840.437 628.643 840.437 627.65C832.762 624.445 826.542 624.538 818.44 625.092C817.174 625.161 815.908 625.23 814.604 625.302C807.813 625.705 801.095 626.322 794.35 627.204C778.671 629.217 768.476 629.66 754.275 621.805C750.05 619.78 745.777 617.865 741.497 615.96C740.371 615.456 739.245 614.952 738.085 614.432C696.368 596.038 646.435 591.542 602.398 604.27C600.638 604.765 598.877 605.26 597.064 605.771C562.673 616.847 531.076 638.729 510.06 668.231C501.945 679.523 494.903 683.796 481.188 686.1C478.471 686.631 475.756 687.168 473.042 687.71C451.241 691.945 451.241 691.945 443.218 691.945C443.981 691.233 444.743 690.521 445.529 689.787C476.444 659.991 496.532 621.437 497.588 577.912C497.767 559.173 494.071 543.496 485.569 526.823C484.605 526.823 483.641 526.823 482.648 526.823Z" fill="black"/>
</svg>
