<svg width="512" height="512" viewBox="0 0 512 512" fill="none" xmlns="http://www.w3.org/2000/svg">
<path d="M97.7 263.575C99.2403 268.271 100.601 272.931 101.907 277.692C115.522 323.519 145.512 355.989 187.468 378.759C198.803 384.675 210.575 389.577 222.433 394.338C222.433 394.992 222.433 395.645 222.433 396.319C190.413 403.439 153.448 395.942 125.681 378.983C93.0585 356.556 74.3511 322.261 62.0621 285.369C61.9838 280.747 61.9749 276.122 62.0621 271.5C88.6491 259.047 88.6491 259.047 97.7 263.575Z" fill="black"/>
<path d="M414.482 261.594C419.314 262.433 424.137 263.303 428.96 264.194C430.326 264.428 431.693 264.662 433.101 264.902C438.566 265.933 443.376 267.077 448.225 269.852C451.415 275.963 449.62 280.792 448.14 287.35C434.101 330.566 410.084 366.786 368.821 387.899C345.019 398.121 315.039 401.963 289.749 396.319C295.133 392.727 300.558 389.9 306.368 387.079C350.723 365.506 388.545 336.455 406.226 288.871C409.297 279.866 411.975 270.771 414.482 261.594Z" fill="black"/>
<path d="M388.743 148.663C395.172 155.226 396.27 162.094 397.9 170.952C398.375 173.454 398.85 175.957 399.339 178.536C407.209 226.168 404.163 274.995 376.485 316.094C357.524 342.24 327.15 367.357 295.689 376.506C294.382 375.853 293.075 375.199 291.729 374.525C292.666 373.463 293.602 372.4 294.567 371.306C325.372 334.771 344.257 288.357 341.621 240.182C339.746 219.57 334.026 199.639 325.294 180.928C323.407 176.4 323.407 176.4 323.407 170.456C330.042 167.553 336.685 164.669 343.33 161.788C345.197 160.971 347.064 160.154 348.987 159.312C377.828 146.842 377.828 146.842 388.743 148.663Z" fill="black"/>
<path d="M121.459 148.663C145.181 149.51 168.856 159.924 188.775 172.438C187.986 174.284 187.198 176.131 186.385 178.033C166.861 224.562 164.497 270.283 183.686 317.401C189.925 332.127 197.52 345.49 206.594 358.675C208.865 362.099 211.134 365.525 213.4 368.953C215.088 371.472 216.779 373.991 218.473 376.506C180.525 367.286 147.984 337.442 127.398 305.181C123.326 298.11 120.243 291.07 117.499 283.388C116.335 280.258 116.335 280.258 115.148 277.065C104.024 241.236 102.4 188.404 118.698 153.801C119.609 152.106 120.52 150.41 121.459 148.663Z" fill="black"/>
<path d="M254.111 113C273.384 119.04 287.292 142.225 297.669 158.569C298.973 160.599 300.277 162.63 301.621 164.721C322.934 199.758 333.845 240.79 325.337 281.629C315.782 320.898 293.666 353.622 265.99 382.45C264.936 383.582 263.882 384.713 262.796 385.879C260.051 388.394 260.051 388.394 255.596 389.632C238.193 385.674 223.559 359.748 214.221 345.239C190.105 305.896 176.505 264.715 186.532 218.595C196.603 177.875 221.417 139.12 254.111 113Z" fill="black"/>
</svg>
