<svg width="500" height="500" viewBox="0 0 500 500" fill="none" xmlns="http://www.w3.org/2000/svg">
<path d="M425 398C438.807 398 450 409.193 450 423C450 436.807 438.807 448 425 448H225C211.193 448 200 436.807 200 423C200 409.193 211.193 398 225 398H425ZM225 78C307.843 78 375 145.157 375 228C375 266.419 360.555 301.462 336.802 328H425C438.807 328 450 339.193 450 353C450 366.807 438.807 378 425 378H225C142.157 378 75 310.843 75 228C75 145.157 142.157 78 225 78ZM225 128C169.772 128 125 172.772 125 228C125 283.228 169.772 328 225 328C280.228 328 325 283.228 325 228C325 172.772 280.228 128 225 128Z" fill="black"/>
</svg>
