<svg width="1024" height="1024" viewBox="0 0 1024 1024" fill="none" xmlns="http://www.w3.org/2000/svg">
<path d="M634.356 359.87C636.996 359.875 639.634 359.87 642.273 359.863C651.569 359.86 660.743 360.073 670 361C670.495 362.98 670.495 362.98 671 365C671.626 365.133 672.253 365.265 672.898 365.402C673.716 365.579 674.533 365.755 675.375 365.937C676.187 366.111 676.999 366.285 677.836 366.465C680 367 680 367 682 368C682.33 366.35 682.66 364.7 683 363C689.821 362.779 696.271 363.603 703 364.687C704.097 364.862 705.194 365.037 706.324 365.218C715.183 366.707 723.566 368.933 732 372C731.688 373.138 731.376 374.277 731.054 375.45C729.948 379.892 729.474 384.243 729.134 388.799C729.031 390.071 729.031 390.071 728.925 391.37C728.699 394.185 728.482 397 728.266 399.816C728.106 401.833 727.946 403.849 727.785 405.866C727.353 411.301 726.931 416.737 726.512 422.174C726.25 425.564 725.986 428.953 725.72 432.343C723.259 463.83 720.901 495.325 718.696 526.832C718.502 529.603 718.305 532.374 718.108 535.145C717.798 539.508 717.495 543.872 717.198 548.236C717.09 549.809 716.98 551.381 716.868 552.954C716.267 561.401 715.854 569.85 715.697 578.318C715.669 579.122 715.641 579.925 715.612 580.753C715.579 584.385 715.699 586.564 717.791 589.592C719.749 591.297 719.749 591.297 721.957 592.453C724.914 594.692 725.972 597.536 727 601C727.365 604.048 727.329 607.044 727.258 610.109C727.251 610.958 727.245 611.807 727.238 612.681C727.215 615.371 727.171 618.06 727.125 620.75C727.09 623.454 727.059 626.158 727.034 628.862C727.017 630.539 726.994 632.216 726.964 633.893C726.921 637.204 726.945 639.835 728 643C728.203 644.945 728.203 644.945 728.25 647.125C728.289 648.181 728.289 648.181 728.328 649.258C728.021 651.824 727.431 653.498 726.488 655.871C724.203 662.42 724.759 669.09 724.938 675.937C725.434 697.349 725.434 697.349 721 704C720.752 703.381 720.505 702.762 720.25 702.125C718.744 699.564 717.664 699.21 715 698C714.351 697.688 713.702 697.376 713.033 697.054C710.835 696.014 708.637 694.975 706.438 693.937C705.67 693.573 704.902 693.209 704.111 692.834C703.372 692.485 702.633 692.137 701.871 691.777C700.865 691.301 700.865 691.301 699.838 690.816C697.836 689.892 697.836 689.892 695 689C694.848 693.714 694.831 696.617 697.941 700.297C699.677 701.916 701.42 703.527 703.168 705.133C710.416 712.099 715.525 721.897 720.535 730.525C721.476 732.115 722.446 733.689 723.45 735.24C727.408 741.44 729.734 747.473 731.727 754.527C732.042 755.597 732.356 756.666 732.681 757.768C733.676 761.154 734.651 764.545 735.625 767.937C736.61 771.325 737.598 774.711 738.59 778.096C739.203 780.191 739.811 782.288 740.414 784.387C742.108 790.23 744.013 795.924 746.204 801.601C748.41 808.248 747.008 814.82 744 821C735.171 835.026 717.281 840.428 701.996 843.965C685.007 847.411 667.771 848.356 650.474 848.316C647.633 848.312 644.794 848.336 641.953 848.361C615.059 848.454 582.52 845.603 562 826C556.383 819.677 554.719 813.318 554.586 804.902C554.566 804.123 554.547 803.344 554.527 802.541C554.466 800.007 554.42 797.472 554.375 794.937C554.339 793.183 554.303 791.428 554.267 789.673C554.179 785.276 554.107 780.878 554.04 776.481C554.002 774.152 553.959 771.823 553.913 769.494C553.837 765.559 553.79 761.623 553.75 757.687C553.729 756.541 553.707 755.394 553.685 754.213C553.639 742.909 556.92 734.378 562.188 724.5C562.674 723.58 563.161 722.66 563.663 721.713C567.973 713.74 572.617 706.982 579.438 700.937C582.801 697.081 582.978 693.985 583 689C573.328 692.276 565.138 695.66 557 702C556.34 702.33 555.68 702.66 555 703C550.478 691.989 550.92 681.674 551.215 669.91C551.229 668.754 551.243 667.598 551.258 666.406C551.28 665.368 551.302 664.33 551.325 663.26C551.04 660.397 550.603 658.85 549.509 656.285C547.485 651.243 547.568 646.409 547.602 641.035C547.597 639.486 547.597 639.486 547.593 637.906C547.591 635.731 547.596 633.557 547.609 631.383C547.625 628.076 547.609 624.77 547.59 621.463C547.592 619.341 547.596 617.219 547.602 615.098C547.595 614.119 547.589 613.141 547.583 612.133C547.644 606.079 547.935 600.346 551 595C552.52 593.847 554.072 592.735 555.645 591.655C558.628 589.064 559.859 587.757 560.588 583.835C560.525 579.923 560.178 576.097 559.721 572.218C559.584 570.752 559.453 569.285 559.326 567.818C559.056 564.746 558.761 561.679 558.448 558.611C558.007 554.203 557.67 549.793 557.373 545.373C557.302 544.312 557.302 544.312 557.229 543.23C557.133 541.793 557.037 540.357 556.942 538.92C556.692 535.214 556.419 531.509 556.148 527.805C556.036 526.275 555.924 524.746 555.812 523.217C555.756 522.447 555.7 521.676 555.642 520.883C555.344 516.799 555.048 512.715 554.752 508.631C554.193 500.923 553.632 493.216 553.07 485.508C552.374 475.966 551.681 466.423 550.988 456.881C550.742 453.484 550.495 450.087 550.248 446.691C550.188 445.864 550.128 445.037 550.066 444.185C549.718 439.386 549.368 434.587 549.019 429.787C548.908 428.27 548.798 426.754 548.688 425.237C548.423 421.605 548.159 417.974 547.893 414.343C547.39 407.458 546.9 400.571 546.433 393.683C546.344 392.377 546.254 391.07 546.162 389.724C545.994 387.269 545.83 384.813 545.67 382.357C545.559 380.743 545.559 380.743 545.446 379.096C545.353 377.685 545.353 377.685 545.257 376.245C545.126 373.966 545.126 373.966 544 372C553.739 368.771 563.437 366.379 573.562 364.687C574.572 364.516 575.582 364.345 576.623 364.169C582.156 363.286 587.398 362.82 593 363C593 364.32 593 365.64 593 367C596.63 366.34 600.26 365.68 604 365C604 363.68 604 362.36 604 361C614.131 359.985 624.184 359.845 634.356 359.87ZM595.821 381.512C593.294 384.964 593.523 388.018 593.684 392.121C593.7 392.921 593.717 393.72 593.734 394.544C593.796 397.031 593.892 399.515 594 402C594.03 402.723 594.06 403.445 594.091 404.19C594.326 409.487 594.684 414.774 595.062 420.062C595.124 420.94 595.185 421.818 595.248 422.723C596.688 443.298 598.452 463.85 600.21 484.401C600.434 487.017 600.655 489.633 600.877 492.249C602.412 510.333 604.066 528.397 606.098 546.434C606.219 547.531 606.219 547.531 606.344 548.651C607.187 556.203 608.156 563.616 610 571C610.66 571 611.32 571 612 571C612.352 535.443 612.11 499.969 610.625 464.437C610.593 463.667 610.561 462.897 610.529 462.103C610.072 451.066 609.563 440.032 609 429C608.962 428.244 608.923 427.488 608.884 426.709C608.648 422.092 608.403 417.476 608.145 412.86C608.066 411.426 607.988 409.991 607.913 408.556C608.16 393.476 608.16 393.476 604 380C600.581 379.62 598.691 379.521 595.821 381.512ZM671.318 381.406C669.326 385.326 669.212 389.156 668.91 393.504C668.833 394.5 668.755 395.497 668.676 396.524C667.606 411.179 667.096 425.872 666.53 440.554C666.408 443.707 666.28 446.86 666.152 450.013C665.747 460.008 665.366 470.004 665 480C664.974 480.71 664.948 481.42 664.921 482.152C664.239 500.648 663.836 519.128 663.87 537.638C663.875 541.283 663.87 544.927 663.863 548.572C663.864 550.917 663.865 553.261 663.867 555.605C663.865 556.682 663.863 557.759 663.861 558.869C663.864 559.866 663.867 560.864 663.871 561.891C663.871 562.761 663.872 563.63 663.873 564.526C664.005 567.101 664.433 569.487 665 572C665.66 571.67 666.32 571.34 667 571C667.609 567.966 668.085 565.001 668.484 561.937C668.612 560.994 668.741 560.05 668.872 559.077C670.32 548.081 671.311 537.049 672.25 526C672.35 524.848 672.449 523.696 672.552 522.509C674.724 497.34 676.655 472.152 678.572 446.962C678.811 443.826 679.052 440.69 679.294 437.553C679.678 432.548 680.057 427.543 680.432 422.537C680.571 420.681 680.713 418.824 680.856 416.968C683.653 398.74 683.653 398.74 679.75 382.125C676.704 379.771 674.551 378.703 671.318 381.406ZM633.125 421.125C631.471 423.881 631.606 425.851 632 429C632.917 431.083 632.917 431.083 635 432C640.046 431.809 640.046 431.809 644 429C644.33 425.896 644.505 423.842 642.875 421.125C639.606 419.163 636.394 419.163 633.125 421.125ZM571.188 427.125C569.43 429.9 569.532 431.789 570 435C571.519 437.098 571.519 437.098 574 438C577.134 438.089 577.134 438.089 580 437C581.725 434.825 582.063 433.693 581.812 430.937C580.839 428.615 580.057 427.469 578 426C575.145 425.572 573.655 425.593 571.188 427.125ZM694 428C692.985 429.806 692.985 429.806 693 432C694.35 435.226 695.165 436.657 698.438 438C701.036 438.178 701.036 438.178 703.312 436.937C705.27 435.043 705.27 435.043 705.438 432C705.217 429.061 705.217 429.061 703.812 427.125C700.053 424.791 697.516 425.656 694 428ZM633.75 495.562C631.639 497.991 631.639 497.991 632.062 501.625C632.675 505.255 632.675 505.255 636 507C640.509 506.655 640.509 506.655 644 504C644.583 500.542 644.583 500.542 644 497C640.505 494.071 637.732 492.797 633.75 495.562ZM576.562 503.125C574.623 505.953 574.623 505.953 575.688 509.25C576.742 511.854 576.742 511.854 578 513C582.128 513.376 582.128 513.376 585.875 511.875C587.529 509.119 587.394 507.149 587 504C585.937 502.02 585.937 502.02 584 501C580.371 500.256 579.381 500.668 576.562 503.125ZM689.062 502.062C687.524 504.867 687.607 506.855 688 510C689 512 689 512 691 513C694 513.667 694 513.667 697 513C699.188 510.965 699.188 510.965 700 508C699.301 504.732 699.301 504.732 698 502C693.409 500.848 693.409 500.848 689.062 502.062ZM633.75 568C633.173 568.66 632.595 569.32 632 570C635.3 570.33 638.6 570.66 642 571C642 570.01 642 569.02 642 568C641.34 567.34 640.68 566.68 640 566C635.997 565.557 635.997 565.557 633.75 568ZM581 576C581.33 577.32 581.66 578.64 582 580C584.97 579.34 587.94 578.68 591 578C591 577.01 591 576.02 591 575C586.518 572.012 584.901 572.771 581 576ZM688 573C686.68 574.32 685.36 575.64 684 577C688.95 577.99 688.95 577.99 694 579C693.67 577.68 693.34 576.36 693 575C690.51 573.703 690.51 573.703 688 573ZM608 586C607.224 586.161 606.447 586.322 605.647 586.488C591.038 589.611 572.687 594.909 562 606C561.009 609.105 561.009 609.105 561.438 612.25C561.498 613.286 561.559 614.323 561.621 615.391C561.857 617.976 561.857 617.976 563 620C567.494 618.712 571.311 616.828 575.368 614.572C605.42 597.885 640.34 593.376 673.562 602.625C685.913 606.241 697.978 611.211 708.336 618.969C710.099 620.263 710.099 620.263 713 620C715.172 615.657 714.866 610.673 714 606C705.525 593.264 679.712 588.017 665.555 585.031C646.484 581.365 626.943 581.94 608 586ZM634 620C631.845 623.232 631.531 624.251 632 628C633.02 629.936 633.02 629.936 635 631C638.182 631.398 640.128 631.552 642.875 629.812C644.407 627.345 644.428 625.855 644 623C643.045 621.044 643.045 621.044 641 620C637.458 619.5 637.458 619.5 634 620ZM558.125 642.187C556.593 644.655 556.572 646.145 557 649C557.936 651.019 557.936 651.019 560 652C563.578 652.001 563.578 652.001 567 651C569.296 648.241 569.296 648.241 568.75 645.437C568.162 642.85 568.162 642.85 566 641C562.863 640.666 560.834 640.471 558.125 642.187ZM710 641C707.68 643.826 707.68 643.826 708.188 647.062C708.738 650.297 708.738 650.297 712 652C714.583 651.917 714.583 651.917 717 651C719.296 648.241 719.296 648.241 718.75 645.437C718.162 642.85 718.162 642.85 716 641C713 640.583 713 640.583 710 641ZM571 675C569.891 675.565 568.783 676.129 567.641 676.711C564.845 678.653 564.845 678.653 564.624 681.034C564.589 683.511 564.589 683.511 565 687C565.972 686.564 566.944 686.129 567.945 685.68C588.64 676.648 610.494 671.607 633 670C633.33 666.37 633.66 662.74 634 659C611.74 658.034 590.048 663.348 571 675ZM645 659C645 662.63 645 666.26 645 670C645.769 670.09 646.537 670.179 647.329 670.272C670.163 673.004 690.892 677.649 712 687C712.355 683.649 712.355 683.649 712 680C709.254 676.883 705.586 675.057 702 673C701.143 672.484 700.286 671.969 699.402 671.437C683.173 662.47 663.366 658.563 645 659ZM635 681C635 681.33 635 681.66 635 682C637.31 682 639.62 682 642 682C642 681.67 642 681.34 642 681C639.69 681 637.38 681 635 681ZM598 700C597.306 700.176 596.611 700.352 595.896 700.534C588.777 702.414 585.543 704.977 581.75 711.312C580.798 713.191 579.869 715.082 579 717C579.66 717.33 580.32 717.66 581 718C583.543 716.998 586.011 715.935 588.5 714.812C604.723 707.799 621.317 705.768 638.875 705.75C639.565 705.749 640.254 705.748 640.965 705.747C659.839 705.766 677.716 708.617 695.109 716.363C695.733 716.573 696.357 716.783 697 717C697.99 716.505 697.99 716.505 699 716C693.792 707.449 689.275 701.874 679.342 699.34C677.921 699.017 676.497 698.711 675.069 698.423C673.149 698.03 671.248 697.544 669.352 697.051C646.353 691.811 620.539 693.816 598 700ZM677.812 735.187C675.775 736.878 675.775 736.878 675.562 739.5C675.838 741.991 675.838 741.991 677.125 743.812C679.872 745.552 681.818 745.398 685 745C687.045 743.956 687.045 743.956 688 742C687.919 738.764 687.464 737.448 685.125 735.187C682.223 733.566 680.727 733.605 677.812 735.187ZM596.188 739.125C594.455 741.86 594.596 743.837 595 747C597.748 749.277 597.748 749.277 600.5 748.812C603.221 747.928 604.451 747.41 606 745C605.755 741.658 605.395 740.395 603 738C600.19 737.64 598.618 737.617 596.188 739.125ZM614 761C612.781 761.267 611.561 761.534 610.305 761.809C597.564 765.015 584.688 770.995 575 780C574.184 780.754 574.184 780.754 573.352 781.523C570.639 784.356 570.006 785.925 569.688 789.875C569.791 790.906 569.894 791.937 570 793C573.564 793 575.165 791.743 578.088 789.85C585.686 784.965 593.375 781.431 601.938 778.562C602.864 778.245 603.79 777.928 604.745 777.602C619.092 773.012 633.606 771.489 648.604 771.609C651 771.625 653.394 771.609 655.789 771.59C677.638 771.56 697.392 776.3 716.883 786.141C717.651 786.525 718.419 786.909 719.211 787.305C719.895 787.655 720.578 788.006 721.283 788.367C721.849 788.576 722.416 788.785 723 789C723.99 788.505 723.99 788.505 725 788C715.175 771.626 698.584 764.943 680.835 760.452C659.644 755.551 635.133 756.157 614 761ZM728 805C726.331 805.363 726.331 805.363 724.629 805.734C678.11 815.28 617.936 822.919 572 808C576.111 816.56 583.747 820.297 592.293 823.719C598.123 825.734 603.932 826.953 610 828C611.049 828.181 612.099 828.362 613.18 828.549C624.61 830.286 635.957 830.354 647.5 830.312C648.52 830.311 649.539 830.309 650.59 830.308C670.586 830.255 689.842 829.197 709 823C709.941 822.703 710.882 822.407 711.852 822.102C718.505 819.75 724.447 816.048 728.281 809.969C729.291 807.836 729.291 807.836 728 805Z" fill="black"/>
<path d="M384.507 359.815C387.129 359.812 389.75 359.794 392.371 359.775C401.794 359.745 410.73 360.138 420 362C420 363.32 420 364.64 420 366C421.279 366.144 422.558 366.289 423.875 366.437C426.257 366.706 427.845 366.922 430 368C430.33 366.35 430.66 364.7 431 363C443.297 363.242 455.076 365.829 467.061 368.39C469.02 368.797 470.986 369.179 472.955 369.536C474.315 369.783 474.315 369.783 475.703 370.035C476.509 370.174 477.315 370.314 478.146 370.457C478.757 370.636 479.369 370.815 480 371C480.33 371.66 480.66 372.32 481 373C480.34 373 479.68 373 479 373C478.938 373.908 478.876 374.816 478.813 375.751C478.003 387.626 477.19 399.5 476.375 411.375C476.308 412.345 476.242 413.314 476.173 414.314C474.307 441.484 472.392 468.651 470.386 495.812C469.941 501.848 469.505 507.885 469.073 513.923C468.836 517.23 468.598 520.537 468.359 523.844C468.273 525.035 468.273 525.035 468.186 526.251C467.53 535.31 466.813 544.358 465.963 553.401C465.561 557.689 465.19 561.979 464.823 566.27C464.573 569.01 464.273 571.741 463.97 574.475C462.991 582.424 462.991 582.424 465.871 589.581C468.191 591.652 468.191 591.652 470.719 593.097C474.664 596.388 475.754 600.617 476.263 605.556C476.379 608.46 476.39 611.347 476.363 614.254C476.364 615.843 476.364 615.843 476.365 617.465C476.362 619.695 476.353 621.924 476.336 624.154C476.313 627.555 476.316 630.956 476.322 634.357C476.317 636.531 476.31 638.705 476.301 640.879C476.302 641.889 476.303 642.9 476.304 643.941C476.249 649.386 475.683 653.831 474 659C473.888 661.686 473.858 664.261 473.938 666.937C474.096 679.249 473.976 691.198 470 703C466.493 703 466.358 702.652 464 700.312C457.561 694.541 449.032 691.879 441 689C441.033 690.418 441.103 691.834 441.188 693.25C441.222 694.039 441.257 694.828 441.293 695.641C442.287 698.959 444.269 699.923 447 702C448.662 704.017 450.192 705.993 451.688 708.125C452.111 708.725 452.535 709.324 452.971 709.942C456.4 714.91 459.479 720.052 462.438 725.312C462.85 726.04 463.263 726.768 463.688 727.518C464.858 729.652 465.949 731.805 467 734C467.311 734.637 467.621 735.273 467.941 735.929C471.128 743.698 470.365 752.26 470.25 760.5C470.236 762.181 470.223 763.862 470.21 765.543C470.172 769.849 470.111 774.155 470.04 778.461C470.001 780.936 469.968 783.411 469.937 785.886C469.887 789.691 469.818 793.495 469.734 797.299C469.703 798.712 469.677 800.124 469.655 801.537C469.475 812.181 468.498 819.041 461.137 827.019C439.444 847.126 403.87 848.567 375.966 848.391C372.934 848.375 369.904 848.391 366.873 848.41C338.957 848.439 304.167 846.001 283.199 825.215C277.855 819.411 276.29 813.644 276.434 805.801C277.295 800.023 279.406 794.842 281.514 789.416C285.226 779.765 288.023 769.921 290.765 759.962C293.962 748.544 297.185 738.7 304.961 729.629C307.214 726.724 308.825 723.77 310.5 720.5C314.462 712.856 319.017 706.09 326 700.937C328.241 699.174 328.912 698.48 329.434 695.637C329.437 693.379 329.313 691.234 329 689C320.341 692.217 312.457 695.424 305 701C304.01 701.66 303.02 702.32 302 703C298.179 693.696 297.837 685.157 297.875 675.187C297.869 673.634 297.869 673.634 297.863 672.049C297.865 671.057 297.866 670.065 297.867 669.043C297.868 668.146 297.869 667.249 297.871 666.325C298 664 298 664 299 661C298.236 659.107 297.472 657.213 296.707 655.32C295.251 650.541 295.472 645.345 296.562 640.5C297.01 637.942 296.852 636.132 296.543 633.566C295.936 627.849 295.78 622.183 295.75 616.437C295.729 615.461 295.709 614.485 295.687 613.478C295.646 605.732 296.464 597.959 302 592.062C302.495 591.517 302.99 590.972 303.5 590.41C305 589 305 589 308 587C308.262 584.416 308.331 582.094 308.256 579.515C308.239 578.377 308.239 578.377 308.221 577.216C308.049 568.716 307.495 560.241 306.898 551.762C306.78 550.02 306.662 548.279 306.544 546.538C306.228 541.885 305.904 537.233 305.577 532.581C305.374 529.668 305.172 526.754 304.971 523.841C303.051 496.051 301.003 468.271 298.812 440.5C298.752 439.73 298.691 438.961 298.629 438.168C297.369 422.145 296.051 406.128 294.584 390.123C294.453 388.698 294.324 387.274 294.196 385.849C294.02 383.893 293.838 381.938 293.655 379.982C293.552 378.872 293.45 377.761 293.344 376.617C293.148 374.024 293.148 374.024 292 372C307.892 366.985 324.198 362.592 341 363C341.495 364.98 341.495 364.98 342 367C342.908 366.67 343.815 366.34 344.75 366C348 365 348 365 352 365C352 363.68 352 362.36 352 361C362.845 360.106 373.628 359.814 384.507 359.815ZM343 383C339.737 389.526 342.195 400.416 342.699 407.547C342.774 408.647 342.849 409.747 342.927 410.881C343.176 414.504 343.431 418.127 343.688 421.75C343.82 423.639 343.82 423.639 343.955 425.566C344.621 435.045 345.305 444.523 346 454C346.05 454.677 346.099 455.353 346.15 456.051C348.275 485.006 350.475 513.953 353.688 542.812C353.79 543.74 353.893 544.667 353.998 545.622C354.99 554.5 356.036 563.274 358 572C358.66 571.67 359.32 571.34 360 571C360.116 538.319 360.146 505.664 359 473C358.949 471.547 358.949 471.547 358.897 470.064C358.143 448.763 357.312 427.462 356 406.187C355.929 404.998 355.858 403.809 355.785 402.583C355.728 389.882 355.728 389.882 351 379C347.064 379 345.874 380.429 343 383ZM419.4 381.487C417.38 385.113 417.352 388.711 417.156 392.769C417.102 393.68 417.048 394.591 416.992 395.529C416.813 398.623 416.656 401.717 416.5 404.812C416.379 407.04 416.257 409.268 416.135 411.496C413.858 454.312 412.318 497.2 411.25 540.062C411.215 541.348 411.215 541.348 411.18 542.66C410.661 557.38 410.661 557.38 412 572C412.66 572.33 413.32 572.66 414 573C416.04 565.76 416.986 558.48 417.902 551.023C417.987 550.337 418.073 549.651 418.16 548.943C420.358 531.105 421.861 513.205 423.341 495.295C423.566 492.585 423.792 489.875 424.02 487.165C424.969 475.845 425.903 464.524 426.821 453.202C426.987 451.158 427.154 449.113 427.32 447.069C429.46 420.91 429.46 420.91 430.438 394.687C430.46 393.742 430.482 392.797 430.506 391.824C430.49 387.679 430.329 385.541 428.133 381.93C426.144 379.809 426.144 379.809 423.438 379.437C420.951 379.798 420.951 379.798 419.4 381.487ZM381.125 421.125C379.471 423.881 379.606 425.851 380 429C381 431 381 431 383 432C386.149 432.394 388.119 432.528 390.875 430.875C392.529 428.119 392.394 426.149 392 423C391 421 391 421 389 420C385.851 419.606 383.881 419.471 381.125 421.125ZM319 428C317.904 430.312 317.904 430.312 318 433C319.496 435.912 319.496 435.912 322 438C324.936 438.573 326.274 438.451 328.812 436.875C330.552 434.128 330.398 432.181 330 429C328.937 427.02 328.937 427.02 327 426C323.252 425.531 322.233 425.845 319 428ZM443.688 427.625C441.689 429.939 441.689 429.939 442.062 433.125C442.767 436.292 442.767 436.292 446 438C448.819 438.352 450.389 438.346 452.875 436.937C454.698 433.797 453.866 431.401 453 428C449.355 425.57 447.384 425.027 443.688 427.625ZM381.688 495.562C379.648 498.003 379.648 498.003 380.062 501.625C380.675 505.255 380.675 505.255 384 507C387.046 507.076 387.046 507.076 390 506C392.153 503.857 392.153 503.857 393 501C392.104 497.147 391.348 496.232 388 494C384.087 493.627 384.087 493.627 381.688 495.562ZM325.188 502.687C323.78 505.428 323.532 506.96 324 510C325.02 511.936 325.02 511.936 327 513C330 513.667 330 513.667 333 513C335.17 510.911 335.17 510.911 336 508C335.188 504.826 334.318 503.318 332 501C328.832 500.512 327.573 500.466 325.188 502.687ZM438.188 502.187C436.848 504.232 436.222 505.559 436 508C436.349 510.282 436.349 510.282 438 512C441.422 513.001 441.422 513.001 445 513C448.018 511.355 448.018 511.355 448.875 509.187C449.062 505.915 448.081 504.484 446 502C441.949 500.624 441.949 500.624 438.188 502.187ZM382.188 567.312C380.808 568.929 380.808 568.929 381 571C384.3 571 387.6 571 391 571C389.501 566.878 389.501 566.878 386.562 566.062C383.973 565.74 383.973 565.74 382.188 567.312ZM330 575C330.32 577.603 330.32 577.603 331 580C333.97 579.01 336.94 578.02 340 577C339.34 575.68 338.68 574.36 338 573C333.507 572.575 333.507 572.575 330 575ZM435 574C434.01 575.485 434.01 575.485 433 577C437.812 579.29 437.812 579.29 443 580C442.621 576.709 442.621 576.709 441 574C438.042 573.667 438.042 573.667 435 574ZM311.184 604.289C309.312 606.994 309.717 609.461 309.812 612.687C309.84 613.867 309.867 615.046 309.895 616.262C309.929 617.165 309.964 618.069 310 619C310.99 619.33 311.98 619.66 313 620C315.908 618.566 315.908 618.566 319.125 616.5C348.207 599.171 383.692 593.403 416.659 601.471C430.942 605.281 444.948 611.331 457.102 619.785C458.905 621.18 458.905 621.18 461 621C463.28 616.439 462.887 610.901 462 606C459.583 602.898 456.524 601.625 453 600C451.983 599.44 450.966 598.881 449.918 598.305C408.266 575.903 350.394 576.462 311.184 604.289ZM381.812 620.687C379.815 622.858 379.815 622.858 379.562 625.562C379.845 627.999 379.845 627.999 381.125 629.812C383.9 631.57 385.789 631.468 389 631C391.079 629.423 391.079 629.423 392 627C391.92 623.736 391.483 622.466 389.125 620.187C386.003 618.443 384.647 618.501 381.812 620.687ZM306.125 642.187C304.593 644.655 304.572 646.145 305 649C306 651 306 651 308 652C311.647 651.777 313.384 651.616 316 649C316.333 646 316.333 646 316 643C314.121 640.702 314.121 640.702 311.062 640.687C308.065 640.763 308.065 640.763 306.125 642.187ZM456.125 643.5C455.754 644.325 455.382 645.15 455 646C456.881 649.863 456.881 649.863 460.438 652.062C463.127 652.229 463.127 652.229 465.375 650.375C467.27 648.118 467.27 648.118 466.875 645.375C466.135 642.856 466.135 642.856 464 641C459.31 640.273 459.31 640.273 456.125 643.5ZM316 676C315.203 676.409 314.407 676.817 313.586 677.238C311.625 679.417 311.763 680.317 311.75 683.187C311.833 684.446 311.915 685.704 312 687C312.512 686.784 313.023 686.568 313.55 686.345C335.649 677.078 357.064 671.76 381 670C381 666.37 381 662.74 381 659C357.771 657.992 335.868 664.023 316 676ZM392 659C391.973 660.458 391.954 661.917 391.938 663.375C391.926 664.187 391.914 664.999 391.902 665.836C391.855 668.049 391.855 668.049 393 670C395.369 670.562 395.369 670.562 398.266 670.859C399.373 671.002 400.481 671.145 401.622 671.292C402.819 671.443 404.016 671.594 405.25 671.75C422.458 674.124 438.232 678.25 453.945 685.68C456.904 687.198 456.904 687.198 460 687C460.118 684.109 460.095 682.62 459 680C444.388 665.575 416.051 658.986 396.188 658.875C394.791 658.906 393.395 658.943 392 659ZM384 681C388 682 388 682 388 682L384 681ZM331.527 706.473C331.003 707.327 330.478 708.182 329.938 709.062C329.116 710.348 329.116 710.348 328.277 711.66C326.888 714.041 326.888 714.041 326 717C329.125 715.968 332.238 714.916 335.34 713.816C361.067 704.849 390.39 702.397 417 709C418.322 709.305 419.643 709.61 420.965 709.914C427.976 711.6 434.46 713.838 440.926 717.047C442.922 718.139 442.922 718.139 445 718C442.703 711.949 440.217 706.214 434.201 703.055C428.96 700.828 423.518 699.364 418 698C417.311 697.822 416.621 697.644 415.911 697.461C394.157 692.1 348.669 689.331 331.527 706.473ZM338.688 735.625C336.648 737.959 336.648 737.959 337.25 741.25C337.498 742.157 337.745 743.065 338 744C342.257 745.08 342.257 745.08 346.375 743.937C348.272 742.022 348.272 742.022 348.438 738.937C348.293 737.968 348.149 736.999 348 736C344.355 733.57 342.384 733.027 338.688 735.625ZM419 740C418.333 742.5 418.333 742.5 419 745C420.538 747.029 420.538 747.029 423 748C426.192 747.774 426.192 747.774 429 747C429.95 744.76 429.95 744.76 430 742C427.791 739.124 427.791 739.124 425 737C422.118 737 421.044 738.024 419 740ZM305 779C302.813 781.557 300.841 784.185 299 787C299.33 787.66 299.66 788.32 300 789C301.007 788.492 302.014 787.984 303.051 787.461C310.682 783.692 318.331 780.304 326.438 777.687C327.47 777.343 327.47 777.343 328.523 776.992C342.745 772.598 357.388 771.442 372.188 771.562C372.987 771.565 373.787 771.569 374.611 771.572C401.74 771.723 431.652 776.714 453 795C455.235 792.228 455.235 792.228 455.062 789.312C451.943 779.587 442.145 773.728 433.574 769.184C397.275 751.522 336.096 749.774 305 779ZM294 805C295.435 811.536 299.34 815.552 304.781 819.191C321.336 828.135 342.745 830.114 361.266 830.203C362.698 830.212 362.698 830.212 364.159 830.22C366.172 830.23 368.186 830.236 370.199 830.24C373.201 830.25 376.202 830.281 379.203 830.312C401.79 830.436 432.077 830.031 449.188 813.125C450.139 812.096 451.082 811.059 452 810C451.67 809.34 451.34 808.68 451 808C450.455 808.197 449.909 808.395 449.348 808.598C432.469 814.495 414.63 814.567 396.938 814.5C395.785 814.5 394.633 814.499 393.445 814.499C375.618 814.462 357.984 813.488 340.25 811.687C339.201 811.581 338.152 811.474 337.071 811.365C322.615 809.862 308.243 807.927 294 805Z" fill="black"/>
<path d="M637.812 176.625C639.014 176.625 639.014 176.625 640.241 176.626C663.383 176.686 687.416 178.461 707 192C707.584 192.4 708.168 192.799 708.77 193.211C715.939 198.62 719.119 206.47 721 215C721.044 215.874 721.088 216.748 721.133 217.648C721.334 220.567 721.58 222.425 723 225C726.353 226.944 729.813 228.258 733.438 229.582C740.711 232.477 745.149 237.119 748.309 244.203C750.558 250.048 750.189 255.607 750.188 261.812C750.191 263.062 750.195 264.312 750.198 265.6C750.164 274.478 749.644 283.194 748.36 291.982C747.595 298.107 748.512 300.903 752 306C754.517 313.551 752.32 320.013 749 327C746.388 330.299 744.56 331.742 740.75 333.5C739.842 333.995 738.935 334.49 738 335C737.021 338.431 736.788 341.899 736.535 345.449C736.457 346.462 736.379 347.474 736.299 348.518C736.14 350.642 735.987 352.767 735.838 354.893C735.759 355.901 735.679 356.91 735.598 357.949C735.531 358.87 735.464 359.792 735.395 360.741C735 363 735 363 733 365C730.412 364.632 730.412 364.632 727.129 363.769C725.923 363.462 724.717 363.155 723.474 362.838C722.835 362.671 722.196 362.503 721.537 362.33C718.244 361.467 714.941 360.642 711.637 359.824C710.982 359.662 710.327 359.5 709.652 359.332C702.634 357.622 695.579 356.493 688.43 355.508C685 355 685 355 682 354C681.914 352.984 681.827 351.968 681.738 350.922C681.597 349.531 681.455 348.14 681.312 346.75C681.259 346.087 681.206 345.425 681.15 344.742C680.363 337.483 678.071 333.369 675 326C674.01 334.91 673.02 343.82 672 353C649.23 353 626.46 353 603 353C602.01 342.605 602.01 342.605 601 332C595.325 337.675 594.656 344.073 594.211 351.777C594 354 594 354 593 355C591.399 355.31 589.786 355.565 588.172 355.797C586.645 356.024 586.645 356.024 585.087 356.256C583.986 356.419 582.885 356.582 581.75 356.75C573.197 358.069 564.736 359.571 556.312 361.562C555.459 361.76 554.606 361.958 553.728 362.161C552.526 362.454 552.526 362.454 551.301 362.754C550.267 363.006 550.267 363.006 549.212 363.264C546.359 364.213 543.69 365.655 541 367C540.34 356.11 539.68 345.22 539 334C537.02 333.67 535.04 333.34 533 333C527.328 328.367 524.379 322.86 523.187 315.75C522.619 309.874 524.508 304.913 527.16 299.734C528.306 296.005 527.686 292.777 527.125 289C526.038 280.294 525.704 271.645 525.625 262.875C525.599 261.643 525.574 260.41 525.547 259.141C525.526 249.977 527.072 242.392 533.398 235.406C538.289 231.112 543.445 228.173 549.875 227.25C552.212 226.746 552.212 226.746 554 225C555.159 221.342 555.894 217.815 556.555 214.047C558.366 204.017 562.968 196.484 571.379 190.555C591.286 178.747 615.133 176.569 637.812 176.625ZM638 213C635.852 215.338 635.018 217.197 634.948 220.381C635.154 223.207 635.459 226.001 635.812 228.812C635.921 229.791 636.03 230.771 636.143 231.779C636.413 234.188 636.699 236.594 637 239C638.32 239 639.64 239 641 239C641.226 235.23 641.428 231.459 641.625 227.687C641.689 226.616 641.754 225.544 641.82 224.439C641.898 222.897 641.898 222.897 641.977 221.324C642.029 220.376 642.081 219.428 642.135 218.452C642.194 215.74 642.194 215.74 640 213C639.34 213 638.68 213 638 213ZM674 224C673.932 224.771 673.863 225.542 673.793 226.336C673 229 673 229 669.754 231.246C668.366 231.993 666.968 232.723 665.562 233.437C664.105 234.215 662.648 234.994 661.191 235.773C660.477 236.149 659.763 236.526 659.028 236.913C656.298 238.376 653.647 239.955 651 241.562C650.216 242.038 649.432 242.514 648.625 243.004C648.089 243.333 647.552 243.661 647 244C647.174 244.695 647.348 245.39 647.527 246.105C648.053 249.327 647.883 252.069 647.562 255.312C647.461 256.381 647.359 257.45 647.254 258.551C647.17 259.359 647.086 260.167 647 261C653.959 265.775 661.225 269.824 668.688 273.75C669.578 274.221 670.468 274.693 671.385 275.179C679.297 279.3 685.947 282.485 695 282C695.399 278.102 695.399 278.102 693.449 275.926C690.455 273.571 687.373 272.398 683.812 271.187C682.385 270.677 680.957 270.164 679.531 269.648C678.791 269.383 678.051 269.117 677.289 268.843C673.427 267.421 669.619 265.875 665.812 264.312C664.753 263.885 664.753 263.885 663.673 263.448C659.903 261.896 656.467 260.135 653 258C665.219 257.571 676.51 258.778 688.5 261.062C703.677 264.807 703.677 264.807 718 261C718 260.34 718 259.68 718 259C716.515 258.01 716.515 258.01 715 257C715.99 257 716.98 257 718 257C718 256.34 718 255.68 718 255C709.794 249.085 698.599 249.707 688.891 249.805C687.798 249.807 686.705 249.81 685.579 249.813C682.136 249.824 678.693 249.849 675.25 249.875C672.896 249.885 670.542 249.894 668.188 249.902C662.458 249.924 656.729 249.958 651 250C652 247 652 247 654.19 245.741C657.308 244.417 660.428 243.1 663.562 241.812C665.172 241.117 665.172 241.117 666.814 240.408C672.9 237.878 677.431 236.566 684 237C687.638 235.671 689.525 234.598 691.938 231.562C694.598 228.257 697.251 226.946 701 225C701 224.34 701 223.68 701 223C699.845 223.041 698.69 223.082 697.5 223.125C694.427 223.136 691.778 222.802 688.812 222C682.785 220.419 679.334 220.484 674 224ZM584 224C582.663 223.682 581.33 223.346 580 223C578.418 222.934 576.833 222.914 575.25 222.937C574.051 222.951 574.051 222.951 572.828 222.965C571.923 222.982 571.923 222.982 571 223C571 223.66 571 224.32 571 225C571.701 225.207 572.402 225.415 573.125 225.629C578.301 227.31 582.246 228.864 586.187 232.687C590.114 236.461 592.609 236.823 598 237C601.576 237.56 604.604 238.563 607.906 240.031C608.815 240.43 609.724 240.828 610.66 241.238C612.553 242.079 614.447 242.921 616.34 243.762C617.249 244.16 618.157 244.558 619.094 244.969C619.915 245.334 620.737 245.7 621.584 246.076C624.047 247.018 626.405 247.559 629 248C628.621 244.238 628.621 244.238 626.207 241.48C625.417 241.054 624.627 240.627 623.812 240.187C622.924 239.694 622.036 239.2 621.121 238.691C620.091 238.133 619.061 237.575 618 237C616.093 235.916 614.192 234.822 612.292 233.728C609.534 232.141 606.767 230.571 604 229C604.33 228.01 604.66 227.02 605 226C597.837 221.123 592.008 220.568 584 224ZM631 244C630.9 246.656 630.861 249.281 630.875 251.937C630.871 252.679 630.867 253.421 630.863 254.185C630.783 258.223 630.783 258.223 632 262C633.958 262.081 635.916 262.139 637.875 262.187C638.966 262.222 640.056 262.257 641.18 262.293C642.576 262.148 642.576 262.148 644 262C646.461 258.309 646.268 256.329 646.25 251.937C646.258 250.064 646.258 250.064 646.266 248.152C646.333 244.903 646.333 244.903 644 243C641.136 242.718 641.136 242.718 637.937 242.812C636.853 242.819 635.769 242.825 634.652 242.832C632.078 242.702 632.078 242.702 631 244ZM557 256C557.99 256.495 557.99 256.495 559 257C559.66 256.67 560.32 256.34 561 256C561 256.66 561 257.32 561 258C559.68 258.33 558.36 258.66 557 259C557.33 259.99 557.66 260.98 558 262C562.715 264.246 566.775 264.058 571.812 263.375C572.578 263.282 573.344 263.19 574.132 263.094C579.912 262.363 585.645 261.398 591.388 260.423C602.074 258.613 612.153 257.418 623 258C614.675 262.469 606.559 266.318 597.5 269.062C590.946 271.075 585.234 273.256 581 279C581 279.66 581 280.32 581 281C588.712 282.898 593.305 280.556 600.187 277C601.202 276.494 602.216 275.988 603.261 275.466C606.186 273.999 609.094 272.505 612 271C612.742 270.621 613.485 270.242 614.249 269.852C617.889 267.992 621.508 266.125 625 264C626.435 263.225 626.435 263.225 627.898 262.434C630.267 260.23 630.267 260.23 629.986 257.575C629.811 256.225 629.811 256.225 629.631 254.848C629.464 253.489 629.464 253.489 629.293 252.102C629.196 251.408 629.099 250.715 629 250C621.851 249.949 614.702 249.914 607.552 249.89C605.126 249.88 602.699 249.866 600.273 249.849C577.385 248.218 577.385 248.218 557 256ZM644 279C645.367 283.101 648.147 284.435 651.625 286.687C652.303 287.13 652.981 287.572 653.68 288.027C677.7 303.465 704.877 311.84 732.188 319.5C733.127 319.768 734.066 320.035 735.033 320.311C735.903 320.549 736.772 320.786 737.668 321.031C738.434 321.243 739.2 321.455 739.989 321.674C742.198 322.192 742.198 322.192 745 321C747.629 316.572 747.161 311.965 747 307C739.801 303.04 732.676 300.48 724.75 298.375C723.647 298.076 722.544 297.778 721.407 297.47C718.275 296.632 715.139 295.812 712 295C711.245 294.801 710.49 294.601 709.711 294.396C703.347 292.74 697.761 291.916 691.188 292.25C683.615 292.444 678.152 289.92 671.398 286.887C666.97 284.919 662.466 283.464 657.812 282.125C657.118 281.922 656.423 281.72 655.708 281.511C651.831 280.415 647.986 279.583 644 279ZM622.187 281C621.3 281.223 620.412 281.445 619.497 281.675C612.142 283.577 604.969 285.91 597.86 288.588C592.079 290.657 586.516 291.499 580.418 292.16C572.927 293.026 565.727 294.806 558.444 296.721C556.175 297.316 553.902 297.888 551.627 298.459C543.344 300.58 535.641 303.061 528 307C528.551 312.239 529.429 316.973 531 322C549.732 317.941 568.25 313.301 586 306C586.934 305.619 587.867 305.239 588.829 304.847C605.005 298.198 618.994 290.553 633 280C629.541 278.27 625.789 280.076 622.187 281ZM634.125 307.062C632.301 310.203 633.134 312.598 634 316C636.759 318.296 636.759 318.296 639.562 317.75C642.15 317.162 642.15 317.162 644 315C644.334 311.863 644.528 309.834 642.812 307.125C639.749 305.223 637.242 305.296 634.125 307.062ZM566 340C564.35 341.32 562.7 342.64 561 344C561.574 347.931 561.574 347.931 564 351C568.342 350.903 568.342 350.903 572 349C571.713 346.66 571.381 344.326 571 342C568.525 341.01 568.525 341.01 566 340ZM704.188 342.187C702.633 344.56 702.775 346.22 703 349C706.465 350.485 706.465 350.485 710 352C712.1 350.843 712.1 350.843 714 349C714.51 346.087 714.441 344.672 712.812 342.187C709.783 340.203 707.217 340.203 704.188 342.187Z" fill="black"/>
<path d="M424 180C424.793 180.172 425.586 180.343 426.402 180.52C440.555 183.728 454.94 188.566 463.422 201.101C465.645 205.012 467.036 208.511 467.48 212.988C467.919 217.283 468.428 220.944 470 225C473.37 227.349 476.508 228.462 480.406 229.726C487.253 232.152 492.179 236.895 495.5 243.312C497.958 249.356 498.192 253.93 498.188 260.375C498.188 261.392 498.189 262.409 498.189 263.457C498.13 272.249 497.412 280.897 496.438 289.629C495.469 296.588 495.469 296.588 497.938 302.875C501.334 308.021 501.408 312.753 500.312 318.625C498.513 325.561 494.661 329.872 489 334C486.812 334.637 486.812 334.637 485 335C484.962 335.883 484.962 335.883 484.924 336.785C484.807 339.503 484.685 342.22 484.562 344.937C484.523 345.864 484.484 346.79 484.443 347.744C484.179 353.535 483.702 359.245 483 365C481.933 364.758 480.865 364.515 479.766 364.266C463.606 360.62 447.449 357.07 431 355C430.925 354.224 430.85 353.448 430.773 352.648C429.661 343.505 426.931 336.246 423 328C421.969 333.284 421.684 338.511 421.438 343.875C421.394 344.754 421.351 345.633 421.307 346.539C421.201 348.692 421.1 350.846 421 353C417.598 354.134 415.222 353.702 411.721 353.262C406.39 352.748 401.038 352.9 395.688 352.937C394.437 352.941 393.187 352.945 391.899 352.949C387.933 352.961 383.966 352.98 380 353C374.75 353.027 369.5 353.046 364.25 353.062C362.43 353.075 362.43 353.075 360.573 353.088C358.905 353.093 358.905 353.093 357.203 353.098C355.728 353.105 355.728 353.105 354.224 353.113C352 353 352 353 351 352C350.786 350.539 350.63 349.069 350.5 347.598C350.417 346.707 350.335 345.817 350.25 344.9C350.167 343.964 350.085 343.027 350 342.062C349.837 340.22 349.67 338.377 349.5 336.535C349.392 335.304 349.392 335.304 349.281 334.047C349.103 331.939 349.103 331.939 348 330C343.218 337.75 342.329 346.142 341 355C340.053 355.135 340.053 355.135 339.086 355.272C326.783 357.051 314.631 359.119 302.562 362.125C301.533 362.378 300.504 362.632 299.443 362.893C294.231 364.032 294.231 364.032 290 367C289.667 365.667 289.333 364.333 289 363C288.834 362.41 288.669 361.82 288.498 361.212C287.908 358.591 287.679 356.038 287.465 353.359C287.378 352.289 287.291 351.219 287.201 350.117C287.114 349.006 287.027 347.895 286.938 346.75C286.801 345.06 286.801 345.06 286.662 343.336C286.438 340.557 286.218 337.779 286 335C285.385 334.758 284.77 334.517 284.137 334.268C276.098 330.94 276.098 330.94 274 326.937C273.443 325.93 273.443 325.93 272.875 324.902C271.129 321.106 270.78 317.958 270.688 313.812C270.631 312.182 270.631 312.182 270.574 310.519C270.978 307.18 271.432 306.05 273.066 303.293C275.898 298.036 274.966 293.25 274.25 287.5C274.027 285.281 273.811 283.061 273.602 280.84C273.495 279.71 273.388 278.581 273.278 277.417C272.834 271.966 272.678 266.53 272.625 261.062C272.6 260.1 272.574 259.137 272.548 258.144C272.523 250.367 274.292 243.861 278.789 237.449C284.363 232.1 290.475 227.861 298.184 226.394C299.113 225.934 300.042 225.474 301 225C301.957 222.049 302.505 219.592 302.938 216.562C304.918 205.871 308.412 198.453 317.188 191.625C345.835 172.553 391.457 172.945 424 180ZM382.75 215C380.6 217.942 380.6 217.942 381.625 221.5C381.842 222.17 382.058 222.841 382.281 223.531C383.745 228.559 384.258 233.824 385 239C385.99 238.67 386.98 238.34 388 238C388.226 234.397 388.428 230.792 388.625 227.187C388.689 226.163 388.754 225.139 388.82 224.084C388.872 223.101 388.923 222.118 388.977 221.105C389.029 220.199 389.081 219.293 389.135 218.36C389.184 215.728 389.184 215.728 387 213C384.747 212.778 384.747 212.778 382.75 215ZM421 224C419.949 226.024 419.949 226.024 420 228C420.33 228.33 420.66 228.66 421 229C412.09 233.62 403.18 238.24 394 243C394.33 244.65 394.66 246.3 395 248C398.661 248 400.585 246.909 403.875 245.312C421.859 236.871 421.859 236.871 429.188 236.687C434.715 236.409 437.691 233.497 441.727 229.945C444.37 227.683 446.816 226.341 450 225C450 224.34 450 223.68 450 223C449.178 223.023 448.355 223.046 447.508 223.07C441.995 223.159 436.932 223.149 431.562 221.812C427.155 220.8 424.715 221.142 421 224ZM333 223C330.793 223.071 328.583 223.084 326.375 223.062C325.186 223.053 323.998 223.044 322.773 223.035C321.858 223.023 320.943 223.012 320 223C322.049 225.181 324.061 226.777 326.625 228.312C328.893 229.677 331.073 231.053 333.207 232.621C333.943 233.159 334.679 233.696 335.438 234.25C336.096 234.75 336.755 235.25 337.434 235.766C339.965 236.983 341.276 237.177 344.012 237.355C350.296 237.891 355.666 240.529 361.375 243.062C363.506 243.995 365.639 244.924 367.773 245.848C368.706 246.26 369.638 246.673 370.599 247.098C373.041 248.176 373.041 248.176 376 248C376.089 245.639 376.089 245.639 375 243C372.683 241.126 370.086 239.848 367.438 238.5C365.977 237.716 364.518 236.93 363.059 236.144C362.357 235.774 361.656 235.404 360.933 235.022C357.449 233.18 354.187 231.324 351 229C351 227.68 351 226.36 351 225C345.833 221.737 338.733 220.133 333 223ZM379 243C377.406 246.188 377.898 249.629 377.938 253.125C377.942 253.879 377.947 254.633 377.951 255.41C377.963 257.273 377.981 259.137 378 261C381.847 263.109 384.581 263.473 389 263C391.323 261.454 391.323 261.454 393 259C393.558 255.832 393.558 255.832 393.375 252.437C393.362 251.302 393.349 250.166 393.336 248.996C393.212 245.821 393.212 245.821 391 243C388.104 242.635 388.104 242.635 384.875 242.812C383.779 242.84 382.684 242.867 381.555 242.894C380.29 242.947 380.29 242.947 379 243ZM305 255C304.67 255.66 304.34 256.32 304 257C305.98 256.67 307.96 256.34 310 256C310 256.66 310 257.32 310 258C308.35 258.33 306.7 258.66 305 259C305.33 259.99 305.66 260.98 306 262C316.724 265.574 329.528 262.025 340.408 260.136C350.707 258.368 360.55 257.685 371 258C362.296 262.341 353.756 266.23 344.438 269.062C337.912 271.076 332.215 273.282 328 279C328 279.66 328 280.32 328 281C331.831 282.916 335.942 281.894 340 281C344.209 279.358 348.218 277.406 352.223 275.328C354.054 274.379 355.897 273.46 357.744 272.543C368.241 267.473 368.241 267.473 377 260C377.418 256.734 377.079 254.105 376 251C374.388 249.387 372.641 249.864 370.411 249.855C369.432 249.848 368.453 249.842 367.444 249.835C366.375 249.834 365.305 249.833 364.203 249.832C363.103 249.829 362.004 249.825 360.871 249.822C358.53 249.817 356.19 249.814 353.849 249.815C350.307 249.812 346.765 249.794 343.223 249.775C323.353 248.841 323.353 248.841 305 255ZM395 250C394.67 253.63 394.34 257.26 394 261C401.705 266.774 409.698 270.945 418.438 274.875C419.716 275.46 420.994 276.046 422.271 276.633C431.711 281.127 431.711 281.127 442 282C442.66 281.01 443.32 280.02 444 279C438.308 273.348 432.993 271.299 425.375 269.062C416.214 266.211 408.198 262.962 400 258C412.219 257.571 423.51 258.778 435.5 261.062C448.711 263.939 448.711 263.939 462 263C463.707 261.521 463.707 261.521 465 260C464.01 259.34 463.02 258.68 462 258C462.99 257.67 463.98 257.34 465 257C465 256.34 465 255.68 465 255C455.898 249.279 443.983 249.702 433.574 249.805C432.461 249.807 431.347 249.81 430.2 249.813C426.695 249.824 423.192 249.849 419.688 249.875C417.29 249.885 414.892 249.894 412.494 249.902C406.663 249.924 400.831 249.959 395 250ZM390 279C409.138 299.213 440.83 309.128 467 316C468.865 316.531 470.73 317.065 472.594 317.602C474.604 318.172 476.614 318.742 478.625 319.312C479.587 319.592 480.549 319.871 481.54 320.159C482.447 320.412 483.354 320.665 484.289 320.926C485.101 321.157 485.912 321.388 486.749 321.626C489.225 322.037 490.68 321.951 493 321C495.041 316.714 495.85 312.676 495 308C490.026 303.521 483.645 301.667 477.312 300C476.407 299.753 475.501 299.506 474.568 299.251C471.717 298.482 468.86 297.738 466 297C464.609 296.635 464.609 296.635 463.189 296.263C460.463 295.555 457.733 294.867 455 294.187C454.19 293.981 453.379 293.774 452.544 293.56C447.923 292.453 443.566 291.887 438.816 291.672C431.074 291.165 424.161 288.689 416.938 286.062C408.043 282.862 399.428 280.165 390 279ZM350.602 287.055C344.21 289.377 338.161 291.041 331.344 291.285C323.093 291.867 315.344 293.925 307.388 296.073C304.876 296.75 302.359 297.403 299.84 298.055C291.176 300.335 282.986 302.834 275 307C275.134 307.805 275.268 308.611 275.407 309.44C275.727 311.361 276.047 313.282 276.367 315.203C276.949 317.773 277.708 319.721 279 322C312.961 313.834 352.004 304.353 379 281C379 280.67 379 280.34 379 280C369.5 279.494 359.394 283.761 350.602 287.055ZM381.625 307.625C379.696 309.95 379.696 309.95 380.062 313.125C380.767 316.292 380.767 316.292 384 318C387.077 317.918 387.077 317.918 390 317C392.155 313.767 392.469 312.748 392 309C390.917 307.083 390.917 307.083 389 306C385.677 305.404 384.425 305.709 381.625 307.625ZM314 340C311.354 342.229 311.354 342.229 309 345C309.088 348.067 309.814 348.813 312 351C315.597 350.677 315.597 350.677 319 350C319.767 347.149 319.767 347.149 320 344C318.212 341.408 317.04 341.013 314 340ZM453.125 342.187C451.748 344.009 451.748 344.009 452.188 346.562C452.846 349.144 452.846 349.144 455 351C457.87 351.368 459.408 351.375 461.875 349.812C463.252 347.991 463.252 347.991 462.812 345.437C462.154 342.856 462.154 342.856 460 341C457.13 340.632 455.592 340.625 453.125 342.187Z" fill="black"/>
</svg>
