<svg width="1024" height="1024" viewBox="0 0 1024 1024" fill="none" xmlns="http://www.w3.org/2000/svg">
<path d="M792.994 621.315C797.436 622.832 799.617 627.199 802 631C802.523 631.833 803.046 632.667 803.585 633.525C805.229 636.242 806.808 638.989 808.375 641.75C809.585 643.856 810.796 645.961 812.008 648.066C812.646 649.179 813.285 650.292 813.942 651.438C816.14 655.255 818.377 659.048 820.617 662.84C821.003 663.494 821.39 664.149 821.788 664.823C824.083 668.712 824.083 668.712 826.383 672.598C827.451 674.401 828.515 676.206 829.578 678.012C830.191 679.048 830.803 680.084 831.435 681.151C833.924 685.681 835.29 689.25 835.312 694.438C835.329 695.344 835.346 696.25 835.363 697.184C833.925 708.332 822.257 717.274 814 724C813.126 724.715 812.252 725.431 811.352 726.168C803.125 732.827 803.125 732.827 799.211 733.43C795.478 732.93 794.307 731.758 791.969 728.888C791.525 728.306 791.082 727.724 790.625 727.125C790.147 726.529 789.67 725.932 789.177 725.318C788.214 724.111 787.257 722.898 786.309 721.679C784.598 719.484 782.826 717.341 781.062 715.188C767.143 697.617 754.356 679.337 743 660C742.614 659.35 742.228 658.7 741.83 658.03C740.769 655.434 740.554 653.777 741 651C742.81 649.205 742.81 649.205 745.328 647.586C746.244 646.99 747.16 646.394 748.104 645.78C752.621 643.004 757.158 640.276 761.75 637.625C769.619 633.078 769.619 633.078 777.258 628.16C777.879 627.739 778.501 627.317 779.142 626.882C780.749 625.775 782.34 624.644 783.93 623.512C787.169 621.917 789.399 621.126 792.994 621.315Z" fill="black"/>
<path d="M246.75 628.438C247.473 628.866 248.196 629.295 248.941 629.737C254.717 633.185 260.432 636.729 266.125 640.313C266.906 640.804 267.687 641.295 268.491 641.801C269.972 642.74 271.447 643.688 272.915 644.647C274.296 645.543 275.694 646.413 277.108 647.255C280.169 649.182 281.823 650.253 282.676 653.852C281.831 657.788 280.223 660.95 278.188 664.375C277.581 665.421 277.581 665.421 276.962 666.487C272.372 674.268 267.269 681.668 262 689C261.462 689.752 260.924 690.504 260.37 691.278C253.492 700.859 246.381 710.187 238.794 719.219C237.983 720.184 237.983 720.184 237.156 721.168C236.629 721.79 236.102 722.412 235.559 723.052C233.948 725.011 233.948 725.011 232.473 727.264C228.702 732.841 228.702 732.841 224.934 733.695C216.471 731.69 209.449 723.758 203.188 718C202.566 717.431 201.944 716.863 201.303 716.277C194.946 710.297 188.677 703.758 187.625 694.813C188.483 686.086 193.21 678.494 197.688 671.125C198.24 670.203 198.792 669.281 199.361 668.332C201.232 665.216 203.115 662.108 205 659C205.729 657.794 206.458 656.589 207.186 655.383C211.513 648.221 215.847 641.063 220.212 633.924C221.323 632.108 222.428 630.289 223.526 628.465C226.736 623.188 226.736 623.188 229.375 621.313C235.375 620.598 241.733 625.44 246.75 628.438Z" fill="black"/>
<path d="M762.543 570.609C769.957 574.806 774.123 585.514 778.203 592.801C779.31 594.771 780.468 596.715 781.707 598.606C783.152 601.281 783.433 602.978 783.438 606C783.457 606.825 783.476 607.65 783.496 608.5C782.64 612.814 780.355 615.023 776.835 617.561C774.127 619.341 771.386 621.054 768.625 622.75C766.636 623.991 764.648 625.231 762.66 626.473C761.692 627.074 760.724 627.674 759.727 628.294C757.362 629.774 755.017 631.278 752.684 632.809C752.061 633.217 751.438 633.625 750.796 634.046C749.187 635.105 747.58 636.168 745.973 637.231C742.719 639.167 739.506 640.583 736 642C732.466 639.743 731.136 637.737 729.562 633.879C729.142 632.86 728.722 631.841 728.289 630.791C727.864 629.726 727.438 628.66 727 627.563C726.575 626.532 726.149 625.501 725.711 624.44C717.196 603.558 717.196 603.558 718 597C720.493 593.783 723.567 591.864 727.035 589.793C728.01 589.206 728.986 588.619 729.99 588.014C731.004 587.411 732.018 586.808 733.062 586.188C735.054 584.995 737.045 583.801 739.035 582.606C740.019 582.016 741.003 581.426 742.016 580.818C745.928 578.435 749.779 575.964 753.623 573.474C759.442 569.866 759.442 569.866 762.543 570.609Z" fill="black"/>
<path d="M264.583 570.851C265.539 571.363 266.495 571.875 267.48 572.402C268.542 572.969 269.603 573.536 270.697 574.121C275.991 577.133 281.17 580.299 286.312 583.563C287.344 584.209 288.376 584.856 289.439 585.522C292.307 587.327 295.154 589.162 298 591C298.743 591.451 299.486 591.902 300.251 592.367C303.099 594.184 304.797 595.531 306.152 598.664C305.927 603.607 304.323 607.781 302.562 612.375C302.201 613.342 301.84 614.308 301.468 615.304C293.292 636.708 293.292 636.708 288 642C283.47 641.746 280.206 639.463 276.555 636.992C275.944 636.589 275.334 636.185 274.705 635.769C272.756 634.478 270.816 633.177 268.875 631.875C266.96 630.601 265.044 629.329 263.128 628.058C261.876 627.226 260.624 626.392 259.374 625.556C254.679 622.424 249.915 619.418 245.097 616.477C242.116 614.377 240.949 612.504 240 609C239.436 602.888 240.869 599.493 243.938 594.438C244.541 593.41 244.541 593.41 245.157 592.361C246.42 590.229 247.707 588.114 249 586C249.411 585.317 249.822 584.635 250.245 583.931C251.42 581.986 252.611 580.054 253.812 578.125C254.173 577.537 254.533 576.948 254.904 576.342C257.504 572.276 259.529 569.186 264.583 570.851Z" fill="black"/>
<path d="M381.562 534.746C382.503 534.74 383.444 534.734 384.414 534.728C385.968 534.734 385.968 534.734 387.553 534.739C388.652 534.736 389.751 534.732 390.883 534.728C394.584 534.717 398.285 534.721 401.986 534.725C404.632 534.721 407.278 534.716 409.924 534.71C416.375 534.697 422.827 534.695 429.279 534.698C434.521 534.7 439.763 534.698 445.005 534.694C445.75 534.693 446.495 534.692 447.263 534.692C448.777 534.69 450.291 534.689 451.805 534.688C466.01 534.677 480.216 534.679 494.421 534.685C507.426 534.691 520.431 534.679 533.437 534.66C546.781 534.641 560.125 534.633 573.47 534.636C580.966 534.638 588.461 534.636 595.957 534.622C602.337 534.61 608.717 534.608 615.098 534.621C618.355 534.626 621.612 534.626 624.869 534.616C628.395 534.605 631.921 534.613 635.447 534.626C636.483 534.618 637.519 534.611 638.586 534.604C639.998 534.614 639.998 534.614 641.438 534.625C642.253 534.625 643.067 534.625 643.906 534.625C646.552 535.099 647.431 535.839 649 538C649.299 540.84 649.42 543.456 649.398 546.297C649.401 547.123 649.404 547.949 649.407 548.799C649.409 550.555 649.404 552.31 649.391 554.065C649.375 556.699 649.391 559.331 649.41 561.965C649.448 591.405 638.562 610.023 619.566 631.631C608.446 644.307 604.035 654.509 604.769 671.372C605.347 677.951 607.376 684.225 609.268 690.525C610.564 694.909 611.727 699.325 612.875 703.75C613.216 704.983 613.216 704.983 613.563 706.24C614.831 711.112 615.477 715.044 614 720C610.075 724.521 604.441 725.795 598.875 727.438C597.864 727.738 596.854 728.038 595.812 728.347C542.372 743.65 463.643 748.983 412 723C409.179 720.464 409.007 719.089 408.692 715.251C408.862 710.988 409.775 707.082 410.934 702.992C411.23 701.899 411.23 701.899 411.532 700.783C412.158 698.478 412.797 696.176 413.438 693.875C414.072 691.566 414.704 689.256 415.333 686.946C415.723 685.516 416.116 684.087 416.515 682.659C420.215 669.212 420.426 656.746 413.625 644.313C408.579 636.317 401.864 629.406 395.558 622.398C380.906 606.047 373.916 587.992 373.797 565.977C373.791 565.149 373.785 564.322 373.78 563.469C373.77 561.737 373.764 560.004 373.76 558.271C373.75 555.611 373.719 552.953 373.688 550.293C373.681 548.604 373.676 546.915 373.672 545.227C373.653 544.033 373.653 544.033 373.634 542.815C373.644 540.588 373.644 540.588 374 537C377.174 534.884 377.932 534.749 381.562 534.746Z" fill="black"/>
<path d="M672.438 529.563C674.416 529.534 674.416 529.534 676.434 529.504C680 530 680 530 682.301 531.469C684.725 535.08 685.665 538.754 686.75 542.938C687.002 543.857 687.254 544.777 687.513 545.724C688.651 549.891 689.753 554.068 690.858 558.243C707.747 621.823 733.186 678.031 775.775 728.648C782.617 736.898 782.617 736.898 783.285 742.309C783.212 743.011 783.138 743.714 783.062 744.438C783.012 745.138 782.962 745.837 782.91 746.559C780.275 753.627 773.772 757.942 767.75 762C767.05 762.482 766.35 762.964 765.629 763.461C764.181 764.458 762.73 765.45 761.275 766.437C759.721 767.505 758.18 768.59 756.649 769.69C750.314 774.234 743.754 778.161 736.938 781.938C735.838 782.548 734.739 783.158 733.607 783.787C706.151 798.905 674.098 813.259 642 810C636.315 808.311 632.038 805.141 629 800C624.276 789.668 626.057 779.189 627.438 768.25C630.385 743.747 631.699 720.112 624.64 696.185C623.319 691.677 622.069 687.151 620.813 682.625C620.551 681.71 620.289 680.794 620.019 679.851C617.229 669.847 615.44 660.794 620.449 651.234C623.527 646.171 626.822 641.905 631.125 637.852C651.443 617.788 661.699 593.387 662.023 564.993C662.029 562.75 662.023 560.508 662.012 558.266C662.008 557.5 662.004 556.735 662 555.946C661.975 552.076 661.924 548.208 661.839 544.339C661.818 542.902 661.798 541.464 661.777 540.027C661.749 538.746 661.72 537.465 661.691 536.144C662 533 662 533 663.299 531.088C666.131 529.277 669.187 529.528 672.438 529.563Z" fill="black"/>
<path d="M350.5 529.625C351.177 529.601 351.854 529.576 352.551 529.551C357.482 529.522 357.482 529.522 359.705 531.574C361.5 534.936 361.289 537.475 361.188 541.274C361.161 542.743 361.136 544.212 361.11 545.681C361.091 546.447 361.073 547.214 361.054 548.004C360.235 584.221 367.225 611.146 392.555 637.676C399.808 645.332 405.81 653.98 406.23 664.856C405.383 676.423 401.659 687.772 398.107 698.748C394.452 710.297 393.631 721.556 393.688 733.625C393.688 734.34 393.688 735.055 393.688 735.791C393.705 746.735 394.504 757.407 395.917 768.268C399.177 793.375 399.177 793.375 393 802C388.504 807.118 382.415 810.017 375.68 810.469C374.078 810.503 372.477 810.512 370.875 810.5C370.008 810.495 369.142 810.49 368.249 810.485C358.126 810.221 348.674 807.828 339 805C338.245 804.786 337.491 804.572 336.713 804.352C308.879 796.323 257.907 775.434 241.82 749.067C240.332 745.316 240.329 741.951 241 738C242.142 736.054 242.142 736.054 243.641 734.18C244.186 733.49 244.731 732.799 245.293 732.088C245.856 731.399 246.42 730.71 247 730C247.512 729.368 248.024 728.736 248.551 728.084C250.108 726.174 251.679 724.275 253.25 722.375C294.774 671.591 318.459 614.108 334.618 551.155C335.403 548.101 336.2 545.05 337 542C337.267 540.974 337.534 539.948 337.809 538.891C338.057 537.99 338.306 537.089 338.562 536.16C338.77 535.395 338.978 534.629 339.191 533.84C341.305 529.029 346.018 529.634 350.5 529.625Z" fill="black"/>
<path d="M427.25 443.688C429.444 444.616 431.641 445.539 433.84 446.457C434.895 446.9 435.951 447.343 437.039 447.799C485.659 467.512 545.865 463.655 594 445C596.629 443.88 599.216 442.695 601.812 441.5C614.875 435.754 629.555 440.332 642.375 445.25C652.227 449.683 660.181 455.868 666 465C666.522 465.813 667.044 466.627 667.582 467.465C673.1 477.203 674.819 488.142 677 499C677.295 500.376 677.295 500.376 677.595 501.78C677.875 503.105 677.875 503.105 678.16 504.457C678.329 505.246 678.498 506.034 678.672 506.847C679.114 509.749 678.793 512.188 678 515C676.29 516.71 674.069 516.129 671.732 516.132C670.007 516.137 670.007 516.137 668.248 516.143C666.969 516.142 665.69 516.141 664.372 516.141C663.012 516.143 661.652 516.146 660.292 516.15C656.538 516.158 652.783 516.159 649.029 516.16C644.986 516.162 640.944 516.169 636.902 516.176C628.055 516.19 619.208 516.196 610.361 516.2C604.841 516.203 599.322 516.207 593.802 516.212C578.532 516.224 563.263 516.234 547.993 516.238C547.015 516.238 546.037 516.238 545.03 516.238C544.049 516.239 543.069 516.239 542.059 516.239C540.072 516.239 538.085 516.24 536.098 516.24C535.113 516.241 534.127 516.241 533.112 516.241C517.135 516.245 501.158 516.262 485.182 516.286C468.795 516.309 452.409 516.322 436.022 516.323C426.815 516.324 417.608 516.33 408.401 516.348C400.562 516.363 392.724 516.368 384.885 516.36C380.883 516.356 376.88 516.357 372.878 516.371C369.218 516.384 365.558 516.383 361.897 516.371C359.938 516.368 357.979 516.38 356.02 516.392C354.865 516.385 353.71 516.379 352.52 516.372C351.019 516.373 351.019 516.373 349.487 516.374C347 516 347 516 345.157 514.609C344 513 344 513 343.969 510.891C344.144 510.019 344.319 509.148 344.5 508.25C344.709 507.197 344.918 506.144 345.133 505.059C345.266 504.438 345.399 503.818 345.536 503.179C346.086 500.594 346.6 498.002 347.117 495.41C347.535 493.377 347.954 491.345 348.375 489.313C348.572 488.339 348.768 487.365 348.971 486.362C351.977 472.318 358.754 458.756 370.812 450.438C378.029 446.048 385.954 443.441 394 441C395.223 440.615 396.447 440.229 397.707 439.832C408.495 437.321 417.342 439.235 427.25 443.688Z" fill="black"/>
<path d="M767.125 422.5C773.974 428.455 778.846 436.535 783.812 444.063C784.421 444.982 785.03 445.901 785.658 446.847C790.915 454.812 796.036 462.85 801 471C801.493 471.809 801.985 472.618 802.493 473.451C805.595 478.556 808.661 483.68 811.699 488.822C812.805 490.673 813.946 492.503 815.094 494.328C818.847 500.525 820.346 505.75 819 513C814.844 521.631 805.734 526.217 797.875 531.063C796.813 531.722 795.75 532.382 794.656 533.062C787.219 537.667 779.731 542.183 772.217 546.659C766.718 549.944 761.282 553.315 755.875 556.75C754.324 557.731 752.774 558.711 751.223 559.691C748.399 561.477 745.579 563.269 742.765 565.07C739.867 566.924 736.958 568.763 734.045 570.594C732.351 571.663 730.666 572.748 728.982 573.833C723.212 577.445 718.875 579.909 712 580C709.403 576.924 708.296 574.262 707.273 570.383C706.968 569.238 706.663 568.093 706.349 566.914C706.028 565.663 705.706 564.413 705.375 563.125C705.028 561.798 704.682 560.472 704.334 559.145C698.314 535.97 692.766 512.638 688.027 489.166C686.676 482.611 684.928 476.333 682.781 469.992C681.952 466.817 681.722 464.266 682 461C685.424 455.77 689.663 452.979 695 449.875C695.786 449.408 696.572 448.942 697.382 448.461C699.06 447.469 700.741 446.484 702.425 445.503C704.963 444.022 707.486 442.516 710.008 441.008C719.446 435.425 729.036 430.395 739 425.813C740.021 425.343 741.042 424.873 742.094 424.389C750.676 420.53 758.207 418.22 767.125 422.5Z" fill="black"/>
<path d="M317 443C317.96 443.554 318.92 444.107 319.909 444.678C322.675 446.274 325.433 447.884 328.188 449.5C329.019 449.98 329.85 450.46 330.707 450.954C334.958 453.483 338.322 455.705 341 460C341.729 465.1 340.857 468.714 339.238 473.566C336.734 481.535 334.991 489.624 333.252 497.789C332.282 502.339 331.29 506.884 330.301 511.43C330.104 512.335 329.908 513.241 329.705 514.174C325.958 531.427 322.108 548.645 317.25 565.625C316.968 566.622 316.686 567.618 316.396 568.645C316.126 569.559 315.856 570.473 315.578 571.414C315.345 572.208 315.112 573.001 314.872 573.819C313.908 576.23 312.638 577.997 311 580C305.007 579.556 301.122 577.714 296.062 574.563C295.319 574.112 294.576 573.662 293.811 573.198C291.532 571.812 289.265 570.409 287 569C286.354 568.601 285.708 568.202 285.042 567.791C281.125 565.372 277.226 562.925 273.332 560.469C268.706 557.555 264.072 554.651 259.438 551.75C258.422 551.114 257.406 550.478 256.36 549.823C249.231 545.369 242.063 540.982 234.875 536.625C231.248 534.42 227.623 532.212 224 530C223.243 529.538 222.486 529.076 221.707 528.6C219.735 527.39 217.772 526.167 215.812 524.938C214.767 524.287 213.722 523.636 212.645 522.965C208.266 519.712 204.638 515.468 203.629 509.983C203.42 503.297 205.626 498.909 209 493.25C209.505 492.371 210.009 491.492 210.53 490.586C211.998 488.044 213.493 485.52 215 483C215.367 482.381 215.734 481.761 216.113 481.123C218.344 477.373 220.666 473.686 223 470C223.878 468.587 224.756 467.172 225.633 465.758C231.19 456.825 236.903 447.996 242.75 439.25C243.351 438.334 243.953 437.417 244.573 436.473C249.083 429.797 253.911 423.929 261.312 420.438C280.543 418.156 301.284 433.813 317 443Z" fill="black"/>
<path d="M673.371 374.332C677.392 375.354 679.014 378.235 681.25 381.5C681.727 382.176 682.203 382.853 682.695 383.55C689.712 393.694 695.445 404.444 700.625 415.625C700.98 416.371 701.336 417.117 701.702 417.886C703.12 421.059 703.968 423.668 704.305 427.145C702.143 431.875 697.932 433.616 693.5 436.063C692.626 436.566 691.752 437.069 690.852 437.588C689.102 438.591 687.344 439.581 685.578 440.555C683.88 441.507 682.202 442.494 680.547 443.519C674.836 446.989 674.836 446.989 670.754 447.043C667.636 445.862 665.525 444.412 662.938 442.313C653.893 435.486 643.968 431.67 633.116 428.736C631.384 428.245 629.687 427.631 628 427C627.505 425.515 627.505 425.515 627 424C631.629 419.3 636.454 414.826 641.297 410.348C647.652 404.447 653.756 398.614 659 391.688C659.636 390.858 659.636 390.858 660.284 390.011C663.535 385.732 666.505 381.302 669.332 376.731C671 375 671 375 673.371 374.332Z" fill="black"/>
<path d="M350.422 374.977C353.94 376.373 355.102 378.28 357.25 381.375C358.034 382.476 358.821 383.574 359.609 384.672C360.006 385.229 360.402 385.787 360.811 386.361C368.696 397.225 377.712 407.383 388 416C389.503 417.309 391.003 418.622 392.5 419.938C393.17 420.524 393.841 421.111 394.531 421.715C395.016 422.139 395.501 422.563 396 423C395.5 424.813 395.5 424.813 394 427C391.313 428.168 388.777 429.123 386 430C384.712 430.438 383.426 430.879 382.141 431.324C381.505 431.544 380.87 431.764 380.216 431.991C371.278 435.158 363.072 439.169 356.109 445.801C352.787 447.689 350.632 446.93 347 446C344.427 444.802 342.072 443.348 339.688 441.813C338.374 440.992 337.06 440.172 335.746 439.352C335.11 438.95 334.475 438.548 333.82 438.134C330.589 436.121 327.265 434.263 323.953 432.387C321.711 430.795 320.368 429.389 319 427C322.626 410.266 334.673 391.308 345 378C345.458 377.395 345.915 376.791 346.387 376.168C348 375 348 375 350.422 374.977Z" fill="black"/>
<path d="M526.723 375.617C534.65 380.431 539.804 386.255 543 395C545.199 404.164 544.436 413.227 539.559 421.422C534.293 428.703 527.708 433.633 519 436C508.124 437.039 498.922 436.096 490.188 429.25C484.209 423.666 480.445 416.66 479.664 408.484C479.547 397.287 481.14 389.088 488.93 380.758C499.13 372.097 514.58 369.839 526.723 375.617Z" fill="black"/>
<path d="M523.402 295.602C524.282 295.595 525.162 295.589 526.069 295.582C527.015 295.596 527.962 295.611 528.938 295.625C529.921 295.636 530.904 295.647 531.918 295.658C554.941 296.147 585.612 301.396 603 318C603.752 328.712 594.66 337.822 588.172 345.508C587.455 346.33 586.738 347.153 586 348C585.448 348.637 584.897 349.274 584.328 349.93C576.877 357.934 567.187 363.617 557.562 368.625C556.901 368.98 556.239 369.335 555.557 369.701C551.294 371.831 548.567 372.462 544 371C541.945 369.731 541.945 369.731 540.125 368.188C533.93 363.283 527.72 360.716 520.102 358.711C518 358 518 358 516 356C515.739 353.616 515.739 353.616 515.725 350.588C515.716 349.457 515.706 348.325 515.696 347.16C515.697 345.933 515.698 344.706 515.699 343.441C515.695 342.186 515.691 340.931 515.686 339.638C515.68 336.979 515.679 334.32 515.684 331.661C515.69 328.253 515.673 324.846 515.65 321.438C515.632 318.189 515.635 314.941 515.637 311.691C515.628 310.466 515.618 309.241 515.609 307.979C515.615 306.845 515.621 305.71 515.628 304.541C515.627 303.541 515.626 302.542 515.626 301.511C516 299 516 299 517.396 297.178C519.498 295.634 520.806 295.613 523.402 295.602Z" fill="black"/>
<path d="M495.062 295.625C496.117 295.611 497.171 295.597 498.257 295.583C499.235 295.589 500.214 295.595 501.223 295.602C502.097 295.605 502.971 295.608 503.871 295.612C504.574 295.74 505.276 295.868 506 296C508.245 299.367 508.252 300.494 508.259 304.434C508.265 305.545 508.271 306.656 508.278 307.801C508.274 309.001 508.27 310.201 508.266 311.438C508.268 312.669 508.269 313.901 508.271 315.17C508.273 318.443 508.265 321.717 508.254 324.991C508.25 326.998 508.254 329.005 508.261 331.013C508.273 334.863 508.272 338.713 508.266 342.563C508.27 343.763 508.274 344.963 508.278 346.199C508.268 347.866 508.268 347.866 508.259 349.566C508.257 350.546 508.256 351.525 508.254 352.534C508 355 508 355 506 358C503.558 358.807 501.173 359.489 498.688 360.125C491.189 362.198 485.959 365.406 479.965 370.305C477 372 477 372 473.676 372.035C469.138 370.757 465.336 368.883 461.25 366.563C460.461 366.12 459.672 365.676 458.859 365.22C452.036 361.262 446.51 356.662 441 351C440.147 350.151 439.293 349.301 438.414 348.426C430.045 340.017 421.08 330.237 420 318C441.548 302.058 468.687 295.872 495.062 295.625Z" fill="black"/>
<path d="M544.453 279.375C546 281 546 281 547.125 284.313C547 287 547 287 546 288C543.822 288.094 541.641 288.118 539.461 288.114C538.778 288.114 538.095 288.114 537.391 288.114C535.124 288.113 532.857 288.106 530.59 288.098C529.022 288.096 527.454 288.094 525.886 288.093C521.751 288.09 517.617 288.08 513.482 288.069C509.266 288.059 505.05 288.054 500.834 288.049C492.556 288.038 484.278 288.021 476 288C476.787 282.592 477.592 280.648 481.844 277.32C497.321 267.843 530.077 268.566 544.453 279.375Z" fill="black"/>
<path d="M723.375 195.813C724.435 195.8 725.494 195.788 726.586 195.775C734.737 195.76 743.773 195.759 751 200C752.869 202.492 753.014 203.764 752.828 206.895C751.809 210.716 750.606 211.649 747.438 213.938C746.535 214.613 745.633 215.288 744.703 215.984C743.811 216.65 742.919 217.315 742 218C737.459 221.79 733.083 225.718 729 230C728.355 230.661 727.711 231.323 727.047 232.004C708.38 251.813 699.112 276.198 690.406 301.523C678.19 336.959 662.809 369.326 637 397C636.303 397.752 635.605 398.503 634.887 399.277C614.105 420.895 579.922 440.061 549.312 441.375C547.673 441.189 547.673 441.189 546 441C545.34 440.01 544.68 439.02 544 438C544.615 437.143 545.23 436.286 545.863 435.402C546.68 434.248 547.496 433.093 548.312 431.938C548.717 431.376 549.121 430.815 549.537 430.236C555.111 422.306 557.193 414.953 557.188 405.25C557.19 404.541 557.193 403.831 557.196 403.1C557.166 399.164 556.849 395.608 555.812 391.813C555 388 555 388 555.953 385.527C558.765 382.056 561.957 380.649 565.938 378.75C573.67 374.862 580.284 370.498 587 365C587.701 364.463 588.402 363.925 589.125 363.371C607.894 348.273 622.114 320.812 625 297C625.289 293.144 625.404 289.304 625.438 285.438C625.448 284.522 625.458 283.605 625.469 282.662C625.359 274.289 623.198 267.727 618 261C614.554 257.841 610.683 255.516 606.672 253.148C605 252 605 252 604 250C603.555 246.757 603.375 244.204 604.918 241.231C609.2 235.668 615.524 231.563 622 229C627.103 229.072 629.466 230.83 633.062 234.313C637.827 238.897 637.827 238.897 643 243C645.751 242.869 645.751 242.869 648 242C648.96 240.315 648.96 240.315 649 238C647.012 235.332 644.896 232.997 642.604 230.598C640.332 228.085 639.058 226.256 638.309 222.93C639.277 218.826 641.577 217.146 645 215C647.581 213.538 650.218 212.306 652.938 211.125C653.708 210.788 654.479 210.45 655.273 210.103C676.981 200.909 699.815 195.827 723.375 195.813Z" fill="black"/>
<path d="M298.438 195.688C299.573 195.693 300.709 195.699 301.88 195.705C323.69 196.014 344.626 201.07 364.875 209.063C365.677 209.379 366.479 209.695 367.305 210.02C373.324 212.499 379.353 215.353 384 220C384.166 224.078 383.8 226.027 381.18 229.215C379.727 230.738 378.271 232.259 376.812 233.777C374.251 236.919 374 239.018 374 243C378.158 243.527 379.633 243.278 383.035 240.699C384.059 239.71 385.068 238.706 386.062 237.688C394.774 229.043 394.774 229.043 400.25 228.938C408.051 231.148 414.53 236.239 419 243C420.062 245.625 420.062 245.625 420 248C418.023 252.063 416.18 253.783 412.188 255.813C405.462 259.666 401.722 264.325 399.125 271.625C393.316 294.342 403.275 320.602 414.736 339.986C426.195 358.245 442.211 371.92 461.355 381.527C463.736 382.853 465.365 383.838 467 386C467.223 389.072 467.334 391.797 466.504 394.785C464.042 405.605 466.016 417.072 471.496 426.602C473.424 429.554 475.426 432.343 477.746 435C479 437 479 437 478.578 439.125C478.292 440.053 478.292 440.053 478 441C470.741 441.351 464.474 440.489 457.5 438.5C456.547 438.233 455.595 437.966 454.613 437.691C445.32 434.979 436.657 431.299 428 427C426.993 426.509 426.993 426.509 425.965 426.007C413.678 419.965 403.249 412.29 393.176 402.988C391.43 401.393 389.667 399.901 387.812 398.438C384.134 395.25 381.084 391.758 378 388C377.247 387.085 376.494 386.17 375.719 385.227C365.38 372.237 356.989 357.983 349.93 342.975C349.325 341.691 348.714 340.411 348.094 339.135C341.99 326.546 337.403 313.379 332.743 300.206C322.235 270.532 309.04 237.024 282.133 218.242C281.452 217.766 280.772 217.29 280.071 216.799C278.716 215.868 277.348 214.956 275.964 214.068C272.392 211.636 271.186 210.651 269.953 206.34C270 203 270 203 271.75 200.188C279.336 195.082 289.577 195.641 298.438 195.688Z" fill="black"/>
</svg>
