<svg width="1024" height="1024" viewBox="0 0 1024 1024" fill="none" xmlns="http://www.w3.org/2000/svg">
<path d="M419.539 688.758C421.067 688.94 421.067 688.94 422.625 689.125C423.788 689.253 424.95 689.38 426.148 689.512C427.419 689.673 428.69 689.834 430 690C431.346 690.154 432.692 690.307 434.039 690.457C439.099 691.03 444.153 691.651 449.207 692.271C495.057 697.869 541.171 696.972 586.91 690.902C593.262 690.061 599.61 689.458 606 689C610.157 694.944 613.717 700.942 616.812 707.5C617.236 708.397 617.66 709.293 618.097 710.217C645.019 768.545 645.019 768.545 638.785 788.18C635.973 794.699 632.274 798.022 626 801C616.354 804.296 606.563 806.134 596.5 807.625C595.806 807.731 595.112 807.836 594.397 807.945C582.307 809.781 570.21 811.257 558 812C557.01 812.062 557.01 812.062 555.999 812.125C541.811 812.992 527.65 813.202 513.438 813.188C512.326 813.187 511.215 813.186 510.069 813.186C476.34 813.136 442.064 812.161 409.062 804.5C408.247 804.311 407.431 804.121 406.59 803.927C397.969 801.747 390.961 798.628 386 791C381.504 781.226 385.171 768.764 387.938 758.875C388.245 757.764 388.552 756.653 388.868 755.508C407.547 689.902 407.547 689.902 419.539 688.758Z" fill="black"/>
<path d="M743 626C743.66 626 744.32 626 745 626C746.265 627.741 746.265 627.741 747.68 630.164C748.197 631.039 748.714 631.915 749.246 632.816C749.784 633.743 750.321 634.67 750.875 635.625C751.934 637.43 752.993 639.235 754.055 641.039C754.806 642.331 754.806 642.331 755.573 643.649C756.78 645.637 758.058 647.474 759.445 649.336C761 652 761 652 760.891 654.598C755.473 669.21 742.121 680.849 730 690C728.871 690.88 727.742 691.76 726.613 692.641C694.882 717 694.882 717 682 717C682 718.65 682 720.3 682 722C686.754 723.579 689.93 722.153 694.25 720.125C694.945 719.808 695.641 719.49 696.357 719.163C698.583 718.132 700.793 717.072 703 716C703.719 715.651 704.438 715.302 705.179 714.942C715.506 709.853 724.852 703.976 734 697C734.846 696.379 735.691 695.757 736.562 695.117C748.591 685.977 759.376 675.081 767 662C770.742 665.647 774.188 669.45 777.562 673.438C778.613 674.675 779.664 675.912 780.715 677.148C781.521 678.097 781.521 678.097 782.343 679.065C784.007 681.008 785.689 682.932 787.379 684.852C787.923 685.474 788.467 686.096 789.027 686.737C790.068 687.926 791.115 689.112 792.166 690.293C796.595 695.38 798.644 699.705 798.422 706.426C796.54 717.909 787.929 726.191 780 734C779.284 734.717 779.284 734.717 778.554 735.449C755.743 758.141 711.986 787.933 679.062 788.375C672.674 788.231 668.095 787.055 663.481 782.5C658.884 776.848 657.146 770.903 655.331 763.921C654.427 760.463 653.453 757.025 652.48 753.586C652.28 752.876 652.08 752.165 651.874 751.434C646.064 731.042 638.333 711.339 629.062 692.279C627.946 689.885 626.959 687.46 626 685C630.703 683.371 635.417 681.853 640.215 680.527C672.397 671.629 706.502 659.35 732 637C732.834 636.286 733.668 635.572 734.527 634.836C739.19 630.805 739.19 630.805 743 626Z" fill="black"/>
<path d="M279 626C285.502 631.512 285.502 631.513 288.023 633.98C315.683 660.621 358.265 675.489 395.086 683.395C395.718 683.594 396.349 683.794 397 684C397.33 684.66 397.66 685.32 398 686C397.079 688.277 397.079 688.277 395.605 691.152C394.798 692.761 394.798 692.761 393.974 694.402C393.089 696.152 393.089 696.152 392.188 697.938C381.763 719.01 374.457 740.977 367.91 763.508C367.274 765.672 366.638 767.836 366 770C365.742 770.899 365.484 771.798 365.218 772.724C363.894 777.073 362.795 780.017 359.125 782.938C358.468 783.483 357.81 784.028 357.133 784.59C351.009 788.639 345.142 788.857 338 788C305.734 780.664 272.008 760.796 248.262 738.121C246.022 735.954 246.022 735.954 243.488 734.051C236.263 728.096 228.998 718.995 226 710C225.831 708.234 225.734 706.461 225.688 704.688C225.65 703.763 225.613 702.839 225.574 701.887C226.485 695.715 231.38 691.235 235.375 686.688C242.409 678.588 249.209 670.303 256 662C258.509 665.124 260.99 668.266 263.438 671.438C264.624 672.959 265.812 674.48 267 676C267.804 677.031 268.609 678.062 269.438 679.125C272.694 682.779 276.261 685.852 280 689C280.888 689.776 281.776 690.552 282.691 691.352C296.459 703.194 320.361 722.002 338.938 723.188C339.958 723.095 339.958 723.095 341 723C341.495 721.515 341.495 721.515 342 720C339.733 717.477 337.552 716.126 334.492 714.688C333.596 714.257 332.7 713.827 331.777 713.384C330.819 712.927 329.862 712.471 328.875 712C314.395 704.917 301.103 696.705 289 686C288.49 685.556 287.98 685.112 287.455 684.654C281.181 679.165 275.293 673.467 269.875 667.125C269.201 666.34 269.201 666.34 268.514 665.54C265.77 662.234 263.479 659.048 262 655C262.968 650.42 266.181 646.562 268.812 642.75C272.509 637.312 275.986 631.854 279 626Z" fill="black"/>
<path d="M279 548C282.403 549.94 285.801 551.884 289.184 553.859C349.606 588.967 421.178 602.077 490.312 604.562C491.936 604.627 491.936 604.627 493.592 604.693C509.071 605.265 524.473 605.021 539.938 604.25C540.797 604.207 541.656 604.165 542.542 604.121C560.144 603.223 577.554 601.481 595 599C596.2 598.832 597.4 598.663 598.636 598.49C649.893 591.066 699.09 574.873 744 549C744.61 603.178 744.61 603.178 735.316 612.73C733.278 614.583 731.153 616.283 729 618C728.1 618.784 727.2 619.567 726.273 620.375C719.292 626.417 712.072 631.473 704 636C703.305 636.392 702.61 636.784 701.895 637.188C661.535 659.727 615.915 670.166 570.312 675.25C569.201 675.375 569.201 675.375 568.067 675.502C549.835 677.519 531.716 678.239 513.375 678.25C512.333 678.251 511.291 678.251 510.217 678.252C443.945 678.185 373.639 668.753 316 634C314.889 633.336 313.778 632.672 312.633 631.988C306.739 628.26 301.412 623.967 296.125 619.438C295.506 618.907 294.887 618.377 294.249 617.831C285.194 609.876 280.947 603.721 279.875 591.625C279.79 590.694 279.705 589.763 279.618 588.804C278.529 575.238 278.827 561.598 279 548Z" fill="black"/>
<path d="M330 450C330.726 450.737 331.451 451.475 332.199 452.234C341.174 461.096 350.886 467.231 362 473C363.125 473.596 364.251 474.191 365.41 474.805C395.39 489.743 429.033 495.34 462 499C463.02 499.119 464.041 499.237 465.092 499.359C531.941 506.853 625.683 504.199 681.238 461.227C685.678 457.647 689.987 454.061 694 450C694.291 450.523 694.583 451.046 694.883 451.585C702.897 466.009 702.897 466.009 713 479C713.949 480.087 713.949 480.087 714.918 481.195C720.747 487.502 728.528 492.724 737.328 493.168C738.622 493.174 739.917 493.181 741.25 493.188C742.534 493.202 743.818 493.216 745.141 493.23C749.148 492.991 752.21 492.242 756 491C755.717 494.605 755.422 498.209 755.125 501.812C755.046 502.817 754.968 503.822 754.887 504.857C753.065 526.653 753.065 526.653 745.961 532.75C676.24 586.282 570.301 596.58 434.218 587.843C384.139 581.194 330.783 567.977 288 540C287.339 539.581 286.678 539.162 285.997 538.731C284.021 537.472 282.07 536.181 280.125 534.875C279.258 534.318 279.258 534.318 278.373 533.749C272.998 529.982 271.712 525.607 270.495 519.441C270.039 516.654 269.664 513.865 269.312 511.062C269.183 510.125 269.053 509.187 268.92 508.221C268.159 502.43 267.874 496.839 268 491C268.641 491.217 269.281 491.433 269.941 491.656C280.178 494.951 288.134 494.486 297.77 489.594C312.716 480.73 322.258 465.151 330 450Z" fill="black"/>
<path d="M419 351C419.932 351.519 420.864 352.039 421.824 352.574C450.25 368.223 480.755 372.225 512.812 372.25C514.177 372.252 514.177 372.252 515.568 372.253C529.572 372.243 543.22 371.704 557 369C558.148 368.783 558.148 368.783 559.32 368.562C574.198 365.672 587.887 360.611 601 353C602.331 352.328 603.663 351.66 605 351C604.905 352.267 604.809 353.534 604.711 354.84C604.598 356.539 604.486 358.238 604.375 359.938C604.311 360.768 604.246 361.599 604.18 362.455C603.539 372.743 605.578 380.853 612.461 388.656C623.865 399.559 643.089 402.62 658.319 402.552C664.757 402.315 669.702 400.768 675 397C675.99 396.34 676.98 395.68 678 395C678.238 396.06 678.238 396.06 678.48 397.141C680.099 404.259 681.804 411.353 683.562 418.438C683.877 419.715 683.877 419.715 684.198 421.019C685.069 424.508 685.944 427.852 687.215 431.223C688.187 434.66 688.059 436.589 687 440C663.45 471.324 613.236 480.121 576.933 485.447C572.298 486.064 567.654 486.549 563 487C562.021 487.102 561.042 487.203 560.033 487.308C497.391 493.597 422.336 491.384 365.438 461.938C364.074 461.233 364.074 461.233 362.684 460.513C356.203 456.999 350.642 452.721 345 448C343.692 446.977 343.692 446.977 342.357 445.933C339.424 443.528 337.726 441.386 336 438C336.435 432.527 337.904 427.388 339.375 422.125C341.818 413.16 343.555 404.173 345 395C347.582 396.265 350.085 397.605 352.562 399.062C363.452 405.2 378.509 402.389 390.086 399.191C400.062 396.223 410.816 392.622 416.128 382.945C419.27 376.056 419.486 369.854 419.25 362.375C419.232 361.275 419.214 360.176 419.195 359.043C419.149 356.361 419.083 353.681 419 351ZM504.98 397.883C501.243 401.879 499.227 405.998 498.812 411.48C499.169 418.666 501.797 424.784 506.887 429.895C508.549 431.334 510.228 432.698 512 434C517.502 431.573 520.112 427.045 523 422C524.773 416.681 525.02 410.298 523.352 404.902C520.896 400.296 517.036 396.27 513 393C509.523 393 507.46 395.634 504.98 397.883ZM464.312 427.875C462.757 429.992 462.757 429.992 462.938 432.875C464.665 437.957 467.44 441.004 471.938 443.875C475.442 445.162 477.298 445.581 481 445C482.438 444.227 483.854 443.409 485.25 442.562C489.455 440.036 492.874 439.36 497.738 439.141C499.944 439.003 501.879 438.602 504 438C503.58 433.102 501.686 431.137 498 428C486.842 420.118 475.79 419.868 464.312 427.875ZM519.793 433.289C518.75 435.54 519.186 436.714 520 439C520.811 439.014 521.622 439.028 522.457 439.043C528.551 439.305 533.382 439.867 538.875 442.625C542.184 444.263 543.938 444.996 547.688 445.25C553.55 443.038 557.695 439.331 560.75 433.875C561.249 430.952 561.249 430.952 559.75 428.375C554.096 423.492 547.124 421.146 539.648 421.488C531.759 423.013 524.923 427.168 519.793 433.289ZM483.125 450.062C480.335 453.919 479.576 456.18 479.664 461.023C479.881 463.265 479.881 463.265 482 465.5C485.857 467.429 488.769 467.698 493 467C497.365 465.173 500.632 462.085 503 458C504.25 454.383 505.182 450.736 506 447C497.987 442.309 489.409 442.677 483.125 450.062ZM518 446C519.829 453.787 521.584 460.7 528 466C532.614 467.538 536.437 467.747 540.875 465.625C543.097 464.172 543.097 464.172 544 462C544.55 456.28 543.644 453.431 540 449C535.432 444.877 532.26 443.775 526.074 443.832C523.188 444.066 520.675 444.93 518 446Z" fill="black"/>
<path d="M395.309 325.355C400.881 330.773 401.656 339.436 403.188 346.688C403.46 347.904 403.733 349.12 404.014 350.373C405.786 358.65 407.535 367.124 404.938 375.375C397.607 385.307 383.857 386.811 372.355 388.68C366.314 389.501 362.331 389.052 356.895 386.461C351.27 382.123 349.885 375.943 348.375 369.375C348.163 368.488 347.952 367.601 347.734 366.687C342.25 343.302 342.25 343.302 345.5 335.312C351.152 326.777 362.584 324.3 372 322C380.673 320.475 387.724 320.621 395.309 325.355Z" fill="black"/>
<path d="M673 330C677.55 334.447 679.191 337.808 679.375 344.125C679.438 351.416 678.205 358.373 676.75 365.5C676.545 366.526 676.341 367.553 676.13 368.61C674.374 376.72 672.215 383.19 665 388C657.18 390.607 649.018 388.649 641.25 386.688C640.344 386.474 639.438 386.261 638.504 386.041C631.979 384.446 626.046 382.877 621.687 377.438C621.196 376.838 620.705 376.239 620.199 375.621C616.354 370.424 617.668 363.471 618.486 357.384C619.04 354.139 619.637 350.909 620.289 347.682C620.69 345.676 621.059 343.666 621.428 341.654C623.092 333.258 624.428 328.234 631.562 323.188C643.382 317.429 662.472 323.371 673 330Z" fill="black"/>
<path d="M705 246C710.767 247.996 712.849 249.523 716 255C723.396 274.55 722.864 297.56 724.254 318.216C725.473 336.275 727.078 354.121 730 372C730.162 373.01 730.323 374.02 730.49 375.06C735.079 402.662 744.876 430.113 758.062 454.75C760.297 459.165 760.727 462.069 760 467C757.867 472.244 755.305 475.338 750.336 478.109C745.042 480.128 739.806 480.204 734.578 477.961C712.505 464.337 703.077 434.605 697 411C695.719 405.374 694.766 399.719 694 394C693.905 393.353 693.81 392.705 693.712 392.038C692.761 384.854 692.889 377.672 692.938 370.438C692.942 369.143 692.947 367.848 692.951 366.514C692.963 363.342 692.979 360.171 693 357C694.072 356.484 695.145 355.969 696.25 355.438C700.237 353.119 702.435 350.331 704 346C704.827 342.481 705.283 338.965 705.688 335.375C705.804 334.466 705.921 333.557 706.041 332.621C706.397 329.75 706.707 326.878 707 324C707.097 323.074 707.194 322.148 707.294 321.194C708.204 311.227 708.221 301.245 708.24 291.245C708.25 288.204 708.281 285.164 708.312 282.123C708.367 271.777 707.899 262.093 705.647 251.978C705 249 705 249 705 246Z" fill="black"/>
<path d="M319 246C318.795 246.897 318.59 247.794 318.379 248.719C316.345 258.138 315.258 267.362 315 277C314.978 277.744 314.956 278.487 314.934 279.253C314.427 299.448 315.452 320.129 318.375 340.125C318.477 340.87 318.578 341.614 318.683 342.381C319.434 346.934 320.732 349.738 324 353C325.83 354.141 325.83 354.141 327.688 354.875C331 357 331 357 331.75 359.848C332.293 365.415 331.743 371.003 331.312 376.562C331.22 377.757 331.128 378.951 331.032 380.182C328.638 408.564 321.978 438.53 305 462C304.362 462.883 303.724 463.766 303.066 464.676C297.135 472.48 291.408 478.454 281.383 479.941C275.201 480.093 270.926 476.413 266.48 472.598C263.802 469.708 263.068 467.656 262.656 463.703C263.052 459.439 264.462 456.422 266.5 452.75C267.244 451.331 267.984 449.909 268.719 448.484C269.099 447.748 269.479 447.011 269.871 446.252C291.822 402.464 297.033 354.278 300.311 306.14C303.699 256.53 303.699 256.53 312.562 248.375C315.079 246.346 315.645 246 319 246Z" fill="black"/>
<path d="M416 237C428.721 240.561 438.29 254.536 446.688 264.25C462.032 281.771 480.041 289.906 503.218 291.661C525.531 292.999 549.536 290.233 566.882 274.855C574.695 267.686 581.691 259.824 588.625 251.812C599.637 239.22 599.637 239.22 606 237C609 238 609 238 611.062 241.375C615.357 250.623 615.359 260.798 615.312 270.812C615.305 272.717 615.305 272.717 615.298 274.66C615.114 289.639 613.221 303.981 609.562 318.5C609.37 319.272 609.177 320.043 608.978 320.838C606.215 330.953 599.691 337.728 590.711 342.891C567.128 354.901 540.329 357.233 514.312 357.25C513.401 357.251 512.49 357.251 511.551 357.252C482.244 357.218 443.627 355.428 421.25 333.625C416.406 327.749 414.841 320.232 413 313C412.702 311.886 412.404 310.773 412.098 309.625C408.055 292.892 406.736 274.542 408.75 257.438C408.835 256.713 408.92 255.988 409.008 255.242C409.872 248.701 411.195 241.805 416 237Z" fill="black"/>
<path d="M623 233C632.641 232.711 641.648 233.438 651.125 235.188C652.377 235.412 653.629 235.637 654.918 235.869C662.465 237.257 669.976 238.768 677.438 240.563C678.229 240.748 679.02 240.933 679.834 241.124C684.534 242.323 688.257 243.775 692 247C704.542 270.072 697.375 312.973 694 338C693.34 338 692.68 338 692 338C691.792 337.371 691.585 336.742 691.371 336.094C687.907 326.469 682.759 320.315 673.801 315.313C661.236 309.424 644.4 305.013 630.812 309.5C629.54 309.995 628.268 310.494 627 311C627.48 305.563 627.978 300.13 628.57 294.703C630.78 273.617 631.101 252.931 623 233Z" fill="black"/>
<path d="M394 232.937C395.019 232.944 395.019 232.944 396.059 232.951C397.706 232.963 399.353 232.981 401 233C400.734 233.629 400.469 234.258 400.195 234.906C390.194 259.143 393.669 285.625 397 311C396.227 310.783 395.453 310.567 394.656 310.344C377.734 305.82 361.795 309.217 346.473 317.34C338.005 322.426 334.005 329.819 331 339C330.67 339 330.34 339 330 339C329.681 337.251 329.37 335.501 329.063 333.75C328.888 332.775 328.714 331.801 328.535 330.797C327.23 321.538 326.835 312.287 326.797 302.945C326.791 301.841 326.785 300.737 326.78 299.6C326.77 297.282 326.764 294.965 326.76 292.647C326.75 289.141 326.719 285.635 326.688 282.129C326.544 253.086 326.544 253.086 332.327 246.249C334.876 244.105 336.397 243.17 339.563 242.34C340.432 242.105 341.301 241.871 342.197 241.63C343.122 241.401 344.047 241.173 345 240.937C345.962 240.688 346.925 240.438 347.917 240.181C362.919 236.382 378.461 232.799 394 232.937Z" fill="black"/>
</svg>
