<svg width="1024" height="1024" viewBox="0 0 1024 1024" fill="none" xmlns="http://www.w3.org/2000/svg">
<path d="M844 161.459C848.658 165.592 852.166 169.135 853 175.459C852.331 175.182 851.662 174.905 850.973 174.62C847.498 173.263 843.978 172.07 840.438 170.897C839.778 170.676 839.119 170.455 838.44 170.227C823.041 165.105 806.852 166.153 792.051 172.78C767.173 185.479 752.262 210.183 743.772 235.908C738.959 251.179 736.194 265.908 743.184 281.018C745.779 285.731 748.558 289.023 752.625 292.522C764.957 304.373 770.633 324.292 776.527 339.96C780.432 350.175 785.025 360.572 795.324 365.592C801.708 367.661 809.395 367.501 815.625 364.959C821.971 361.665 827.668 357.19 833.182 352.672C839.275 347.699 845.572 343.27 852.188 339.022C853.202 338.367 854.215 337.712 855.26 337.038C863.08 332.009 870.916 327.054 879 322.459C879.872 321.962 880.744 321.465 881.643 320.952C931.687 292.606 931.687 292.606 953.961 298.6C958.517 300.52 961.845 303.602 964.438 307.772C965.847 314.508 965.398 319.678 962.266 325.83C960.743 327.79 959.268 328.511 957 329.459C956.613 328.977 956.227 328.495 955.828 327.998C955.307 327.367 954.787 326.735 954.25 326.084C953.74 325.458 953.229 324.831 952.703 324.186C950.884 322.342 949.414 321.379 947 320.459C944.31 320.763 944.31 320.763 942 321.459C943.387 325.689 945.316 328.073 948.438 331.209C957.158 340.571 963.618 351.621 969.688 362.834C970.027 363.459 970.366 364.083 970.715 364.726C972.182 367.522 973 369.252 973 372.459C971.629 372.628 971.629 372.628 970.231 372.799C935.849 377.635 903.593 395.187 872.461 409.748C864.697 413.377 856.926 416.982 849.082 420.436C848.113 420.865 848.113 420.865 847.124 421.303C838.717 424.972 830.967 426.907 822.055 423.776C815.779 420.719 812.963 415.142 810.685 408.796C810.233 407.41 809.786 406.023 809.344 404.635C809.112 403.922 808.881 403.209 808.642 402.474C807.677 399.489 806.715 396.507 805.833 393.496C803.241 384.111 803.241 384.111 796.695 377.328C793.467 376.084 790.39 375.134 787 374.459C788.632 379.405 790.268 384.348 791.907 389.291C792.463 390.968 793.018 392.646 793.571 394.324C800.056 417.04 800.056 417.04 815.91 433.487C820.628 435.682 824.856 436.769 830.063 436.834C831.064 436.863 832.066 436.891 833.098 436.92C844.108 435.62 854.118 430.833 864.051 426.177C866.316 425.116 868.585 424.065 870.856 423.017C874.015 421.557 877.174 420.094 880.33 418.627C966.52 378.591 966.52 378.591 986.328 384.108C991.857 386.92 994.113 391.798 996 397.459C996.769 403.85 995.907 409.232 992 414.459C987.434 418.844 981.693 421.279 976.063 424.022C975.086 424.503 974.11 424.985 973.104 425.481C971.229 426.405 969.354 427.326 967.477 428.245C964.643 429.634 961.82 431.042 959 432.459C959.133 433.184 959.266 433.908 959.402 434.655C959.767 436.648 960.124 438.643 960.477 440.639C960.855 442.676 961.31 444.699 961.813 446.709C962.198 452.367 959.124 456.735 955.562 460.898C952.622 463.837 949.155 465.921 945.625 468.084C944.378 468.856 944.378 468.856 943.105 469.643C908.107 490.957 858.511 516.122 816 510.459C807.307 508.199 801.402 501.966 796.782 494.488C792.989 487.635 791.42 480.515 789.948 472.897C789.315 469.629 788.648 466.369 787.983 463.108C787.61 461.28 787.24 459.451 786.87 457.622C784.215 444.502 781.392 431.418 778.563 418.334C778.352 417.359 778.352 417.359 778.136 416.364C772.289 389.344 766.078 362.498 758.313 335.959C757.968 334.766 757.624 333.572 757.269 332.343C754.013 321.552 749.889 311.697 742.125 303.397C741.071 302.214 740.021 301.03 738.973 299.842C738.466 299.271 737.96 298.701 737.438 298.113C724.503 283.24 720.69 269.712 722 250.459C725.474 223.387 740.205 195.86 759 176.459C759.536 175.85 760.073 175.24 760.625 174.612C781.135 152.103 818.009 144.534 844 161.459ZM826 391.459C823.5 395.21 823.464 397.018 824 401.459C825.917 404.543 825.917 404.543 829 406.459C833.129 407.123 835.199 406.894 838.875 404.897C841.666 401.695 842 399.678 842 395.459C841.17 392.549 841.17 392.549 839 390.459C833.655 388.039 830.86 388.182 826 391.459Z" fill="black"/>
<path d="M257.598 169.662C260.108 171.889 262.573 174.142 265 176.459C265.546 176.972 266.092 177.485 266.654 178.014C270.984 182.187 274.502 186.57 277.813 191.584C278.323 192.357 278.834 193.13 279.36 193.926C293.61 216.085 306.376 245.061 301.348 271.948C298.057 283.74 291.977 293.052 283.44 301.657C275.408 309.838 271.386 318.686 267.875 329.522C267.645 330.22 267.416 330.919 267.179 331.638C253.963 372.044 245.537 414.272 237.315 455.928C236.628 459.404 235.929 462.878 235.23 466.352C234.77 468.67 234.334 470.991 233.9 473.313C231.527 485.457 227.474 498.86 217 506.459C216.122 507.103 216.122 507.103 215.227 507.76C201.148 515.857 179.488 509.246 165 505.459C149.272 501.181 133.93 496.003 119 489.459C118.167 489.097 117.335 488.734 116.477 488.36C98.711 480.516 77.0741 470.876 63.9377 456.147C61.2735 448.51 63.3654 440.137 65.0002 432.459C62.9515 431.375 60.9022 430.291 58.8522 429.208C57.1103 428.289 55.3691 427.367 53.6286 426.445C49.8616 424.456 46.1018 422.475 42.2423 420.67C36.4734 417.967 32.4924 415.878 29.0002 410.459C27.1235 404.829 27.4351 399.273 29.1877 393.647C31.8577 388.951 34.9461 385.488 40.0002 383.459C74.0176 378.927 114.857 405.121 144.713 419.229C153.112 423.197 161.529 427.101 170.063 430.772C170.883 431.127 171.703 431.482 172.548 431.847C183.239 436.381 193.532 438.584 204.875 434.834C213.723 431.156 219.084 425.067 222.926 416.362C223.753 414.187 224.519 412.001 225.262 409.795C225.677 408.602 225.677 408.602 226.1 407.384C226.972 404.871 227.83 402.353 228.688 399.834C229.273 398.139 229.86 396.443 230.447 394.748C232.667 388.331 234.862 381.905 237 375.459C232.188 376.031 228.22 377.031 224 379.459C221.333 383.775 220.047 388.217 218.694 393.08C217.458 397.32 215.901 401.442 214.375 405.584C214.098 406.377 213.82 407.17 213.534 407.987C211.169 414.576 208.603 420.373 202.043 423.702C187.86 428.963 173.767 419.854 161.125 414.084C159.324 413.269 157.523 412.453 155.721 411.639C146.688 407.545 137.686 403.39 128.716 399.158C103.501 387.281 77.9174 375.817 50.0002 372.459C58.0911 355.464 67.1205 338.973 80.7736 325.741C82.3423 324.102 82.6203 322.663 83.0002 320.459C76.4764 320.797 73.6316 321.828 69.0002 326.459C68.3402 327.449 67.6802 328.439 67.0002 329.459C62.8351 327.718 61.5998 325.747 59.7619 321.745C58.0679 316.663 58.3657 312.196 60.1877 307.209C64.0448 301.357 67.1572 299.007 74.0002 297.459C107.932 296.303 140.581 318.989 168 336.459C168.928 337.049 168.928 337.049 169.875 337.651C178.517 343.174 186.56 349.421 194.628 355.733C207.02 365.421 207.02 365.421 222.297 367.209C229.83 365.794 235.245 362.118 240.152 356.284C245.008 348.862 247.802 340.139 250.988 331.906C263.615 299.296 263.615 299.296 273.082 292.096C281.008 285.333 283.952 275.48 285 265.459C286.089 236.397 270.294 208.267 251.899 187.034C241.721 176.248 226.344 167.854 211.371 167.123C209.727 167.094 208.082 167.081 206.438 167.084C205.13 167.087 205.13 167.087 203.796 167.089C192.161 167.307 181.597 170.772 171 175.459C171 171.073 172.317 168.661 175.188 165.522C198.463 143.751 235.096 150.578 257.598 169.662ZM185 391.459C182.92 393.62 182.92 393.62 182 396.459C182.735 400.723 183.542 403.768 187 406.459C191.211 407.32 194.879 407.188 198.5 404.834C200.359 401.891 200.929 399.947 201 396.459C199.257 392.295 197.049 390.382 193 388.459C189.315 388.459 187.963 389.312 185 391.459Z" fill="black"/>
<path d="M902.875 225.022C903.779 224.999 904.684 224.977 905.616 224.954C912.76 224.979 916.312 227.027 921.625 231.834C926.639 237.376 929.355 241.898 929 249.459C927.971 253.606 926.639 256.033 923 258.459C922.492 257.966 921.984 257.472 921.461 256.963C916.096 251.921 916.096 251.921 909 250.459C909.524 254.371 910.407 256.378 913.141 259.209C913.794 259.895 914.447 260.58 915.119 261.286C916.174 262.362 916.174 262.362 917.25 263.459C917.964 264.202 918.677 264.944 919.412 265.709C925.85 272.382 932.393 278.954 939 285.459C936.179 288.28 932.976 288.37 929.188 289.084C912.524 292.527 896.904 299.372 882 307.459C881.26 307.855 880.52 308.251 879.757 308.659C858.894 319.889 837.625 332.907 819.778 348.59C815.559 352.263 811.469 355.007 805.813 355.745C800.096 355.042 796.678 352.856 793 348.459C788.465 340.572 785.078 332.096 781.75 323.647C781.317 322.567 780.884 321.488 780.438 320.375C778.35 315.12 776.407 309.938 775 304.459C775.895 304.312 776.789 304.165 777.711 304.014C793.307 301.121 801.535 294.484 810.404 281.595C811.176 280.463 811.948 279.33 812.72 278.196C818.751 269.368 825.618 263.056 834 256.459C835.064 255.585 836.127 254.709 837.188 253.83C850.104 243.248 864.222 234.123 880 228.459C881.383 227.953 881.383 227.953 882.793 227.436C889.417 225.399 895.995 225.129 902.875 225.022ZM800.438 322.522C798.536 326.409 798.729 328.348 800 332.459C802.049 335.099 802.049 335.099 805 336.459C808.595 336.459 810.416 335.859 813.375 333.834C815.653 330.506 815.564 328.409 815 324.459C813.647 321.856 813.647 321.856 811 320.459C806.657 319.516 803.94 319.703 800.438 322.522Z" fill="black"/>
<path d="M143.613 228.073C164.787 236.743 183.398 249.804 200 265.459C200.748 266.143 201.495 266.826 202.266 267.53C206.816 271.842 210.542 276.407 214.125 281.522C214.551 282.128 214.976 282.734 215.415 283.359C215.83 283.95 216.245 284.541 216.672 285.151C222.591 293.579 228.024 298.936 238 302.459C241.011 302.951 243.871 303.204 246.918 303.256C247.605 303.323 248.292 303.39 249 303.459C249.33 304.119 249.66 304.779 250 305.459C249.414 307.205 249.414 307.205 248.41 309.327C247.858 310.517 247.858 310.517 247.295 311.732C246.888 312.591 246.482 313.45 246.063 314.334C243.51 319.82 241.014 325.293 238.863 330.952C238.36 332.274 238.36 332.274 237.846 333.624C237.218 335.297 236.603 336.975 236.004 338.658C233.629 344.947 230.08 351.601 223.706 354.505C219.371 355.804 215.472 355.765 211.266 353.885C207.66 351.616 204.529 348.804 201.339 345.998C194.668 340.174 187.386 335.322 180 330.459C179.395 330.06 178.79 329.66 178.167 329.248C174.144 326.6 170.087 324.009 166 321.459C165.436 321.107 164.871 320.755 164.29 320.391C159.904 317.671 155.466 315.046 151 312.459C150.196 311.991 149.391 311.523 148.563 311.04C130.435 300.567 112.009 292.038 91.3244 288.213C88.0002 287.459 88.0002 287.459 86.0002 285.459C91.0129 279.84 96.066 274.324 101.481 269.088C102.248 268.342 103.015 267.597 103.805 266.828C105.334 265.349 106.874 263.881 108.424 262.424C112.706 258.323 112.706 258.323 114.992 252.952C114.995 252.129 114.997 251.307 115 250.459C110.392 250.572 108.271 251.844 105.125 255.022C104.071 256.156 103.025 257.298 102 258.459C98.7832 257.081 98.0646 256.568 96.1877 253.397C94.526 248.947 94.5991 244.982 96.0002 240.459C105.92 222.52 125.794 222.062 143.613 228.073ZM210.563 322.022C208.396 325.402 208.437 327.519 209 331.459C211.055 334.463 212.476 335.292 215.938 336.397C219.599 336.472 221.131 335.673 224 333.459C225.444 330.571 225.377 328.663 225 325.459C223.063 322.439 223.063 322.439 220 320.459C216.01 319.829 213.983 319.829 210.563 322.022Z" fill="black"/>
<path d="M877.672 196.592C878.44 197.208 879.209 197.825 880 198.459C880.998 199.229 880.998 199.229 882.016 200.014C886.381 203.525 890.17 207.597 893 212.459C893 213.449 893 214.439 893 215.459C892.457 215.554 891.914 215.649 891.355 215.747C880.735 217.64 870.711 219.57 861 224.459C859.97 224.962 858.94 225.465 857.879 225.983C835.772 237.289 814.221 254.613 800.423 275.257C796.011 281.784 790.762 289.016 783 291.459C775.347 292.261 768.234 292.386 762 287.459C754.673 280.703 751.053 274.932 750.602 264.955C750.105 239.227 763.994 212.821 781.375 194.647C809.134 167.816 849.197 174.682 877.672 196.592ZM767 263.459C765.58 266.921 765.871 268.129 767.25 271.647C768.858 274.663 768.858 274.663 772 276.459C776.866 277.009 778.898 277.194 783 274.459C785.219 271.13 785.759 269.32 785.477 265.397C784.603 261.844 782.984 260.449 780 258.459C774.087 257.005 770.637 258.5 767 263.459Z" fill="black"/>
<path d="M234 187.459C254.744 204.215 268.787 228.02 273 254.459C273.933 263.41 273.827 271.612 269 279.459C268.196 281.037 268.196 281.037 267.375 282.647C263.118 287.689 258.334 290.932 251.738 291.975C242.98 292.26 237.107 290.468 230.625 284.647C227.359 281.211 224.914 277.314 222.375 273.334C213.641 259.806 201.781 250.292 188.897 240.861C187.291 239.674 185.712 238.449 184.141 237.217C168.238 224.92 150.801 218.216 131 215.459C133.587 203.964 144.662 197.378 154 191.459C177.8 176.649 209.715 169.436 234 187.459ZM240 262.459C238.431 265.598 238.648 267.998 239 271.459C240.988 274.379 242.432 276.07 245.938 276.94C249.861 277.215 251.671 276.679 255 274.459C257.22 271.13 257.756 269.32 257.481 265.397C256.611 261.891 254.92 260.447 252 258.459C246.533 257.581 243.886 258.574 240 262.459Z" fill="black"/>
</svg>
