<svg width="1024" height="1024" viewBox="0 0 1024 1024" fill="none" xmlns="http://www.w3.org/2000/svg">
<path d="M696 661C699.914 662.529 701.766 664.909 704.312 668.188C707.465 672.151 710.673 675.804 714.312 679.316C716.811 681.809 719.078 684.49 721.379 687.164C722.708 688.67 724.125 690.098 725.562 691.5C730.58 696.646 736.24 702.733 736.375 710.25C736.158 716.561 734.328 720.676 729.848 725.149C696.563 753.678 640.31 778.468 596.113 776.218C588.529 775.436 583.59 771.056 578.84 765.48C575.288 760.692 572.724 755.38 570.062 750.063C569.452 748.862 568.84 747.662 568.228 746.462C563.624 737.4 559.203 728.255 555 719C555.853 718.793 556.707 718.585 557.586 718.371C561.17 717.488 564.749 716.59 568.326 715.68C570.164 715.213 572.003 714.748 573.842 714.285C600.488 707.535 626.129 698.734 651 687C651.976 686.54 652.952 686.079 653.958 685.605C668.781 678.542 682.694 670.618 696 661Z" fill="black"/>
<path d="M326 661C329.529 662.224 332.367 663.851 335.4 666.02C374.389 693.815 423.028 708.014 469 719C466.031 725.348 463.028 731.68 460 738C459.54 738.962 459.081 739.923 458.607 740.914C457.209 743.824 455.794 746.725 454.375 749.625C453.73 750.973 453.73 750.973 453.071 752.348C449.284 760.018 444.767 767.896 437.312 772.5C436.224 773.196 436.224 773.196 435.113 773.906C424.377 779.463 408.004 775.858 397 773C395.817 772.694 395.817 772.694 394.609 772.382C375.372 767.314 356.991 760.467 339 752C337.767 751.422 337.767 751.422 336.51 750.832C325.026 745.395 314.313 739.428 304 732C302.658 731.041 302.658 731.041 301.289 730.063C295.384 725.668 288.927 720.739 287.691 713.09C287.264 705.959 289.575 701.489 294 696C297.869 691.834 301.934 687.873 306.027 683.93C311.779 678.341 316.885 672.218 321.937 666C322.71 665.051 323.482 664.103 324.277 663.125C324.846 662.424 325.414 661.723 326 661Z" fill="black"/>
<path d="M334 602C345.676 607.811 345.676 607.811 349.793 609.984C435.69 654.663 539.432 656.406 630.445 628.168C646.123 623.106 661.344 616.775 675.913 609.084C680.577 606.662 685.295 604.342 690 602C690.331 608.527 690.558 615.052 690.714 621.586C690.779 623.805 690.868 626.024 690.981 628.241C691.866 646.088 691.866 646.088 688.823 650.837C685.429 654.281 681.384 656.085 677 658C675.469 658.93 673.951 659.881 672.453 660.863C604.402 701.102 527.169 720.435 450 701C419.547 693.09 390.219 681.767 362.437 667C360.924 666.201 360.924 666.201 359.379 665.386C357.347 664.281 355.338 663.134 353.351 661.949C350.813 660.473 348.345 659.212 345.7 657.964C340.369 655.218 335.144 652.493 333.183 646.504C332.007 639.286 332.541 632.074 333 624.813C333.08 622.599 333.153 620.384 333.219 618.17C333.394 612.774 333.661 607.388 334 602Z" fill="black"/>
<path d="M513.453 414.402C514.294 414.93 515.134 415.457 516 416C517.467 416.704 518.942 417.39 520.422 418.066C521.27 418.465 522.117 418.864 522.991 419.275C540.951 427.658 559.352 434.457 578.625 439.125C582 440 582 440 583 441C583.113 443.205 583.155 445.413 583.168 447.621C583.172 448.304 583.176 448.987 583.181 449.691C583.191 451.94 583.191 454.189 583.188 456.438C583.187 457.204 583.186 457.969 583.186 458.759C583.097 500.196 576.468 530.486 546.684 560.32C541.265 565.428 535.338 569.867 529.375 574.313C528.175 575.212 528.175 575.212 526.951 576.129C522.163 579.64 517.541 582.815 512 585C509.594 584.5 509.594 584.5 507.5 583C506.662 582.416 505.824 581.832 504.961 581.231C503.984 580.495 503.007 579.758 502 579C500.743 578.099 499.485 577.199 498.227 576.301C489.605 570.068 481.654 563.386 474 556C472.801 554.879 472.801 554.879 471.578 553.734C450.102 533.147 441.861 507.154 441.05 477.989C440.844 465.662 440.931 453.328 441 441C442.529 440.524 442.529 440.524 444.089 440.038C468.556 432.497 468.556 432.497 492.437 423.313C493.27 422.956 494.103 422.6 494.962 422.233C499.092 420.42 502.932 418.455 506.785 416.106C510.655 413.944 510.655 413.944 513.453 414.402ZM505.138 430.388C489.79 437.925 473.487 443.626 457.062 448.344C455.03 448.816 455.03 448.816 454 450C451.699 483.747 454.771 514.537 477 541C477.588 541.712 478.176 542.423 478.781 543.156C485.243 550.793 492.952 556.884 500.875 562.938C501.633 563.526 502.391 564.115 503.172 564.721C503.896 565.276 504.621 565.831 505.367 566.402C506.018 566.903 506.669 567.403 507.339 567.918C508.949 569.182 508.949 569.182 511 569C511 522.47 511 475.94 511 428C508.877 428 507.008 429.461 505.138 430.388Z" fill="black"/>
<path d="M408 353C409.021 353.424 410.042 353.848 411.094 354.285C428.055 361.188 445.4 366.306 463.375 369.813C464.371 370.007 465.367 370.202 466.393 370.403C481.565 373.2 496.65 374.39 512.062 374.313C513.264 374.309 513.264 374.309 514.489 374.305C547.992 374.145 580.951 367.765 611.934 354.77C614 354 614 354 617 354C617.112 355.199 617.112 355.199 617.227 356.422C618.501 367.07 621.73 377.014 629.883 384.406C638.879 391.178 647.542 395.382 658.937 395.25C659.934 395.262 659.934 395.262 660.951 395.274C665.911 395.254 670.227 394.344 675 393C675.377 393.604 675.754 394.207 676.142 394.829C686.709 413.674 686.709 413.674 701.088 429.286C705.049 433.264 704.705 437.527 704.731 442.9C704.706 444.208 704.682 445.516 704.656 446.863C704.651 448.245 704.648 449.627 704.648 451.008C704.638 454.685 704.59 458.361 704.533 462.037C704.489 465.077 704.466 468.117 704.443 471.157C704.282 491.465 704.049 511.78 702 532C701.932 532.678 701.864 533.356 701.794 534.054C701.282 539.125 700.719 544.188 700.125 549.25C699.976 550.543 699.827 551.835 699.673 553.167C697.993 566.27 695.429 580.266 684.625 589C683.105 590.032 681.559 591.028 680 592C678.49 592.963 678.49 592.963 676.949 593.945C657.527 605.806 634.847 613.911 613 620C611.956 620.292 610.912 620.584 609.837 620.885C591.423 625.949 572.907 629.457 554 632C553.013 632.133 552.026 632.266 551.01 632.402C485.823 640.661 410.815 628.762 353 597C351.739 596.347 350.477 595.696 349.215 595.047C339.138 589.746 331.379 583.74 327.867 572.566C326.718 567.839 325.753 563.097 324.875 558.313C324.716 557.46 324.557 556.608 324.394 555.73C320.285 531.448 320.504 506.723 320.41 482.177C320.387 476.99 320.318 471.804 320.239 466.617C320.187 462.585 320.17 458.553 320.163 454.521C320.153 452.607 320.13 450.693 320.093 448.78C319.821 433.939 319.821 433.939 322.736 429.144C324.72 427.162 326.724 425.624 329 424C331.014 421.573 332.755 419 334.5 416.375C335.19 415.356 335.19 415.356 335.894 414.316C340.285 407.745 344.218 400.936 348 394C349.727 394.236 349.727 394.236 351.488 394.477C365.658 396.227 378.229 395.665 390.375 387.188C399.567 379.544 405.602 370.473 406.75 358.313C406.786 357.504 406.822 356.696 406.859 355.863C407 354 407 354 408 353ZM500.937 403.313C482.485 413.508 462.167 420.049 441.914 425.66C441.067 425.895 440.221 426.13 439.349 426.372C437.87 426.767 436.385 427.141 434.894 427.484C432.117 428.152 430.321 428.66 428.334 430.766C426.784 433.361 426.625 434.816 426.628 437.818C426.621 438.775 426.615 439.731 426.609 440.716C426.618 441.748 426.627 442.78 426.637 443.844C426.636 444.923 426.636 446.002 426.635 447.113C426.638 449.406 426.647 451.7 426.664 453.993C426.687 457.432 426.684 460.87 426.678 464.309C426.723 500.441 431.853 529.937 456 558C456.722 558.846 457.444 559.691 458.187 560.563C471.765 576.08 488.4 588.393 506 599C506.665 599.431 507.33 599.861 508.016 600.305C511.909 601.669 515.189 600.382 518.789 598.688C526.247 594.25 533.17 589.351 540 584C540.843 583.352 541.686 582.703 542.555 582.035C571.424 559.484 591.418 532.736 596.387 495.797C597.93 482.506 598.209 469.124 598.24 455.757C598.25 453.21 598.281 450.664 598.312 448.117C598.319 446.479 598.324 444.841 598.328 443.203C598.347 442.075 598.347 442.075 598.366 440.924C598.346 436.438 597.831 433.531 595 430C590.111 427.405 585.107 426.2 579.75 424.938C557.76 419.389 537.185 410.186 517 400C510.914 396.957 506.17 400.26 500.937 403.313Z" fill="black"/>
<path d="M420 253C424.419 256.646 427.954 260.865 431.375 265.438C445.612 284.152 468.826 294.32 491.625 297.754C522.51 301.818 554.909 297.006 580.562 278.5C586.119 274.115 590.479 269.335 594.73 263.711C600.339 256.307 605.381 250.074 615.023 248.715C621.561 248.268 626.676 250.258 632 254C637.778 259.694 640.012 265.884 640.312 273.938C639.897 292.926 632.928 311.15 624.896 328.088C624.088 329.812 623.341 331.563 622.602 333.317C614.913 346.199 585.005 350.855 571.584 354.254C551.955 358.969 532.422 361.232 512.25 361.25C511.094 361.252 511.094 361.252 509.915 361.253C496.744 361.242 483.979 360.364 471 358C470.204 357.861 469.407 357.722 468.586 357.578C450.542 354.358 432.822 349.178 415.812 342.375C414.898 342.015 413.984 341.655 413.042 341.285C404.404 337.697 400.83 333.425 397.258 324.839C396.843 323.799 396.428 322.759 396 321.688C395.564 320.616 395.129 319.545 394.68 318.441C379.611 280.867 379.611 280.867 385.953 262.258C388.505 256.754 392.503 252.604 398 250C405.898 247.694 413.035 248.593 420 253Z" fill="black"/>
</svg>
