<svg width="1024" height="1024" viewBox="0 0 1024 1024" fill="none" xmlns="http://www.w3.org/2000/svg">
<path d="M807 425C809.591 428.147 811.099 431.281 812.629 435.051C813.345 436.811 813.345 436.811 814.076 438.607C814.567 439.83 815.057 441.053 815.562 442.312C816.057 443.523 816.551 444.735 817.06 445.982C825.228 466.175 825.228 466.175 821.375 475.937C814.661 488.199 796.012 494.631 783.289 498.473C766.465 503.256 746.839 507.707 730 501C724.019 497.306 720.386 492.575 718 486C717.491 482.444 717.531 478.961 717.609 475.375C717.615 474.387 717.621 473.4 717.626 472.382C717.649 469.254 717.699 466.128 717.75 463C717.77 460.868 717.788 458.737 717.805 456.605C717.848 451.403 717.915 446.202 718 441C718.603 441.069 719.207 441.139 719.829 441.21C720.628 441.301 721.428 441.392 722.252 441.485C723.041 441.575 723.83 441.665 724.643 441.758C752.803 444.65 781.491 436.3 807 425Z" fill="black"/>
<path d="M216 425C216.708 425.277 217.416 425.553 218.145 425.839C243.666 435.743 273.406 446.74 301.245 440.983C302.137 440.8 303.03 440.617 303.95 440.428C304.626 440.287 305.303 440.145 306 440C306.153 446.51 306.257 453.02 306.329 459.531C306.36 461.743 306.4 463.954 306.453 466.165C306.526 469.358 306.559 472.549 306.586 475.742C306.617 476.719 306.648 477.695 306.68 478.701C306.683 486.088 304.606 491.209 300 497C291.345 504.611 279.964 504.58 269 504C253.407 502.775 239.075 498.752 224.937 492.125C224.081 491.727 223.225 491.328 222.343 490.918C214.519 487.097 205.825 482.128 202 474C197.781 458.789 209.029 439.584 215 426C215.33 425.67 215.66 425.34 216 425Z" fill="black"/>
<path d="M294 284C294.164 284.902 294.164 284.902 294.332 285.822C300.386 318.379 311.258 355.431 333.371 380.984C336.392 384.723 336.392 384.723 337 387C336.018 389.375 335.031 391.279 333.687 393.437C333.321 394.048 332.955 394.66 332.578 395.289C328.67 401.724 324.447 407.926 320 414C319.488 414.711 318.976 415.423 318.449 416.156C313.055 423.084 305.455 427.038 297 429C270.603 431.305 243.817 422.662 220 412C218.876 411.506 217.752 411.012 216.594 410.504C209.371 407.139 201.757 403.155 197.863 395.875C194.725 385.717 202.579 374.273 206.899 365.384C207.809 363.506 208.707 361.623 209.603 359.738C219.833 338.444 234.193 319.419 253 305C253.793 304.357 254.585 303.713 255.402 303.051C261.47 298.325 267.96 294.711 274.75 291.125C275.649 290.648 276.549 290.171 277.476 289.68C288.475 284 288.475 284 294 284Z" fill="black"/>
<path d="M730 284C736.034 285.14 741.454 286.735 747 289.375C748.084 289.891 748.084 289.891 749.19 290.417C787.17 309.22 808.894 344.548 825.082 382.203C826.664 387.024 827.391 390.739 825.875 395.625C816.658 412.216 790.302 418.345 773.375 423.312C756.952 427.912 734.519 433.814 718.238 426.363C712.417 422.817 708.201 419.514 704.25 413.812C703.634 412.926 703.634 412.926 703.006 412.022C689.368 392.105 689.368 392.105 687 385C687.71 384.304 687.71 384.304 688.433 383.594C695.183 376.541 699.507 368.572 704 360C704.346 359.351 704.691 358.702 705.047 358.034C717.47 334.623 725.294 310.021 730 284Z" fill="black"/>
<path d="M687.682 261.161C697.735 264.799 708.388 269.399 714.133 278.867C720.414 294.316 708.92 317.618 703 332C702.612 332.961 702.612 332.961 702.216 333.941C686.582 372.42 686.582 372.42 672 380C664.449 382.96 655.813 383.522 648.187 380.437C640.827 376.561 635.266 371.462 631.851 363.797C628.722 353.518 631.565 345.291 636 336C640.619 325.771 645.055 315.523 648.437 304.812C648.672 304.072 648.906 303.331 649.148 302.568C651.919 293.447 653.319 284.854 653.187 275.312C653.187 274.415 653.186 273.517 653.185 272.592C653.153 267.628 652.837 262.893 652 258C661.87 253.065 677.899 257.921 687.682 261.161ZM648.187 347.187C646.638 350.858 646.308 354.112 647 358C648.609 361.103 650.003 363.217 652.75 365.375C657.966 366.824 661.649 366.7 666.375 364.25C670.111 361.047 670.834 359.496 671.375 354.625C670.922 350.249 669.864 348.316 667 345C660.041 340.461 653.627 340.622 648.187 347.187Z" fill="black"/>
<path d="M367.562 256.937C368.409 257.132 369.256 257.327 370.129 257.527C371.055 257.761 371.055 257.761 372 258C371.762 259.672 371.762 259.672 371.519 261.379C368.44 286.286 374.849 308.424 385.742 330.699C395.921 351.549 395.921 351.549 392.316 364.445C388.871 372.499 381.926 377.795 374 381C366.899 383.367 358.378 383.124 351.562 380C329.089 366.662 316.737 325.189 310.5 301.375C308.725 293.676 307.655 286.271 310.062 278.625C319.954 265.223 339.479 259.202 355.34 256.619C359.642 256.057 363.297 255.916 367.562 256.937ZM354.125 348.312C352.649 351.839 352.534 354.204 353 358C354.93 362.364 356.97 364.321 361.312 366.062C364.877 367.053 366.067 366.982 369.812 366C373.238 363.85 375.067 362.557 377 359C377.688 354.697 377.479 351.159 375.812 347.125C372.721 343.501 370.308 342.166 365.562 341.562C360.345 342.203 357.407 344.264 354.125 348.312Z" fill="black"/>
</svg>
