<svg width="1024" height="1024" viewBox="0 0 1024 1024" fill="none" xmlns="http://www.w3.org/2000/svg">
<path d="M596 837C599.424 838.142 599.897 838.953 602 841.75C614.661 856.425 643.741 858.014 661.871 859.403C687.612 861.091 720.68 862.72 744 850C747.036 846.739 748.491 844.45 749 840C749.99 840.33 750.98 840.66 752 841C753.116 849.917 753.872 857.523 748.875 865.313C743.182 870.635 736.574 872.66 729.062 874.188C728.315 874.352 727.568 874.516 726.799 874.686C717.511 876.665 708.425 877.158 698.941 877.168C697.227 877.173 697.227 877.173 695.477 877.178C693.064 877.183 690.651 877.186 688.239 877.185C684.605 877.188 680.972 877.206 677.338 877.225C660.664 877.266 644.374 876.785 628.125 872.688C627.245 872.47 626.365 872.252 625.458 872.027C615.393 869.447 604.699 866.537 598 858C595.962 853.376 595.75 849.102 595.875 844.125C595.889 843.093 595.889 843.093 595.902 842.039C595.926 840.359 595.962 838.68 596 837Z" fill="black"/>
<path d="M426 836C426.33 836 426.66 836 427 836C427.081 838.897 427.141 841.791 427.188 844.688C427.213 845.504 427.238 846.321 427.264 847.162C427.334 852.942 426.441 856.087 422.668 860.59C414.636 867.902 404.153 871.014 393.75 873.25C393.05 873.401 392.349 873.552 391.628 873.708C375.212 876.931 358.813 877.346 342.132 877.316C338.506 877.313 334.88 877.336 331.254 877.362C288.987 877.476 288.987 877.476 275 866C270.386 861.386 269.885 854.905 269.812 848.688C269.836 845.725 270.05 843.849 271 841C273.062 840.313 273.062 840.313 275 840C275.062 841.073 275.124 842.145 275.188 843.25C275.679 846.997 275.679 846.997 277.938 849.188C309.843 868.07 362.977 862.15 397.258 853.425C404.998 851.379 411.951 849.078 418.398 844.137C420 843 420 843 422 843C422.289 842.402 422.577 841.804 422.875 841.188C424 839 424 839 426 836Z" fill="black"/>
<path d="M568 809C570.247 811.186 572.288 813.483 574.313 815.875C578.982 821.222 583.488 824.971 590 828C591 829 591 829 591.114 830.95C591.108 831.782 591.103 832.615 591.098 833.473C591.094 834.372 591.091 835.271 591.088 836.197C591.08 837.143 591.071 838.089 591.063 839.063C591.058 840.012 591.054 840.961 591.049 841.94C591.037 844.293 591.021 846.647 591 849C571.925 837.464 571.925 837.464 569 828C568.122 823.652 567.892 819.557 567.938 815.125C567.947 813.973 567.956 812.82 567.965 811.633C567.976 810.764 567.988 809.895 568 809Z" fill="black"/>
<path d="M454 809C454.33 809 454.66 809 455 809C455.082 811.855 455.141 814.707 455.188 817.563C455.213 818.363 455.238 819.162 455.264 819.987C455.341 826.281 454.387 830.81 450.527 835.969C445.31 840.994 439.51 845.745 433 849C432.345 844.58 431.883 840.219 431.75 835.75C431.711 834.536 431.711 834.536 431.672 833.297C432.082 830.425 433.044 829.113 435 827C437 826 439 825 441 824C446.198 820.395 449.531 816.113 452.836 810.758C453.412 809.888 453.412 809.888 454 809Z" fill="black"/>
<path d="M716 793C716.765 793.251 717.531 793.501 718.319 793.759C731.2 798.092 738.507 801.718 744.875 814.125C748.475 821.502 749.317 827.145 748.875 835.313C748 837 748 837 745.312 838C744.219 838.33 743.126 838.66 742 839C740.67 839.952 740.67 839.952 739.312 840.922C735.466 843.335 732.079 844.299 727.688 845.25C726.939 845.419 726.19 845.588 725.418 845.763C720.181 846.888 715.365 847.479 710 847C708.105 845.105 708.463 841.728 708.188 839.188C706.871 828.43 703.831 813.226 695 806C691.892 805.273 691.892 805.273 689 805C688.7 810.306 689.399 813.598 691.812 818.313C696.182 827.33 698.93 835.883 699 846C698 848 698 848 696.296 848.615C670.525 852.941 632.657 850.172 610 836C608.309 834.697 606.634 833.373 605 832C606.183 822.028 612.599 814.495 620.098 808.192C633.942 797.738 649.735 791.314 667 789C667.833 788.879 668.665 788.758 669.523 788.633C685.094 786.845 701.119 788.093 716 793ZM683 793C682.23 795.346 682.23 795.346 682 798C683.063 799.98 683.063 799.98 685 801C687.163 800.773 687.163 800.773 689 800C689.772 798.163 689.772 798.163 690 796C688.897 794.147 688.897 794.147 687 793C685.68 793 684.36 793 683 793Z" fill="black"/>
<path d="M407.031 811.715C411.615 815.987 415.668 821.151 418 827C417.822 829.779 417.455 831.388 415.793 833.625C394.732 851.663 354.858 850.342 329 849C326.623 848.49 326.623 848.49 325 848C324.315 836.579 327.385 826.604 332.766 816.641C334.425 813.092 334.596 810.834 334 807C332.957 805.762 332.957 805.762 330.688 805.625C327.837 805.738 327.837 805.738 326.023 808.086C318.362 819.12 315.29 833.845 314 847C307.458 847.416 301.663 846.705 295.313 845.25C294.244 845.015 294.244 845.015 293.155 844.775C288.179 843.571 284.367 841.662 280 839C279.051 838.65 278.103 838.299 277.125 837.938C276.424 837.628 275.723 837.319 275 837C272.392 829.176 274.769 821.531 278.289 814.383C286.12 800.606 296.71 795.935 311.458 791.675C344.702 782.599 380.535 789.346 407.031 811.715ZM334.188 794.188C332.784 795.936 332.784 795.936 333.125 798.125C333.414 798.744 333.702 799.363 334 800C334.99 800.33 335.98 800.66 337 801C339.19 799.629 339.19 799.629 341 798C340.67 796.68 340.34 795.36 340 794C336.993 792.842 336.993 792.842 334.188 794.188Z" fill="black"/>
<path d="M681.895 720.809C683.952 722.177 685.977 723.582 688 725C689.66 726.011 691.325 727.015 693 728C693.99 728.66 694.98 729.32 696 730C696.117 732.399 696.117 732.399 695.875 735.375C695.536 750.288 705.764 762.917 715.488 773.281C726 784.66 726 784.66 726 788C717 785 717 785 715.003 784.282C709.603 782.385 704.344 781.2 698.688 780.375C697.863 780.247 697.038 780.118 696.189 779.986C691.493 779.278 686.873 778.837 682.125 778.625C677.969 778.37 677.294 778.258 674 775.375C673.01 774.2 673.01 774.2 672 773C669.725 773.045 669.725 773.045 668 774C667.67 775.65 667.34 777.3 667 779C665.529 779.238 665.529 779.238 664.027 779.481C640.221 783.51 616.885 793.026 602 813C599.826 816.587 597.855 820.24 596 824C595.34 824 594.68 824 594 824C593.017 822.551 592.09 821.064 591.188 819.563C587.312 813.81 582.821 810.7 577.086 807.008C576.068 806.345 575.049 805.683 574 805C573.055 804.41 572.11 803.819 571.137 803.211C568.685 800.675 568.382 799.105 568.357 795.619C568.384 794.92 568.41 794.22 568.438 793.5C568.451 792.767 568.465 792.034 568.479 791.278C568.899 780.082 571.219 768.542 575 758C575.66 758 576.32 758 577 758C577.268 758.641 577.536 759.282 577.812 759.942C580.737 766.396 583.967 771.128 590 775C593.203 776.208 593.203 776.208 596 776C596.99 775.01 596.99 775.01 598 774C598.141 771.527 598.141 771.527 597 769C595.6 768.067 594.192 767.142 592.746 766.281C589.066 763.581 586.64 759.669 584 756C583.499 755.418 582.997 754.835 582.48 754.235C577.308 747.616 578.1 739.026 578 731C579.98 730.01 581.96 729.02 584 728C585.739 732.799 587.11 737.382 587.875 742.438C588.258 744.905 588.258 744.905 589 747C591.457 748.756 591.457 748.756 594 749C593.67 748.01 593.34 747.02 593 746C592.799 744.045 592.637 742.086 592.5 740.125C592.115 734.506 592.115 734.506 591 729C589.032 727.64 589.032 727.64 587 727C590.884 723.823 595.245 721.533 599.625 719.125C600.437 718.679 601.249 718.233 602.085 717.773C603.684 716.897 605.284 716.024 606.886 715.153C608.567 714.236 610.242 713.308 611.914 712.375C637.149 698.872 659.313 706.699 681.895 720.809ZM647 731C645.674 732.646 645.674 732.646 645 735C646.283 738.234 646.283 738.234 648 741C648.66 741 649.32 741 650 741C649.67 742.32 649.34 743.64 649 745C647.585 745.329 647.585 745.329 646.141 745.664C631.893 748.935 631.893 748.935 620.152 757.016C618.725 759.019 618.725 759.019 619.312 761.75C619.539 762.493 619.766 763.235 620 764C624.674 765.5 627.033 764.376 631.312 762.188C648.034 754.08 666.491 754.787 684.383 758.344C688.043 759.119 688.043 759.119 692 759C691.776 755.979 690.828 754.804 688.812 752.5C680.976 746.422 669.398 745.552 659.863 744.688C657 744 657 744 655.16 742.164C654 740 654 740 653.125 736.375C652.362 732.812 652.362 732.812 649.375 731.563C648.591 731.377 647.808 731.191 647 731ZM661 761C660.14 763.293 660.14 763.293 660 766C661.563 768.48 661.563 768.48 664 770C666.204 770.096 666.204 770.096 668 769C669.251 766.162 669.251 766.162 668.438 763.875C667.057 761.667 667.057 761.667 663.875 761.25C662.926 761.168 661.978 761.085 661 761Z" fill="black"/>
<path d="M430 723C431.346 723.983 432.685 724.977 434 726C433.691 726.825 433.381 727.65 433.062 728.5C430.61 736.579 430.885 744.629 431 753C432.32 753 433.64 753 435 753C435.121 751.698 435.242 750.396 435.367 749.055C435.536 747.328 435.705 745.602 435.875 743.875C435.954 743.019 436.032 742.163 436.113 741.281C436.582 736.592 437.272 732.429 439 728C444.875 731.625 444.875 731.625 446 735C447.242 745.847 441.666 753.831 435.502 762.187C433.246 764.91 430.868 766.928 428 769C427.34 769 426.68 769 426 769C426.33 771.31 426.66 773.62 427 776C432.495 775.863 435.312 773.561 439.172 769.973C441.769 767.171 443.317 764.431 445 761C445.412 760.196 445.825 759.391 446.25 758.563C446.621 757.789 446.621 757.789 447 757C447.66 757 448.32 757 449 757C449.817 760.041 450.628 763.083 451.438 766.125C451.668 766.981 451.898 767.837 452.135 768.719C454.152 776.319 455.181 783.328 455.188 791.188C455.2 791.994 455.212 792.8 455.225 793.631C455.227 794.406 455.228 795.182 455.23 795.981C455.235 796.681 455.239 797.381 455.243 798.102C455 800 455 800 453 803C451.845 803.536 450.69 804.073 449.5 804.625C442.834 807.788 436.549 813.151 432.625 819.438C430.88 822.19 429.884 822.724 427 824C426.72 823.383 426.441 822.765 426.152 822.129C417.216 803.251 400.224 791.424 380.852 784.434C373.249 781.89 365.619 780.196 357.695 778.969C355 778 355 778 353.617 775.406C353.414 774.612 353.21 773.818 353 773C350.669 772.581 350.669 772.581 348 773C347.475 773.81 346.951 774.619 346.41 775.453C342.878 779.186 339.64 778.843 334.688 779.063C322.729 779.922 311.854 782.408 300.855 787.363C300.243 787.574 299.631 787.784 299 788C298.34 787.67 297.68 787.34 297 787C301.028 781.841 305.12 776.809 309.562 772C318.497 762.158 327.078 750.837 327.133 737.098C326.979 734.669 326.52 732.375 326 730C363.925 706.167 390.163 697.944 430 723ZM369.355 733.121C367.751 735.346 367.16 737.459 366.312 740.063C365.027 742.762 365.027 742.762 363 745C358.997 746.096 355.225 746.394 351.102 746.66C344.396 747.097 338.225 748.879 333.312 753.563C331.763 755.979 331.763 755.979 332 759C336.88 758.512 341.625 757.884 346.438 756.938C363.385 754.088 379.74 755.76 395.062 763.793C398.314 765.129 400.518 765.381 404 765C404.99 764.01 404.99 764.01 406 763C405.895 759.955 404.86 758.843 402.816 756.559C394.96 749.421 384.192 746.902 374 745C374.33 744.01 374.66 743.02 375 742C375.067 740.439 375.085 738.875 375.062 737.313C375.053 736.504 375.044 735.696 375.035 734.863C375.024 734.249 375.012 733.634 375 733C372.071 731.844 372.071 731.844 369.355 733.121ZM354.75 761.688C352.598 764.048 352.598 764.048 353 768C355.31 768.33 357.62 768.66 360 769C361.429 766.646 362.087 765.52 361.625 762.75C361.419 762.173 361.213 761.595 361 761C358.049 759.736 357.393 759.705 354.75 761.688Z" fill="black"/>
<path d="M643 654C645.719 655.645 645.719 655.645 648.5 657.813C654.532 662.266 660.928 665.834 667.562 669.313C668.507 669.816 669.452 670.319 670.426 670.837C680.762 676.187 690.243 679.833 702 679C716.685 706.846 716.685 706.846 715 719C713.437 722 713.437 722 711 724C705.287 724.616 702.052 723.367 697.187 720.438C696.067 719.776 694.947 719.115 693.793 718.434C690.863 716.606 688.066 714.627 685.262 712.613C679.941 708.861 674.393 705.758 668.625 702.75C667.674 702.235 666.722 701.719 665.742 701.188C652.457 694.222 638.839 691.736 624.227 695.852C612.363 700.074 601.648 706.91 590.887 713.335C570.632 725.406 570.632 725.406 564 725C560.901 723.088 559.387 721.611 558.52 718C557.763 705.896 564.218 690.505 570 680C573 679 573 679 576.375 679.688C587.34 681.163 598.579 674.035 607.977 669.069C609.967 668.018 611.965 666.982 613.965 665.949C620.76 662.408 627.239 658.692 633.437 654.153C637.048 652.529 639.207 653.01 643 654Z" fill="black"/>
<path d="M389 654C391.621 655.426 391.621 655.426 394.438 657.313C420.735 674.879 420.735 674.879 450.781 679.508C451.513 679.34 452.246 679.173 453 679C465.589 704.567 465.589 704.567 465 718C463.775 721.158 462.983 722.404 460.121 724.141C456.212 725.724 452.764 724.417 449 723C441.184 719.211 433.802 714.523 426.438 709.938C409.815 699.669 393.589 690.804 373.375 695C358.355 699.172 345.045 707.648 332.186 716.208C319.902 724.383 319.902 724.383 312 724C309.759 722.422 309.101 721.423 308.461 718.75C308.013 704.429 315.284 690.326 322 678C322.559 678.13 323.119 678.261 323.695 678.395C341.099 681.389 363.151 666.641 377 657C377.587 656.554 378.173 656.108 378.777 655.649C382.589 652.797 384.444 652.85 389 654Z" fill="black"/>
<path d="M721 378C722.723 387.396 723.387 396.517 723.375 406.063C723.375 406.751 723.375 407.439 723.374 408.149C723.33 422.666 721.579 436.715 719 451C718.834 451.962 718.668 452.923 718.497 453.914C716.105 467.629 712.772 481.09 709.411 494.59C694.946 552.735 682.949 609.787 698 669C696 670 696 670 692.684 669.102C682.703 665.734 673.412 661.606 664.307 656.315C662.801 655.457 661.281 654.622 659.746 653.816C646.729 646.928 646.729 646.928 644.075 640.898C642.631 634.743 643.174 628.456 643.48 622.195C643.522 619.998 643.554 617.799 643.577 615.601C643.638 610.593 643.74 605.587 643.86 600.579C644.067 591.097 643.949 581.622 643.823 572.14C643.776 568.566 643.73 564.992 643.684 561.418C643.672 560.513 643.66 559.609 643.648 558.678C643.494 546.512 643.451 534.345 643.4 522.178C643.359 512.479 643.298 502.781 643.191 493.082C643.096 484.468 643.036 475.854 643.018 467.239C643.008 462.723 642.982 458.207 642.912 453.691C642.848 449.482 642.831 445.276 642.851 441.067C642.849 439.532 642.831 437.997 642.794 436.463C642.532 424.935 642.532 424.935 646.174 420.136C648.678 417.851 651.2 415.905 654 414C655.238 413.019 656.472 412.031 657.695 411.031C671.515 400.666 685.845 393.356 701.865 386.893C707.062 384.777 715.792 378 721 378Z" fill="black"/>
<path d="M303 378C303.935 378.485 304.869 378.97 305.832 379.469C313.337 383.314 320.883 386.864 328.688 390.063C344.105 396.426 358.419 404.331 370.648 415.824C373.013 418.125 373.013 418.125 376.096 420.08C378.677 422.243 379.448 423.676 379.775 427.026C379.817 428.648 379.826 430.271 379.809 431.893C379.83 433.237 379.83 433.237 379.852 434.609C379.893 437.613 379.89 440.616 379.887 443.62C379.907 445.774 379.929 447.928 379.953 450.081C380.011 455.933 380.029 461.783 380.036 467.635C380.043 471.292 380.058 474.948 380.075 478.604C380.137 491.362 380.166 504.119 380.167 516.877C380.168 528.766 380.24 540.654 380.345 552.542C380.432 562.751 380.469 572.96 380.467 583.169C380.467 589.266 380.487 595.362 380.558 601.458C380.623 607.195 380.625 612.928 380.58 618.665C380.574 620.768 380.59 622.87 380.63 624.972C380.907 640.44 380.907 640.44 377.719 644.72C374.26 648.003 370.319 650.004 366 652C364.552 652.862 363.111 653.735 361.688 654.637C360.463 655.329 359.234 656.012 358 656.688C357.337 657.056 356.674 657.424 355.991 657.803C349.807 661.192 343.479 664.213 337 667C336.179 667.383 335.358 667.766 334.512 668.16C331.564 669.146 329.087 669.144 326 669C326.254 667.956 326.508 666.912 326.77 665.836C334.265 634.223 335.498 602.064 330 570C329.772 568.639 329.544 567.278 329.316 565.916C324.667 538.373 318.546 511.187 311.789 484.09C307.739 467.824 304.117 451.652 302 435C301.879 434.078 301.758 433.155 301.633 432.205C299.368 414.277 298.901 395.691 303 378Z" fill="black"/>
<path d="M548 376C550.128 377.049 552.23 378.125 554.312 379.262C560.648 382.623 566.96 385.105 573.75 387.375C582.968 390.483 591.469 394.345 600 399C601.056 399.565 602.111 400.129 603.199 400.711C610.435 404.741 617.029 409.459 623.413 414.725C625.005 416.036 625.005 416.036 626.801 417.242C629.455 419.197 631.599 420.79 632.659 423.989C632.926 426.364 632.972 428.654 632.943 431.044C632.968 432.395 632.968 432.395 632.993 433.773C633.039 436.786 633.036 439.797 633.033 442.81C633.055 444.972 633.081 447.134 633.109 449.296C633.175 455.166 633.195 461.035 633.204 466.906C633.211 470.575 633.228 474.243 633.248 477.912C633.319 490.717 633.352 503.52 633.352 516.325C633.353 528.254 633.435 540.18 633.556 552.108C633.656 562.354 633.698 572.6 633.696 582.847C633.696 588.965 633.718 595.081 633.8 601.198C633.875 606.955 633.877 612.707 633.825 618.464C633.818 620.572 633.836 622.681 633.882 624.789C634.2 640.26 634.2 640.26 630.547 644.81C627.045 647.952 623.155 650.136 618.905 652.109C617.026 652.988 615.236 653.955 613.434 654.982C610.413 656.703 607.348 658.297 604.25 659.875C603.217 660.417 602.185 660.958 601.121 661.516C582.994 670.864 582.994 670.864 575 670C575.111 669.438 575.221 668.877 575.335 668.298C586.694 610.027 576.592 557.958 557.84 502.449C552.232 485.847 546.988 469.296 544 452C543.774 450.712 543.549 449.425 543.316 448.098C539.839 424.091 540.792 399.209 548 376ZM559 397C558.833 400 558.833 400 559 403C560.054 404.265 560.054 404.265 562.437 404.25C563.283 404.168 564.129 404.085 565 404C567.286 401.297 567.286 401.297 566.687 398.875C566.154 397.014 566.154 397.014 565 396C561.711 395.594 561.711 395.594 559 397ZM557 422C556.315 424.858 556.315 424.858 556 428C556.99 429.485 556.99 429.485 558 431C559.959 430.887 559.959 430.887 562 430C563.494 427.681 563.494 427.681 564 425C563.34 424.01 562.68 423.02 562 422C559.416 421.75 559.416 421.75 557 422ZM558.375 441.5C557.921 441.995 557.467 442.49 557 443C557.66 444.65 558.32 446.3 559 448C560.65 447.67 562.3 447.34 564 447C564.772 445.163 564.772 445.163 565 443C563.77 441.187 563.77 441.187 562 440C559.876 439.774 559.876 439.774 558.375 441.5ZM560 458C559.583 460.5 559.583 460.5 560 463C560.66 463.66 561.32 464.32 562 465C564.603 464.68 564.603 464.68 567 464C567.864 462.219 567.864 462.219 568 460C566.208 457.708 566.208 457.708 564 456C562.538 455.908 562.538 455.908 560 458ZM568 476C567.34 476.66 566.68 477.32 566 478C566.32 480.603 566.32 480.603 567 483C568.65 483.33 570.3 483.66 572 484C572.66 482.68 573.32 481.36 574 480C572.705 477.94 572.705 477.94 571 476C570.01 476 569.02 476 568 476Z" fill="black"/>
<path d="M473 376C473.66 376 474.32 376 475 376C485.899 402.47 483.419 432.549 478 460C477.845 460.827 477.689 461.653 477.529 462.505C473.167 485.16 464.957 507.329 457.593 529.155C450.75 549.464 445.994 569.642 444 591C443.907 591.899 443.814 592.797 443.719 593.723C441.164 619.343 444.059 644.837 449 670C444.147 670.283 440.29 669.36 435.812 667.625C434.787 667.234 434.787 667.234 433.741 666.834C420.961 661.765 408.173 655.019 397 647C395.978 646.324 394.955 645.648 393.902 644.951C391.329 642.773 390.555 641.334 390.248 637.979C390.216 636.359 390.217 634.738 390.245 633.118C390.236 632.223 390.228 631.328 390.219 630.406C390.197 627.406 390.218 624.408 390.239 621.408C390.233 619.258 390.224 617.108 390.212 614.958C390.189 609.117 390.204 603.276 390.227 597.435C390.246 591.326 390.235 585.218 390.228 579.109C390.222 568.849 390.24 558.59 390.273 548.331C390.31 536.465 390.308 524.599 390.286 512.734C390.265 501.325 390.272 489.916 390.292 478.508C390.3 473.65 390.298 468.792 390.288 463.934C390.277 458.214 390.291 452.496 390.325 446.776C390.333 444.676 390.333 442.575 390.323 440.474C390.312 437.609 390.331 434.746 390.358 431.882C390.348 431.048 390.337 430.214 390.327 429.354C390.403 425.035 390.637 423.459 393.415 419.945C396 418 396 418 398 418C398 417.34 398 416.68 398 416C414.161 401.598 433.863 392.738 454.121 385.75C464.349 382.213 464.349 382.213 473 376ZM460 395C459.34 395.66 458.68 396.32 458 397C458.323 400.597 458.323 400.597 459 404C460.666 404.043 462.334 404.041 464 404C465.332 402.889 465.332 402.889 465.187 400.063C465.333 396.891 465.333 396.891 463 395C462.01 395 461.02 395 460 395ZM462 421C459.751 422.827 459.751 422.827 459.75 425.5C459.751 428.173 459.751 428.173 462 430C465.307 429.71 465.307 429.71 468 428C468.333 425.542 468.333 425.542 468 423C465.185 420.723 465.185 420.723 462 421ZM462 440C460.515 440.99 460.515 440.99 459 442C458.667 444.542 458.667 444.542 459 447C460.066 448.297 460.066 448.297 462.562 448.063C463.367 448.042 464.171 448.021 465 448C465.33 446.02 465.66 444.04 466 442C464.68 441.34 463.36 440.68 462 440ZM459 456C457.515 456.99 457.515 456.99 456 458C455.583 460.5 455.583 460.5 456 463C456.66 463.66 457.32 464.32 458 465C460.935 464.633 461.864 464.136 464 462C463.986 459.943 463.986 459.943 463 458C461.016 456.716 461.016 456.716 459 456ZM452 476C450.283 478.445 450.283 478.445 449 481C449.99 482.485 449.99 482.485 451 484C452.65 483.67 454.3 483.34 456 483C456.68 480.603 456.68 480.603 457 478C456.34 477.34 455.68 476.68 455 476C454.01 476 453.02 476 452 476Z" fill="black"/>
<path d="M464 326C466.085 330.028 467.563 334.166 469.063 338.438C469.331 339.189 469.6 339.939 469.877 340.713C472.04 346.846 473.577 352.42 473 359C468.449 367.921 460.968 371.883 451.875 375.063C450.943 375.404 450.011 375.746 449.05 376.098C446.372 377.079 443.687 378.043 441 379C422.887 385.499 407.025 394.687 392.277 407.117C387.695 410.906 387.695 410.906 384.551 411.332C381.339 410.914 380.442 409.979 378.188 407.688C371.707 401.615 364.446 396.802 357 392C356.394 391.607 355.787 391.214 355.163 390.808C345.079 384.395 334.252 380.15 323.022 376.156C315.08 373.226 306.249 369.526 301.756 361.884C297.674 351.712 303.374 338.031 306 328C313.361 327.571 313.361 327.571 316.188 329.469C316.786 330.139 317.384 330.81 318 331.5C329.226 342.221 345.842 346.853 360.109 352.345C360.802 352.612 361.494 352.879 362.207 353.154C363.572 353.68 364.937 354.205 366.302 354.728C370.347 356.295 374.238 358.047 378.137 359.957C381.219 361.377 382.791 361.998 386.227 362.031C389.726 360.73 393.05 359.186 396.375 357.5C403.493 354.008 410.74 351.148 418.188 348.438C431.686 343.478 444.621 338.38 455 328C456.512 327.609 458.035 327.26 459.563 326.938C460.389 326.761 461.215 326.584 462.066 326.403C462.705 326.27 463.343 326.137 464 326Z" fill="black"/>
<path d="M559 327C564.558 327 567.282 327.909 571.5 331.563C582.98 341.27 597.476 345.847 611.396 350.977C619.219 353.877 626.702 357.015 634.055 360.953C639.142 362.762 642.819 361.505 647.664 359.434C648.988 358.775 650.308 358.11 651.625 357.438C658.149 354.228 664.739 351.506 671.562 349C684.669 344.117 695.953 339.104 706.516 329.789C710.355 327.024 713.343 326.924 718 327C718.083 328.176 718.165 329.351 718.25 330.563C718.724 335.038 719.836 339.247 721.062 343.563C724.506 355.988 724.506 355.988 721.438 362.125C714.449 370.368 707.067 373.288 697.243 377.118C677.573 384.855 659.181 394.43 644.133 409.567C641.122 411.59 639.572 411.62 636 411C633.468 409.48 631.333 407.577 629.125 405.625C612.519 391.717 593.536 382.06 572.937 375.47C564.482 372.712 557.176 369.441 552 362C549.284 353.851 552.374 346.825 555 339C555.382 337.843 555.763 336.685 556.156 335.492C557.094 332.658 558.042 329.828 559 327Z" fill="black"/>
<path d="M694.531 225.942C699.487 230.143 703.338 234.788 707.078 240.094C708.867 242.241 708.867 242.241 711.609 242.406C714.179 242.207 714.179 242.207 716 240C718.453 239.263 720.817 238.658 723.312 238.125C724.309 237.874 724.309 237.874 725.326 237.617C728.963 236.84 730.626 236.78 733.871 238.688C735.831 240.817 736.859 242.168 737.75 244.875C737.972 245.512 738.193 246.149 738.422 246.805C740.264 253.8 740.22 260.74 740.24 267.928C740.25 269.967 740.281 272.005 740.312 274.043C740.416 286.887 739.475 301.074 730.312 310.875C724.753 314.442 719.235 314.931 712.75 315.375C708.31 315.786 706.146 316.679 703 320C702.636 320.508 702.273 321.016 701.898 321.539C692.377 334.331 672.557 338.848 658.245 343.862C656.094 344.616 653.95 345.391 651.814 346.186C650.796 346.552 649.779 346.919 648.73 347.297C647.841 347.625 646.952 347.954 646.036 348.292C638.8 349.98 632.671 349.013 625.809 346.438C625.06 346.168 624.312 345.899 623.541 345.621C621.964 345.049 620.39 344.471 618.819 343.885C616.473 343.014 614.12 342.167 611.764 341.324C604.057 338.529 596.527 335.478 589.16 331.875C588.185 331.407 588.185 331.407 587.19 330.928C581.76 328.181 578.234 324.799 574.812 319.813C570.349 315.349 565.291 315.14 559.152 314.879C553.464 314.621 549.603 314.155 545.547 309.916C540.62 303.814 539.196 296.342 538.25 288.75C538.129 287.823 538.009 286.897 537.884 285.942C536.56 275.212 536.806 265.261 538.25 254.563C538.359 253.709 538.468 252.856 538.581 251.977C539.382 246.661 540.579 243.184 544 239C548.547 236.727 555.313 238.69 560.062 240C563 241 563 241 564 242C566.97 242.182 568.332 242.174 571 241C573.173 238.724 574.977 236.279 576.859 233.758C588.898 218.248 606.422 212.283 624.91 208.387C649.731 205.28 674.53 210.601 694.531 225.942ZM560.434 248.25C558.837 250.2 558.146 251.795 557.375 254.188C557.135 254.903 556.895 255.619 556.648 256.356C553.664 268.526 554.175 281.929 556.312 294.188C556.43 294.87 556.548 295.551 556.669 296.254C557.56 300.869 558.817 304.86 561 309C564.54 310.15 564.54 310.15 568 310C569.365 308.86 569.365 308.86 569.156 305.813C569.01 302.244 568.444 299.425 567.5 296C566.001 289.377 565.696 283.033 565.687 276.25C565.682 275.292 565.677 274.335 565.672 273.348C565.726 267.761 566.303 262.581 567.555 257.134C568.301 253.558 568.652 250.305 567 247C563.452 246.641 563.452 246.641 560.434 248.25ZM710 249C709.94 251.018 709.94 251.018 710.312 253.25C710.412 253.998 710.511 254.746 710.613 255.516C710.879 257.222 711.186 258.921 711.527 260.613C713.285 273.207 712.763 286.532 709.656 298.844C708.937 302.303 708.893 305.477 709 309C711.24 309.95 711.24 309.95 714 310C718.997 306.669 720.015 302.591 721.422 296.914C722.929 289.317 723.215 281.975 723.25 274.25C723.271 273.134 723.291 272.018 723.312 270.867C723.401 258.866 723.401 258.866 718.556 248.216C716.988 246.775 716.988 246.775 714.437 246.688C711.822 246.771 711.822 246.771 710 249Z" fill="black"/>
<path d="M437 224C442.71 228.48 447.216 233.207 451.297 239.215C453.475 241.498 454.876 241.848 458 242C458.99 241.34 459.98 240.68 461 240C464.626 239.078 468.3 238.542 472 238C473.114 237.835 474.227 237.67 475.375 237.5C478.63 238.12 480.034 239.52 481.969 242.168C490.353 257.063 487.185 283.357 483.223 299.086C481.284 305.293 478.894 309.89 473 313C468.833 314.373 464.681 314.902 460.312 315.156C454.799 315.444 454.799 315.444 450.125 318.25C448.82 319.939 447.559 321.662 446.375 323.438C436.69 333.888 418.638 338.748 405.305 343.153C403.102 343.883 400.907 344.632 398.711 345.383C397.289 345.858 395.868 346.332 394.445 346.805C393.478 347.138 393.478 347.138 392.491 347.477C386.996 349.262 381.655 349.87 376.117 347.969C375.436 347.74 374.754 347.51 374.052 347.274C373.334 347.019 372.615 346.763 371.875 346.5C371.104 346.233 370.334 345.966 369.54 345.691C367.021 344.809 364.51 343.907 362 343C361.128 342.69 360.257 342.38 359.359 342.06C328.901 331.153 328.901 331.153 321.187 321.125C317.46 316.555 314.845 315.362 309.185 314.724C307.598 314.619 306.009 314.544 304.419 314.503C299.139 314.359 296.215 313.506 292 310C286.598 304.223 285.339 296.54 284 289C283.867 288.262 283.734 287.523 283.598 286.762C281.705 273.411 280.701 252.728 288 241C290.27 238.551 290.27 238.551 293 237C296.262 237.231 296.262 237.231 299.687 238.188C301.395 238.642 301.395 238.642 303.137 239.106C306 240 306 240 308 241C311.508 241.39 313.4 241.369 316.437 239.5C318.511 237.477 320.37 235.445 322.25 233.25C350.053 201.238 403.633 199.315 437 224ZM306.938 246.375C301.217 251.173 300.979 260.631 300.289 267.586C299.351 279.61 299.044 298.661 306.969 308.426C308.931 310.227 308.931 310.227 311.688 310.313C313.959 310.244 313.959 310.244 315 309C314.869 304.473 314.055 300.019 313 295.625C311.795 290.447 311.311 285.302 311 280C310.946 279.148 310.892 278.296 310.836 277.418C310.621 270.911 311.611 264.894 313.021 258.57C313.839 254.745 314.248 251.752 313 248C310.781 246.24 309.728 245.868 306.938 246.375ZM455 249C455.21 251.724 455.559 254.309 456 257C458.681 273.973 457.923 289.183 454.172 305.961C454.115 306.634 454.058 307.307 454 308C455.869 310.309 455.869 310.309 458.875 310.188C462.424 308.839 462.691 308.401 464.25 305.125C469.142 292.195 469.766 277.576 468.25 263.938C468.176 263.248 468.102 262.558 468.026 261.847C467.31 256.329 466.024 251.024 462 247C458.033 246.565 458.033 246.565 455 249Z" fill="black"/>
<path d="M700.188 174.375C713.098 186.345 723.344 203.302 724.098 221.336C724.065 223.224 724.033 225.112 724 227C719.51 228.171 715.611 228.696 711 228C708.307 225.815 706.382 223.646 704.23 220.966C692.035 205.9 671.453 199.789 653 197C637.684 196.057 622.69 196.351 608 201C607.298 201.22 606.596 201.439 605.873 201.666C591.672 206.247 578.724 213.498 569.168 225.254C566.04 227.773 563.698 227.396 559.75 227.25C558.487 227.214 557.223 227.178 555.922 227.141C554.958 227.094 553.993 227.048 553 227C552.449 208.169 562.567 190.497 575 177C575.549 176.371 576.098 175.742 576.664 175.094C611.952 136.851 663.722 142.89 700.188 174.375Z" fill="black"/>
<path d="M444.242 172.446C457.964 185.157 467.911 201.379 471 220C471.053 222.333 471.068 224.668 471 227C460.853 229.03 460.853 229.03 457 228C455.074 226.28 453.606 224.379 452.012 222.348C438.893 207.038 416.333 199.38 397 197C392.495 196.74 388.011 196.719 383.5 196.75C382.367 196.742 381.234 196.735 380.066 196.727C369.442 196.751 359.426 198.062 349.438 201.75C348.354 202.144 348.354 202.144 347.248 202.545C337.362 206.239 329.128 211.301 321 218C319.608 219.052 319.608 219.052 318.188 220.125C315.871 221.937 315.871 221.937 314.285 224.598C312 227 312 227 308.766 227.488C307.605 227.43 306.445 227.372 305.25 227.313C304.08 227.268 302.909 227.222 301.703 227.176C300.811 227.118 299.919 227.06 299 227C299.442 208.052 307.806 189.488 321 176C358.404 141.731 405.476 139.643 444.242 172.446Z" fill="black"/>
</svg>
