<svg width="1024" height="1024" viewBox="0 0 1024 1024" fill="none" xmlns="http://www.w3.org/2000/svg">
<path d="M516 313C518.45 314.658 520.541 316.258 522.75 318.188C524.067 319.287 525.388 320.383 526.711 321.477C527.405 322.053 528.1 322.63 528.815 323.224C570.234 356.903 623.702 384.994 677.381 390.8C680.701 391.234 683.014 392.009 685.863 393.777C692.149 403.257 690.391 418.264 690.476 429.328C690.485 430.232 690.493 431.135 690.501 432.066C690.542 436.836 690.571 441.605 690.59 446.375C690.612 451.277 690.681 456.177 690.76 461.078C690.813 464.875 690.83 468.672 690.837 472.469C690.846 474.276 690.87 476.083 690.907 477.889C691.213 493.709 691.213 493.709 686.089 499.285C685.365 499.94 684.642 500.595 683.896 501.269C681.319 503.622 680.559 505.889 679.719 509.234C679.425 510.344 679.131 511.453 678.828 512.596C678.555 513.719 678.281 514.843 678 516C677.407 518.193 676.813 520.386 676.219 522.578C675.642 524.801 675.069 527.025 674.5 529.25C674.196 530.429 673.892 531.608 673.578 532.822C671.768 539.88 670.047 546.953 668.418 554.055C666.708 561.421 664.654 568.688 662.58 575.958C662.072 577.748 661.572 579.54 661.074 581.332C660.076 584.896 659.044 588.449 658 592C657.568 593.48 657.568 593.48 657.128 594.991C656.118 598.435 655.092 601.874 654.062 605.312C653.738 606.422 653.414 607.532 653.081 608.676C649.54 620.379 644.429 628.212 636 637C635.128 637.967 635.128 637.967 634.238 638.953C611.254 663.539 576.324 681.84 545 693C543.809 693.432 542.618 693.864 541.39 694.309C510.306 705.175 485.486 698.075 456.463 684.282C442.796 677.567 429.385 669.87 417 661C416.091 660.351 416.091 660.351 415.163 659.689C405.476 652.736 396.578 645.275 388 637C387.302 636.366 386.605 635.732 385.887 635.078C373.877 623.894 369.523 608.448 365.746 593.008C365.078 590.316 364.371 587.642 363.633 584.969C360.527 573.713 357.592 562.429 354.793 551.094C354.508 549.944 354.224 548.794 353.931 547.61C352.484 541.76 351.046 535.908 349.619 530.053C349.076 527.848 348.532 525.643 347.988 523.438C347.626 521.932 347.626 521.932 347.256 520.397C344.468 508.282 344.468 508.282 337.299 498.553C331.574 492.409 333.087 483.016 333.211 475.152C333.216 473.294 333.219 471.436 333.219 469.577C333.227 465.686 333.258 461.796 333.307 457.905C333.369 452.958 333.388 448.012 333.391 443.065C333.395 439.226 333.416 435.387 333.443 431.547C333.455 429.726 333.463 427.904 333.469 426.083C333.566 404.267 333.566 404.267 337 394C340.508 391.661 343.62 391.249 347.687 390.625C355.562 389.322 363.239 387.605 370.948 385.546C373.039 384.99 375.134 384.452 377.23 383.914C423.826 371.72 466.99 347.705 503.191 316.086C503.871 315.521 504.55 314.957 505.25 314.375C505.812 313.888 506.374 313.4 506.953 312.898C510.291 311.433 512.523 312.083 516 313ZM362 437C361.675 442.243 362.534 446.661 364.062 451.625C365.809 457.517 367.355 463.419 368.715 469.414C368.862 470.059 369.01 470.703 369.162 471.367C369.901 474.599 370.625 477.832 371.324 481.073C373.28 490.117 373.28 490.117 379 497C381.661 498.254 384.322 498.929 387.187 499.562C388.011 499.762 388.835 499.962 389.684 500.168C397.625 502.041 405.653 503.502 413.674 504.985C423.302 506.79 432.787 509.053 442.293 511.409C450.102 513.334 457.926 515.05 465.812 516.625C495.848 522.772 495.848 522.772 504 535C504.347 537.832 504.347 537.832 504.486 541.331C504.543 542.648 504.6 543.964 504.658 545.321C504.711 546.771 504.764 548.222 504.816 549.672C504.877 551.177 504.939 552.681 505.001 554.186C505.166 558.21 505.318 562.233 505.468 566.257C505.593 569.574 505.725 572.89 505.858 576.206C506.627 595.562 507.343 614.921 507.709 634.29C507.895 643.88 508.376 653.43 509 663C510.656 663.382 512.324 663.714 514 664C515.652 662.348 515.18 660.39 515.232 658.112C515.258 657.054 515.284 655.995 515.311 654.905C515.336 653.733 515.36 652.562 515.385 651.355C515.447 648.813 515.508 646.271 515.569 643.729C515.6 642.359 515.632 640.989 515.663 639.619C515.76 635.386 515.87 631.154 515.983 626.922C516.012 625.851 516.012 625.851 516.041 624.758C516.08 623.298 516.119 621.837 516.158 620.377C516.42 610.521 516.675 600.666 516.893 590.809C517.04 584.165 517.208 577.522 517.4 570.879C517.5 567.365 517.59 563.851 517.655 560.335C517.728 556.406 517.846 552.479 517.967 548.551C517.982 547.393 517.996 546.236 518.011 545.044C518.346 536.114 521.126 531.702 527.461 525.648C539.033 518.136 556.068 516.654 569.302 513.805C575.503 512.455 581.688 511.036 587.875 509.625C596.563 507.645 605.261 505.721 613.98 503.883C615.674 503.524 617.367 503.165 619.061 502.806C622.336 502.112 625.613 501.43 628.892 500.752C630.398 500.434 631.904 500.116 633.41 499.797C634.43 499.591 634.43 499.591 635.47 499.381C639.741 498.465 643.411 497.522 647 495C650.731 489.131 652.22 482.102 653.832 475.418C654.073 474.441 654.314 473.465 654.562 472.459C655.064 470.412 655.562 468.364 656.056 466.315C656.815 463.176 657.593 460.042 658.373 456.908C658.86 454.912 659.347 452.915 659.832 450.918C660.065 449.983 660.298 449.047 660.539 448.083C660.85 446.776 660.85 446.776 661.167 445.442C661.353 444.679 661.538 443.915 661.729 443.129C662.028 440.782 661.766 439.226 661 437C659.076 435.076 655.625 435.853 653.082 435.852C643.908 435.879 634.822 436.589 625.687 437.375C623.169 437.584 620.65 437.792 618.131 437.999C616.457 438.137 614.783 438.276 613.109 438.416C605.889 439.017 598.664 439.547 591.437 440.062C583.325 440.652 575.223 441.303 567.125 442.062C565.84 442.182 565.84 442.182 564.529 442.303C563.738 442.38 562.947 442.456 562.133 442.535C561.451 442.601 560.769 442.667 560.067 442.735C557.938 442.981 557.938 442.981 555.619 443.498C552.723 444.053 549.898 444.296 546.957 444.5C545.221 444.624 545.221 444.624 543.451 444.75C542.25 444.833 541.049 444.915 539.812 445C529.181 445.733 529.181 445.733 518.581 446.816C509.646 447.452 500.844 446.565 491.949 445.758C490.485 445.628 489.021 445.498 487.558 445.369C484.494 445.097 481.43 444.823 478.367 444.546C474.502 444.198 470.637 443.854 466.772 443.511C437.696 440.933 437.696 440.933 425.174 439.596C419.976 439.052 414.783 438.737 409.562 438.5C402.781 438.192 396.064 437.641 389.312 436.938C374.895 434.575 374.895 434.575 362 437ZM383 530C382.919 531.624 382.861 533.25 382.812 534.875C382.777 535.78 382.743 536.685 382.707 537.617C382.804 538.404 382.9 539.19 383 540C386.224 542.149 387.267 542.383 391 542C393.157 540.244 393.157 540.244 393.265 538.125C393.26 537.424 393.255 536.723 393.25 536C393.255 535.299 393.26 534.598 393.265 533.875C393.157 531.756 393.157 531.756 391 530C388.311 529.73 385.708 529.913 383 530ZM631 532C630.719 534.175 630.719 534.175 630.812 536.562C630.819 537.368 630.825 538.174 630.832 539.004C630.784 540.999 630.784 540.999 632 542C637.025 541.715 637.025 541.715 641 539C641.327 536.285 641.131 533.748 641 531C639.829 529.607 639.829 529.607 636.562 529.812C632.949 529.604 632.949 529.604 631 532ZM421 539C420.762 541.296 420.762 541.296 420.75 543.938C420.724 544.833 420.698 545.729 420.672 546.652C420.78 547.427 420.888 548.202 421 549C423.77 551.315 423.77 551.315 426.625 550.688C428.935 550.226 428.935 550.226 430 549C430.238 546.933 430.238 546.933 430.25 544.562C430.276 543.759 430.301 542.956 430.328 542.129C430.22 541.426 430.111 540.724 430 540C427.364 538.243 423.723 536.277 421 539ZM593 540C592.56 542.135 592.56 542.135 592.687 544.5C592.691 545.294 592.695 546.088 592.699 546.906C592.818 549.217 592.818 549.217 595 551C599.503 550.647 599.503 550.647 603 548C603.317 546.09 603.317 546.09 603.25 544C603.255 543.299 603.26 542.598 603.265 541.875C603.157 539.756 603.157 539.756 601 538C597.267 537.617 596.224 537.851 593 540ZM460 548C459.8 550.068 459.8 550.068 459.812 552.438C459.798 553.241 459.784 554.044 459.769 554.871C459.798 557.216 459.798 557.216 462 559C465.542 559.25 465.542 559.25 469 559C470.588 557.411 470.208 555.753 470.25 553.562C470.276 552.759 470.301 551.956 470.328 551.129C470.22 550.426 470.111 549.724 470 549C467.237 547.158 462.849 545.151 460 548ZM554 549C553.757 551.44 553.757 551.44 553.875 554.125C553.893 555.035 553.911 555.945 553.93 556.883C553.953 557.581 553.976 558.28 554 559C558.621 559.356 558.621 559.356 562.937 558C564.673 554.734 564.18 551.656 564 548C560.346 546.173 556.91 546.09 554 549ZM386 575C385.762 577.067 385.762 577.067 385.75 579.438C385.724 580.241 385.698 581.044 385.672 581.871C385.78 582.574 385.888 583.276 386 584C389.222 586.148 390.278 586.294 394 586C395.588 584.411 395.208 582.753 395.25 580.562C395.276 579.759 395.301 578.956 395.328 578.129C395.22 577.426 395.111 576.724 395 576C392.364 574.243 388.723 572.277 386 575ZM628 576C627.682 577.91 627.682 577.91 627.75 580C627.745 580.701 627.74 581.402 627.734 582.125C627.843 584.244 627.843 584.244 630 586C632.774 586.356 634.379 586.364 636.812 584.938C638.647 581.944 638.311 579.422 638 576C636.115 573.684 636.115 573.684 633 573.75C629.885 573.684 629.885 573.684 628 576ZM422 584C421.631 587.035 421.607 589.968 422 593C423.521 595.288 423.521 595.288 426 596C429.323 595.766 429.323 595.766 432 594C432.484 588.78 432.484 588.78 430.875 584C428.277 582.615 424.289 581.711 422 584ZM592 585C591.757 587.44 591.757 587.44 591.875 590.125C591.893 591.035 591.911 591.945 591.93 592.883C591.953 593.581 591.976 594.28 592 595C594.851 595.767 594.851 595.767 598 596C599.785 594.871 599.785 594.871 601 593C601.398 590.753 601.398 590.753 601.25 588.375C601.234 587.578 601.219 586.782 601.203 585.961C601.208 583.998 601.208 583.998 600 583C595.501 582.533 595.501 582.533 592 585ZM461 593C460.8 595.068 460.8 595.068 460.812 597.438C460.798 598.241 460.784 599.044 460.769 599.871C460.798 602.216 460.798 602.216 463 604C466 604.333 466 604.333 469 604C471.157 602.244 471.157 602.244 471.265 600.125C471.26 599.424 471.255 598.723 471.25 598C471.255 597.299 471.26 596.598 471.265 595.875C471.157 593.756 471.157 593.756 469 592C464.689 591.417 464.689 591.417 461 593ZM553 593C552.973 594.646 552.953 596.292 552.937 597.938C552.926 598.854 552.914 599.771 552.902 600.715C552.74 602.966 552.74 602.966 554 604C558.031 604.263 559.559 604.294 563 602C563.401 599.829 563.401 599.829 563.25 597.438C563.234 596.632 563.219 595.826 563.203 594.996C563.212 593.002 563.212 593.002 562 592C557.349 591.695 557.349 591.695 553 593Z" fill="black"/>
<path d="M341 555C341.99 555.495 341.99 555.495 343 556C343.575 557.86 343.575 557.86 344.043 560.32C344.226 561.236 344.409 562.152 344.597 563.096C344.792 564.096 344.987 565.095 345.187 566.125C347.508 577.374 350.57 588.25 354.093 599.176C354.999 601.997 355.879 604.826 356.758 607.656C364.886 633.461 379.38 649.975 401 666C401.91 666.701 402.82 667.402 403.758 668.125C432.502 689.595 478.991 718.035 516.812 714.318C559.566 708.107 603.494 683.743 635.469 655.354C637.018 653.984 638.584 652.637 640.152 651.289C667.512 627.457 673.189 589.834 681 556C681.66 556 682.32 556 683 556C683.193 557.302 683.387 558.604 683.586 559.945C683.848 561.672 684.112 563.398 684.375 565.125C684.564 566.409 684.564 566.409 684.758 567.719C685.469 572.344 686.397 576.585 688 581C688.571 583.039 689.132 585.081 689.687 587.125C694.055 602.405 699.263 617.084 707 631C707.326 631.589 707.652 632.178 707.988 632.785C712.453 640.721 717.562 647.562 724 654C724.523 654.523 725.047 655.047 725.586 655.586C728.343 658.099 731.165 659.578 734.562 661C740.136 663.357 743.325 666.264 745.687 671.859C747.945 676.459 750.851 678.46 755.187 681C756.531 681.838 757.87 682.682 759.207 683.531C759.855 683.942 760.503 684.354 761.17 684.777C765.467 687.648 770.645 691.29 773 696C773.651 703.553 771.977 708.226 767.293 714.164C764.939 716.855 762.492 719.439 760 722C759.405 722.615 758.811 723.23 758.198 723.864C750.191 732.112 742.11 739.963 733 747C731.948 747.841 730.897 748.683 729.847 749.527C715.833 760.753 701.24 771.118 686.057 780.7C684.036 781.977 682.024 783.265 680.012 784.555C662.945 795.434 645.032 804.836 627 814C626.032 814.493 625.065 814.985 624.068 815.493C592.977 831.191 558.398 845.779 524.078 852.379C521.103 852.84 521.103 852.84 519 854C505.499 855.426 493.757 852.041 481 848C479.765 847.614 478.529 847.228 477.257 846.83C404.578 823.999 333.723 786.516 277.254 735.031C275.246 733.222 273.196 731.485 271.125 729.75C267.446 726.537 264.088 723.06 260.75 719.5C260.242 718.966 259.734 718.432 259.211 717.882C254.493 712.769 250.416 707.655 250.5 700.375C250.653 697.078 250.888 695.224 252.375 692.25C257.127 688.176 262.29 684.745 267.547 681.359C268.336 680.849 269.124 680.338 269.937 679.812C270.648 679.365 271.358 678.918 272.09 678.457C275.801 675.626 277.663 671.902 279.742 667.781C282.779 663.48 286.963 661.45 291.687 659.438C313.105 648.912 323.935 619.043 331.249 597.857C335.852 583.889 338.415 569.449 341 555ZM376.756 662.355C376.033 663.069 375.311 663.784 374.566 664.52C373.277 665.768 373.277 665.768 371.961 667.042C371.491 667.512 371.021 667.983 370.537 668.468C368.876 670.123 367.189 671.747 365.495 673.369C362.272 676.465 359.085 679.594 355.91 682.74C354.584 684.049 353.253 685.353 351.916 686.652C349.962 688.551 348.024 690.467 346.09 692.387C345.492 692.962 344.894 693.537 344.278 694.13C340.851 697.575 339.106 699.911 339 705C339.833 707.5 339.833 707.5 342 709C345.284 709.92 345.284 709.92 349 709C351.141 707.57 352.898 705.979 354.741 704.181C356.968 702.031 359.254 699.972 361.57 697.918C367.22 692.846 372.666 687.589 378.062 682.25C378.537 681.79 379.012 681.329 379.502 680.855C380.897 679.502 382.279 678.134 383.66 676.766C384.471 675.969 385.282 675.173 386.117 674.353C388.176 671.78 388.819 670.271 389 667C387.08 663.621 385.876 662.262 382.125 661.139C379.01 660.711 379.01 660.711 376.756 662.355ZM637.75 663.188C634.81 665.646 634.81 665.646 634.631 668.442C635.082 671.571 635.918 672.531 638.149 674.733C638.837 675.424 639.525 676.114 640.234 676.826C640.987 677.556 641.74 678.287 642.515 679.039C643.283 679.802 644.05 680.564 644.841 681.35C647.299 683.787 649.774 686.206 652.25 688.625C653.903 690.262 655.556 691.9 657.207 693.539C660.243 696.541 663.279 699.542 666.333 702.526C666.946 703.126 667.559 703.726 668.19 704.344C672.247 708.073 672.247 708.073 677.5 709.438C681.011 709.267 681.011 709.267 683.5 707.312C685.225 705.137 685.225 705.137 684.917 702.701C683.701 699.119 681.503 697.021 678.828 694.473C678.309 693.961 677.789 693.45 677.254 692.923C675.595 691.293 673.923 689.677 672.25 688.062C670.593 686.449 668.94 684.832 667.289 683.213C666.263 682.208 665.233 681.207 664.2 680.211C660.874 676.975 657.939 673.578 655 670C653.637 668.714 652.245 667.458 650.812 666.25C648.801 664.542 646.867 662.867 645 661C640.9 660.628 640.9 660.628 637.75 663.188Z" fill="black"/>
<path d="M643 450C643.33 450.33 643.66 450.66 644 451C643.205 458.461 641.381 465.73 639.509 472.984C639.07 474.721 638.682 476.471 638.305 478.223C637.52 481.028 636.814 482.723 635 485C632.473 485.938 632.473 485.938 629.347 486.543C628.18 486.78 627.012 487.018 625.809 487.263C624.552 487.506 623.295 487.749 622 488C620.059 488.415 618.119 488.83 616.18 489.251C613.455 489.84 610.728 490.415 608.001 490.989C605.823 491.448 603.646 491.909 601.469 492.37C595.379 493.659 589.288 494.944 583.191 496.203C575.527 497.788 567.919 499.458 560.344 501.435C556.353 502.461 552.355 503.349 548.312 504.152C530.644 507.165 530.644 507.165 516.125 516.938C514 519 514 519 511.25 519.25C508.077 518.03 506.445 516.836 503.875 514.688C494.757 507.235 482.074 505.693 470.812 503.188C469.275 502.841 467.737 502.494 466.2 502.147C448.112 498.08 429.973 494.247 411.812 490.523C410.708 490.296 409.603 490.069 408.465 489.835C406.438 489.418 404.409 489.006 402.38 488.597C399.913 488.092 397.457 487.551 395 487C393.859 486.769 392.718 486.539 391.543 486.301C388.558 484.774 387.762 483.344 386.658 480.22C385.29 475.603 384.006 470.978 382.812 466.312C382.54 465.281 382.267 464.249 381.986 463.186C380.889 458.949 380 455.403 380 451C389.321 450.803 398.506 451.417 407.781 452.242C409.285 452.372 410.79 452.502 412.294 452.631C415.434 452.902 418.574 453.177 421.714 453.454C425.676 453.803 429.638 454.147 433.6 454.489C448.374 455.764 463.146 457.052 477.896 458.575C478.557 458.643 479.218 458.711 479.898 458.781C481.432 458.941 482.966 459.104 484.499 459.27C504.473 461.374 524.924 460.204 544.875 458.373C549.861 457.917 554.851 457.501 559.84 457.082C567.944 456.4 576.049 455.712 584.152 455.016C591.623 454.374 599.094 453.738 606.566 453.109C608.959 452.907 611.352 452.705 613.745 452.503C615.23 452.377 616.715 452.253 618.201 452.129C620.238 451.959 622.275 451.786 624.312 451.613C625.443 451.518 626.573 451.423 627.738 451.325C641.756 449.927 641.756 449.927 643 450Z" fill="black"/>
<path d="M476.279 167.612C477.123 167.607 477.967 167.601 478.837 167.596C481.631 167.583 484.425 167.591 487.219 167.602C489.158 167.6 491.097 167.597 493.036 167.593C497.101 167.588 501.166 167.595 505.232 167.609C510.448 167.626 515.663 167.616 520.879 167.598C524.883 167.587 528.888 167.591 532.892 167.599C534.816 167.601 536.739 167.598 538.662 167.591C541.349 167.584 544.034 167.595 546.721 167.612C547.519 167.606 548.317 167.6 549.139 167.593C554.462 167.655 554.462 167.655 556.995 169.28C560.727 175.669 556.886 185.776 555.25 192.375C554.694 194.702 554.139 197.028 553.586 199.355C553.313 200.49 553.041 201.625 552.761 202.794C549.859 215.023 547.502 227.332 545.482 239.735C544.511 245.566 543.225 251.243 541.752 256.967C540.513 261.964 539.544 267.01 538.562 272.062C538.133 274.24 537.704 276.417 537.273 278.594C537.062 279.665 536.85 280.736 536.632 281.84C535.152 289.24 533.574 296.62 532 304C529.824 304.711 529.824 304.711 527 305C524.394 303.602 524.394 303.602 521.812 301.625C520.953 300.978 520.093 300.331 519.207 299.664C518.114 298.84 518.114 298.84 517 298C513.922 296.461 511.302 296.232 508 297C505.321 298.631 502.889 300.426 500.43 302.371C497.844 304.105 496.098 304.797 493 305C490.406 302.406 490.364 300.64 489.703 297.043C489.47 295.8 489.236 294.557 488.996 293.276C488.874 292.611 488.753 291.945 488.628 291.26C487.983 287.723 487.312 284.192 486.644 280.66C486.508 279.936 486.372 279.211 486.232 278.465C484.887 271.333 483.424 264.228 481.937 257.125C480.125 248.445 478.345 239.761 476.625 231.062C474.578 220.756 472.452 210.466 470.298 200.181C469.934 198.441 469.57 196.701 469.208 194.96C468.699 192.516 468.186 190.072 467.672 187.629C467.518 186.887 467.364 186.146 467.205 185.382C466.424 181.585 466.424 181.585 465 178C464.547 171.771 464.547 171.771 465.998 169.302C469.191 167.225 472.592 167.584 476.279 167.612Z" fill="black"/>
<path d="M555 261C575.804 264.125 597.313 274.347 614 287C615.023 287.744 616.047 288.488 617.101 289.254C629.475 298.369 640.77 308.672 650 321C650.396 321.521 650.793 322.043 651.201 322.58C660.158 334.416 667.339 347.005 673.5 360.5C673.838 361.229 674.177 361.959 674.526 362.71C676.651 367.519 677.575 371.756 678 377C650.926 374.291 624.272 365.109 600 353C599.125 352.565 598.25 352.131 597.349 351.683C582.09 344.039 567.836 335.4 554.094 325.27C552.27 323.932 550.424 322.624 548.531 321.387C546.562 320 546.562 320 544 317C543.889 314.974 543.889 314.974 544.199 312.621C544.314 311.731 544.43 310.842 544.548 309.925C545.367 304.621 546.266 299.339 547.25 294.062C547.467 292.888 547.685 291.714 547.909 290.505C549.804 280.531 552.207 270.757 555 261Z" fill="black"/>
<path d="M469 262C473.855 280.134 477.338 298.597 481 317C446.034 344.449 391.441 378.134 345 376C346.317 368.768 348.673 362.664 351.875 356.062C352.357 355.063 352.838 354.063 353.335 353.033C358.078 343.439 363.728 334.654 370 326C370.624 325.125 371.248 324.249 371.89 323.348C392.796 295.288 422.313 275.689 455 264C455.792 263.699 456.584 263.397 457.4 263.086C464.625 260.448 464.625 260.448 469 262Z" fill="black"/>
<path d="M705 404C708 404.188 708 404.188 711 405C713.303 408.455 713.544 410.59 714.062 414.688C714.218 415.867 714.374 417.046 714.535 418.262C715.845 430.541 716.164 442.811 716.13 455.148C716.125 457.526 716.13 459.904 716.137 462.281C716.136 463.823 716.135 465.365 716.133 466.906C716.135 467.602 716.137 468.298 716.139 469.015C716.08 481.399 716.08 481.399 713.312 485.5C710.378 487.403 708.433 487.113 705 487C704.99 486.226 704.979 485.453 704.969 484.655C704.87 477.344 704.768 470.032 704.66 462.72C704.605 458.962 704.552 455.203 704.503 451.445C704.455 447.814 704.402 444.183 704.347 440.552C704.327 439.17 704.308 437.789 704.291 436.407C704.266 434.464 704.236 432.521 704.205 430.578C704.19 429.474 704.174 428.371 704.158 427.234C703.989 423.773 703.52 420.424 703 417C702.892 415.064 702.826 413.126 702.812 411.188C702.798 410.253 702.784 409.318 702.769 408.355C703 406 703 406 705 404Z" fill="black"/>
<path d="M316.562 404.938C317.697 404.958 318.831 404.979 320 405C320.096 421.506 319.814 438.006 319.536 454.509C319.475 458.184 319.415 461.858 319.355 465.533C319.239 472.689 319.12 479.844 319 487C313.289 487.195 313.289 487.195 310.687 485.438C307.078 480.225 307.841 473.055 307.832 466.902C307.828 466.039 307.824 465.175 307.819 464.285C307.81 461.502 307.81 458.72 307.812 455.938C307.812 454.994 307.812 454.051 307.812 453.078C307.856 405.09 307.856 405.09 316.562 404.938Z" fill="black"/>
<path d="M470 168C497.72 168 525.44 168 554 168C554 168.33 554 168.66 554 169C526.28 169 498.56 169 470 169C470 168.67 470 168.34 470 168Z" fill="black"/>
<path d="M470 167C497.72 167 525.44 167 554 167C554 167.33 554 167.66 554 168C526.28 168 498.56 168 470 168C470 167.67 470 167.34 470 167Z" fill="black"/>
<path d="M334 422C334.33 422 334.66 422 335 422C335 445.43 335 468.86 335 493C334.67 493 334.34 493 334 493C334 469.57 334 446.14 334 422Z" fill="black"/>
<path d="M333 423C333.33 423 333.66 423 334 423C334 446.1 334 469.2 334 493C333.67 493 333.34 493 333 493C333 469.9 333 446.8 333 423Z" fill="black"/>
<path d="M690 423C690.33 423 690.66 423 691 423C691 446.1 691 469.2 691 493C690.67 493 690.34 493 690 493C690 469.9 690 446.8 690 423Z" fill="black"/>
<path d="M689 425C689.33 425 689.66 425 690 425C690 447.44 690 469.88 690 493C689.67 493 689.34 493 689 493C689 470.56 689 448.12 689 425Z" fill="black"/>
</svg>
